<svg xmlns="http://www.w3.org/2000/svg" width="10" height="10" viewBox="0 0 10 10">
    <g fill="#FCFCFC" fill-rule="nonzero">
        <path d="M-5.211-4.878c-5.177 5.36-5.027 13.912.333 19.09 5.36 5.176 13.912 5.026 19.09-.334 5.176-5.36 5.026-13.912-.334-19.09-5.36-5.176-13.912-5.026-19.09.334zm18.703 18.062C8.71 18.137.77 18.275-4.184 13.492-9.137 8.71-9.275.77-4.492-4.184.29-9.137 8.23-9.275 13.184-4.492c4.953 4.782 5.091 12.723.308 17.676z"/>
        <path d="M8.385.717L4.949 4.275 1.391.839a.513.513 0 1 0-.713.739l3.577 3.454L.82 8.59a.513.513 0 1 0 .74.713l3.454-3.577L8.59 9.181a.513.513 0 1 0 .713-.74L5.707 4.97 9.16 1.39A.513.513 0 0 0 9.15.665c-.232-.149-.576-.143-.764.052z"/>
    </g>
</svg>
