<svg xmlns="http://www.w3.org/2000/svg" width="22" height="15" viewBox="0 0 22 15">
    <path fill="#E22F22" fill-rule="evenodd" d="M.085 14.1l7.17-6.964L.065.92 0 1.33V13.67c0 .086.028.229.085.429zm8.083-7.8l.954.771 1.889 1.565 1.888-1.565.954-.771L21.067.064A1.19 1.19 0 0 0 20.685 0H1.315a.906.906 0 0 0-.36.064L8.168 6.3zM1.315 15h19.37c.127 0 .247-.021.36-.064l-7.234-7.007-2.8 2.292-2.8-2.292-7.235 7.007a.952.952 0 0 0 .34.064zm20.621-.9c.043-.157.064-.3.064-.429V1.33a1.29 1.29 0 0 0-.064-.408l-7.17 6.215 7.17 6.964z"/>
</svg>
