<svg xmlns="http://www.w3.org/2000/svg" xmlns:xlink="http://www.w3.org/1999/xlink" width="37" height="23" viewBox="0 0 37 23">
    <defs>
        <path id="sr0y00vl9a" d="M0 0.168L11.681 0.168 11.681 19.702 0 19.702z"/>
        <path id="89pm26jptc" d="M0.234 0.3L34.766 0.3 34.766 14.65 0.234 14.65z"/>
    </defs>
    <g fill="none" fill-rule="evenodd">
        <g>
            <g>
                <g transform="translate(-1325 -1603) translate(1325 1603) translate(0 1)">
                    <mask id="lilu9ky9eb" fill="#fff">
                        <use xlink:href="#sr0y00vl9a"/>
                    </mask>
                    <path fill="#FFF" d="M11.68 10.346L.049.168C.016.28 0 .402 0 .525v19.177l11.68-9.356z" mask="url(#lilu9ky9eb)"/>
                </g>
                <path fill="#FFF" d="M24.72 13.005l-3.848 3.29c-1.074.916-2.66.916-3.734 0L13.285 13 1 22.603c.249.255.59.397.949.397H36.05c.364 0 .7-.142.949-.397l-12.28-9.598zM36.951 1L25 10.904 37 20V1.348c0-.12-.016-.233-.049-.348" transform="translate(-1325 -1603) translate(1325 1603)"/>
                <g transform="translate(-1325 -1603) translate(1325 1603) translate(1)">
                    <mask id="0rixkczf9d" fill="#fff">
                        <use xlink:href="#89pm26jptc"/>
                    </mask>
                    <path fill="#FFF" d="M.234.3l16.42 14.03c.499.43 1.199.424 1.698 0L34.766.3H.234z" mask="url(#0rixkczf9d)"/>
                </g>
            </g>
        </g>
    </g>
</svg>
