<svg xmlns="http://www.w3.org/2000/svg" width="29" height="35" viewBox="0 0 29 35">
    <g fill="#999" fill-rule="evenodd">
        <path d="M15.744 3.086C18.04.06 21.23.046 21.23.046s.474 2.844-1.806 5.584c-2.434 2.925-5.2 2.446-5.2 2.446s-.52-2.301 1.52-4.99zM14.515 10.068c1.181 0 3.372-1.623 6.224-1.623 4.91 0 6.84 3.493 6.84 3.493s-3.777 1.932-3.777 6.618c0 5.286 4.706 7.108 4.706 7.108s-3.29 9.258-7.732 9.258c-2.041 0-3.627-1.375-5.778-1.375-2.19 0-4.365 1.426-5.781 1.426-4.057 0-9.183-8.782-9.183-15.842 0-6.945 4.339-10.589 8.408-10.589 2.645 0 4.698 1.526 6.073 1.526z"/>
    </g>
</svg>
