<svg xmlns="http://www.w3.org/2000/svg" width="138" height="142" viewBox="0 0 138 142">
    <g fill="#000" fill-rule="nonzero">
        <path d="M44.775 19.887c.908.454 1.815.68 2.95.68 3.857 0 6.806-3.176 6.806-6.806s-3.176-6.807-6.806-6.807c-3.858 0-7.034 3.177-6.807 6.807 0 2.042.68 2.95.68 2.95l-6.806 6.806L12.102.828S.533 10.358.533 26.694c0 8.621 3.176 16.79 9.075 23.142v16.11H5.07v4.537h27.454v-4.537h-4.538V60.5c2.27.454 4.538.68 7.034.68 15.882 0 25.865-11.57 25.865-11.57L38.195 26.92l6.58-7.033zm2.95-8.395c1.361 0 2.269.908 2.269 2.269 0 1.361-.908 2.269-2.27 2.269-1.36 0-2.268-.908-2.268-2.27 0-1.36 1.134-2.268 2.269-2.268zM23.22 65.946h-9.075V54.147c2.723 2.042 5.899 3.857 9.075 4.992v6.807zm30.858-16.563c-5.446 4.537-12.253 7.26-19.286 7.26-7.941 0-15.429-3.176-21.1-8.622-5.673-5.445-8.623-13.16-8.623-21.1 0-7.261 2.496-14.068 7.26-19.286l41.749 41.748zM137.8 132.424v-50.37H69.052v50.37H87.43v4.538h-4.537v4.538h41.294v-4.538h-4.538v-4.538H137.8zM73.59 86.593h59.445v31.991H73.59V86.593zm41.294 50.37H91.968v-4.539h22.916v4.538zM73.59 127.66v-4.538h59.445v4.538H73.59zM64.514 68.214h4.538v4.538h-4.538zM55.212 68.214h4.538v4.538h-4.538zM73.59 68.214h4.538v4.538H73.59zM11.65 77.29H7.11v52.865H59.75v-4.764h-48.1zM117.153 63.677h4.538V11.038H69.052v4.538h48.101z"/>
    </g>
</svg>
