<svg xmlns="http://www.w3.org/2000/svg" width="178" height="187" viewBox="0 0 178 187">
    <g fill="#000" fill-rule="nonzero">
        <path d="M160.272 60.3c-3.606-12.92-10.216-25.24-19.531-34.856C125.116 9.22 104.383.204 81.847.204c-22.235 0-43.569 9.315-58.592 25.24C8.832 40.468.719 60.3.719 81.334c0 21.033 8.113 40.864 22.536 55.888 15.324 15.925 36.658 25.24 58.592 25.24 6.01 0 12.02-.601 18.03-2.103V186.5H178V60.3h-17.728zm11.718 24.038h-66.104V66.309h66.104v18.029zM6.728 78.328c.601-17.127 7.212-33.653 18.63-46.573 4.807 4.507 9.916 8.413 15.625 11.718-3.005 10.517-5.108 22.235-5.108 34.555H6.728v.3zm39.663-31.85c10.216 4.807 21.034 7.812 32.452 8.113v23.737H41.884c.3-11.418 1.803-22.235 4.507-31.85zm38.461 37.86h15.024v25.54c-4.808-1.201-9.916-1.802-15.024-1.802V84.338zm0 29.747c5.108.3 10.216.902 15.024 2.103v32.151c-4.808 4.508-9.916 7.212-15.024 8.113v-42.367zM99.876 60.3v18.028H84.852V54.591c11.418-.3 22.536-3.005 32.452-8.113 1.202 4.207 2.103 9.014 3.004 13.822H99.876zM84.852 48.58V6.514c12.62 1.803 24.038 15.024 30.649 34.255-9.315 4.807-19.832 7.512-30.649 7.812zm-6.01-42.067v42.067c-10.816-.3-21.333-3.005-30.648-7.812 6.61-19.23 17.728-32.452 30.649-34.255zm0 77.824v23.738c-11.417.3-22.535 3.305-32.45 8.112-2.705-9.615-4.207-20.432-4.508-31.85h36.959zm0 29.747v42.067c-12.92-1.803-24.037-15.024-30.648-34.254 9.315-4.808 19.832-7.512 30.649-7.813zm27.044-23.738h66.104v66.105h-66.104V90.347zM153.962 60.3h-27.644c-.901-5.71-2.103-11.418-3.606-16.526 5.71-3.306 10.817-7.212 15.625-11.719 7.212 8.113 12.62 17.728 15.625 28.245zM134.13 27.548c-4.206 3.906-8.413 7.211-13.22 10.216-4.508-12.32-10.517-21.935-17.729-28.545 11.418 3.305 22.236 9.615 30.95 18.329zM60.814 9.218c-7.211 6.611-13.521 16.527-17.728 28.546-4.808-3.005-9.315-6.31-13.521-10.517 9.014-8.413 19.53-14.723 31.25-18.028zM6.728 84.339h28.846c.3 12.62 2.103 24.339 5.108 34.555-5.709 3.305-10.817 7.211-15.625 11.718C13.94 117.991 7.33 101.465 6.728 84.338zm22.837 50.78c4.206-3.906 8.713-7.511 13.521-10.516 4.507 12.019 10.517 21.935 17.728 28.545-11.719-3.005-22.235-9.315-31.25-18.029zm76.32 45.372v-18.028h66.105v18.028h-66.104z"/>
        <path d="M129.924 72.319h18.029v6.01h-18.029zM135.933 168.471h6.01v6.01h-6.01zM148.553 122.799c3.306-2.704 5.409-6.911 5.409-11.418 0-8.414-6.61-15.024-15.024-15.024-8.413 0-15.024 6.61-15.024 15.024 0 4.507 2.104 8.714 5.409 11.418-8.113 3.606-13.822 11.719-13.822 21.334h6.01c0-9.615 7.812-17.428 17.427-17.428 9.615 0 17.428 7.813 17.428 17.428h6.01c0-9.615-5.71-17.728-13.823-21.334zm-9.615-20.432c5.108 0 9.014 3.906 9.014 9.014 0 5.108-3.906 9.014-9.014 9.014-5.108 0-9.014-3.906-9.014-9.014 0-5.108 3.906-9.014 9.014-9.014z"/>
    </g>
</svg>
