<svg xmlns="http://www.w3.org/2000/svg" width="205" height="189" viewBox="0 0 205 189">
    <g fill="#000" fill-rule="nonzero">
        <path d="M76 100h5v5h-5zM67 100h5v5h-5zM85 100h5v5h-5zM129.431 68H134V43H81v4.538h48.431zM43.008 68.373c4.447-2.737 7.356-7.527 7.356-13.172a15.332 15.332 0 0 0-15.397-15.396A15.332 15.332 0 0 0 19.571 55.2c0 5.645 2.908 10.435 7.356 13.172-11.29 3.422-19.33 13.857-19.33 26.174 0 15.054 13 13.515 17.79 13.857h18.99c9.066 0 17.79-1.027 17.79-13.857.171-12.317-8.04-22.752-19.16-26.174zm-20.015-13c0-6.672 5.303-11.976 11.974-11.976 6.672 0 11.975 5.304 11.975 11.975 0 6.672-5.303 11.975-11.975 11.975-6.5-.171-11.974-5.474-11.974-11.975zm21.554 49.61H25.56c-6.159-.172-14.37.512-14.37-10.436 0-13.172 10.777-23.95 23.95-23.95 13.172 0 23.95 10.778 23.95 23.95-.172 8.896-4.62 10.435-14.542 10.435zM105.106 2.34H53.785c-4.79 0-8.553 3.764-8.553 8.554v17.107c0 4.79 3.763 8.554 8.553 8.554h2.053l-3.08 12.488 18.647-12.488h33.7c4.79 0 8.554-3.764 8.554-8.554V10.894c0-4.79-3.934-8.553-8.553-8.553zm5.132 25.661c0 2.908-2.224 5.132-5.132 5.132H70.379l-12.146 8.04 2.053-8.04h-6.501c-2.908 0-5.132-2.224-5.132-5.132V10.894c0-2.908 2.224-5.132 5.132-5.132h51.32c2.909 0 5.133 2.224 5.133 5.132v17.107z"/>
        <path d="M79.445 12.605c-3.763 0-6.842 3.08-6.842 6.843s3.079 6.842 6.842 6.842c3.764 0 6.843-3.079 6.843-6.842 0-3.764-3.08-6.843-6.843-6.843zm0 10.264a3.431 3.431 0 0 1-3.421-3.421 3.431 3.431 0 0 1 3.421-3.422 3.431 3.431 0 0 1 3.422 3.422 3.431 3.431 0 0 1-3.422 3.421zM98.263 12.605c-3.764 0-6.843 3.08-6.843 6.843s3.08 6.842 6.843 6.842c3.764 0 6.843-3.079 6.843-6.842 0-3.764-3.08-6.843-6.843-6.843zm0 10.264a3.431 3.431 0 0 1-3.421-3.421 3.431 3.431 0 0 1 3.421-3.422 3.431 3.431 0 0 1 3.421 3.422 3.431 3.431 0 0 1-3.421 3.421zM60.628 12.605c-3.764 0-6.843 3.08-6.843 6.843s3.08 6.842 6.843 6.842 6.843-3.079 6.843-6.842c0-3.764-3.08-6.843-6.843-6.843zm0 10.264a3.431 3.431 0 0 1-3.422-3.421 3.431 3.431 0 0 1 3.422-3.422 3.431 3.431 0 0 1 3.421 3.422 3.431 3.431 0 0 1-3.421 3.421z"/>
        <path stroke="#000" d="M98.526 77C93.818 77 90 80.87 90 85.643v90.714c0 4.772 3.818 8.643 8.526 8.643h44.948c4.707 0 8.526-3.87 8.526-8.643v-26.895s.001-.924-.911-.924-.91.924-.91.924v16.615H91.82V89.462h58.357v16.615s-.052.923.91.923c.964 0 .912-.923.912-.923V85.643c0-4.772-3.819-8.643-8.526-8.643H98.526zm.138 2h44.672c3.708 0 6.664 3.095 6.664 6.976V88H92v-2.024C92 82.095 94.956 79 98.664 79zm31.057 36c-2.046 0-3.721 1.688-3.721 3.749v17.5c0 2.062 1.675 3.751 3.72 3.751h26.558c2.045 0 3.722-1.69 3.722-3.75v-17.501c0-2.061-1.677-3.749-3.722-3.749H129.72zm.142 2h26.273c1.048 0 1.864.834 1.864 1.906V120l-15.385 9L128 120.451v-1.545c0-1.072.815-1.906 1.863-1.906zM158 122v14.122c0 1.056-.816 1.878-1.864 1.878h-26.273c-1.048 0-1.863-.822-1.863-1.878v-13.678l14.615 8.413L158 122zm-66 46h58v8.306c0 3.724-2.956 6.694-6.664 6.694H98.664c-3.708 0-6.664-2.97-6.664-6.694V168zm29.5 2c-3.027 0-5.5 2.473-5.5 5.5s2.473 5.5 5.5 5.5 5.5-2.473 5.5-5.5-2.473-5.5-5.5-5.5zm-1 2c1.943 0 3.5 1.557 3.5 3.5s-1.557 3.5-3.5 3.5a3.487 3.487 0 0 1-3.5-3.5c0-1.943 1.557-3.5 3.5-3.5z"/>
    </g>
</svg>
