<svg width="30" height="26" viewBox="0 0 30 26" xmlns="http://www.w3.org/2000/svg">
    <path d="M21.057 12.623a.937.937 0 0 0-.91.883c-.21 2.63-2.467 4.76-5.149 4.76s-4.934-2.13-5.143-4.76a.938.938 0 1 0-1.868.152c.262 3.292 2.837 5.97 6.076 6.409v3.473h-1.848a.938.938 0 0 0 0 1.877h5.572a.939.939 0 1 0 0-1.877h-1.848v-3.475c3.237-.443 5.813-3.116 6.076-6.407a.938.938 0 0 0-.958-1.035zm1.807-10.787a.938.938 0 0 0-.78 1.51c.679.902 1.044 2 1.044 3.129 0 1.047-.315 2.07-.906 2.935a.938.938 0 1 0 1.55 1.058 7.072 7.072 0 0 0 1.233-3.993c0-1.535-.496-3.03-1.42-4.256a.937.937 0 0 0-.72-.382zm-15.66 0a.937.937 0 0 0-.78.383 7.07 7.07 0 0 0-.194 8.249.938.938 0 1 0 1.55-1.058 5.2 5.2 0 0 1 .137-6.063.938.938 0 0 0-.714-1.51zm7.8-.628c-2.255 0-4.104 1.842-4.104 4.097v7.793c0 2.254 1.849 4.096 4.104 4.096a4.107 4.107 0 0 0 4.097-4.096V5.305a4.107 4.107 0 0 0-4.097-4.097zM27.557.004a.938.938 0 0 0-.774 1.411 10.194 10.194 0 0 1 1.342 5.06c0 1.648-.398 3.273-1.163 4.733a.938.938 0 0 0 1.645.902l.016-.03A12.062 12.062 0 0 0 28.41.49a.938.938 0 0 0-.852-.486zM2.417 0c-.03 0-.06 0-.092.004a.938.938 0 0 0-.732.485 12.06 12.06 0 0 0-.216 11.59.939.939 0 0 0 1.663-.87v-.001a10.197 10.197 0 0 1-1.163-4.733c0-1.775.461-3.519 1.342-5.06A.938.938 0 0 0 2.417 0z" fill="#FFF" fill-rule="evenodd"/>
</svg>
