<svg xmlns="http://www.w3.org/2000/svg" width="110" height="33" viewBox="0 0 110 33">
    <g fill="#1ED760">
        <path d="M16.5.055C7.415.055.051 7.419.051 16.504S7.415 32.953 16.5 32.953s16.449-7.364 16.449-16.45C32.949 7.42 25.585.056 16.5.056zm7.543 23.725c-.295.485-.927.636-1.41.341-3.864-2.36-8.726-2.893-14.452-1.585-.552.126-1.102-.22-1.227-.77-.126-.552.218-1.102.772-1.227 6.266-1.432 11.64-.816 15.977 1.832.483.295.636.925.34 1.409zm2.013-4.479c-.371.603-1.16.794-1.764.422-4.42-2.716-11.16-3.504-16.392-1.917-.677.205-1.394-.177-1.6-.854-.205-.678.178-1.393.854-1.6 5.975-1.812 13.402-.934 18.478 2.187.605.37.795 1.159.424 1.762zm.173-4.663c-5.302-3.149-14.048-3.438-19.11-1.902-.814.248-1.672-.212-1.92-1.025-.245-.813.213-1.672 1.026-1.919 5.81-1.764 15.47-1.422 21.574 2.2.73.434.97 1.379.538 2.108-.432.73-1.377.972-2.108.538z"/>
        <g>
            <path d="M7.09 7.777c-2.841-.678-3.346-1.153-3.346-2.151 0-.943.888-1.58 2.21-1.58 1.28 0 2.55.484 3.881 1.476.041.03.09.04.14.033.049-.008.094-.035.121-.077l1.387-1.954c.057-.08.041-.19-.035-.253C9.863 2 8.079 1.38 5.993 1.38c-3.066 0-5.21 1.84-5.21 4.473 0 2.824 1.85 3.822 5.041 4.594C8.543 11.075 9 11.599 9 12.536c0 1.04-.927 1.685-2.42 1.685-1.657 0-3.009-.557-4.523-1.868-.038-.031-.089-.047-.136-.045-.049.004-.096.028-.128.065l-1.555 1.85c-.065.077-.057.193.017.258 1.76 1.571 3.925 2.4 6.26 2.4 3.304 0 5.44-1.805 5.44-4.6.006-2.357-1.405-3.664-4.866-4.504zM19.437 4.976c-1.432 0-2.607.563-3.577 1.72v-1.3c0-.102-.083-.187-.187-.187h-2.544c-.102 0-.186.085-.186.187v14.457c0 .102.082.187.186.187h2.544c.102 0 .187-.085.187-.187V15.29c.968 1.088 2.145 1.619 3.577 1.619 2.661 0 5.356-2.05 5.356-5.966 0-3.919-2.695-5.967-5.356-5.967zm2.398 5.965c0 1.994-1.228 3.386-2.988 3.386-1.738 0-3.05-1.455-3.05-3.386 0-1.93 1.312-3.386 3.05-3.386 1.73 0 2.988 1.424 2.988 3.386zM31.698 4.976c-3.428 0-6.113 2.64-6.113 6.008 0 3.334 2.667 5.944 6.07 5.944 3.439 0 6.132-2.63 6.132-5.987.002-3.345-2.673-5.965-6.09-5.965zm0 9.373c-1.823 0-3.198-1.465-3.198-3.406 0-1.95 1.326-3.365 3.154-3.365 1.835 0 3.22 1.466 3.22 3.408 0 1.947-1.336 3.363-3.176 3.363zM45.108 5.207H42.31V2.345c0-.102-.083-.186-.187-.186h-2.542c-.102 0-.186.084-.186.186v2.862h-1.224c-.102 0-.185.085-.185.187V7.58c0 .102.083.187.185.187h1.224v5.655c0 2.284 1.137 3.443 3.38 3.443.912 0 1.67-.188 2.383-.593.057-.031.094-.094.094-.16v-2.083c0-.065-.033-.126-.088-.16-.055-.035-.124-.037-.18-.007-.49.245-.965.36-1.494.36-.815 0-1.18-.372-1.18-1.2V7.764h2.799c.102 0 .184-.085.184-.187V5.394c0-.102-.082-.187-.186-.187zM54.859 5.22v-.353c0-1.033.396-1.494 1.284-1.494.53 0 .957.106 1.434.265.06.018.12.01.167-.026.05-.035.077-.092.077-.15V1.315c0-.082-.053-.155-.132-.179-.505-.149-1.149-.304-2.113-.304-2.35 0-3.591 1.322-3.591 3.824v.539h-1.222c-.102 0-.187.084-.187.186v2.196c0 .102.085.187.187.187h1.222v8.723c0 .102.082.187.184.187h2.544c.102 0 .187-.085.187-.187V7.765h2.375l3.638 8.721c-.413.918-.82 1.098-1.374 1.098-.447 0-.919-.133-1.402-.396-.045-.026-.098-.03-.147-.014-.05.017-.09.053-.11.1l-.863 1.892c-.04.088-.006.194.08.24.9.486 1.714.695 2.717.695 1.878 0 2.915-.875 3.83-3.228l4.413-11.4c.021-.057.015-.122-.02-.173-.035-.051-.092-.08-.153-.08h-2.648c-.079 0-.151.05-.177.125l-2.713 7.747-2.97-7.751c-.027-.073-.096-.12-.172-.12h-4.345V5.22zM49.205 5.207h-2.543c-.103 0-.187.085-.187.187v11.094c0 .102.084.187.187.187h2.543c.102 0 .187-.085.187-.187V5.394c0-.102-.083-.187-.187-.187zM47.948.155c-1.007 0-1.825.815-1.825 1.823s.818 1.825 1.825 1.825c1.008 0 1.823-.817 1.823-1.825S48.954.155 47.948.155zM70.227 8.774c-1.006 0-1.79-.807-1.79-1.789 0-.982.794-1.8 1.8-1.8s1.79.808 1.79 1.79c0 .98-.794 1.8-1.8 1.8zm.01-3.41c-.917 0-1.61.73-1.61 1.621 0 .892.689 1.61 1.6 1.61.917 0 1.61-.728 1.61-1.62 0-.892-.689-1.61-1.6-1.61zm.397 1.794l.507.709h-.427l-.455-.65h-.391v.65h-.358V5.989h.837c.436 0 .723.224.723.6 0 .308-.179.494-.436.569zm-.303-.847h-.465v.595h.465c.232 0 .371-.113.371-.296 0-.195-.139-.299-.37-.299z" transform="translate(37.714 7.464)"/>
        </g>
    </g>
</svg>
