<svg width="35" height="33" viewBox="0 0 35 33" xmlns="http://www.w3.org/2000/svg" xmlns:xlink="http://www.w3.org/1999/xlink">
    <defs>
        <path id="mscxsuqu1a" d="M0 .025h34.976v23.702H0z"/>
    </defs>
    <g fill="none" fill-rule="evenodd">
        <path fill="#FFF" d="M16 19v4l3-2z"/>
        <g transform="translate(0 8.898)">
            <mask id="m56h0t00eb" fill="#fff">
                <use xlink:href="#mscxsuqu1a"/>
            </mask>
            <path d="M13.913 8.5c0-.296.16-.57.42-.718a.84.84 0 0 1 .836.005l5.952 3.46a.826.826 0 0 1 0 1.428l-5.952 3.46a.838.838 0 0 1-.837.005.826.826 0 0 1-.42-.718V8.501zm-9.74 15.227h26.63c2.301 0 4.173-1.856 4.173-4.138V4.163c0-2.281-1.872-4.138-4.172-4.138H4.173C1.872.025 0 1.882 0 4.163V19.59c0 2.282 1.872 4.138 4.173 4.138z" fill="#FFF" mask="url(#m56h0t00eb)"/>
        </g>
        <path d="M5.09 6.34h24.797c.46 0 .834-.371.834-.828a.831.831 0 0 0-.834-.828H5.089c-.46 0-.834.37-.834.828 0 .457.373.827.834.827M8.937 1.676h17.102c.46 0 .834-.37.834-.828a.831.831 0 0 0-.834-.827H8.937c-.46 0-.835.37-.835.827 0 .457.374.828.835.828" fill="#FFF"/>
    </g>
</svg>
