<svg xmlns="http://www.w3.org/2000/svg" width="21" height="31" viewBox="0 0 21 31">
    <g fill="none" fill-rule="evenodd">
        <g fill="#231F20">
            <path d="M161.528 13.045c-.536.519-1.296.994-1.832 1.167-.179.043-.224.087-.268.26l-6.39 26.026c-.491 2.075-1.117 2.464-2.815 2.594-.134 0-.223.087-.223.216v.476c0 .13.09.216.223.216h6.122c.134 0 .223-.086.223-.216v-.476c0-.13-.09-.216-.223-.216-2.28 0-2.502-.648-2.056-2.464l1.073-4.453c.044-.13.134-.216.268-.216h6.39c.133 0 .222.086.267.216l1.207 5.36c.268 1.168-.18 1.427-1.698 1.557-.134 0-.224.087-.224.216v.476c0 .13.09.216.224.216h8.98c.135 0 .224-.086.224-.216v-.476c0-.13-.09-.216-.223-.216-1.385-.13-1.966-.346-2.234-1.556l-6.747-28.405c-.045-.13-.179-.172-.268-.086zm-5.675 21.963c-.134 0-.178-.087-.178-.217l3.127-12.926c.045-.217.224-.217.268 0l2.904 12.926c0 .13-.044.217-.178.217h-5.943z" transform="translate(-150 -13)"/>
        </g>
    </g>
</svg>
