<svg xmlns="http://www.w3.org/2000/svg" xmlns:xlink="http://www.w3.org/1999/xlink" width="191" height="39" viewBox="0 0 191 39">
    <defs>
        <path id="vbq3qpujxa" d="M0 0L148.947 0 148.947 23.137 0 23.137z"/>
    </defs>
    <g fill="none" fill-rule="evenodd">
        <g>
            <g>
                <g transform="translate(-438 -14) translate(438 14) translate(42 8)">
                    <mask id="m0s8uvyw6b" fill="#fff">
                        <use xlink:href="#vbq3qpujxa"/>
                    </mask>
                    <path fill="#020303" d="M6.135 20.257c-.147.41-.382.821-.94.998-.939.294-1.232.322-1.82.469-.88.206-.734.94-.117.911 1.115-.06 2.553-.206 3.698-.206 1.41 0 3.904.116 4.286.146.705.06.793-.793.206-.88-.411-.058-1.086-.175-1.732-.265-.763-.088-.998-.41-.821-1.027.381-1.026 4.842-14.002 5.753-16.673 1.38.176 2.583.294 3.375.352 2.495.147 4.873-.087 6.487-3.552.148-.323-.704-.323-.85-.029-.764 1.614-2.173 2.143-4.697 2.056-2.466-.09-7.603-1.499-11.448-1.499C2.7 1.058 0 4.024 0 7.517c0 1.967 1.29 3.228 3.023 3.17.852-.03 1.528-.44 1.673-1.262.118-.704-.38-1.144-1.085-.998-1.704.352-2.29-.822-2.29-1.703 0-2.172 1.85-3.786 5.725-3.786.997 0 2.935.234 4.989.469-2.613 7.838-5.254 15.088-5.9 16.85zM25.567.912c.206-.499-1.584-1.086-1.879-.469l-.704 1.409-3.992 11.271-3.112 8.542c-.528 1.41 1.467 1.497 1.907.647 3.054-5.724 4.199-7.017 5.314-8.601 1.292-1.88 2.495-2.995 3.347-2.995.645 0 1.027.353 1.027 1.145 0 1.056-.499 2.7-1.497 5.49-1.32 3.64-1.82 4.608-2.26 4.638-.411.03-1.292-1.057-1.762-1.174-.498-.118-.91.058-1.144.498-.236.41-.088 1.732 1.907 1.82 2.379.117 4.403-2.318 5.812-6.223.97-2.642 1.204-3.993 1.204-4.96 0-1.879-.881-2.76-2.319-2.76-1.673 0-3.081 1.263-4.843 3.698-.822 1.146-1.88 2.76-2.349 3.465-.265.352-.47.293-.323-.088l1.234-3.17L25.567.911zm12.005 18.611c.382-.617.089-1.263-.498-.617-.735.792-1.733 1.644-2.76 1.438-.705-.117-1.35-1.32-.323-4.315 2.466-.116 5.372-1.526 6.105-3.845.617-1.995-.704-2.76-1.76-2.788-2.554-.119-5.402 2.847-6.752 7.309-1.32 4.315.147 6.105 1.762 6.105 1.173 0 3.14-1.526 4.226-3.287zm.529-9.247c.498.03.734.617.498 1.263-.615 1.82-2.758 3.346-4.344 3.727 1.497-3.962 2.936-5.019 3.846-4.99zm24.892 10.127c-.03.412-.205.675-.646.794l-1.497.44c-.41.116-.586.88.058.85 1.468-.087 2.702-.205 3.347-.205.968 0 2.613.205 3.376.235.675.028.646-.587.088-.735-1.497-.352-2.114-.909-2.084-1.496l.059-1.233c.03-.91.705-14.266.851-16.263.117-1.467-1.556-1.409-2.26-.527l-1.409 1.79c-1.703 2.143-8.6 11.037-11.948 15.205-.91 1.115-2.436 2.202-3.581 2.495-.557.148-.499.734.118.734.498 0 1.966-.175 3.052-.175s3.083.088 3.582.117c.5.028.675-.528.028-.705-1.38-.41-2.053-.675-2.053-1.057 0-.41.323-.85 1.085-1.907.587-.822 1.996-2.672 3.552-4.726h6.634c-.146 2.817-.323 5.783-.352 6.369zm.44-15.234c.235-.352.47-.177.44.088-.088 1.292-.234 3.668-.351 5.752-.029.53-.06 1.116-.089 1.732h-5.724c2.672-3.522 5.49-7.22 5.724-7.572zm9.423 14.47l3.288-8.746h2.376c.53 0 .795-.148.911-.53.205-.498.088-.734-.44-.734h-2.378l1.144-3.052c.148-.41 0-.616-.234-.616H76.29c-.323 0-.44.088-.587.498l-1.204 3.17h-1.907c-.265 0-.471-.057-.646.735-.059.381.029.529.381.529h1.674l-2.847 7.427c-.44 1.145-1.057 2.64-1.175 3.257-.176 1.028.44 1.44 1.204 1.292 1.496-.264 3.64-1.82 5.547-4.257.529-.705.089-1.144-.44-.587-.705.676-1.849 1.733-2.554 2.202-.763.498-1.144.146-.88-.587zm7.309-1.32c-.442 1.146-1.057 2.642-1.175 3.258-.175 1.028.441 1.44 1.204 1.292 1.585-.264 3.845-1.82 5.813-4.374.527-.705.087-1.144-.441-.588-.734.705-1.909 1.822-2.643 2.32-.763.498-1.144.146-.88-.587L89.206.677c.117-.294.058-.704-.353-.676-.468.03-3.17.236-4.198.472-.234.057-.352.41-.088.498l1.585.587c.323.117.353.263.148.792l-6.135 15.97zm16.437.411c-.556 1.058-1.174 2.26-1.32 2.907-.206 1.027.353 1.29 1.145 1.173 1.525-.205 3.904-1.613 5.724-4.138.528-.734.03-1.146-.47-.587-.587.675-1.996 1.878-2.613 2.288-.792.53-1.145.382-.91-.233.118-.352.558-1.41 4.461-9.981.178-.411-.41-.53-1.76-.792-.41-.09-.646.352-1.35 1.82-.587-.646-1.233-1.028-2.436-.998-2.143.058-4.786 1.995-6.987 4.96-1.733 2.377-2.26 4.021-1.937 5.783.175 1.027 1.028 1.761 2.172 1.791 1.614.058 3.23-1.468 4.842-3.142l1.057-1.086c.295-.294.56-.117.382.235zm-6.222 1.203c-.176-1.292.998-3.258 1.966-4.579 1.673-2.201 3.729-4.021 5.05-4.021.909 0 1.379.381 1.467.94.176 1.056-1.527 4.167-3.024 5.517-1.85 1.703-3.346 2.935-4.373 2.935-.735 0-1.028-.293-1.086-.792zm22.69 2.848c1.38 0 3.316-1.144 5.167-3.2.586-.675.146-1.144-.412-.646-.586.53-1.642 1.322-2.173 1.645-.644.41-1.085.087-.879-.499.146-.383.675-1.47.998-2.113l1.732-3.495c.939-1.907 1.115-2.759 1.115-3.434 0-1.262-.645-1.908-1.967-1.908-1.85 0-3.316 1.468-5.547 4.638-.617.852-1.028 1.497-1.851 2.554-.263.323-.469.294-.322-.087l1.145-2.848c.528-1.35.94-2.524.94-3.112 0-.763-.325-1.115-1.145-1.115-.999 0-2.26.528-4.462 3.316-.792 1.028-.029 1.145.263.824.442-.442 1.38-1.44 2.026-1.997.617-.588 1.203-.382.97.293-.03.176-.207.676-.559 1.556l-3.492 8.542c-.47 1.174 1.76 1.438 2.142.558 1.204-2.76 3.845-6.253 4.93-7.808 1.587-2.261 2.966-3.817 3.963-3.817.53 0 .764.294.764.851 0 .294-.176.94-.411 1.409l-2.466 5.255c-.674 1.409-1.35 2.877-1.468 3.258-.293.91.207 1.38.999 1.38zm10.626-3.141l3.288-8.747h2.378c.528 0 .792-.148.91-.53.206-.498.087-.734-.44-.734h-2.379l1.145-3.052c.148-.41 0-.616-.235-.616h-1.233c-.323 0-.44.088-.586.498l-1.205 3.17h-1.907c-.265 0-.47-.057-.646.735-.059.381.03.529.381.529h1.674l-2.847 7.427c-.441 1.145-1.057 2.64-1.175 3.257-.176 1.028.44 1.44 1.204 1.292 1.496-.264 3.64-1.82 5.548-4.257.528-.705.088-1.144-.441-.587-.704.676-1.849 1.733-2.553 2.202-.763.498-1.145.146-.88-.587zm14.207-14.56c.821.06 1.615-.587 1.732-1.467.116-.91-.44-1.673-1.263-1.732-.851-.09-1.643.587-1.76 1.497-.118.88.44 1.614 1.291 1.703zm-1.29 3.905c-1.44 0-3.377 1.026-5.197 3.052-.588.676-.146 1.145.41.646.53-.5 1.497-1.234 1.997-1.526.616-.381 1.028-.088.852.47-.147.44-.588 1.526-.91 2.26l-1.997 4.58c-.558 1.291-1.085 2.582-1.203 2.934-.264.91.205 1.38.938 1.38 1.381 0 3.319-1.144 5.168-3.2.586-.675.147-1.144-.41-.646-.589.53-1.645 1.322-2.174 1.645-.616.38-1.057.087-.85-.47.146-.412.586-1.35.88-2.025l2.025-4.58c.587-1.35 1.263-2.79 1.379-3.17.236-.88-.204-1.35-.909-1.35zm5.018 13.825c1.175 0 3.141-1.409 4.315-3.287.38-.617.089-1.263-.499-.617-.733.792-1.673 1.526-2.641 1.467-.911-.03-1.645-1.408-.529-4.608 1.644-4.639 2.76-5.166 3.287-5.195.5-.03 1.527 1.291 2.143 1.438.5.117.91-.059 1.145-.499.264-.5.118-1.967-2.348-2.084-2.583-.119-5.343 2.877-6.693 7.28-1.32 4.315.118 6.105 1.82 6.105z" mask="url(#m0s8uvyw6b)"/>
                </g>
                <path fill="#231F20" d="M13.724.057c-.639.652-1.543 1.25-2.181 1.468-.213.054-.266.109-.32.326L3.617 34.595c-.585 2.61-1.33 3.1-3.351 3.263-.16 0-.266.109-.266.272v.598c0 .163.106.272.266.272h7.287c.16 0 .266-.109.266-.272v-.598c0-.163-.106-.272-.266-.272-2.713 0-2.978-.816-2.447-3.1l1.277-5.603c.053-.163.16-.272.32-.272h7.606c.16 0 .265.11.319.272l1.436 6.745c.32 1.468-.213 1.795-2.021 1.958-.16 0-.266.109-.266.272v.598c0 .163.106.272.266.272h10.691c.16 0 .266-.109.266-.272v-.598c0-.163-.106-.272-.266-.272-1.649-.163-2.34-.435-2.66-1.958L14.044.165c-.054-.163-.213-.217-.32-.108zm-6.756 27.63c-.16 0-.213-.109-.213-.272l3.724-16.263c.053-.272.266-.272.319 0l3.457 16.263c0 .163-.053.272-.212.272H6.968z" transform="translate(-438 -14) translate(438 14)"/>
            </g>
        </g>
    </g>
</svg>
