<svg xmlns="http://www.w3.org/2000/svg" xmlns:xlink="http://www.w3.org/1999/xlink" width="91" height="110" viewBox="0 0 91 110">
    <defs>
        <path id="prefix__a" d="M0 110L91 110 91 0 0 0z"/>
    </defs>
    <g fill="none" fill-rule="evenodd">
        <mask id="prefix__b" fill="#fff">
            <use xlink:href="#prefix__a"/>
        </mask>
        <use fill="#FFF" xlink:href="#prefix__a"/>
        <g mask="url(#prefix__b)">
            <g stroke-width="1.996">
                <g stroke="#000">
                    <path d="M31.652 26.405H-.002V50.68c0 4.37 1.771 8.328 4.636 11.192 2.864 2.864 6.82 4.636 11.191 4.636 4.37 0 8.328-1.772 11.192-4.636 2.864-2.864 4.635-6.821 4.635-11.192V26.405z" transform="translate(2 1.5) translate(49.421 15.648)"/>
                    <path d="M33.692 30.317h-2.064v13.696h2.064c1.347 0 2.567-.546 3.45-1.43.883-.882 1.43-2.102 1.43-3.45v-3.936c0-1.348-.547-2.568-1.43-3.451-.883-.883-2.103-1.43-3.45-1.43z" transform="translate(2 1.5) translate(49.421 15.648)"/>
                    <path stroke-linecap="round" stroke-linejoin="round" d="M12.666 0c1.485 3.82 1.571 7.788.26 11.905-1.313 4.117-1.4 7.647-.26 10.59M19.585 0c1.485 3.82 1.571 7.788.26 11.905-1.313 4.117-1.4 7.647-.26 10.59" transform="translate(2 1.5) translate(49.421 15.648)"/>
                    <path d="M24.628 43.033c.732 11.736-2.861 17.604-10.78 17.604" transform="translate(2 1.5) translate(49.421 15.648)"/>
                </g>
                <g stroke="#9D9D9D">
                    <path stroke-linecap="round" d="M19.769 21.027L40.525 21.027M19.769 27.874L44.479 27.874" transform="translate(2 1.5) translate(.01)"/>
                    <path d="M43.491 73.352L0 73.352 0 28.363 6.83 23.473" transform="translate(2 1.5) translate(.01)"/>
                    <path d="M23.722 10.775L37.411 0 50.41 10.775 23.864 10.775 6.919 10.775 6.919 33.253" transform="translate(2 1.5) translate(.01)"/>
                    <path d="M0 28.363L37.039 55.747 44.479 50.17" transform="translate(2 1.5) translate(.01)"/>
                </g>
            </g>
        </g>
    </g>
</svg>
