<svg xmlns="http://www.w3.org/2000/svg" xmlns:xlink="http://www.w3.org/1999/xlink" width="26" height="19" viewBox="0 0 26 19">
    <defs>
        <path id="z5jiicwtea" d="M0 0L26 0 26 19 0 19z"/>
    </defs>
    <g fill="none" fill-rule="evenodd">
        <g>
            <g transform="translate(-1217 -1898) translate(1217 1898)">
                <mask id="edyp32wlxb" fill="#fff">
                    <use xlink:href="#z5jiicwtea"/>
                </mask>
                <path fill="#FFF" d="M19.326 1.369c1.805-.006 3.624.203 5.465.671v15.463c-3.552-1.256-7.318-1.167-11.186.036V2.055c1.898-.432 3.801-.68 5.721-.686M7.29 1.22c1.791.003 3.495.256 5.106.786v15.435c-3.69-1.403-7.456-1.212-11.187.076V2.042c2.121-.54 4.152-.825 6.081-.821M7.3 0C5.106-.005 2.815.342.449.98c-.128.034-.243.112-.324.218-.08.105-.125.238-.125.372v16.819c0 .099.024.197.07.285.045.087.112.163.192.218.08.056.175.092.272.104.097.011.196 0 .288-.037 4.084-1.586 8.04-1.81 11.966-.034.07.032.145.05.22.053.076.004.153-.007.224-.032 4.234-1.472 8.203-1.552 11.932.007.092.039.192.054.29.044.1-.01.195-.045.278-.1.082-.056.15-.132.197-.22.046-.088.071-.188.071-.288V1.569c0-.132-.044-.264-.124-.37-.08-.105-.194-.183-.32-.218C21.278-.204 17.104-.033 13.034.934 11.214.301 9.298.004 7.3 0" mask="url(#edyp32wlxb)"/>
            </g>
        </g>
    </g>
</svg>
