<svg xmlns="http://www.w3.org/2000/svg" xmlns:xlink="http://www.w3.org/1999/xlink" width="91" height="110" viewBox="0 0 91 110">
    <defs>
        <path id="prefix__a" d="M0 110L91 110 91 0 0 0z"/>
    </defs>
    <g fill="none" fill-rule="evenodd">
        <mask id="prefix__b" fill="#fff">
            <use xlink:href="#prefix__a"/>
        </mask>
        <use fill="#FFF" xlink:href="#prefix__a"/>
        <g mask="url(#prefix__b)">
            <g transform="translate(1.5 .5)">
                <path stroke="#E02020" stroke-width="2.218" d="M27.933 50.874V36.252c0-6.969 5.649-12.618 12.618-12.618s12.618 5.65 12.618 12.618v14.622h1.18c1.67 0 3.026 1.355 3.026 3.026 0 1.672-1.355 3.027-3.027 3.027H27.777c-1.672 0-3.027-1.355-3.027-3.027 0-1.671 1.355-3.026 3.027-3.026h.156zM41.625 28.073c2.856.127 5.106 1.607 6.75 4.44M37.125 23.634v-3.283c0-1.864 1.511-3.375 3.375-3.375s3.375 1.51 3.375 3.375v3.283h0"/>
                <path stroke="#E02020" stroke-width="2.218" d="M37.125 56.982l.057.95c.117 1.929 1.716 3.434 3.649 3.434 1.984 0 3.676-1.437 3.998-3.396L45 56.927h0"/>
                <path stroke="#9D9D9D" stroke-width="2.218" d="M50.625 20.226V5.873c0-3.062-2.482-5.544-5.544-5.544H5.544C2.482.33 0 2.811 0 5.873v73.254c0 3.062 2.482 5.544 5.544 5.544h38.929c3.062 0 5.544-2.482 5.544-5.544V62.203h0"/>
                <path fill="#9D9D9D" fill-rule="nonzero" stroke="#9D9D9D" stroke-linecap="square" stroke-width="2.218" d="M0 74.128L49.5 74.128"/>
                <path stroke="#9D9D9D" stroke-linecap="square" stroke-width="2.218" d="M0 6.433L49.5 6.433"/>
                <ellipse cx="25.875" cy="80.232" stroke="#9D9D9D" stroke-width="2.218" rx="2.266" ry="2.22"/>
                <path fill="#9D9D9D" fill-rule="nonzero" d="M6.75 32.512H11.25V36.951H6.75zM13.5 32.512H18V36.951H13.5zM20.25 32.512H24.75V36.951H20.25z"/>
            </g>
        </g>
    </g>
</svg>
