<?xml version="1.0" encoding="utf-8"?>
<!-- Generator: Adobe Illustrator 16.0.0, SVG Export Plug-In . SVG Version: 6.00 Build 0)  -->
<!DOCTYPE svg PUBLIC "-//W3C//DTD SVG 1.1 Basic//EN" "http://www.w3.org/Graphics/SVG/1.1/DTD/svg11-basic.dtd">
<svg version="1.1" baseProfile="basic" id="Layer_1"
	 xmlns="http://www.w3.org/2000/svg" xmlns:xlink="http://www.w3.org/1999/xlink" x="0px" y="0px" width="557.881px"
	 height="58.982px" viewBox="0 0 557.881 58.982" xml:space="preserve">
<g>
	<defs>
		<rect id="SVGID_1_" y="0" width="557.881" height="58.982"/>
	</defs>
	<clipPath id="SVGID_2_">
		<use xlink:href="#SVGID_1_"  overflow="visible"/>
	</clipPath>
	<path clip-path="url(#SVGID_2_)" fill="#3a3a3a" d="M265.231,29.492c0,16.289-13.204,29.491-29.489,29.491c-16.288,0-29.493-13.202-29.493-29.491
		C206.25,13.205,219.455,0,235.742,0C252.027,0,265.231,13.205,265.231,29.492 M28.111,1.097C12.013,1.097,0,13.265,0,29.132
		c0,16.097,11.552,28.496,28.262,28.496c13.943,0,21.49-8.856,21.49-8.856l-5.238-7.163c0,0-6.393,6.933-15.864,6.933
		c-11.398,0-18.409-9.166-18.409-19.562c0-10.169,6.78-18.794,18.33-18.794c8.706,0,14.942,5.777,14.942,5.777l4.777-7.395
		C48.291,8.567,41.434,1.097,28.111,1.097 M102.59,56.704h9.935V33.755h25.029v22.949h9.936V2.021h-9.936v23.183h-25.029V2.021
		h-9.935V56.704z M333.765,27.667V10.572h7.548c7.779,0,10.013,3.233,10.013,8.471c0,5.467-3.311,8.625-8.625,8.625H333.765z
		 M323.829,56.705h9.936v-20.41h9.549l10.862,20.41h11.089l-11.244-20.41c-1.079-1.927-1.848-2.696-1.848-2.696v-0.154
		c5.775-2.311,9.241-8.396,9.241-14.943c0-7.237-3.466-12.475-8.935-14.941c-2.386-1.077-5.082-1.539-11.013-1.539h-17.638V56.705z
		 M419.928,37.063c0,12.247,8.854,20.564,22.104,20.564c13.168,0,22.025-8.317,22.025-20.564V2.021h-9.936v34.966
		c0,7.395-4.853,11.555-12.169,11.555c-7.315,0-12.093-4.16-12.093-11.478V2.021h-9.933V37.063z M520.991,50.156
		c0,0,6.7,7.474,18.868,7.474c11.398,0,18.021-7.319,18.021-16.021c0-17.483-25.723-15.095-25.723-24.799
		c0-3.853,3.619-6.547,8.24-6.547c6.854,0,12.093,4.774,12.093,4.774l4.313-8.086c0,0-5.547-5.854-16.329-5.854
		c-10.475,0-18.33,6.778-18.33,15.867c0,16.79,25.802,15.094,25.802,24.876c0,4.466-3.775,6.624-7.934,6.624
		c-7.702,0-13.633-5.777-13.633-5.777L520.991,50.156z"/>
</g>

</svg>
