<?xml version="1.0" encoding="UTF-8"?>
<svg width="474px" height="52px" viewBox="0 0 474 52" version="1.1" xmlns="http://www.w3.org/2000/svg" xmlns:xlink="http://www.w3.org/1999/xlink">
    <!-- Generator: Sketch 59 (86127) - https://sketch.com -->
    <title>climateemergency</title>
    <desc>Created with Sketch.</desc>
    <g id="Artboard" stroke="none" stroke-width="1" fill="none" fill-rule="evenodd">
        <g id="Room-logos" transform="translate(-164.000000, -1338.000000)">
            <g id="climateemergency." transform="translate(162.000000, 1337.000000)">
                <g transform="translate(2.000000, 1.000000)">
                    <path d="M13.395,40.812 C18.924,40.812 22.401,38.304 24.966,34.371 L23.883,33.516 C21.831,36.195 19.152,37.791 16.188,37.791 C10.545,37.791 8.037,32.889 8.037,26.733 C8.037,19.266 10.488,15.105 14.25,15.105 C16.188,15.105 17.556,16.017 18.126,16.986 C17.271,17.499 16.245,18.867 16.245,20.406 C16.245,22.515 17.67,24.225 20.52,24.225 C23.028,24.225 24.453,22.458 24.453,19.95 C24.453,17.1 21.603,13.395 14.022,13.395 C5.985,13.395 -5.68434189e-14,18.81 -5.68434189e-14,27.531 C-5.68434189e-14,35.682 5.073,40.812 13.395,40.812 Z M26.575,40.299 L42.022,40.299 L42.022,38.874 L41.4811175,38.8596659 C38.732291,38.7583728 38.1248724,38.2513965 38.0905834,36.9466675 L38.089,-4.97379915e-14 L26.29,0.57 L26.29,1.995 C29.824,2.052 30.508,3.021 30.508,4.788 L30.508,36.822 C30.508,38.304 29.824,38.817 26.575,38.874 L26.575,40.299 Z M51.611,9.348 C54.347,9.348 56.114,7.524 56.114,4.731 C56.114,1.995 54.347,0.285 51.611,0.285 C48.932,0.285 47.108,2.109 47.108,4.902 C47.108,7.695 48.932,9.348 51.611,9.348 Z M43.859,40.299 L59.477,40.299 L59.477,38.874 L58.9361175,38.8596659 C56.187291,38.7583728 55.5798724,38.2513965 55.5455834,36.9466675 L55.544,13.851 L43.859,14.364 L43.859,15.789 C47.108,15.846 47.963,16.872 47.963,18.582 L47.963,36.822 C47.963,38.304 47.108,38.817 43.859,38.874 L43.859,40.299 Z M78.984,40.299 L92.322,40.299 L92.322,38.874 L91.8778053,38.856368 C89.9817573,38.748296 89.4523413,38.243162 89.4169443,36.966989 L89.415,21.888 C89.415,21.546 89.358,21.261 89.301,20.748 C90.954,18.924 92.892,17.784 94.374,17.784 C97.224,17.784 98.307,19.551 98.307,22.971 L98.307,36.822 C98.307,38.304 97.737,38.817 95.514,38.874 L95.514,40.299 L109.764,40.299 L109.764,38.874 L109.232341,38.8596659 C106.529843,38.7583728 105.923829,38.2513965 105.889582,36.9466675 L105.888,21.945 C105.888,16.587 103.608,13.68 98.82,13.68 C95.229,13.68 91.695,16.074 89.13,19.152 C88.446,15.618 86.166,13.68 82.347,13.68 C78.642,13.68 75.507,15.846 72.828,18.867 L72.828,13.851 L61.428,14.364 L61.428,15.789 C64.677,15.846 65.361,16.872 65.361,18.582 L65.361,36.822 C65.361,38.304 64.677,38.817 61.428,38.874 L61.428,40.299 L75.678,40.299 L75.678,38.874 C73.5316552,38.8189655 72.9794126,38.3388371 72.943879,36.9718748 L72.942,20.463 L73.3364698,20.058664 C74.6952079,18.6868412 75.8514783,17.784 77.673,17.784 C80.58,17.784 81.834,19.551 81.834,22.971 L81.834,36.822 C81.834,38.304 81.264,38.817 78.984,38.874 L78.984,40.299 Z M119.467,40.698 C123.001,40.698 125.794,38.874 127.96,36.537 L128.188,36.537 C128.872,39.33 130.012,40.641 133.603,40.641 C135.883,40.641 137.707,39.843 139.816,38.475 L139.36,37.335 L138.922392,37.4594355 C136.038494,38.2358096 135.313,37.490093 135.313,34.827 L135.313,22.914 C135.313,16.587 131.95,13.68 124.939,13.68 C117.187,13.68 113.026,16.074 113.026,19.494 C113.026,21.717 114.565,23.37 117.016,23.37 C119.638,23.37 121.12,21.774 121.12,19.437 C121.12,18.24 120.664,17.271 119.98,16.416 C120.778,15.789 122.032,15.39 123.4,15.39 C126.421,15.39 127.789,16.986 127.789,21.261 L127.789,25.08 C125.908,25.764 119.41,25.764 115.306,27.987 C112.912,29.298 111.715,31.749 111.715,33.972 C111.715,37.278 114.052,40.698 119.467,40.698 Z M123.628,37.164 C121.12,37.164 119.752,35.397 119.752,32.775 C119.752,29.07 121.519,27.702 127.789,26.733 L127.789,34.713 C126.877,36.024 125.338,37.164 123.628,37.164 Z M151.913,40.755 C156.131,40.755 158.753,38.703 160.577,34.599 L159.323,33.858 C158.069,36.252 156.644,37.449 154.934,37.449 C152.654,37.449 151.685,36.024 151.685,33.003 L151.685,16.644 L159.95,16.644 L159.95,14.136 L151.685,14.136 L151.685,4.617 L144.218,6.897 L144.218,14.022 L139.088,15.105 L139.088,16.758 L144.104,16.758 L144.104,32.832 C144.104,38.589 147.41,40.755 151.913,40.755 Z M175.353,40.812 C180.996,40.812 184.53,38.076 187.038,34.086 L185.898,33.231 C183.732,36.195 181.338,37.905 178.146,37.905 C172.768345,37.905 169.978107,33.9412973 169.88349,27.6369597 L169.881,26.619 L187.038,26.619 C187.437,19.152 183.39,13.395 175.353,13.395 C167.601,13.395 161.901,18.81 161.901,27.474 C161.901,35.853 167.031,40.812 175.353,40.812 Z M174.954,15.162 C178.488,15.162 179.913,19.209 179.286,24.909 L169.938,24.966 L169.977844,24.2348337 C170.354839,18.3716413 171.996706,15.162 174.954,15.162 Z" id="climate" fill="#169058" fill-rule="nonzero"></path>
                    <path d="M203.467,40.812 C209.11,40.812 212.644,38.076 215.152,34.086 L214.012,33.231 C211.846,36.195 209.452,37.905 206.26,37.905 C200.882345,37.905 198.092107,33.9412973 197.99749,27.6369597 L197.995,26.619 L215.152,26.619 C215.551,19.152 211.504,13.395 203.467,13.395 C195.715,13.395 190.015,18.81 190.015,27.474 C190.015,35.853 195.145,40.812 203.467,40.812 Z M203.068,15.162 C206.602,15.162 208.027,19.209 207.4,24.909 L198.052,24.966 C198.337,18.639 199.99,15.162 203.068,15.162 Z M235.343,40.299 L248.681,40.299 L248.681,38.874 L248.236805,38.856368 C246.340757,38.748296 245.811341,38.243162 245.775944,36.966989 L245.774,21.888 C245.774,21.546 245.717,21.261 245.66,20.748 C247.313,18.924 249.251,17.784 250.733,17.784 C253.583,17.784 254.666,19.551 254.666,22.971 L254.666,36.822 C254.666,38.304 254.096,38.817 251.873,38.874 L251.873,40.299 L266.123,40.299 L266.123,38.874 L265.591341,38.8596659 C262.888843,38.7583728 262.282829,38.2513965 262.248582,36.9466675 L262.247,21.945 C262.247,16.587 259.967,13.68 255.179,13.68 C251.588,13.68 248.054,16.074 245.489,19.152 C244.805,15.618 242.525,13.68 238.706,13.68 C235.001,13.68 231.866,15.846 229.187,18.867 L229.187,13.851 L217.787,14.364 L217.787,15.789 C221.036,15.846 221.72,16.872 221.72,18.582 L221.72,36.822 C221.72,38.304 221.036,38.817 217.787,38.874 L217.787,40.299 L232.037,40.299 L232.037,38.874 C229.890655,38.8189655 229.338413,38.3388371 229.302879,36.9718748 L229.301,20.463 L229.69547,20.058664 C231.054208,18.6868412 232.210478,17.784 234.032,17.784 C236.939,17.784 238.193,19.551 238.193,22.971 L238.193,36.822 C238.193,38.304 237.623,38.817 235.343,38.874 L235.343,40.299 Z M281.298,40.812 C286.941,40.812 290.475,38.076 292.983,34.086 L291.843,33.231 C289.677,36.195 287.283,37.905 284.091,37.905 C278.713345,37.905 275.923107,33.9412973 275.82849,27.6369597 L275.826,26.619 L292.983,26.619 C293.382,19.152 289.335,13.395 281.298,13.395 C273.546,13.395 267.846,18.81 267.846,27.474 C267.846,35.853 272.976,40.812 281.298,40.812 Z M280.899,15.162 C284.433,15.162 285.858,19.209 285.231,24.909 L275.883,24.966 C276.168,18.639 277.821,15.162 280.899,15.162 Z M295.618,40.299 L312.262,40.299 L312.262,38.874 L311.399008,38.8432145 C308.054768,38.6918656 307.177612,38.2212338 307.133762,36.9286179 L307.132,20.634 C308.386,18.867 310.153,17.442 311.92,17.328 C311.749,17.841 311.635,18.525 311.635,19.038 C311.635,21.204 313.288,22.857 315.853,22.857 C318.247,22.857 319.9,20.976 319.9,18.354 C319.9,15.732 318.19,13.623 314.827,13.623 C311.749,13.623 308.956,15.846 307.018,18.924 L307.018,13.851 L295.618,14.364 L295.618,15.789 C298.867,15.846 299.551,16.872 299.551,18.582 L299.551,36.822 C299.551,38.304 298.867,38.817 295.618,38.874 L295.618,40.299 Z M334.049,50.217 C328.349,50.217 325.442,48.336 325.442,45.429 C325.442,43.605 326.582,42.465 328.634,41.667 L334.619,41.667 L335.290135,41.6720982 C340.831959,41.7586383 342.257,42.9435849 342.257,44.973 C342.257,48.165 338.951,50.217 334.049,50.217 Z M333.764,29.64 C330.8,29.64 329.432,27.474 329.432,22.458 L329.437038,21.8264185 C329.51323,17.2093296 330.467702,15.276 333.251,15.276 C336.329,15.276 337.64,17.955 337.64,22.458 L337.634425,23.0961545 C337.552076,27.6582533 336.544609,29.64 333.764,29.64 Z M333.536,13.68 C327.038,13.68 322.079,17.1 322.079,22.572 C322.079,26.505 324.416,29.07 327.893,30.381 C324.188,31.692 322.307,33.687 322.307,35.739 C322.307,37.905 323.561,39.786 327.095,40.926 L327.095,41.097 C322.592,41.781 320.54,43.662 320.54,46.113 C320.54,49.476 325.499,51.87 332.567,51.87 C341.687,51.87 347.273,47.424 347.273,42.465 C347.273,37.677 343.967,35.454 336.785,35.454 L332.624,35.454 L332.009687,35.4492253 C327.96042,35.3842066 326.924,34.6599767 326.924,33.573 C326.924,32.49 327.95,31.749 330.173,31.008 C331.256,31.179 332.396,31.293 333.536,31.293 C340.034,31.293 344.993,27.873 344.993,22.344 C344.993,18.924 343.055,16.53 340.205,15.105 C340.832,13.851 341.915,12.711 343.055,12.312 C343.055,14.307 344.423,15.39 345.791,15.39 C347.558,15.39 348.584,14.079 348.584,12.54 C348.584,10.773 347.33,9.405 345.05,9.405 C342.029,9.405 340.148,11.742 338.837,14.535 C337.241,13.965 335.417,13.68 333.536,13.68 Z M362.961,40.812 C368.604,40.812 372.138,38.076 374.646,34.086 L373.506,33.231 C371.34,36.195 368.946,37.905 365.754,37.905 C360.376345,37.905 357.586107,33.9412973 357.49149,27.6369597 L357.489,26.619 L374.646,26.619 C375.045,19.152 370.998,13.395 362.961,13.395 C355.209,13.395 349.509,18.81 349.509,27.474 C349.509,35.853 354.639,40.812 362.961,40.812 Z M362.562,15.162 C366.096,15.162 367.521,19.209 366.894,24.909 L357.546,24.966 C357.831,18.639 359.484,15.162 362.562,15.162 Z M377.281,40.299 L391.873,40.299 L391.873,38.874 C389.65,38.817 388.795,38.304 388.795,36.822 L388.795,20.463 C390.334,18.867 391.987,17.784 394.039,17.784 C396.889,17.784 398.029,19.494 398.029,22.971 L398.029,36.822 C398.029,38.304 397.174,38.817 394.894,38.874 L394.894,40.299 L409.543,40.299 L409.543,38.874 L409.002118,38.8596659 C406.253291,38.7583728 405.645872,38.2513965 405.611583,36.9466675 L405.61,21.945 C405.61,16.587 403.387,13.68 398.656,13.68 C394.951,13.68 391.36,15.846 388.681,18.867 L388.681,13.851 L377.281,14.364 L377.281,15.789 C380.53,15.846 381.214,16.872 381.214,18.582 L381.214,36.822 C381.214,38.304 380.53,38.817 377.281,38.874 L377.281,40.299 Z M424.661,40.812 C430.19,40.812 433.667,38.304 436.232,34.371 L435.149,33.516 C433.097,36.195 430.418,37.791 427.454,37.791 C421.811,37.791 419.303,32.889 419.303,26.733 C419.303,19.266 421.754,15.105 425.516,15.105 C427.454,15.105 428.822,16.017 429.392,16.986 C428.537,17.499 427.511,18.867 427.511,20.406 C427.511,22.515 428.936,24.225 431.786,24.225 C434.294,24.225 435.719,22.458 435.719,19.95 C435.719,17.1 432.869,13.395 425.288,13.395 C417.251,13.395 411.266,18.81 411.266,27.531 C411.266,35.682 416.339,40.812 424.661,40.812 Z M450.837,40.755 L450.609,41.439 L450.312781,42.1506848 C448.022302,47.5612178 446.418918,49.1456327 444.396,49.419 C444.852,48.963 445.194,48.108 445.194,47.196 C445.194,45.144 443.769,43.377 441.489,43.377 C439.038,43.377 437.613,45.372 437.613,47.31 C437.613,50.046 439.665,51.87 443.028,51.87 C446.391,51.87 449.355,49.818 452.319,42.864 L462.294,19.608 C463.548,16.758 465.201,15.561 467.196,15.333 L467.196,13.965 L456.138,13.965 L456.138,15.333 C460.014,15.903 460.812,17.328 459.33,20.919 L454.485,32.718 L448.386,18.297 C447.645,16.53 448.215,15.618 451.407,15.333 L451.407,13.965 L435.903,13.965 L435.903,15.333 C438.582,15.789 439.437,16.473 440.634,18.981 L450.837,40.755 Z M468.976,41.211 C466.354,41.211 464.302,39.216 464.302,36.708 C464.302,34.2 466.468,32.205 469.033,32.205 C471.655,32.205 473.707,34.2 473.707,36.708 C473.707,39.216 471.541,41.211 468.976,41.211 Z" id="emergency." fill="#000000" fill-rule="nonzero"></path>
                </g>
            </g>
        </g>
    </g>
</svg>