<?xml version="1.0" encoding="UTF-8"?>
<svg version="1.1" viewBox="0 0 80 80" xmlns="http://www.w3.org/2000/svg" xmlns:xlink="http://www.w3.org/1999/xlink">
    <defs><circle id="path-1" cx="40" cy="40" r="40"></circle></defs>
    <g id="Page-1" stroke="none" stroke-width="1" fill="none" fill-rule="evenodd">
        <g id="Group">
            <circle id="Mask" fill="#000000" cx="40" cy="40" r="40"></circle>
            <g id="Fill-1"></g>
            <mask id="mask-2" fill="white">
                <use xlink:href="#path-1"></use>
            </mask>
            <use id="Mask" fill="#000000" xlink:href="#path-1"></use>
            <path d="M23.8737151,65.2777778 C11.1512482,70.0566667 2,76.7233333 2,91.0555556 C2,92.3888889 3.11600587,93.5 4.45521292,93.5 L75.5447871,93.5 C76.8839941,93.5 78,92.3888889 78,91.0555556 C78,76.7233333 68.8487518,69.9444444 56.0146843,65.2777778 C51.9970631,63.8333333 49.2070485,59.9444444 49.2070485,55.6111111 L49.2070485,50.39 C53.0014684,47.6122222 55.5682819,43.0555556 55.5682819,37.9444444 L55.5682819,29.0555556 C55.5682819,20.5 48.5374449,13.5 39.9441997,13.5 C31.3509545,13.5 24.3201175,20.5 24.3201175,29.0555556 L24.3201175,37.9444444 C24.3201175,43.0555556 26.886931,47.6122222 30.681351,50.5 L30.681351,55.7222222 C30.681351,60.0566667 28.0029369,63.8333333 23.8737151,65.2777778" id="Fill-1" stroke="#FFFFFF" stroke-width="2" mask="url(#mask-2)"></path>
        </g>
    </g>
</svg>