<?xml version="1.0" encoding="utf-8"?>
<!-- Generator: Adobe Illustrator 20.1.0, SVG Export Plug-In . SVG Version: 6.00 Build 0)  -->
<svg version="1.1" id="Layer_1" xmlns="http://www.w3.org/2000/svg" xmlns:xlink="http://www.w3.org/1999/xlink" x="0px" y="0px"
	 viewBox="0 0 390.7 60.7" style="enable-background:new 0 0 390.7 60.7;" xml:space="preserve">
<style type="text/css">
	.st0{fill:#1D4A72;}
	.st1{fill:#6C6C6C;}
</style>
<g>
	<path class="st0" d="M10.7,31.8c0-6.4,4.4-10.4,10.3-10.4c5.6,0,7.7,2.7,7.7,4.8c0,1.8-1,3.2-2.9,3.2c-2.1,0-3.2-1.3-3.2-2.8
		c0-1.1,0.8-2.1,1.4-2.5c-0.4-0.7-1.4-1.4-2.9-1.4c-2.8,0-4.6,3.1-4.6,8.6c0,4.5,1.8,8.1,6,8.1c2.2,0,4.2-1.2,5.7-3.2l0.8,0.6
		c-1.9,2.9-4.5,4.7-8.5,4.7C14.4,41.6,10.7,37.8,10.7,31.8z"/>
	<path class="st0" d="M30.3,31.6c0-6.2,4-10.2,10.2-10.2c6.3,0,10.1,3.8,10.1,10c0,6.2-4.1,10.2-10.1,10.2
		C34.1,41.6,30.3,37.8,30.3,31.6z M44.6,31.5c0-5.9-1.3-8.8-4.3-8.8c-3,0-4,2.9-4,8.8s1.3,8.8,4.4,8.8
		C43.5,40.3,44.6,37.4,44.6,31.5z"/>
	<path class="st0" d="M51.2,40.2c2.4,0,2.9-0.4,2.9-1.5V25.2c0-1.3-0.5-2-2.9-2.1v-1.1l8.4-0.4v3.7c1.4-2.3,3.5-3.9,5.8-3.9
		c2.5,0,3.7,1.6,3.7,3.5s-1.2,3.3-3,3.3c-1.9,0-3.1-1.2-3.1-2.8c0-0.4,0.1-0.9,0.2-1.3c-1.3,0.1-2.6,1.1-3.5,2.4v11.9
		c0,1.1,0.7,1.4,3.8,1.5v1H51.2V40.2z"/>
	<path class="st0" d="M69.9,48.2c2.4,0,2.9-0.4,2.9-1.5V25.2c0-1.3-0.5-2-2.9-2.1v-1.1l8.4-0.4v2.6c1.9-1.6,3.8-2.8,6.2-2.8
		c5,0,7.8,3.9,7.8,9.7c0,5.6-3.2,10.3-8.9,10.3c-2,0-3.5-0.4-5-1v6.2c0,1.1,0.8,1.4,3.9,1.5v1H69.9V48.2z M86.3,31.5
		c0-4.4-1.4-7.6-4.4-7.6c-1.3,0-2.4,0.5-3.6,1.5v12c0.9,2.1,2.3,2.8,3.9,2.8C84.7,40.2,86.3,37.6,86.3,31.5z"/>
	<path class="st0" d="M93.9,31.6c0-6.2,4-10.2,10.2-10.2c6.3,0,10.1,3.8,10.1,10c0,6.2-4.1,10.2-10.1,10.2
		C97.7,41.6,93.9,37.8,93.9,31.6z M108.2,31.5c0-5.9-1.3-8.8-4.3-8.8c-3,0-4,2.9-4,8.8s1.3,8.8,4.4,8.8
		C107.2,40.3,108.2,37.4,108.2,31.5z"/>
	<path class="st0" d="M114.7,40.2c2.4,0,2.9-0.4,2.9-1.5V25.2c0-1.3-0.5-2-2.9-2.1v-1.1l8.4-0.4v3.7c1.4-2.3,3.5-3.9,5.8-3.9
		c2.5,0,3.7,1.6,3.7,3.5s-1.2,3.3-3,3.3c-1.9,0-3.1-1.2-3.1-2.8c0-0.4,0.1-0.9,0.2-1.3c-1.3,0.1-2.6,1.1-3.5,2.4v11.9
		c0,1.1,0.7,1.4,3.8,1.5v1h-12.3V40.2z"/>
	<path class="st0" d="M133,36.6c0-1.6,0.9-3.4,2.6-4.4c3-1.6,7.8-1.6,9.2-2.1v-2.8c0-3.2-1-4.3-3.2-4.3c-1,0-1.9,0.3-2.5,0.8
		c0.5,0.6,0.8,1.3,0.8,2.2c0,1.7-1.1,2.9-3,2.9c-1.8,0-2.9-1.2-2.9-2.9c0-2.5,3.1-4.3,8.8-4.3c5.2,0,7.6,2.1,7.6,6.8v8.8
		c0,2.1,0.6,2.6,3,1.8l0.3,0.8c-1.6,1-2.9,1.6-4.6,1.6c-2.6,0-3.5-1-4-3h-0.2c-1.6,1.7-3.7,3.1-6.3,3.1C134.7,41.5,133,39,133,36.6z
		 M144.8,37.1v-5.9c-4.6,0.7-5.9,1.7-5.9,4.5c0,1.9,1,3.2,2.9,3.2C143,38.9,144.1,38.1,144.8,37.1z"/>
	<path class="st0" d="M155.5,35.7V23.9h-3.7v-1.2l3.8-0.8v-5.3l5.5-1.7v7h6.1v1.8h-6.1v12.1c0,2.2,0.7,3.3,2.4,3.3
		c1.3,0,2.3-0.9,3.2-2.6l0.9,0.5c-1.3,3-3.3,4.5-6.4,4.5C157.9,41.6,155.5,40,155.5,35.7z"/>
	<path class="st0" d="M167.9,31.8c0-6.4,4.2-10.4,9.9-10.4c5.9,0,8.9,4.2,8.6,9.7h-12.6v0.5v0c0,4.8,2.1,7.8,6.1,7.8
		c2.4,0,4.1-1.3,5.7-3.4l0.8,0.6c-1.8,2.9-4.5,5-8.6,5C171.7,41.6,167.9,37.9,167.9,31.8z M173.9,29.9l6.9,0
		c0.5-4.2-0.6-7.2-3.2-7.2C175.3,22.7,174.1,25.3,173.9,29.9z"/>
	<path class="st1" d="M187.8,40.2c2.4,0,2.9-0.4,2.9-1.5V25.2c0-1.3-0.5-2-2.9-2.1v-1.1l8.4-0.4v3.7c2-2.2,4.6-3.8,7.4-3.8
		c3.5,0,5.1,2.1,5.1,6.1v11c0,1.1,0.5,1.5,2.9,1.5v1h-10.8v-1c1.7,0,2.3-0.4,2.3-1.5V28.5c0-2.6-0.8-3.8-2.9-3.8
		c-1.5,0-2.7,0.8-3.9,2v12.1c0,1.1,0.6,1.5,2.3,1.5v1h-10.8V40.2z"/>
	<path class="st1" d="M211.8,31.8c0-6.4,4.2-10.4,9.9-10.4c5.9,0,8.9,4.2,8.6,9.7h-12.6v0.5v0c0,4.8,2.1,7.8,6.1,7.8
		c2.4,0,4.1-1.3,5.7-3.4l0.8,0.6c-1.8,2.9-4.5,5-8.6,5C215.5,41.6,211.8,37.9,211.8,31.8z M217.7,29.9l6.9,0
		c0.5-4.2-0.6-7.2-3.2-7.2C219.1,22.7,217.9,25.3,217.7,29.9z"/>
	<path class="st1" d="M245.4,25.5c-0.7-2-1.3-2.5-3-2.7v-1h10.5v1c-1.7,0.2-2.4,0.5-2.4,1.3c0,0.3,0.1,0.5,0.2,0.9l3.6,10.9h0.2
		l3-8.9c0.3-1,0.5-1.8,0.5-2.2c0-1.2-0.8-1.8-2.7-2.1v-1h8.1v1c-1.9,0.3-3.1,1.3-3.7,3.2l-5.4,15.4h-3.4L246.9,30l-4.6,11.5H239
		l-6-16c-0.7-1.8-1.3-2.4-3.3-2.7v-1h10.7v1c-1.5,0.1-2.1,0.5-2.1,1.2c0,0.3,0.1,0.6,0.3,1l4,11h0.2l3.4-8.4L245.4,25.5z"/>
	<path class="st1" d="M263,34.6h1.2c2.3,3.8,4.6,5.6,7.1,5.6c2.1,0,3.2-1.1,3.2-2.7c0-1.8-1.3-2.7-5.3-3.9c-4.4-1.3-6.2-2.6-6.2-5.7
		c0-3.9,3.1-6.5,7.7-6.5c1.8,0,3.6,0.6,4.7,1.3l1.1-1.3h1.1v6.2h-1.2c-2.1-3.2-3.7-4.9-6-4.9c-1.8,0-3,1.1-3,2.8
		c0,1.7,1.7,2.4,4.6,3.2c4.5,1.1,6.8,2.7,6.8,6.1c0,3.8-3.1,6.7-7.9,6.7c-1.6,0-4.4-0.7-5.5-1.4l-1.3,1.4H263V34.6z"/>
	<path class="st1" d="M280,40.2c2.4,0,2.9-0.4,2.9-1.5V25.2c0-1.3-0.5-2-2.9-2.1v-1.1l8.4-0.4v3.7c1.4-2.3,3.5-3.9,5.8-3.9
		c2.5,0,3.7,1.6,3.7,3.5s-1.2,3.3-3,3.3c-1.9,0-3.1-1.2-3.1-2.8c0-0.4,0.1-0.9,0.2-1.3c-1.3,0.1-2.6,1.1-3.5,2.4v11.9
		c0,1.1,0.7,1.4,3.8,1.5v1H280V40.2z"/>
	<path class="st1" d="M298.4,31.6c0-6.2,4-10.2,10.2-10.2c6.3,0,10.1,3.8,10.1,10c0,6.2-4.1,10.2-10.1,10.2
		C302.2,41.6,298.4,37.8,298.4,31.6z M312.7,31.5c0-5.9-1.3-8.8-4.3-8.8s-4,2.9-4,8.8s1.3,8.8,4.4,8.8
		C311.7,40.3,312.7,37.4,312.7,31.5z"/>
	<path class="st1" d="M320.3,31.6c0-6.2,4-10.2,10.2-10.2c6.3,0,10.1,3.8,10.1,10c0,6.2-4.1,10.2-10.1,10.2
		C324.1,41.6,320.3,37.8,320.3,31.6z M334.6,31.5c0-5.9-1.3-8.8-4.3-8.8s-4,2.9-4,8.8s1.3,8.8,4.4,8.8
		C333.5,40.3,334.6,37.4,334.6,31.5z"/>
	<path class="st1" d="M354.4,40.2c1.7,0,2.1-0.4,2.1-1.5V28.5c0-2.5-0.9-3.8-3.1-3.8c-1.5,0-2.4,0.8-3.5,2v12.1c0,1.1,0.4,1.5,2,1.5
		v1h-10.5v-1c2.4,0,2.9-0.4,2.9-1.5V25.2c0-1.3-0.5-2-2.9-2.1v-1.1l8.4-0.4v3.7c2-2.2,4.3-3.8,7-3.8c2.8,0,4.5,1.4,5,4
		c1.9-2.3,4.5-4,7.1-4c3.5,0,5.2,2.1,5.2,6.1v11c0,1.1,0.5,1.5,2.9,1.5v1h-10.5v-1c1.6,0,2.1-0.4,2.1-1.5V28.5
		c0-2.5-0.8-3.8-2.9-3.8c-1.1,0-2.5,0.8-3.7,2.2c0,0.4,0.1,0.6,0.1,0.8v11c0,1.1,0.4,1.5,2.1,1.5v1h-9.8V40.2z"/>
	<path class="st1" d="M378.5,39.1c0-1.6,1.3-2.9,2.9-2.9c1.6,0,2.9,1.3,2.9,2.8c0,1.6-1.3,2.9-2.9,2.9
		C379.8,41.9,378.5,40.6,378.5,39.1z"/>
</g>
</svg>
