<svg xmlns="http://www.w3.org/2000/svg" xmlns:xlink="http://www.w3.org/1999/xlink" width="192" height="39" viewBox="0 0 192 39">
    <defs>
        <path id="prefix__a" d="M0.5 38.873L200.479 38.873 200.479 0 0.5 0z"/>
    </defs>
    <g fill="none" fill-rule="evenodd" transform="translate(-6)">
        <path fill="#231F20" d="M6 25.862c0-8.193 5.622-13.28 13.172-13.28 7.121 0 9.798 3.481 9.798 6.158 0 2.356-1.338 4.016-3.694 4.016-2.677 0-4.016-1.606-4.016-3.587 0-1.446.964-2.731 1.767-3.213-.535-.91-1.82-1.767-3.641-1.767-3.534 0-5.836 3.909-5.836 10.923 0 5.783 2.356 10.387 7.657 10.387 2.784 0 5.3-1.499 7.228-4.015l1.017.803c-2.41 3.694-5.675 6.05-10.869 6.05C10.766 38.337 6 33.52 6 25.862M50.44 25.433c0-7.55-1.713-11.19-5.515-11.19-3.802 0-5.087 3.64-5.087 11.19 0 7.55 1.714 11.244 5.569 11.244 3.695 0 5.033-3.694 5.033-11.244m-18.205.107c0-7.87 5.14-12.957 12.958-12.957 7.978 0 12.904 4.872 12.904 12.743 0 7.924-5.194 13.011-12.904 13.011-8.139 0-12.958-4.872-12.958-12.797M62.7 17.83c-.963-2.41-1.82-2.999-4.283-3.427v-1.285h14.51v1.285c-2.302.268-3.212.643-3.212 1.713 0 .322.053.59.214 1.071l5.515 14.671h.214l4.659-11.993c.428-1.232.642-2.142.642-2.731 0-1.553-1.017-2.356-3.587-2.731v-1.285h10.334v1.285c-1.874.214-3.427 1.392-4.444 3.802l-8.246 19.972H70.84L62.701 17.83zM91.238 4.605c0-2.624 1.714-4.337 4.23-4.337 2.57 0 4.23 1.606 4.23 4.176 0 2.624-1.66 4.337-4.23 4.337-2.516 0-4.23-1.553-4.23-4.176zm-3.051 31.912c3.051-.054 3.855-.536 3.855-1.928V17.455c0-1.606-.804-2.57-3.855-2.623v-1.339l10.976-.482v21.578c0 1.392.589 1.874 3.695 1.928v1.338H88.187v-1.338zM123.15 33.465V17.027c-.91-1.5-2.464-2.624-4.605-2.624-3.374 0-5.515 4.016-5.515 10.923 0 5.569 2.248 9.799 6.104 9.799 1.82 0 2.944-.643 4.015-1.66m-17.67-7.496c0-7.175 4.499-13.28 12.423-13.28 2.356 0 3.748.376 5.247 1.018v-9.21c0-1.66-.588-2.57-3.962-2.623V.535L130.271 0v34.214c0 1.446.696 2.41 3.748 2.41v1.178l-10.762.322v-3.16c-1.714 1.981-4.016 3.32-7.068 3.32-6.747 0-10.71-5.194-10.71-12.315"/>
        <mask id="prefix__b" fill="#fff">
            <use xlink:href="#prefix__a"/>
        </mask>
        <path fill="#231F20" d="M135.623 25.648L149.651 25.648 149.651 22.382 135.623 22.382z" mask="url(#prefix__b)"/>
        <path fill="#231F20" d="M148.22 36.41c4.82-.107 6.265-.803 6.265-2.677V9.638c0-2.945-.91-4.07-6.425-4.123V4.123l14.135-1.07v30.68c0 1.874 1.339 2.57 6.212 2.677v1.445H148.22V36.41zM189.661 13.028c0-6.157-2.141-9.744-5.782-9.744-3.856 0-5.837 3.694-5.837 10.494 0 6.265 1.928 9.156 5.569 9.156 3.32 0 6.05-3.534 6.05-9.906zm-17.08 23.453c9.263-1.982 15.474-6.318 17.08-15.796l-.268-.107c-1.499 2.891-4.497 4.712-8.138 4.712-6.747 0-10.977-4.712-10.977-10.923 0-7.228 4.766-12.743 13.707-12.743 9.05 0 13.494 5.943 13.494 14.885 0 5.729-1.928 10.227-5.676 13.921-4.07 4.123-9.53 6.586-19.222 7.443V36.48z" mask="url(#prefix__b)"/>
    </g>
</svg>
