<svg width="439" height="52" viewBox="0 0 439 52" xmlns="http://www.w3.org/2000/svg">
    <g fill-rule="nonzero" fill="none">
        <path d="M14.15 41.513C5.835 41.513.766 36.387.766 28.242c0-8.714 5.98-14.125 14.01-14.125 7.576 0 10.424 3.702 10.424 6.55 0 2.506-1.424 4.271-3.93 4.271-2.848 0-4.272-1.708-4.272-3.816 0-1.537 1.025-2.904 1.88-3.417-.57-.968-1.937-1.88-3.873-1.88-3.76 0-6.209 4.158-6.209 11.62 0 6.15 2.506 11.049 8.145 11.049 2.962 0 5.639-1.595 7.69-4.272l1.081.855c-2.563 3.93-6.037 6.436-11.562 6.436zM28.104 41v-1.424c3.247-.057 3.93-.57 3.93-2.05V19.3c0-1.709-.683-2.734-3.93-2.791v-1.424l11.392-.512v5.069c1.936-3.076 4.727-5.297 7.802-5.297 3.36 0 5.07 2.107 5.07 4.727s-1.652 4.5-4.044 4.5c-2.563 0-4.215-1.652-4.215-3.816 0-.513.114-1.197.285-1.71-1.766.115-3.532 1.539-4.785 3.304v16.176c0 1.48.969 1.936 5.126 2.05V41h-16.63zm33.661-30.927c-2.677 0-4.5-1.652-4.5-4.442 0-2.791 1.823-4.614 4.5-4.614 2.734 0 4.5 1.709 4.5 4.443 0 2.79-1.766 4.613-4.5 4.613zM54.02 41v-1.424c3.247-.057 4.101-.57 4.101-2.05V19.3c0-1.709-.854-2.734-4.1-2.791v-1.424l11.675-.512v22.953c0 1.48.627 1.993 3.93 2.05V41H54.02zm31.781.513c-8.315 0-13.384-5.126-13.384-13.271 0-8.714 5.98-14.125 14.011-14.125 7.575 0 10.423 3.702 10.423 6.55 0 2.506-1.424 4.271-3.93 4.271-2.848 0-4.272-1.708-4.272-3.816 0-1.537 1.025-2.904 1.88-3.417-.57-.968-1.937-1.88-3.873-1.88-3.76 0-6.208 4.158-6.208 11.62 0 6.15 2.506 11.049 8.144 11.049 2.962 0 5.639-1.595 7.69-4.272l1.081.855c-2.563 3.93-6.037 6.436-11.562 6.436zm24.947-10.765v6.835c0 1.424.854 1.993 2.79 2.05V41H99.243v-1.424c3.247-.057 3.93-.57 3.93-2.05V5.516c0-1.765-.627-2.733-4.215-2.79V1.302l11.79-.57v27.51l7.461-7.632c2.165-2.278 1.595-3.816-1.993-4.557v-1.367h13.1v1.367c-3.475.57-5.297 1.823-8.316 4.785l-2.905 2.734 8.43 12.758c1.708 2.563 2.335 3.018 4.784 3.246V41h-14.467v-1.367c2.506-.17 2.962-.911 1.709-2.905l-5.354-8.372-2.449 2.392zm35.028 10.765c-8.316 0-13.442-4.956-13.442-13.328 0-8.657 5.696-14.068 13.442-14.068 8.03 0 12.074 5.752 11.676 13.214h-17.144v.683c0 6.493 2.79 10.594 8.259 10.594 3.19 0 5.581-1.709 7.746-4.67l1.139.854c-2.506 3.987-6.038 6.72-11.676 6.72zm-.399-25.63c-3.075 0-4.727 3.474-5.012 9.796l9.34-.057c.627-5.696-.797-9.74-4.328-9.74zm27.054 25.573c-4.5 0-7.803-2.165-7.803-7.917V17.477h-5.012v-1.651l5.126-1.083V7.624l7.461-2.278v9.511h8.259v2.506h-8.259V33.71c0 3.018.969 4.442 3.247 4.442 1.708 0 3.132-1.196 4.385-3.588l1.253.74c-1.822 4.101-4.442 6.152-8.657 6.152z" fill="#2692E1"/>
        <path d="M203.015 22.717 201.99 19.7c-.968-2.677-1.822-3.36-4.044-3.646v-1.367h14.182v1.367c-2.278.228-3.19.627-3.19 1.766 0 .342.115.74.229 1.253l4.84 14.809h.286l4.1-12.075c.456-1.367.627-2.392.627-2.962 0-1.651-1.082-2.392-3.645-2.79v-1.368h10.935v1.367c-2.563.342-4.158 1.71-5.069 4.386l-7.29 20.903h-4.557l-5.353-15.55-6.209 15.55h-4.5l-8.2-21.643c-.969-2.506-1.823-3.247-4.443-3.646v-1.367h14.466v1.367c-1.993.171-2.847.627-2.847 1.652 0 .342.17.854.341 1.367l5.468 14.98h.285l4.613-11.335zm38.047 18.796c-8.658 0-13.784-5.183-13.784-13.613 0-8.372 5.468-13.783 13.784-13.783 8.486 0 13.726 5.183 13.726 13.555 0 8.43-5.525 13.84-13.726 13.84zm.228-1.766c3.93 0 5.353-3.93 5.353-11.96 0-8.031-1.822-11.904-5.866-11.904s-5.41 3.873-5.41 11.903c0 8.031 1.822 11.961 5.923 11.961zM257.92 41v-1.424c3.247-.057 3.93-.57 3.93-2.05V19.3c0-1.709-.683-2.734-3.93-2.791v-1.424l11.392-.512v5.069c1.936-3.076 4.727-5.297 7.803-5.297 3.36 0 5.069 2.107 5.069 4.727s-1.652 4.5-4.044 4.5c-2.563 0-4.215-1.652-4.215-3.816 0-.513.114-1.197.285-1.71-1.766.115-3.531 1.539-4.784 3.304v16.176c0 1.48.968 1.936 5.126 2.05V41H257.92zm25.63 0v-1.424c3.247-.057 3.93-.57 3.93-2.05V5.516c0-1.765-.683-2.733-4.214-2.79V1.302l11.79-.57v36.794c0 1.48.626 1.993 3.93 2.05V41H283.55zm29.504.456c-7.177 0-11.391-5.525-11.391-13.1 0-7.632 4.784-14.125 13.213-14.125 2.506 0 3.987.399 5.582 1.082V5.517c0-1.766-.627-2.734-4.215-2.791V1.302l11.79-.57v36.395c0 1.538.74 2.563 3.987 2.563v1.253l-11.448.342v-3.36c-1.823 2.107-4.272 3.53-7.518 3.53zm3.132-3.36c1.937 0 3.133-.684 4.272-1.766V18.844c-.968-1.595-2.62-2.79-4.898-2.79-3.588 0-5.867 4.271-5.867 11.618 0 5.924 2.392 10.423 6.493 10.423z" fill="#000"/>
        <path d="M347.512 41.513c-8.316 0-13.385-5.126-13.385-13.271 0-8.714 5.98-14.125 14.011-14.125 7.576 0 10.423 3.702 10.423 6.55 0 2.506-1.424 4.271-3.93 4.271-2.847 0-4.271-1.708-4.271-3.816 0-1.537 1.025-2.904 1.88-3.417-.57-.968-1.937-1.88-3.874-1.88-3.759 0-6.208 4.158-6.208 11.62 0 6.15 2.506 11.049 8.145 11.049 2.961 0 5.638-1.595 7.689-4.272l1.082.855c-2.563 3.93-6.037 6.436-11.562 6.436zm24.833-.057c-4.728 0-7.632-2.905-7.632-8.373V18.901c0-1.708-.684-2.62-3.987-2.734V14.8l11.562-.284v17.428c0 3.474 1.31 5.297 4.214 5.297 2.05 0 3.418-.911 4.899-2.506V18.9c0-1.708-.855-2.563-3.987-2.677V14.8l11.562-.284v22.896c0 1.595.74 2.05 3.93 2.164V41h-11.392v-4.67c-2.506 3.19-5.524 5.126-9.17 5.126zm21.814 10.366v-1.424c3.246-.057 3.873-.57 3.873-2.05V19.3c0-1.709-.684-2.734-3.93-2.791v-1.424l11.39-.512v3.474c2.564-2.221 5.127-3.816 8.43-3.816 6.721 0 10.537 5.354 10.537 13.214 0 7.632-4.386 13.954-12.075 13.954-2.733 0-4.784-.513-6.777-1.424v8.372c0 1.481 1.025 1.937 5.354 2.05v1.425h-16.802zm16.745-12.189c3.36 0 5.524-3.588 5.524-11.847 0-5.98-1.88-10.252-5.923-10.252-1.709 0-3.247.74-4.898 2.05v16.233c1.196 2.848 3.075 3.816 5.297 3.816zm22.668 2.278c-2.62 0-4.67-1.993-4.67-4.5 0-2.505 2.164-4.499 4.727-4.499 2.62 0 4.67 1.994 4.67 4.5 0 2.506-2.164 4.5-4.727 4.5z" fill="#2692E1"/>
    </g>
</svg>
