<svg xmlns="http://www.w3.org/2000/svg" width="113" height="58" viewBox="0 0 113 58">
    <g fill="none" fill-rule="evenodd">
        <g>
            <g>
                <g>
                    <path fill="#FFF" d="M59.984 22.657l-.182.427c-1.151 2.962-2.363 4.122-3.938 4.244.528-.496.824-1.18.818-1.893 0-1.252-.94-2.167-2.09-2.167-1.394 0-2.182 1.13-2.182 2.198 0 1.618 1.121 2.534 3.06 2.534 1.757 0 3.484-1.069 4.878-4.458l5.513-13.313c.606-1.435 1.606-1.985 2.939-2.138v-.366h-6.09v.366c2.182.336 2.727 1.039 2 2.87l-2.545 6.505-3.453-7.878c-.455-1.008-.03-1.313 1.575-1.496v-.367H51.38v.367c1.485.244 1.848.488 2.515 1.862l6.089 12.703zm-17.025-.764h8.724v-.366c-1.727-.03-2.03-.336-2.03-1.069V0l-6.816.366v.367c1.848.03 2.151.58 2.151 1.496v18.23c0 .732-.333 1.037-2.03 1.068v.366zm-9.604 0h8.876v-.366c-1.757-.03-2.03-.336-2.03-1.069V7.664l-6.846.367v.366c1.727.03 2.181.58 2.181 1.496v10.565c0 .733-.454 1.038-2.181 1.069v.366zm4.453-16.305c1.636 0 2.696-1.069 2.696-2.748 0-1.619-1.06-2.657-2.696-2.657-1.606 0-2.696 1.1-2.696 2.779 0 1.68 1.09 2.626 2.696 2.626zm-13.39 14.565c-1.182 0-1.939-.886-1.939-2.32 0-2.26.788-3.024 3.817-3.36v4.58c-.394.642-1.151 1.1-1.878 1.1zm-2.484 1.893c2.06 0 3.453-1.13 4.513-2.351h.122c.333 1.527 1.212 2.32 3.272 2.32 1.303 0 2.302-.55 3.453-1.374l-.181-.336c-1.576.703-2.182.367-2.182-1.13v-6.564c0-3.573-1.969-5.038-5.937-5.038-4.666 0-6.574 1.16-6.574 3.022-.008 1.224 1.01 2.222 2.273 2.23h.029c1.515 0 2.302-.856 2.302-2.26 0-.733-.272-1.313-.848-1.832.515-.336 1.242-.55 2.03-.55 1.484 0 2.09.855 2.09 2.931v2.749c-1.242.335-4.635.03-6.755 1.19-1.273.703-1.97 2.046-1.97 3.237 0 1.801 1.333 3.756 4.363 3.756zM8.18 20.458c-2.212 0-3.272-2.718-3.272-5.832 0-3.847 1-6.534 2.696-6.534 1.09 0 1.97.64 2.394 1.404v10.26c-.546.458-.97.702-1.818.702zm-2.06 1.68c1.727 0 2.999-.794 3.938-1.955v1.832l6.665-.122v-.244c-1.697 0-2.06-.672-2.06-1.527V0L7.846.366v.367c1.848.03 2.151.58 2.151 1.496v5.74c-.878-.305-1.636-.488-2.847-.488-4.696 0-7.15 3.634-7.15 7.634 0 4.152 2.272 7.022 6.12 7.022z" transform="translate(-407 -2680) translate(380 2649) translate(27 31)"/>
                    <g fill="#AAD9ED">
                        <path d="M104.351 8.072c-3.764 0-6.457 1.927-6.457 4.96 0 2.338 1.408 3.792 3.55 4.487-2.356.505-3.58 1.927-3.58 2.97 0 1.17.734 2.528 2.57 3.16v.063c-2.448.38-3.336 1.169-3.336 2.496 0 1.833 2.846 3.002 6.641 3.002 4.896 0 8.17-2.465 8.17-5.34 0-2.528-1.713-3.792-5.049-3.792h-3.58c-1.806 0-2.54-.316-2.54-.948 0-.631.428-1.042 1.653-1.39.647.104 1.302.156 1.958.158 3.733 0 6.426-1.927 6.426-4.992 0-2.022-1.193-3.412-2.998-4.17.428-.76 1.101-1.391 1.713-1.675 0 1.169.888 1.895 1.683 1.895 1.072 0 1.622-.79 1.622-1.674 0-1.075-.673-1.864-1.958-1.864-1.653 0-2.907 1.39-3.612 3.096-.928-.3-1.9-.449-2.876-.442zm.123 9.257c-1.561 0-2.112-1.295-2.112-4.36 0-3.065.306-4.329 1.836-4.329 1.591 0 2.111 1.58 2.111 4.329 0 3.065-.336 4.36-1.835 4.36zm.06 11.312c-2.937 0-4.498-.79-4.498-2.812 0-.885.367-1.485 1.133-2.086h4.467c2.51 0 3.275.695 3.275 1.833 0 1.959-1.775 3.065-4.376 3.065zm-25.797-5.75h8.294v-.38c-1.04-.032-1.5-.347-1.5-1.106V11.8c.765-.98 1.5-1.612 2.448-1.612 1.377 0 1.959.98 1.959 2.623v8.594c0 .759-.49 1.074-1.561 1.106v.38H96.7v-.38c-1.744-.032-2.05-.347-2.05-1.106v-8.626c0-3.033-1.164-4.708-3.887-4.708-1.958 0-4.009 1.232-5.294 3.097V8.166l-6.733.38v.379c1.745.031 2.081.6 2.081 1.548v10.932c0 .759-.336 1.074-2.08 1.106v.38zm-19.8 0h8.539v-.38c-1.071-.032-1.775-.347-1.775-1.106V9.493h5.233v11.912c0 .759-.735 1.074-1.837 1.106v.38h8.6v-.38c-1.775-.032-2.05-.347-2.05-1.106V8.166l-5.662.285H65.7V5.449c0-2.402.245-3.35.948-4.076.429-.443 1.194-.695 2.265-.695 1.132 0 1.867.442 2.356 1.01-.826.506-1.224 1.36-1.224 2.212 0 1.549 1.163 2.37 2.571 2.37 1.5 0 2.448-1.106 2.448-2.59 0-2.15-1.867-3.634-6.58-3.634-2.968 0-4.743.758-5.936 1.99-1.102 1.17-1.56 2.97-1.56 5.498v.853l-2.663.569v.6h2.662v11.849c0 .759-.306 1.074-2.05 1.106v.38zM50.554 8.608c1.683 0 2.387 2.37 1.989 6.035h-4.345c.122-3.729.765-6.035 2.356-6.035zm.214 14.534c3 0 4.988-1.359 6.427-3.665l-.337-.221c-1.132 1.611-2.357 2.527-4.162 2.527-2.938 0-4.498-2.022-4.498-6.003v-.505h9.058c.214-4.36-2.142-7.3-6.518-7.3-4.163 0-7.498 2.844-7.498 7.805 0 4.803 3.06 7.362 7.528 7.362zM33.14 22.89h8.967v-.379c-1.775-.032-2.05-.347-2.05-1.106V8.166l-6.917.38v.379c1.745.031 2.204.6 2.204 1.548v10.932c0 .759-.46 1.074-2.204 1.106v.38zm4.5-16.872c1.651 0 2.723-1.106 2.723-2.844 0-1.674-1.072-2.749-2.724-2.749-1.622 0-2.724 1.138-2.724 2.876 0 1.737 1.102 2.717 2.724 2.717zM18.542 22.89h9.61v-.379c-2.357-.095-2.816-.347-2.816-1.106v-9.637c.612-1.074 1.652-1.895 2.387-1.959-.123.411-.245.948-.245 1.422 0 1.264.948 2.465 2.601 2.465 1.408 0 2.418-1.138 2.418-2.78 0-1.644-1.04-2.845-2.938-2.845-1.683 0-3.336 1.138-4.284 3.065v-2.97l-6.733.38v.379c1.745.031 2.081.6 2.081 1.548v10.932c0 .759-.336 1.074-2.08 1.106v.38zm-9.18-.379c-1.01 0-1.806-.663-2.449-1.96V10.316c.857-.6 1.378-.885 2.173-.885 1.958 0 2.968 2.465 2.968 5.782 0 4.266-.765 7.3-2.693 7.3zM2.14 23.585h.642l2.295-1.77c1.377.917 3.427 1.328 5.08 1.328 4.254 0 6.885-3.35 6.885-8.089 0-3.823-1.835-7.077-5.569-7.077-1.867 0-3.366.758-4.56 1.832V.236L.03.615v.379c1.897.032 2.173.6 2.173 1.548V20.49l-.061 3.096z" transform="translate(-407 -2680) translate(380 2649) translate(27 31) translate(0 28)"/>
                    </g>
                </g>
            </g>
        </g>
    </g>
</svg>
