<svg xmlns="http://www.w3.org/2000/svg" width="226" height="37" viewBox="0 0 226 37">
    <g fill="none" fill-rule="evenodd">
        <g>
            <g>
                <path fill="#FFF" d="M74.98 28.32l-.227.535c-1.44 3.702-2.954 5.153-4.923 5.306.66-.62 1.03-1.476 1.022-2.367 0-1.565-1.174-2.71-2.613-2.71-1.742 0-2.726 1.412-2.726 2.748 0 2.023 1.401 3.168 3.824 3.168 2.197 0 4.356-1.336 6.097-5.573l6.892-16.641c.758-1.794 2.007-2.48 3.674-2.672v-.458h-7.612v.458c2.727.42 3.408 1.298 2.5 3.588l-3.182 8.13-4.316-9.847c-.569-1.26-.038-1.641 1.968-1.87v-.458H64.225v.458c1.856.305 2.31.61 3.143 2.328l7.612 15.878zm-21.282-.954h10.906v-.457c-2.158-.039-2.537-.42-2.537-1.336V0l-8.52.458v.458c2.31.038 2.688.725 2.688 1.87v22.787c0 .915-.416 1.297-2.537 1.335v.458zm-12.004 0h11.095v-.457c-2.196-.039-2.537-.42-2.537-1.336V9.58l-8.558.458v.458c2.158.038 2.726.725 2.726 1.87v13.206c0 .915-.568 1.297-2.726 1.335v.458zM47.26 6.985c2.045 0 3.37-1.336 3.37-3.435 0-2.023-1.325-3.321-3.37-3.321-2.007 0-3.37 1.374-3.37 3.473 0 2.1 1.363 3.283 3.37 3.283zM30.522 25.19c-1.476 0-2.423-1.107-2.423-2.9 0-2.825.984-3.78 4.771-4.2v5.726c-.492.802-1.439 1.374-2.348 1.374zm-3.105 2.366c2.575 0 4.317-1.412 5.642-2.938h.152c.417 1.908 1.515 2.9 4.09 2.9 1.629 0 2.878-.687 4.317-1.717l-.227-.42c-1.97.878-2.727.457-2.727-1.412v-8.207c0-4.465-2.461-6.297-7.422-6.297-5.832 0-8.218 1.45-8.218 3.778-.009 1.53 1.264 2.777 2.843 2.787h.035c1.894 0 2.878-1.07 2.878-2.825 0-.916-.34-1.641-1.06-2.29.644-.42 1.552-.687 2.538-.687 1.855 0 2.612 1.069 2.612 3.664v3.435c-1.553.42-5.793.038-8.444 1.489-1.59.878-2.462 2.557-2.462 4.046 0 2.251 1.666 4.694 5.453 4.694zm-17.192-1.984c-2.765 0-4.09-3.397-4.09-7.29 0-4.81 1.25-8.168 3.37-8.168 1.364 0 2.462.801 2.992 1.755v12.825c-.682.572-1.212.878-2.272.878zM7.65 27.672c2.158 0 3.749-.992 4.923-2.443v2.29l8.33-.153v-.305c-2.12 0-2.574-.84-2.574-1.908V0L9.808.458v.458c2.31.038 2.689.725 2.689 1.87v7.176c-1.099-.382-2.045-.61-3.56-.61C3.067 9.351 0 13.892 0 18.892c0 5.19 2.84 8.779 7.65 8.779z" transform="translate(-1217 -1648) translate(1217 1648)"/>
                <g fill="#AAD9ED">
                    <path d="M130.439 10.09c-4.706 0-8.072 2.409-8.072 6.2 0 2.923 1.76 4.74 4.438 5.609-2.945.632-4.476 2.409-4.476 3.712 0 1.462.919 3.16 3.213 3.95v.078c-3.06.475-4.17 1.462-4.17 3.121 0 2.29 3.558 3.752 8.302 3.752 6.12 0 10.213-3.081 10.213-6.675 0-3.16-2.142-4.739-6.312-4.739H129.1c-2.257 0-3.175-.395-3.175-1.185s.536-1.303 2.066-1.738c.81.13 1.628.195 2.448.198 4.667 0 8.033-2.41 8.033-6.24 0-2.528-1.492-4.266-3.749-5.214.536-.948 1.377-1.738 2.142-2.093 0 1.461 1.11 2.37 2.104 2.37 1.34 0 2.028-.988 2.028-2.094 0-1.343-.842-2.33-2.448-2.33-2.066 0-3.634 1.738-4.515 3.87-1.16-.374-2.375-.56-3.595-.553zm.153 11.572c-1.95 0-2.64-1.62-2.64-5.45 0-3.832.383-5.412 2.296-5.412 1.989 0 2.639 1.975 2.639 5.411 0 3.831-.42 5.45-2.295 5.45zm.076 14.14c-3.672 0-5.623-.988-5.623-3.516 0-1.106.46-1.856 1.416-2.607h5.585c3.136 0 4.093.869 4.093 2.29 0 2.45-2.219 3.832-5.47 3.832zm-32.246-7.19h10.366v-.473c-1.3-.04-1.874-.435-1.874-1.383V14.75c.956-1.225 1.874-2.014 3.06-2.014 1.721 0 2.448 1.224 2.448 3.278v10.742c0 .948-.612 1.343-1.95 1.383v.474h10.404v-.474c-2.18-.04-2.563-.435-2.563-1.383V15.974c0-3.792-1.454-5.885-4.858-5.885-2.448 0-5.01 1.54-6.617 3.87v-3.751l-8.416.474v.474c2.18.04 2.6.75 2.6 1.935v13.665c0 .948-.42 1.343-2.6 1.383v.474zm-24.75 0h10.673v-.473c-1.34-.04-2.219-.435-2.219-1.383v-14.89h6.541v14.89c0 .948-.918 1.343-2.295 1.383v.474H97.12v-.474c-2.218-.04-2.563-.435-2.563-1.383V10.208l-7.077.355h-5.355V6.811c0-3.002.306-4.187 1.186-5.095.535-.553 1.491-.869 2.83-.869 1.416 0 2.334.553 2.946 1.264-1.033.632-1.53 1.698-1.53 2.765 0 1.935 1.454 2.962 3.213 2.962 1.874 0 3.06-1.383 3.06-3.239 0-2.686-2.333-4.542-8.224-4.542-3.71 0-5.93.948-7.421 2.488-1.377 1.462-1.95 3.713-1.95 6.872v1.067l-3.329.71v.751h3.328v14.811c0 .948-.383 1.343-2.563 1.383v.474zm-10.48-17.851c2.103 0 2.983 2.962 2.486 7.544h-5.432c.153-4.66.956-7.544 2.945-7.544zm.267 18.168c3.749 0 6.235-1.698 8.033-4.582l-.42-.276c-1.416 2.014-2.947 3.16-5.203 3.16-3.673 0-5.623-2.529-5.623-7.505v-.632h11.323c.268-5.45-2.678-9.123-8.148-9.123-5.203 0-9.372 3.555-9.372 9.755 0 6.004 3.825 9.203 9.41 9.203zm-22.034-.316h11.208v-.474c-2.218-.04-2.563-.435-2.563-1.383V10.208l-8.645.474v.474c2.18.04 2.755.75 2.755 1.935v13.665c0 .948-.574 1.343-2.755 1.383v.474zm5.624-21.09c2.065 0 3.404-1.383 3.404-3.555 0-2.094-1.339-3.436-3.404-3.436-2.028 0-3.405 1.421-3.405 3.594 0 2.172 1.377 3.396 3.405 3.396zm-23.87 21.09H35.19v-.474c-2.945-.119-3.52-.435-3.52-1.383V14.71c.766-1.343 2.067-2.37 2.985-2.448-.153.513-.306 1.185-.306 1.777 0 1.58 1.185 3.08 3.251 3.08 1.76 0 3.022-1.421 3.022-3.475 0-2.054-1.3-3.555-3.672-3.555-2.104 0-4.17 1.422-5.355 3.831v-3.712l-8.416.474v.474c2.18.04 2.601.75 2.601 1.935v13.665c0 .948-.42 1.343-2.601 1.383v.474zm-11.476-.474c-1.262 0-2.257-.83-3.06-2.45V12.895c1.071-.75 1.721-1.106 2.716-1.106 2.448 0 3.71 3.08 3.71 7.228 0 5.331-.956 9.123-3.366 9.123zm-9.027 1.342h.803l2.87-2.211c1.72 1.145 4.283 1.659 6.348 1.659 5.318 0 8.607-4.187 8.607-10.111 0-4.779-2.295-8.847-6.961-8.847-2.334 0-4.208.948-5.7 2.29V.296L.036.769v.474c2.372.039 2.716.75 2.716 1.935V25.61l-.076 3.87z" transform="translate(-1217 -1648) translate(1217 1648) translate(85)"/>
                </g>
            </g>
        </g>
    </g>
</svg>
