<svg xmlns="http://www.w3.org/2000/svg" width="168" height="25" viewBox="0 0 168 25">
    <g fill-rule="evenodd">
        <path d="M8.377 18.548c4.433 0 5.956-2.067 5.956-8.431 0-6.419-2.067-8.295-6.092-8.295H6.718v16.726h1.659zM0 18.657c2.177-.082 2.638-.436 2.638-1.387V3.073c0-.925-.461-1.305-2.638-1.387V.952h8.676c6.772 0 10.063 3.644 10.063 8.866 0 5.03-2.693 9.573-9.655 9.573H0v-.734zM28.283 16.726v-3.808c-2.992.463-3.835 1.115-3.835 2.883 0 1.251.653 2.094 1.85 2.094.815 0 1.55-.543 1.985-1.17m-7.67-.353c0-1.06.571-2.23 1.713-2.856 1.959-1.06 5.059-1.06 5.957-1.386v-1.822c0-2.04-.653-2.802-2.094-2.802-.653 0-1.251.19-1.632.49.326.408.544.87.544 1.44 0 1.116-.708 1.878-1.959 1.878-1.169 0-1.903-.79-1.903-1.85 0-1.631 1.985-2.774 5.684-2.774 3.345 0 4.95 1.387 4.95 4.406v5.684c0 1.333.38 1.66 1.93 1.197l.218.544c-1.006.652-1.876 1.033-2.964 1.033-1.713 0-2.258-.625-2.584-1.958h-.109c-1.033 1.115-2.366 1.985-4.052 1.985-2.584 0-3.699-1.632-3.699-3.209M35.76 2.502c0-1.333.87-2.203 2.149-2.203 1.305 0 2.148.816 2.148 2.121 0 1.333-.843 2.203-2.148 2.203-1.279 0-2.149-.788-2.149-2.121zM34.21 18.71c1.55-.027 1.958-.272 1.958-.98V9.03c0-.816-.408-1.305-1.958-1.333v-.68l5.575-.244v10.96c0 .707.3.952 1.876.979v.68H34.21v-.68zM42.53 18.71c1.55-.026 1.877-.27 1.877-.978V2.447c0-.842-.326-1.305-2.012-1.332v-.68l5.63-.272v17.569c0 .707.298.952 1.876.979v.68h-7.37v-.68zM52.103 9.22c-.571-1.197-.98-1.523-2.258-1.741v-.653h7.398v.653c-1.523.136-1.795.57-1.442 1.414l2.91 6.881 2.312-5.63c.707-1.713.326-2.393-1.523-2.665v-.653h5.277v.653c-.952.109-1.741.68-2.34 2.04l-4.759 11.096c-1.414 3.317-2.828 4.297-4.433 4.297s-2.584-.87-2.584-2.176c0-.925.68-1.876 1.85-1.876 1.088 0 1.768.843 1.768 1.821 0 .435-.163.844-.381 1.061 1.006-.136 1.795-.952 2.964-3.807l.109-.326-4.868-10.39zM79.841 12.918c0-2.992-1.115-4.84-2.937-4.84-.843 0-1.47.326-2.258.924v7.887c.599 1.251 1.442 1.876 2.476 1.876 1.903 0 2.72-2.176 2.72-5.847zm-8.784 4.406V2.448c0-.843-.3-1.306-2.013-1.333v-.68l5.602-.272V8.24C75.734 7.261 77.04 6.61 78.7 6.61c3.29 0 5.004 2.665 5.004 6.092 0 3.943-2.312 6.908-6.174 6.908-1.305 0-2.991-.354-4.242-1.197l-1.66 1.496h-.652l.082-2.584zM85.115 18.71c1.55-.026 1.877-.27 1.877-.978V9.029c0-.816-.327-1.306-1.877-1.332v-.68l5.44-.245v2.42c.924-1.469 2.257-2.529 3.725-2.529 1.605 0 2.42 1.006 2.42 2.257 0 1.251-.788 2.149-1.93 2.149-1.224 0-2.013-.789-2.013-1.822 0-.245.055-.572.136-.816-.843.054-1.686.734-2.284 1.577v7.724c0 .707.462.924 2.447.979v.68h-7.941v-.68zM98.875 2.502c0-1.333.87-2.203 2.149-2.203 1.305 0 2.148.816 2.148 2.121 0 1.333-.843 2.203-2.148 2.203-1.279 0-2.149-.788-2.149-2.121zm-1.55 16.209c1.55-.027 1.958-.272 1.958-.98V9.03c0-.816-.408-1.305-1.958-1.333v-.68l5.575-.244v10.96c0 .707.3.952 1.877.979v.68h-7.452v-.68zM109.78 12.075l4.46-.027c.3-2.72-.38-4.65-2.067-4.65-1.469 0-2.258 1.659-2.394 4.677m-3.834 1.197c0-4.134 2.72-6.718 6.418-6.718 3.835 0 5.766 2.747 5.576 6.31h-8.187v.326c0 3.1 1.333 5.059 3.944 5.059 1.523 0 2.665-.816 3.698-2.23l.545.407c-1.197 1.904-2.883 3.21-5.576 3.21-3.97 0-6.418-2.366-6.418-6.364M119.46 18.71c1.578-.026 1.877-.27 1.877-.978V8.213h-2.34v-.789l2.34-.516v-.843c0-2.122.49-3.645 1.468-4.651C123.757.435 125.144 0 126.94 0c2.72 0 3.998 1.088 3.998 2.447 0 1.115-.625 1.905-1.822 1.905-1.06 0-1.904-.599-1.904-1.986 0-.408.218-1.06.408-1.36-.245-.136-.544-.217-.843-.217-.435 0-.761.108-1.088.435-.462.462-.734 1.441-.734 3.454v2.284h3.4V8.16h-3.4v9.573c0 .707.49.897 2.583.979v.68h-8.077v-.68z"/>
        <path d="M131.21 2.502c0-1.333.87-2.203 2.148-2.203 1.306 0 2.149.816 2.149 2.121 0 1.333-.843 2.203-2.149 2.203-1.278 0-2.148-.788-2.148-2.121zm-1.55 16.209c1.55-.027 1.958-.272 1.958-.98V9.03c0-.816-.408-1.305-1.959-1.333v-.68l5.576-.244v10.96c0 .707.3.952 1.876.979v.68h-7.452v-.68zM138.28 18.71c1.55-.026 1.876-.27 1.876-.978V9.029c0-.816-.326-1.306-1.877-1.332v-.68l5.44-.245v2.393c1.278-1.442 2.991-2.475 4.759-2.475 2.257 0 3.318 1.388 3.318 3.944v7.098c0 .707.3.952 1.876.979v.68h-6.989v-.68c1.088-.027 1.496-.272 1.496-.98v-6.608c0-1.659-.544-2.474-1.904-2.474-.98 0-1.768.516-2.502 1.278v7.805c0 .707.408.952 1.468.979v.68h-6.962v-.68zM162.32 10.879c0-2.149-.627-3.428-2.095-3.428-1.387 0-1.822 1.007-1.822 3.428 0 2.393.652 3.426 2.067 3.426 1.387 0 1.85-1.033 1.85-3.426m2.202 10.742c0-1.006-.735-1.578-3.645-1.578h-2.855c-.979.381-1.523.925-1.523 1.796 0 1.387 1.387 2.284 4.107 2.284 2.339 0 3.916-.98 3.916-2.502M162.89 7.098c.626-1.332 1.523-2.448 2.964-2.448 1.089 0 1.687.653 1.687 1.496 0 .734-.49 1.36-1.332 1.36-.653 0-1.306-.517-1.306-1.469-.544.19-1.061.735-1.36 1.333 1.36.68 2.285 1.822 2.285 3.454 0 2.638-2.367 4.27-5.467 4.27-.544 0-1.088-.054-1.604-.136-1.061.353-1.55.707-1.55 1.224 0 .544.544.897 2.719.897h1.986c3.426 0 5.003 1.06 5.003 3.345 0 2.366-2.665 4.488-7.016 4.488-3.373 0-5.739-1.143-5.739-2.747 0-1.17.98-2.067 3.128-2.393v-.082c-1.686-.544-2.285-1.441-2.285-2.475 0-.979.898-1.93 2.666-2.556-1.66-.626-2.775-1.85-2.775-3.726 0-2.61 2.367-4.243 5.467-4.243.897 0 1.768.136 2.53.408"/>
    </g>
</svg>
