<svg xmlns="http://www.w3.org/2000/svg" width="313" height="44" viewBox="0 0 313 44">
    <g fill="none" fill-rule="evenodd">
        <path fill="#FCFCFC" d="M10.088 34.384c-6.048 0-9.6-4.656-9.6-11.04 0-6.432 4.032-11.904 11.136-11.904 2.112 0 3.36.336 4.704.912V4.096c0-1.488-.528-2.304-3.552-2.352v-1.2l9.936-.48v30.672c0 1.296.624 2.16 3.36 2.16v1.056l-9.648.288v-2.832c-1.536 1.776-3.6 2.976-6.336 2.976zm2.64-2.832c1.632 0 2.64-.576 3.6-1.488V15.328c-.816-1.344-2.208-2.352-4.128-2.352-3.024 0-4.944 3.6-4.944 9.792 0 4.992 2.016 8.784 5.472 8.784zm21.36-23.616c-2.256 0-3.792-1.392-3.792-3.744 0-2.352 1.536-3.888 3.792-3.888 2.304 0 3.792 1.44 3.792 3.744 0 2.352-1.488 3.888-3.792 3.888zM27.56 34v-1.2c2.736-.048 3.456-.48 3.456-1.728v-15.36c0-1.44-.72-2.304-3.456-2.352v-1.2l9.84-.432v19.344c0 1.248.528 1.68 3.312 1.728V34H27.56zm15.216 0v-1.2c2.736-.048 3.312-.48 3.312-1.728v-15.36c0-1.44-.576-2.304-3.312-2.352v-1.2l9.6-.432V16c1.632-2.592 3.984-4.464 6.576-4.464 2.832 0 4.272 1.776 4.272 3.984s-1.392 3.792-3.408 3.792c-2.16 0-3.552-1.392-3.552-3.216 0-.432.096-1.008.24-1.44-1.488.096-2.976 1.296-4.032 2.784v13.632c0 1.248.816 1.632 4.32 1.728V34H42.776zm33.456.432c-7.008 0-11.328-4.176-11.328-11.232 0-7.296 4.8-11.856 11.328-11.856 6.768 0 10.176 4.848 9.84 11.136H71.624v.576c0 5.472 2.352 8.928 6.96 8.928 2.688 0 4.704-1.44 6.528-3.936l.96.72c-2.112 3.36-5.088 5.664-9.84 5.664zm-.336-21.6c-2.592 0-3.984 2.928-4.224 8.256l7.872-.048c.528-4.8-.672-8.208-3.648-8.208zm24.384 21.6c-7.008 0-11.28-4.32-11.28-11.184 0-7.344 5.04-11.904 11.808-11.904 6.384 0 8.784 3.12 8.784 5.52 0 2.112-1.2 3.6-3.312 3.6-2.4 0-3.6-1.44-3.6-3.216 0-1.296.864-2.448 1.584-2.88-.48-.816-1.632-1.584-3.264-1.584-3.168 0-5.232 3.504-5.232 9.792 0 5.184 2.112 9.312 6.864 9.312 2.496 0 4.752-1.344 6.48-3.6l.912.72c-2.16 3.312-5.088 5.424-9.744 5.424zm21.744-.048c-3.792 0-6.576-1.824-6.576-6.672V14.176h-4.224v-1.392l4.32-.912v-6l6.288-1.92v8.016h6.96v2.112h-6.96v13.776c0 2.544.816 3.744 2.736 3.744 1.44 0 2.64-1.008 3.696-3.024l1.056.624c-1.536 3.456-3.744 5.184-7.296 5.184zM145.352 34v-1.2c1.92-.048 2.4-.48 2.4-1.728V19.408c0-2.88-1.056-4.368-3.504-4.368-1.68 0-2.688.912-3.984 2.256v13.776c0 1.248.432 1.68 2.304 1.728V34h-12v-1.2c2.736-.048 3.312-.48 3.312-1.728v-15.36c0-1.44-.576-2.304-3.312-2.352v-1.2l9.6-.432v4.224c2.256-2.544 4.896-4.368 8.016-4.368 3.216 0 5.136 1.632 5.712 4.608 2.16-2.592 5.136-4.608 8.16-4.608 4.032 0 5.952 2.448 5.952 6.96v12.528c0 1.248.528 1.68 3.264 1.728V34h-12v-1.2c1.872-.048 2.352-.48 2.352-1.728V19.408c0-2.88-.912-4.368-3.312-4.368-1.248 0-2.88.96-4.272 2.496.048.432.096.672.096.96v12.576c0 1.248.48 1.68 2.448 1.728V34h-11.232zm34.512.336c-4.56 0-6.528-2.88-6.528-5.664a5.81 5.81 0 0 1 3.024-5.04c3.456-1.872 8.928-1.872 10.512-2.448v-3.216c0-3.6-1.152-4.944-3.696-4.944-1.152 0-2.208.336-2.88.864.576.72.96 1.536.96 2.544 0 1.968-1.248 3.312-3.456 3.312-2.064 0-3.36-1.392-3.36-3.264 0-2.88 3.504-4.896 10.032-4.896 5.904 0 8.736 2.448 8.736 7.776v10.032c0 2.352.672 2.928 3.408 2.112l.384.96c-1.776 1.152-3.312 1.824-5.232 1.824-3.024 0-3.984-1.104-4.56-3.456h-.192c-1.824 1.968-4.176 3.504-7.152 3.504zm3.504-2.976c1.44 0 2.736-.96 3.504-2.064v-6.72c-5.28.816-6.768 1.968-6.768 5.088 0 2.208 1.152 3.696 3.264 3.696zm20.784-23.424c-2.256 0-3.792-1.392-3.792-3.744 0-2.352 1.536-3.888 3.792-3.888 2.304 0 3.792 1.44 3.792 3.744 0 2.352-1.488 3.888-3.792 3.888zM197.624 34v-1.2c2.736-.048 3.456-.48 3.456-1.728v-15.36c0-1.44-.72-2.304-3.456-2.352v-1.2l9.84-.432v19.344c0 1.248.528 1.68 3.312 1.728V34h-13.152zm14.976 0v-1.2c2.736-.048 3.312-.48 3.312-1.728V4.096c0-1.488-.576-2.304-3.552-2.352v-1.2l9.936-.48v31.008c0 1.248.528 1.68 3.312 1.728V34H212.6zm19.968.768c-2.208 0-3.936-1.68-3.936-3.792s1.824-3.792 3.984-3.792c2.208 0 3.936 1.68 3.936 3.792s-1.824 3.792-3.984 3.792z"/>
        <path fill="#E22F22" d="M239.48 43.12v-1.2c2.736-.048 3.264-.48 3.264-1.728v-24.48c0-1.44-.576-2.304-3.312-2.352v-1.2l9.6-.432v2.928c2.16-1.872 4.32-3.216 7.104-3.216 5.664 0 8.88 4.512 8.88 11.136 0 6.432-3.696 11.76-10.176 11.76-2.304 0-4.032-.432-5.712-1.2v7.056c0 1.248.864 1.632 4.512 1.728v1.2h-14.16zm14.112-10.272c2.832 0 4.656-3.024 4.656-9.984 0-5.04-1.584-8.64-4.992-8.64-1.44 0-2.736.624-4.128 1.728v13.68c1.008 2.4 2.592 3.216 4.464 3.216zM267.704 34v-1.2c2.736-.048 3.312-.48 3.312-1.728v-15.36c0-1.44-.576-2.304-3.312-2.352v-1.2l9.6-.432V16c1.632-2.592 3.984-4.464 6.576-4.464 2.832 0 4.272 1.776 4.272 3.984s-1.392 3.792-3.408 3.792c-2.16 0-3.552-1.392-3.552-3.216 0-.432.096-1.008.24-1.44-1.488.096-2.976 1.296-4.032 2.784v13.632c0 1.248.816 1.632 4.32 1.728V34h-14.016zm33.744.432c-7.296 0-11.616-4.368-11.616-11.472 0-7.056 4.608-11.616 11.616-11.616 7.152 0 11.568 4.368 11.568 11.424 0 7.104-4.656 11.664-11.568 11.664zm.192-1.488c3.312 0 4.512-3.312 4.512-10.08 0-6.768-1.536-10.032-4.944-10.032s-4.56 3.264-4.56 10.032c0 6.768 1.536 10.08 4.992 10.08z"/>
    </g>
</svg>
