<?xml version="1.0" encoding="utf-8"?>
<!-- Generator: Adobe Illustrator 16.0.4, SVG Export Plug-In . SVG Version: 6.00 Build 0)  -->
<!DOCTYPE svg PUBLIC "-//W3C//DTD SVG 1.1//EN" "http://www.w3.org/Graphics/SVG/1.1/DTD/svg11.dtd">
<svg version="1.1" id="Layer_1" xmlns="http://www.w3.org/2000/svg" xmlns:xlink="http://www.w3.org/1999/xlink" x="0px" y="0px"
	 width="459px" height="151px" viewBox="0 0 459 151" enable-background="new 0 0 459 151" xml:space="preserve">
<g>
	<defs>
		<rect id="SVGID_1_" x="-364" y="-342.89" width="1190.55" height="841.89"/>
	</defs>
	<clipPath id="SVGID_2_">
		<use xlink:href="#SVGID_1_"  overflow="visible"/>
	</clipPath>
	<path clip-path="url(#SVGID_2_)" fill="#414141" d="M37.465,69.936c-7.445,0-12.056-2.908-13.474-9.524h4.288
		c21.657,0,33.335-6.918,33.335-19.389c0-10.772-9.865-18.707-24.831-18.707c-18.594,0-33.106,12.244-33.106,32.767v0.225
		c0,18.937,12.585,30.388,31.633,30.388c9.752,0,18.707-2.947,24.718-7.37l-5.897-15.535C48.578,67.213,43.132,69.936,37.465,69.936
		 M36.217,36.487c4.081,0,6.349,2.041,6.349,5.215c0,4.195-4.081,7.256-14.174,7.256h-4.509
		C25.224,40.796,30.218,36.487,36.217,36.487"/>
	<path clip-path="url(#SVGID_2_)" fill="#414141" d="M67.283,54.061v-0.227c0-19.728,14.512-31.52,31.519-31.52
		c8.166,0,15.308,2.496,20.637,5.781l-6.804,16.101c-3.402-3.061-7.597-5.215-12.244-5.215c-8.276,0-12.926,6.463-12.926,14.853
		v0.227c0,9.186,4.874,14.967,12.699,14.967c4.987,0,9.524-2.609,12.698-5.557l6.915,16.328c-5.44,3.517-13.491,5.896-21.654,5.896
		C80.774,85.694,67.283,73.905,67.283,54.061"/>
	<path clip-path="url(#SVGID_2_)" fill="#414141" d="M124.424,54.061v-0.227c0-19.955,13.832-31.52,30.953-31.52
		s30.84,11.565,30.84,31.52v0.227c0,19.844-13.719,31.633-30.84,31.633S124.424,73.905,124.424,54.061 M166.149,54.061v-0.227
		c0-10.883-3.968-16.667-10.772-16.667c-6.801,0-10.771,5.784-10.771,16.667v0.227c0,10.885,3.97,16.666,10.771,16.666
		C162.182,70.727,166.149,64.946,166.149,54.061"/>
	<path clip-path="url(#SVGID_2_)" fill="#414141" d="M194.493,79.232l4.763-7.482c6.464,4.081,12.699,5.78,19.614,5.78
		c9.072,0,13.946-3.626,13.946-8.841c0-6.35-5.781-7.825-15.08-10.093c-12.358-3.061-20.861-6.577-20.861-17.573
		c0-9.865,8.276-17.234,22.45-17.234c7.483,0,15.08,2.268,21.316,6.122l-4.536,7.255c-5.216-3.626-11.227-5.326-16.894-5.439
		c-8.958-0.228-13.608,3.626-13.608,8.842c0,6.124,5.67,7.597,14.856,9.865c12.356,3.174,21.202,6.235,21.088,17.8
		c0,10.092-8.162,17.235-22.677,17.235C210.139,85.469,202.317,83.542,194.493,79.232"/>
	<path clip-path="url(#SVGID_2_)" fill="#414141" d="M260.252,66.308V32.745h-12.923l1.586-7.597h11.337V8.596h8.846v16.552h19.84
		l-1.585,7.597h-18.255v33.563c0,8.163,3.739,10.999,9.068,10.999c3.288,0,6.012-1.248,8.846-3.061l3.855,7.256
		c-3.629,2.15-8.051,3.739-12.926,3.739C267.625,85.241,260.252,79.457,260.252,66.308"/>
	<path clip-path="url(#SVGID_2_)" fill="#414141" d="M295.968,54.742v-0.227c0-19.048,11.564-30.727,27.778-30.727
		c16.213,0,27.779,11.679,27.779,30.727v0.227c0,19.048-11.566,30.726-27.779,30.726C307.532,85.468,295.968,73.79,295.968,54.742
		 M342.567,54.742v-0.227c0-14.171-7.597-22.789-18.821-22.789c-11.226,0-18.819,8.618-18.819,22.789v0.227
		c0,14.174,7.594,22.788,18.819,22.788C334.971,77.53,342.567,68.916,342.567,54.742"/>
	<path clip-path="url(#SVGID_2_)" fill="#414141" d="M365.128,25.149h7.938l0.679,10.544c4.309-7.028,10.317-11.451,18.252-11.451
		c2.723,0,5.446,0.566,7.373,1.134l-1.475,8.39c-1.928-0.793-4.31-1.361-6.577-1.361c-6.69,0-11.565,3.402-17.349,12.588v39.116
		h-8.842V25.149z"/>
	<path clip-path="url(#SVGID_2_)" fill="#414141" d="M431.342,77.533c-10.823,0-18.498-6.391-19.309-19.73h11.483
		c23.134,0,30.73-6.915,30.73-17.008c0-9.521-7.597-17.007-20.41-17.007c-17.462,0-30.84,11.906-30.84,31.408v0.228
		c0,19.841,12.017,30.044,28.459,30.044c7.369,0,15.194-2.947,21.202-7.48l-3.854-7.598
		C443.248,75.15,437.353,77.533,431.342,77.533 M433.61,31.726c7.938,0,11.792,3.968,11.792,8.617c0,6.122-6.012,9.638-21.886,9.524
		H412.39C414.35,38.377,422.725,31.726,433.61,31.726"/>
	<polygon clip-path="url(#SVGID_2_)" fill="#414141" points="9.515,126.04 17.2,126.04 17.2,118.074 23.997,118.074 23.997,126.04 
		31.64,126.04 31.64,132.074 23.997,132.074 23.997,140.118 17.2,140.118 17.2,132.074 9.515,132.074 	"/>
	<path clip-path="url(#SVGID_2_)" fill="#414141" d="M40.249,136.004c1.552,0.918,3.354,1.584,5.222,1.584
		c1.77,0,3.039-0.602,3.039-2.025c0-3.354-9.43-1.265-9.43-7.501c0-3.258,2.878-5.061,6.359-5.061c1.835,0,3.892,0.444,6.042,1.423
		l-1.391,2.72c-1.519-0.756-3.322-1.232-4.619-1.232c-1.581,0-2.753,0.634-2.753,1.993c0,3.289,9.365,1.074,9.365,7.469
		c0,3.354-2.752,5.125-6.58,5.125c-2.531,0-4.716-0.663-6.803-1.867L40.249,136.004z"/>
	<path clip-path="url(#SVGID_2_)" fill="#414141" d="M64.54,130.215v-1.866c0-1.392-0.821-2.342-2.721-2.342
		c-1.645,0-3.448,0.729-5.283,1.646l-1.361-2.881c2.025-0.979,4.555-1.771,6.77-1.771c4.462,0,6.265,2.247,6.265,5.44v7.562
		c0,1.075,0.602,1.52,1.551,1.52v2.659c-2.784,0-3.956-0.538-4.777-1.965c-1.33,1.395-2.975,2.28-5.19,2.28
		c-2.974,0-5.031-1.803-5.031-4.43C54.763,132.019,59.035,130.499,64.54,130.215 M60.711,137.713c1.677,0,2.975-0.694,3.828-1.645
		v-3.577c-2.91,0.129-6.107,0.699-6.107,3.261C58.433,136.953,59.35,137.713,60.711,137.713"/>
	<path clip-path="url(#SVGID_2_)" fill="#414141" d="M74.147,126.323h-2.814v-2.753h2.814v-1.013c0-4.778,2.785-6.55,6.677-6.55
		c1.172,0,2.437,0.284,3.322,0.603l-0.917,2.656c-0.664-0.19-1.362-0.348-2.312-0.348c-2.118,0-3.1,1.203-3.1,3.608v1.043h4.462
		v2.753h-4.462v13.795h-3.67V126.323z"/>
	<path clip-path="url(#SVGID_2_)" fill="#414141" d="M93.028,122.969c4.842,0,7.151,3.258,7.151,7.658
		c0,0.506-0.062,1.266-0.126,1.675H88.538c0.187,3.418,1.835,5.221,4.807,5.221c1.709,0,3.322-0.631,4.716-1.519l1.613,2.438
		c-1.931,1.328-4.176,2.089-6.548,2.089c-5.032,0-8.29-3.322-8.29-8.925C84.835,126.323,88.377,122.969,93.028,122.969
		 M88.696,129.929h7.942c0-2.341-0.92-4.208-3.512-4.208C90.878,125.721,89.168,127.272,88.696,129.929"/>
	<path clip-path="url(#SVGID_2_)" fill="#414141" d="M103.808,123.381h3.354l0.284,2.753c1.236-2.183,2.849-3.197,4.874-3.197
		c0.885,0,1.613,0.158,2.215,0.412l-0.666,3.386c-0.632-0.254-1.266-0.412-2.119-0.412c-1.835,0-3.1,1.173-4.272,3.355v10.44h-3.67
		V123.381z"/>
	<path clip-path="url(#SVGID_2_)" fill="#414141" d="M126.291,126.323h-2.814v-2.753h2.814v-1.013c0-4.778,2.785-6.55,6.677-6.55
		c1.172,0,2.437,0.284,3.322,0.603l-0.917,2.656c-0.664-0.19-1.362-0.348-2.312-0.348c-2.118,0-3.1,1.203-3.1,3.608v1.043h4.462
		v2.753h-4.462v13.795h-3.67V126.323z"/>
	<path clip-path="url(#SVGID_2_)" fill="#414141" d="M145.266,123.001c4.713,0,8.225,3.354,8.225,8.544
		c0,5.534-3.322,8.953-8.225,8.953c-4.967,0-8.29-3.419-8.29-8.953C136.976,126.355,140.518,123.001,145.266,123.001
		 M145.266,137.62c2.782,0,4.458-2.405,4.458-6.047c0-3.383-1.803-5.662-4.458-5.662c-2.691,0-4.558,2.279-4.558,5.662
		C140.708,135.215,142.385,137.62,145.266,137.62"/>
	<path clip-path="url(#SVGID_2_)" fill="#414141" d="M157.056,123.381h3.354l0.284,2.753c1.236-2.183,2.849-3.197,4.874-3.197
		c0.885,0,1.613,0.158,2.215,0.412l-0.667,3.386c-0.631-0.254-1.265-0.412-2.118-0.412c-1.835,0-3.1,1.173-4.272,3.355v10.44h-3.67
		V123.381z"/>
	<path clip-path="url(#SVGID_2_)" fill="#414141" d="M179.76,143.756c1.14,0,1.835-0.441,2.311-1.771l0.757-1.96l-6.136-16.645
		h3.763l4.147,12.024h0.061l4.021-12.024h3.67l-6.645,18.762c-1.329,3.639-3.229,4.62-5.791,4.62c-1.265,0-2.531-0.287-3.48-0.634
		l1.075-2.943C178.273,143.473,179.065,143.756,179.76,143.756"/>
	<path clip-path="url(#SVGID_2_)" fill="#414141" d="M202.596,123.001c4.713,0,8.225,3.354,8.225,8.544
		c0,5.534-3.322,8.953-8.225,8.953c-4.967,0-8.29-3.419-8.29-8.953C194.306,126.355,197.848,123.001,202.596,123.001
		 M202.596,137.62c2.782,0,4.459-2.405,4.459-6.047c0-3.383-1.803-5.662-4.459-5.662c-2.691,0-4.558,2.279-4.558,5.662
		C198.038,135.215,199.715,137.62,202.596,137.62"/>
	<path clip-path="url(#SVGID_2_)" fill="#414141" d="M214.319,123.381h3.673v11.168c0,1.835,0.631,3.071,2.592,3.071
		c1.773,0,3.196-0.856,4.4-2.247v-11.992h3.67v16.737h-3.386l-0.222-2.025c-1.298,1.33-3.165,2.405-5.315,2.405
		c-3.796,0-5.412-2.373-5.412-6.011V123.381z"/>
	<path clip-path="url(#SVGID_2_)" fill="#414141" d="M249.711,130.215v-1.866c0-1.392-0.821-2.342-2.722-2.342
		c-1.645,0-3.447,0.729-5.282,1.646l-1.361-2.881c2.025-0.979,4.555-1.771,6.77-1.771c4.462,0,6.266,2.247,6.266,5.44v7.562
		c0,1.075,0.602,1.52,1.551,1.52v2.659c-2.784,0-3.956-0.538-4.777-1.965c-1.329,1.395-2.975,2.28-5.188,2.28
		c-2.976,0-5.032-1.803-5.032-4.43C239.934,132.019,244.206,130.499,249.711,130.215 M245.883,137.713
		c1.677,0,2.975-0.694,3.828-1.645v-3.577c-2.91,0.129-6.107,0.699-6.107,3.261C243.604,136.953,244.521,137.713,245.883,137.713"/>
	<path clip-path="url(#SVGID_2_)" fill="#414141" d="M258.053,123.381h3.448l0.189,1.993c1.269-1.33,3.104-2.405,5.254-2.405
		c3.734,0,5.408,2.373,5.408,6.011v11.139h-3.67v-11.2c0-1.835-0.757-3.068-2.624-3.068c-1.741,0-3.164,0.821-4.336,2.276v11.992
		h-3.67V123.381z"/>
	<path clip-path="url(#SVGID_2_)" fill="#414141" d="M275.76,131.48c0-5.505,2.688-8.479,6.674-8.479
		c1.996,0,3.734,0.918,5.097,2.341v-9.111h3.67v23.887h-3.261l-0.251-2.024c-1.33,1.391-3.008,2.405-5.255,2.405
		C278.416,140.498,275.76,137.365,275.76,131.48 M287.53,135.562v-7.53c-1.236-1.394-2.595-2.12-4.179-2.12
		c-2.562,0-3.89,1.931-3.89,5.601c0,3.828,1.327,6.075,3.89,6.075C284.997,137.588,286.265,136.985,287.53,135.562"/>
	<path clip-path="url(#SVGID_2_)" fill="#414141" d="M310.769,123.001c4.713,0,8.226,3.354,8.226,8.544
		c0,5.534-3.322,8.953-8.226,8.953c-4.967,0-8.29-3.419-8.29-8.953C302.479,126.355,306.021,123.001,310.769,123.001
		 M310.769,137.62c2.782,0,4.459-2.405,4.459-6.047c0-3.383-1.803-5.662-4.459-5.662c-2.69,0-4.558,2.279-4.558,5.662
		C306.211,135.215,307.888,137.62,310.769,137.62"/>
	<path clip-path="url(#SVGID_2_)" fill="#414141" d="M322.495,123.381h3.673v11.168c0,1.835,0.631,3.071,2.592,3.071
		c1.773,0,3.196-0.856,4.4-2.247v-11.992h3.67v16.737h-3.387l-0.222-2.025c-1.298,1.33-3.165,2.405-5.314,2.405
		c-3.796,0-5.412-2.373-5.412-6.011V123.381z"/>
	<path clip-path="url(#SVGID_2_)" fill="#414141" d="M341.152,123.381h3.354l0.284,2.753c1.236-2.183,2.849-3.197,4.874-3.197
		c0.885,0,1.613,0.158,2.215,0.412l-0.667,3.386c-0.631-0.254-1.265-0.412-2.118-0.412c-1.835,0-3.1,1.173-4.271,3.355v10.44h-3.67
		V123.381z"/>
	<polygon clip-path="url(#SVGID_2_)" fill="#414141" points="360.756,123.381 364.458,123.381 368.35,135.404 368.412,135.404 
		371.863,123.381 375.023,123.381 378.504,135.404 378.568,135.404 382.429,123.381 386.037,123.381 380.436,140.118 
		376.923,140.118 373.442,128.603 373.379,128.603 369.898,140.118 366.419,140.118 	"/>
	<path clip-path="url(#SVGID_2_)" fill="#414141" d="M396.305,123.001c4.713,0,8.226,3.354,8.226,8.544
		c0,5.534-3.322,8.953-8.226,8.953c-4.967,0-8.29-3.419-8.29-8.953C388.015,126.355,391.557,123.001,396.305,123.001
		 M396.305,137.62c2.782,0,4.459-2.405,4.459-6.047c0-3.383-1.803-5.662-4.459-5.662c-2.69,0-4.558,2.279-4.558,5.662
		C391.747,135.215,393.424,137.62,396.305,137.62"/>
	<path clip-path="url(#SVGID_2_)" fill="#414141" d="M408.093,123.381h3.354l0.284,2.753c1.236-2.183,2.849-3.197,4.874-3.197
		c0.885,0,1.613,0.158,2.215,0.412l-0.667,3.386c-0.631-0.254-1.265-0.412-2.118-0.412c-1.835,0-3.1,1.173-4.271,3.355v10.44h-3.67
		V123.381z"/>
	<rect x="421.721" y="116.23" clip-path="url(#SVGID_2_)" fill="#414141" width="3.673" height="23.887"/>
	<path clip-path="url(#SVGID_2_)" fill="#414141" d="M429.025,131.48c0-5.505,2.688-8.479,6.674-8.479
		c1.996,0,3.734,0.918,5.097,2.341v-9.111h3.67v23.887h-3.261l-0.251-2.024c-1.33,1.391-3.008,2.405-5.255,2.405
		C431.682,140.498,429.025,137.365,429.025,131.48 M440.796,135.562v-7.53c-1.236-1.394-2.595-2.12-4.179-2.12
		c-2.562,0-3.89,1.931-3.89,5.601c0,3.828,1.327,6.075,3.89,6.075C438.263,137.588,439.53,136.985,440.796,135.562"/>
</g>
</svg>
