<?xml version="1.0" encoding="utf-8"?>
<!-- Generator: Adobe Illustrator 16.0.0, SVG Export Plug-In . SVG Version: 6.00 Build 0)  -->
<!DOCTYPE svg PUBLIC "-//W3C//DTD SVG 1.1//EN" "http://www.w3.org/Graphics/SVG/1.1/DTD/svg11.dtd">
<svg version="1.1" id="Layer_1" xmlns="http://www.w3.org/2000/svg" xmlns:xlink="http://www.w3.org/1999/xlink" x="0px" y="0px"
	 width="378.781px" height="45.19px" viewBox="44.251 223 378.781 45.19" enable-background="new 44.251 223 378.781 45.19"
	 xml:space="preserve">
<g>
	<path fill="#231F20" d="M44.251,249.209c0-6.751,4.437-10.957,10.456-10.957c6.25,0,9.414,4.475,9.104,10.301H50.463v0.501v0.039
		c0,5.054,2.161,8.256,6.443,8.256c2.469,0,4.36-1.351,6.019-3.627l0.887,0.656c-1.967,3.086-4.707,5.247-9.104,5.247
		C48.225,259.588,44.251,255.729,44.251,249.209z M50.501,247.28l7.292-0.039c0.502-4.437-0.617-7.601-3.356-7.601
		C52.006,239.641,50.733,242.342,50.501,247.28z"/>
	<path fill="#231F20" d="M66.512,249.248c0-6.79,4.668-10.995,10.918-10.995c5.903,0,8.102,2.894,8.102,5.092
		c0,1.968-1.119,3.318-3.048,3.318c-2.237,0-3.318-1.35-3.318-2.97c0-1.196,0.811-2.276,1.466-2.662
		c-0.424-0.772-1.505-1.466-3.009-1.466c-2.932,0-4.823,3.241-4.823,9.066c0,4.784,1.968,8.604,6.327,8.604
		c2.315,0,4.398-1.235,5.98-3.318l0.849,0.656c-2.006,3.047-4.707,5.016-8.989,5.016C70.486,259.588,66.512,255.613,66.512,249.248z
		"/>
	<path fill="#231F20" d="M88.271,249.016c0-6.52,4.244-10.725,10.726-10.725c6.597,0,10.687,4.051,10.687,10.571
		c0,6.558-4.321,10.764-10.687,10.764C92.246,259.588,88.271,255.574,88.271,249.016z M103.356,248.9
		c0-6.25-1.427-9.259-4.552-9.259c-3.164,0-4.206,3.009-4.206,9.259s1.428,9.336,4.63,9.336
		C102.238,258.236,103.356,255.15,103.356,248.9z"/>
	<path fill="#231F20" d="M110.648,258.082c2.546-0.038,3.048-0.463,3.048-1.581v-14.198c0-1.35-0.54-2.122-3.048-2.161v-1.119
		l8.874-0.386v3.896c2.083-2.354,4.9-4.051,7.755-4.051c3.665,0,5.401,2.276,5.401,6.443v11.574c0,1.157,0.502,1.543,3.048,1.581
		v1.119h-11.419v-1.119c1.774-0.038,2.431-0.463,2.431-1.581v-10.764c0-2.701-0.888-4.051-3.125-4.051
		c-1.582,0-2.894,0.849-4.09,2.083v12.731c0,1.157,0.656,1.543,2.392,1.581v1.119h-11.343v-1.119H110.648z"/>
	<path fill="#231F20" d="M136.69,249.016c0-6.52,4.244-10.725,10.725-10.725c6.597,0,10.687,4.051,10.687,10.571
		c0,6.558-4.321,10.764-10.687,10.764C140.702,259.588,136.69,255.574,136.69,249.016z M151.775,248.9
		c0-6.25-1.428-9.259-4.553-9.259c-3.164,0-4.205,3.009-4.205,9.259s1.427,9.336,4.629,9.336
		C150.694,258.236,151.775,255.15,151.775,248.9z"/>
	<path fill="#231F20" d="M173.418,258.082c1.775-0.038,2.238-0.463,2.238-1.581v-10.764c0-2.662-0.964-4.051-3.241-4.051
		c-1.543,0-2.469,0.849-3.665,2.083v12.731c0,1.157,0.386,1.543,2.122,1.581v1.119h-11.15v-1.119
		c2.546-0.038,3.048-0.463,3.048-1.581v-14.198c0-1.35-0.54-2.122-3.048-2.161v-1.119l8.874-0.386v3.896
		c2.083-2.354,4.514-4.051,7.407-4.051c2.971,0,4.746,1.504,5.286,4.244c2.006-2.392,4.746-4.244,7.562-4.244
		c3.743,0,5.517,2.276,5.517,6.443v11.574c0,1.157,0.501,1.543,3.009,1.581v1.119h-11.111v-1.119c1.736-0.038,2.16-0.463,2.16-1.581
		v-10.764c0-2.662-0.849-4.051-3.048-4.051c-1.157,0-2.662,0.887-3.935,2.315c0.039,0.386,0.077,0.617,0.077,0.887v11.613
		c0,1.157,0.463,1.543,2.276,1.581v1.119h-10.378L173.418,258.082L173.418,258.082z"/>
	<path fill="#231F20" d="M198.804,258.082c2.546-0.038,3.202-0.463,3.202-1.581v-14.198c0-1.35-0.656-2.122-3.202-2.161v-1.119
		l9.105-0.386v17.863c0,1.157,0.501,1.543,3.048,1.581v1.119h-12.153V258.082z M201.35,231.655c0-2.161,1.428-3.588,3.511-3.588
		c2.122,0,3.511,1.312,3.511,3.472c0,2.16-1.389,3.588-3.511,3.588C202.778,235.127,201.35,233.815,201.35,231.655z"/>
	<path fill="#231F20" d="M212.346,249.248c0-6.79,4.668-10.995,10.918-10.995c5.903,0,8.102,2.894,8.102,5.092
		c0,1.968-1.119,3.318-3.048,3.318c-2.238,0-3.318-1.35-3.318-2.97c0-1.196,0.81-2.276,1.466-2.662
		c-0.424-0.772-1.504-1.466-3.009-1.466c-2.932,0-4.823,3.241-4.823,9.066c0,4.784,1.968,8.604,6.327,8.604
		c2.315,0,4.398-1.235,5.98-3.318l0.849,0.656c-2.006,3.047-4.707,5.016-8.989,5.016
		C216.319,259.588,212.346,255.613,212.346,249.248z"/>
	<path fill="#231F20" d="M242.4,258.082c2.546-0.038,3.048-0.463,3.048-1.581v-14.198c0-1.35-0.541-2.122-3.048-2.161v-1.119
		l8.874-0.386v3.935c1.504-2.392,3.665-4.128,6.096-4.128c2.623,0,3.936,1.659,3.936,3.665s-1.273,3.511-3.164,3.511
		c-2.006,0-3.279-1.273-3.279-2.971c0-0.386,0.077-0.926,0.231-1.35c-1.39,0.077-2.739,1.196-3.743,2.585v12.616
		c0,1.157,0.772,1.505,4.014,1.581v1.119H242.4V258.082z"/>
	<path fill="#231F20" d="M262.886,249.209c0-6.751,4.437-10.957,10.455-10.957c6.25,0,9.414,4.475,9.104,10.301h-13.348v0.501v0.039
		c0,5.054,2.16,8.256,6.442,8.256c2.47,0,4.36-1.351,6.019-3.627l0.887,0.656c-1.967,3.086-4.706,5.247-9.104,5.247
		C266.859,259.588,262.886,255.729,262.886,249.209z M269.136,247.28l7.292-0.039c0.502-4.437-0.617-7.601-3.357-7.601
		C270.641,239.641,269.367,242.342,269.136,247.28z"/>
	<path fill="#231F20" d="M285.146,249.248c0-6.79,4.668-10.995,10.918-10.995c5.903,0,8.103,2.894,8.103,5.092
		c0,1.968-1.119,3.318-3.048,3.318c-2.238,0-3.318-1.35-3.318-2.97c0-1.196,0.811-2.276,1.466-2.662
		c-0.424-0.772-1.504-1.466-3.009-1.466c-2.932,0-4.822,3.241-4.822,9.066c0,4.784,1.967,8.604,6.327,8.604
		c2.314,0,4.397-1.235,5.979-3.318l0.849,0.656c-2.006,3.047-4.707,5.016-8.989,5.016
		C289.121,259.588,285.146,255.613,285.146,249.248z"/>
	<path fill="#231F20" d="M306.906,249.016c0-6.52,4.243-10.725,10.725-10.725c6.598,0,10.688,4.051,10.688,10.571
		c0,6.558-4.321,10.764-10.688,10.764C310.88,259.588,306.906,255.574,306.906,249.016z M321.991,248.9
		c0-6.25-1.428-9.259-4.553-9.259c-3.164,0-4.205,3.009-4.205,9.259s1.427,9.336,4.629,9.336
		C320.872,258.236,321.991,255.15,321.991,248.9z"/>
	<path fill="#231F20" d="M332.138,242.612c-0.811-2.006-1.505-2.469-3.55-2.855v-1.08h12.037v1.08
		c-1.891,0.231-2.662,0.54-2.662,1.428c0,0.27,0.039,0.501,0.193,0.887l4.552,12.153h0.193l3.858-9.954
		c0.347-1.003,0.54-1.775,0.54-2.276c0-1.273-0.85-1.968-2.971-2.276v-1.08h8.564v1.08c-1.543,0.193-2.854,1.158-3.665,3.164
		l-6.829,16.552h-3.472L332.138,242.612z"/>
	<path fill="#231F20" d="M352.932,249.209c0-6.751,4.438-10.957,10.456-10.957c6.25,0,9.413,4.475,9.104,10.301h-13.349v0.501v0.039
		c0,5.054,2.16,8.256,6.442,8.256c2.47,0,4.36-1.351,6.019-3.627l0.888,0.656c-1.968,3.086-4.707,5.247-9.104,5.247
		C356.944,259.588,352.932,255.729,352.932,249.209z M359.221,247.28l7.292-0.039c0.501-4.437-0.617-7.601-3.356-7.601
		C360.726,239.641,359.414,242.342,359.221,247.28z"/>
	<path fill="#231F20" d="M374.691,258.082c2.546-0.038,3.048-0.463,3.048-1.581v-14.198c0-1.35-0.54-2.122-3.048-2.161v-1.119
		l8.873-0.386v3.935c1.505-2.392,3.665-4.128,6.096-4.128c2.624,0,3.936,1.659,3.936,3.665s-1.273,3.511-3.164,3.511
		c-2.006,0-3.279-1.273-3.279-2.971c0-0.386,0.077-0.926,0.231-1.35c-1.389,0.077-2.738,1.196-3.742,2.585v12.616
		c0,1.157,0.772,1.505,4.013,1.581v1.119h-12.963V258.082z"/>
	<path fill="#231F20" d="M398.688,242.612c-0.926-1.967-1.582-2.469-3.665-2.855v-1.08h12.075v1.08
		c-2.469,0.231-2.932,0.926-2.354,2.315l4.746,11.227l3.78-9.182c1.157-2.778,0.54-3.897-2.469-4.36v-1.08h8.604v1.08
		c-1.544,0.193-2.855,1.119-3.819,3.318l-7.755,18.094c-2.315,5.401-4.63,7.021-7.215,7.021s-4.205-1.427-4.205-3.55
		c0-1.504,1.119-3.047,3.01-3.047c1.774,0,2.893,1.389,2.893,2.971c0,0.693-0.27,1.389-0.617,1.736
		c1.659-0.232,2.933-1.544,4.823-6.212l0.192-0.54L398.688,242.612z"/>
	<path fill="#231F20" d="M416.821,256.848c0-1.658,1.427-2.971,3.125-2.971c1.735,0,3.086,1.312,3.086,2.971
		c0,1.659-1.427,2.971-3.125,2.971C418.171,259.818,416.821,258.507,416.821,256.848z"/>
</g>
</svg>
