<svg xmlns="http://www.w3.org/2000/svg" width="336" height="41" viewBox="0 0 336 41">
    <g fill="none" fill-rule="evenodd">
        <g fill-rule="nonzero">
            <g>
                <path fill="#73459B" d="M13.452 40.812c5.643 0 9.177-2.736 11.685-6.726l-1.14-.855c-2.166 2.964-4.56 4.674-7.752 4.674-5.378 0-8.168-3.964-8.263-10.268l-.002-.391v-.627h17.157c.399-7.467-3.648-13.224-11.685-13.224C5.7 13.395 0 18.81 0 27.474c0 8.379 5.13 13.338 13.452 13.338zm-.399-25.65c3.534 0 4.959 4.047 4.332 9.747l-9.348.057.04-.731c.377-5.863 2.019-9.073 4.976-9.073zm14.434 25.137h15.447v-1.425l-.54-.014C39.557 38.755 39 38.22 39 36.822V0L27.202.57v1.425c3.438.055 4.179.974 4.216 2.651l.002 32.176c0 1.482-.684 1.995-3.933 2.052v1.425zm31.078.513c5.643 0 9.177-2.736 11.685-6.726l-1.14-.855c-2.166 2.964-4.56 4.674-7.752 4.674-5.378 0-8.168-3.964-8.263-10.268l-.002-1.018H70.25c.399-7.467-3.648-13.224-11.685-13.224-7.752 0-13.452 5.415-13.452 14.079 0 8.379 5.13 13.338 13.452 13.338zm-.399-25.65c3.534 0 4.959 4.047 4.332 9.747l-9.348.057c.285-6.327 1.938-9.804 5.016-9.804zm28.456 25.65c5.529 0 9.006-2.508 11.571-6.441l-1.083-.855c-2.052 2.679-4.731 4.275-7.695 4.275-5.643 0-8.151-4.902-8.151-11.058 0-7.467 2.451-11.628 6.213-11.628 1.938 0 3.306.912 3.876 1.881-.855.513-1.881 1.881-1.881 3.42 0 2.109 1.425 3.819 4.275 3.819 2.508 0 3.933-1.767 3.933-4.275 0-2.85-2.85-6.555-10.431-6.555-8.037 0-14.022 5.415-14.022 14.136 0 8.151 5.073 13.281 13.395 13.281zm25.321-.057c4.218 0 6.84-2.052 8.664-6.156l-1.254-.741c-1.254 2.394-2.679 3.591-4.389 3.591-2.28 0-3.249-1.425-3.249-4.446V16.644h8.265v-2.508h-8.265V4.617l-7.467 2.28v7.125l-5.13 1.083v1.653h5.016v16.074c0 5.757 3.306 7.923 7.809 7.923zm17.398-31.407c2.736 0 4.503-1.824 4.503-4.617 0-2.736-1.767-4.446-4.503-4.446-2.679 0-4.503 1.824-4.503 4.617s1.824 4.446 4.503 4.446zm-7.752 30.951h15.618v-1.425l-.54-.014c-2.75-.102-3.357-.609-3.391-1.913l-.002-23.096-11.685.513v1.425c3.249.057 4.104 1.083 4.104 2.793v18.24c0 1.482-.855 1.995-4.104 2.052v1.425zm31.705.513c8.208 0 13.737-5.415 13.737-13.851 0-8.379-5.244-13.566-13.737-13.566-8.322 0-13.794 5.415-13.794 13.794 0 8.436 5.13 13.623 13.794 13.623zm.228-1.767c-4.033 0-5.864-3.799-5.926-11.558l-.002-.412c0-8.037 1.368-11.913 5.415-11.913s5.871 3.876 5.871 11.913l-.005.817c-.096 7.487-1.556 11.153-5.353 11.153zm16.144 1.254v-1.425l.532-.014c2.793-.105 3.401-.64 3.401-2.038v-18.24c0-1.71-.684-2.736-3.933-2.793v-1.425l11.4-.513v5.016c2.679-3.021 6.27-5.187 9.975-5.187 4.731 0 6.954 2.907 6.954 8.265v14.877c0 1.482.627 1.995 3.933 2.052v1.425h-14.649v-1.425c2.28-.057 3.135-.57 3.135-2.052V22.971c0-3.477-1.14-5.187-3.99-5.187-2.052 0-3.705 1.083-5.244 2.679v16.359c0 1.482.855 1.995 3.078 2.052v1.425h-14.592z" transform="translate(0 1)"/>
                <path fill="#0A1726" d="M204.62 40.299h27.132l.228-12.141-1.425-.057-.21.566c-1.581 4.196-2.576 5.191-6.345 5.191h-13.68v-.399l8.379-5.301.885-.556c8.955-5.686 12.111-9.692 12.111-14.606 0-5.757-4.389-10.203-13.566-10.203-7.296 0-13.281 3.591-13.281 9.348 0 2.907 1.938 5.13 4.845 5.13 3.021 0 4.674-2.337 4.674-4.845 0-2.337-1.425-3.933-3.819-4.788 1.083-1.881 3.705-2.964 6.327-2.964 3.99 0 6.555 2.508 6.555 8.208 0 6.064-2.186 9.303-9.911 15.337l-8.899 6.893v5.187zm47.38.855c9.576 0 15.732-8.379 15.732-19.266 0-10.944-5.814-19.095-15.675-19.095-9.633 0-15.789 8.436-15.789 19.323S242.139 41.154 252 41.154zm.285-1.824c-5.047 0-6.91-5.288-7.007-16.39l-.004-.938c0-11.799 1.368-17.385 6.498-17.385s6.954 5.643 6.954 17.385l-.003.926c-.07 11.11-1.445 16.402-6.438 16.402zm19.792.969h27.132l.228-12.141-1.425-.057-.21.566c-1.581 4.196-2.576 5.191-6.345 5.191h-13.68v-.399l8.379-5.301.885-.556c8.955-5.686 12.111-9.692 12.111-14.606 0-5.757-4.389-10.203-13.566-10.203-7.296 0-13.281 3.591-13.281 9.348 0 2.907 1.938 5.13 4.845 5.13 3.021 0 4.674-2.337 4.674-4.845 0-2.337-1.425-3.933-3.819-4.788 1.083-1.881 3.705-2.964 6.327-2.964 3.99 0 6.555 2.508 6.555 8.208 0 6.064-2.186 9.303-9.911 15.337l-8.899 6.893v5.187zm47.38.855c9.576 0 15.732-8.379 15.732-19.266 0-10.944-5.814-19.095-15.675-19.095-9.633 0-15.789 8.436-15.789 19.323s5.871 19.038 15.732 19.038zm.285-1.824c-5.047 0-6.91-5.288-7.007-16.39l-.004-.938c0-11.799 1.368-17.385 6.498-17.385s6.954 5.643 6.954 17.385l-.003.926c-.07 11.11-1.445 16.402-6.438 16.402z" transform="translate(0 1)"/>
            </g>
        </g>
    </g>
</svg>
