<?xml version="1.0" encoding="utf-8"?>
<!-- Generator: Adobe Illustrator 23.0.2, SVG Export Plug-In . SVG Version: 6.00 Build 0)  -->
<svg version="1.1" id="Layer_1" xmlns="http://www.w3.org/2000/svg" xmlns:xlink="http://www.w3.org/1999/xlink" x="0px" y="0px"
	 viewBox="0 0 336 41" style="enable-background:new 0 0 336 41;" xml:space="preserve">
<style type="text/css">
	.st0{fill:#73459B;}
	.st1{fill:#0A1726;}
	.st2{stroke:#000000;stroke-miterlimit:10;}
</style>
<g>
	<g>
		<g>
			<path class="st0" d="M13.5,41.8c5.6,0,9.2-2.7,11.7-6.7L24,34.2c-2.2,3-4.6,4.7-7.8,4.7c-5.4,0-8.2-4-8.3-10.3l0-0.4v-0.6h17.2
				c0.4-7.5-3.6-13.2-11.7-13.2C5.7,14.4,0,19.8,0,28.5C0,36.9,5.1,41.8,13.5,41.8z M13.1,16.2c3.5,0,5,4,4.3,9.7L8,26l0-0.7
				C8.5,19.4,10.1,16.2,13.1,16.2z M27.5,41.3h15.4v-1.4l-0.5,0c-2.8-0.1-3.4-0.6-3.4-2V1L27.2,1.6V3c3.4,0.1,4.2,1,4.2,2.7l0,32.2
				c0,1.5-0.7,2-3.9,2.1V41.3z M58.6,41.8c5.6,0,9.2-2.7,11.7-6.7l-1.1-0.9c-2.2,3-4.6,4.7-7.8,4.7c-5.4,0-8.2-4-8.3-10.3l0-1h17.2
				c0.4-7.5-3.6-13.2-11.7-13.2c-7.8,0-13.5,5.4-13.5,14.1C45.1,36.9,50.2,41.8,58.6,41.8z M58.2,16.2c3.5,0,5,4,4.3,9.7L53.2,26
				C53.4,19.6,55.1,16.2,58.2,16.2z M86.6,41.8c5.5,0,9-2.5,11.6-6.4l-1.1-0.9c-2.1,2.7-4.7,4.3-7.7,4.3c-5.6,0-8.2-4.9-8.2-11.1
				c0-7.5,2.5-11.6,6.2-11.6c1.9,0,3.3,0.9,3.9,1.9c-0.9,0.5-1.9,1.9-1.9,3.4c0,2.1,1.4,3.8,4.3,3.8c2.5,0,3.9-1.8,3.9-4.3
				c0-2.9-2.8-6.6-10.4-6.6c-8,0-14,5.4-14,14.1C73.2,36.7,78.3,41.8,86.6,41.8z M111.9,41.8c4.2,0,6.8-2.1,8.7-6.2l-1.3-0.7
				c-1.3,2.4-2.7,3.6-4.4,3.6c-2.3,0-3.2-1.4-3.2-4.4V17.6h8.3v-2.5h-8.3V5.6l-7.5,2.3V15l-5.1,1.1v1.7h5v16.1
				C104.1,39.6,107.4,41.8,111.9,41.8z M129.3,10.3c2.7,0,4.5-1.8,4.5-4.6c0-2.7-1.8-4.4-4.5-4.4c-2.7,0-4.5,1.8-4.5,4.6
				S126.7,10.3,129.3,10.3z M121.6,41.3h15.6v-1.4l-0.5,0c-2.8-0.1-3.4-0.6-3.4-1.9l0-23.1l-11.7,0.5v1.4c3.2,0.1,4.1,1.1,4.1,2.8
				v18.2c0,1.5-0.9,2-4.1,2.1C121.6,39.9,121.6,41.3,121.6,41.3z M153.3,41.8c8.2,0,13.7-5.4,13.7-13.9c0-8.4-5.2-13.6-13.7-13.6
				c-8.3,0-13.8,5.4-13.8,13.8C139.5,36.6,144.6,41.8,153.3,41.8z M153.5,40c-4,0-5.9-3.8-5.9-11.6l0-0.4c0-8,1.4-11.9,5.4-11.9
				s5.9,3.9,5.9,11.9l0,0.8C158.8,36.4,157.3,40,153.5,40z M169.7,41.3v-1.4l0.5,0c2.8-0.1,3.4-0.6,3.4-2V19.6
				c0-1.7-0.7-2.7-3.9-2.8v-1.4l11.4-0.5v5c2.7-3,6.3-5.2,10-5.2c4.7,0,7,2.9,7,8.3v14.9c0,1.5,0.6,2,3.9,2.1v1.4h-14.6v-1.4
				c2.3-0.1,3.1-0.6,3.1-2.1V24c0-3.5-1.1-5.2-4-5.2c-2.1,0-3.7,1.1-5.2,2.7v16.4c0,1.5,0.9,2,3.1,2.1v1.4L169.7,41.3L169.7,41.3z"
				/>
			<path class="st1" d="M204.6,41.3h27.1l0.2-12.1l-1.4-0.1l-0.2,0.6c-1.6,4.2-2.6,5.2-6.3,5.2h-13.7v-0.4l8.4-5.3l0.9-0.6
				c9-5.7,12.1-9.7,12.1-14.6c0-5.8-4.4-10.2-13.6-10.2c-7.3,0-13.3,3.6-13.3,9.3c0,2.9,1.9,5.1,4.8,5.1c3,0,4.7-2.3,4.7-4.8
				c0-2.3-1.4-3.9-3.8-4.8c1.1-1.9,3.7-3,6.3-3c4,0,6.6,2.5,6.6,8.2c0,6.1-2.2,9.3-9.9,15.3l-8.9,6.9L204.6,41.3L204.6,41.3z
				 M252,42.2c9.6,0,15.7-8.4,15.7-19.3c0-10.9-5.8-19.1-15.7-19.1c-9.6,0-15.8,8.4-15.8,19.3S242.1,42.2,252,42.2z M252.3,40.3
				c-5,0-6.9-5.3-7-16.4l0-0.9c0-11.8,1.4-17.4,6.5-17.4s7,5.6,7,17.4l0,0.9C258.7,35,257.3,40.3,252.3,40.3L252.3,40.3z
				 M272.1,41.3h27.1l0.2-12.1l-1.4-0.1l-0.2,0.6c-1.6,4.2-2.6,5.2-6.3,5.2h-13.7v-0.4l8.4-5.3l0.9-0.6c9-5.7,12.1-9.7,12.1-14.6
				c0-5.8-4.4-10.2-13.6-10.2c-7.3,0-13.3,3.6-13.3,9.3c0,2.9,1.9,5.1,4.8,5.1c3,0,4.7-2.3,4.7-4.8c0-2.3-1.4-3.9-3.8-4.8
				c1.1-1.9,3.7-3,6.3-3c4,0,6.6,2.5,6.6,8.2c0,6.1-2.2,9.3-9.9,15.3l-8.9,6.9C272.1,36.1,272.1,41.3,272.1,41.3z"/>
		</g>
	</g>
</g>
<g>
	<path class="st2" d="M315.5,4.7c6.1,0,10.8,2.8,10.8,8c0,3.3-2.2,5.2-4.2,6.3c-2.4,1.3-4.6,1.9-7.3,2.5v0.3c4.8,0.1,8.2,1,10.2,2.5
		c2,1.5,3.2,3.4,3.2,6.2c0,3.5-1.7,6.2-4,7.9c-2.4,1.8-6.2,2.8-10.3,2.8c-7.4,0-10.9-2.7-10.9-5.7c0-1.8,2-3.1,4-3.1
		c1.4,0,2,0.9,2,1.6c1,4.9,2.3,6.4,4.8,6.4c3.3,0,4.7-3.7,4.7-9.2c0-5.5-1.2-8.5-5.9-8.5c-0.7,0-1.8,0.1-2.7,0.3l-0.9-0.7l0.1-0.2
		c2.1-0.2,4.1-0.6,5.4-1.6c1.8-1.1,3-3.5,3-7.5c0-3.9-1.4-7.4-4.4-7.4c-2.2,0-3.6,1.2-3.6,4.5c0,0.7,0.2,1.5,0.4,2.2
		c0.1,0.5-0.1,1.2-0.5,1.5c-0.6,0.7-1.5,0.9-2.4,0.9c-1.9,0-3.3-1-3.3-3.2C303.8,8.6,307.7,4.7,315.5,4.7L315.5,4.7z"/>
</g>
</svg>
