<svg xmlns="http://www.w3.org/2000/svg" width="304" height="42" viewBox="0 0 304 42">
    <g fill="none" fill-rule="evenodd">
        <path fill="#169058" fill-rule="nonzero" d="M13.018 4.228c1.884 0 3.712.282 5.31.846C19.642 2.31 21.526 0 24.552 0c2.284 0 3.54 1.353 3.54 3.1 0 1.523-1.028 2.82-2.798 2.82-1.37 0-2.74-1.072-2.74-3.045-1.142.395-2.227 1.522-2.855 2.763 2.855 1.409 4.796 3.777 4.796 7.16 0 5.468-4.968 8.85-11.477 8.85-1.142 0-2.284-.112-3.369-.282-2.226.733-3.254 1.466-3.254 2.537 0 1.128 1.142 1.86 5.71 1.86h4.168c7.194 0 10.506 2.2 10.506 6.935 0 4.905-5.596 9.302-14.731 9.302C4.968 42 0 39.632 0 36.306c0-2.424 2.056-4.285 6.566-4.961v-.17c-3.54-1.127-4.796-2.987-4.796-5.13 0-2.029 1.884-4.002 5.596-5.299-3.483-1.296-5.824-3.833-5.824-7.723 0-5.412 4.967-8.795 11.476-8.795zm.514 36.137c4.91 0 8.222-2.03 8.222-5.186 0-2.086-1.541-3.27-7.65-3.27H8.107c-2.056.789-3.198 1.917-3.198 3.72 0 2.876 2.912 4.736 8.622 4.736zm-.285-20.352c2.912 0 3.882-2.142 3.882-7.103 0-4.454-1.313-7.103-4.396-7.103-2.912 0-3.826 2.086-3.826 7.103 0 4.961 1.37 7.103 4.34 7.103zM28.377 30.556v-1.41c3.255-.056 3.94-.563 3.94-2.03V9.077c0-1.69-.685-2.706-3.94-2.762v-1.41l11.42-.507v5.018c1.941-3.045 4.74-5.243 7.822-5.243 3.37 0 5.082 2.086 5.082 4.679 0 2.593-1.656 4.454-4.054 4.454-2.57 0-4.225-1.635-4.225-3.777 0-.508.114-1.184.285-1.692-1.77.113-3.54 1.522-4.796 3.27v16.01c0 1.467.97 1.918 5.139 2.03v1.41H28.377zM68.174 31.063c-8.336 0-13.475-4.905-13.475-13.192 0-8.569 5.71-13.925 13.475-13.925 8.051 0 12.105 5.694 11.705 13.08H62.693v.676c0 6.427 2.798 10.486 8.28 10.486 3.197 0 5.595-1.691 7.765-4.623l1.141.846c-2.512 3.946-6.052 6.652-11.705 6.652zm-.4-25.369c-3.082 0-4.738 3.439-5.024 9.697l9.364-.057c.628-5.637-.8-9.64-4.34-9.64zM96.837 31.063c-8.336 0-13.475-4.905-13.475-13.192 0-8.569 5.71-13.925 13.475-13.925 8.051 0 12.105 5.694 11.705 13.08H91.356v.676c0 6.427 2.798 10.486 8.28 10.486 3.197 0 5.595-1.691 7.764-4.623l1.142.846c-2.512 3.946-6.052 6.652-11.705 6.652zm-.4-25.369c-3.083 0-4.738 3.439-5.024 9.697l9.364-.057c.628-5.637-.8-9.64-4.34-9.64zM111.683 30.556v-1.41c3.254-.056 3.94-.563 3.94-2.03V9.077c0-1.69-.686-2.706-3.94-2.762v-1.41l11.42-.507v4.961c2.683-2.988 6.28-5.13 9.991-5.13 4.74 0 6.966 2.875 6.966 8.175v14.714c0 1.466.628 1.973 3.94 2.03v1.409h-14.674v-1.41c2.284-.056 3.14-.563 3.14-2.03V13.418c0-3.438-1.142-5.13-3.997-5.13-2.055 0-3.71 1.071-5.253 2.65v16.18c0 1.466.857 1.973 3.084 2.03v1.409h-14.617z"/>
        <path fill="#231F20" d="M244.7 29.3c2.2-.1 2.8-.6 2.8-2V13.7c0-3.4-1.2-5.1-4.1-5.1-1.9 0-3.1 1.1-4.6 2.6v16c0 1.5.5 1.9 2.7 2v1.4h-14v-1.4c3.2-.1 3.9-.6 3.9-2V9.4c0-1.7-.7-2.7-3.9-2.7V5.3l11.2-.5v4.9c2.6-3 5.7-5.1 9.3-5.1 3.6 0 6 1.9 6.7 5.4 2.5-3 6-5.4 9.5-5.4 4.7 0 6.9 2.9 6.9 8.1v14.6c0 1.5.6 1.9 3.8 2v1.4h-14v-1.4c2.2-.1 2.7-.6 2.7-2V13.7c0-3.4-1.1-5.1-3.9-5.1-1.5 0-3.4 1.1-5 2.9.1.4.1.7.1 1.1v14.6c0 1.5.6 1.9 2.9 2v1.4h-13v-1.3z"/>
        <path fill="#231F20" fill-rule="nonzero" d="M184.4 4.3c-8.2 0-13.6 5.3-13.6 13.5s5 13.4 13.6 13.4c8.1 0 13.5-5.3 13.5-13.6s-5.2-13.3-13.5-13.3zm.2 25.1c-4 0-5.8-3.9-5.8-11.7 0-7.8 1.3-11.7 5.3-11.7s5.8 3.8 5.8 11.7c0 7.9-1.4 11.8-5.3 11.7zM213.9 4.3c-8.2 0-13.6 5.3-13.6 13.5s5 13.4 13.6 13.4c8 0 13.5-5.3 13.5-13.6s-5.1-13.3-13.5-13.3zm.3 25.1c-4 0-5.8-3.9-5.8-11.7 0-7.8 1.3-11.7 5.3-11.7s5.8 3.8 5.8 11.7c0 7.9-1.4 11.8-5.3 11.7z"/>
        <path fill="#231F20" d="M165.6 4.6c-3 0-5.8 2.2-7.7 5.2v-5l-11.2.5v1.4c3.2 0 3.9 1 3.9 2.7v17.9c0 1.5-.7 1.9-3.9 2v1.4H163v-1.4c-4.1-.1-5-.6-5-2V11.4c.9-1.4 2.3-2.5 3.9-3.1 0 .2 0 .4-.1.7-.1 2.3 1.6 4.3 3.9 4.4 2.3.1 4.3-1.6 4.4-3.9v-.1V9c0-2.4-1.9-4.4-4.2-4.4 0-.1-.2-.1-.3 0M285.42 27.527c0 1.1-.5 2.2-1.5 2.8-1.2.9-2.9 1-4.2.2-1.6-.9-2.2-3-1.3-4.7.1-.1.1-.2.2-.3 1.3-1.7 3.6-2 5.3-.8 1 .6 1.6 1.7 1.5 2.8"/>
    </g>
</svg>
