<?xml version="1.0" encoding="utf-8"?>
<!-- Generator: Adobe Illustrator 16.0.0, SVG Export Plug-In . SVG Version: 6.00 Build 0)  -->
<!DOCTYPE svg PUBLIC "-//W3C//DTD SVG 1.1//EN" "http://www.w3.org/Graphics/SVG/1.1/DTD/svg11.dtd">
<svg version="1.1" id="Layer_1" xmlns="http://www.w3.org/2000/svg" xmlns:xlink="http://www.w3.org/1999/xlink" x="0px" y="0px"
	 width="304px" height="52.5px" viewBox="0 -10.5 304 52.5" enable-background="new 0 -10.5 304 52.5" xml:space="preserve">
<g>
	<path fill="#169058" d="M13.018,4.228c1.884,0,3.712,0.282,5.31,0.846C19.642,2.31,21.526,0,24.552,0c2.284,0,3.54,1.353,3.54,3.1
		c0,1.523-1.028,2.82-2.798,2.82c-1.37,0-2.74-1.072-2.74-3.045c-1.142,0.395-2.227,1.522-2.855,2.763
		c2.855,1.409,4.796,3.777,4.796,7.16c0,5.468-4.968,8.851-11.477,8.851c-1.142,0-2.284-0.112-3.369-0.282
		c-2.226,0.733-3.254,1.466-3.254,2.536c0,1.129,1.142,1.861,5.71,1.861h4.168c7.194,0,10.506,2.199,10.506,6.935
		c0,4.905-5.596,9.302-14.731,9.302C4.968,42,0,39.632,0,36.307c0-2.425,2.056-4.285,6.566-4.962v-0.17
		c-3.54-1.127-4.796-2.987-4.796-5.13c0-2.029,1.884-4.002,5.596-5.299c-3.483-1.296-5.824-3.833-5.824-7.723
		C1.542,7.611,6.509,4.228,13.018,4.228z M13.532,40.365c4.91,0,8.222-2.03,8.222-5.186c0-2.087-1.541-3.271-7.65-3.271H8.107
		c-2.056,0.789-3.198,1.917-3.198,3.72c0,2.876,2.912,4.736,8.622,4.736H13.532z M13.247,20.013c2.912,0,3.882-2.142,3.882-7.103
		c0-4.454-1.313-7.103-4.396-7.103c-2.912,0-3.826,2.086-3.826,7.103C8.907,17.871,10.277,20.013,13.247,20.013z M28.377,30.557
		v-1.41c3.255-0.057,3.94-0.563,3.94-2.03V9.077c0-1.69-0.685-2.706-3.94-2.762v-1.41l11.42-0.507v5.018
		c1.941-3.045,4.74-5.243,7.822-5.243c3.37,0,5.082,2.086,5.082,4.679c0,2.593-1.656,4.454-4.054,4.454
		c-2.57,0-4.225-1.635-4.225-3.777c0-0.508,0.114-1.184,0.285-1.692c-1.77,0.113-3.54,1.522-4.796,3.27v16.01
		c0,1.467,0.97,1.918,5.139,2.029v1.41H28.377L28.377,30.557z M68.174,31.062c-8.336,0-13.475-4.904-13.475-13.191
		c0-8.569,5.71-13.925,13.475-13.925c8.051,0,12.105,5.694,11.705,13.08H62.693v0.676c0,6.427,2.798,10.485,8.28,10.485
		c3.197,0,5.595-1.69,7.765-4.623l1.141,0.847C77.367,28.357,73.827,31.062,68.174,31.062z M67.774,5.694
		c-3.082,0-4.738,3.439-5.024,9.697l9.364-0.057C72.742,9.697,71.314,5.694,67.774,5.694z M96.837,31.062
		c-8.336,0-13.475-4.904-13.475-13.191c0-8.569,5.71-13.925,13.475-13.925c8.051,0,12.105,5.694,11.705,13.08H91.356v0.676
		c0,6.427,2.798,10.485,8.28,10.485c3.197,0,5.595-1.69,7.764-4.623l1.142,0.847C106.03,28.357,102.49,31.062,96.837,31.062z
		 M96.437,5.694c-3.083,0-4.738,3.439-5.024,9.697l9.364-0.057C101.405,9.697,99.977,5.694,96.437,5.694z M111.683,30.557v-1.41
		c3.254-0.057,3.94-0.563,3.94-2.03V9.077c0-1.69-0.686-2.706-3.94-2.762v-1.41l11.42-0.507v4.961c2.683-2.988,6.28-5.13,9.991-5.13
		c4.74,0,6.966,2.875,6.966,8.175v14.714c0,1.466,0.628,1.973,3.94,2.03v1.408h-14.674v-1.41c2.284-0.056,3.14-0.562,3.14-2.029
		V13.418c0-3.438-1.142-5.13-3.997-5.13c-2.055,0-3.71,1.071-5.253,2.65v16.18c0,1.466,0.857,1.973,3.084,2.03v1.408H111.683
		L111.683,30.557z"/>
	<path fill="#231F20" d="M244.7,29.3c2.2-0.1,2.8-0.6,2.8-2V13.7c0-3.4-1.2-5.1-4.1-5.1c-1.9,0-3.101,1.1-4.601,2.6v16
		c0,1.5,0.5,1.899,2.7,2V30.6h-14V29.2c3.2-0.101,3.9-0.601,3.9-2V9.4c0-1.7-0.7-2.7-3.9-2.7V5.3l11.2-0.5v4.9
		c2.6-3,5.7-5.1,9.3-5.1s6,1.9,6.7,5.4c2.5-3,6-5.4,9.5-5.4c4.7,0,6.899,2.9,6.899,8.1v14.6c0,1.5,0.601,1.9,3.801,2v1.4h-14v-1.4
		c2.199-0.1,2.699-0.6,2.699-2V13.7c0-3.4-1.1-5.1-3.899-5.1c-1.5,0-3.4,1.1-5,2.9c0.1,0.4,0.1,0.7,0.1,1.1v14.6
		c0,1.5,0.601,1.899,2.9,2V30.6h-13V29.3L244.7,29.3z"/>
	<path fill="#231F20" d="M184.4,4.3c-8.2,0-13.601,5.3-13.601,13.5c0,8.2,5,13.4,13.601,13.4c8.1,0,13.5-5.3,13.5-13.6
		S192.7,4.3,184.4,4.3z M184.6,29.4c-4,0-5.8-3.9-5.8-11.7c0-7.8,1.3-11.7,5.3-11.7s5.801,3.8,5.801,11.7
		C189.9,25.6,188.5,29.5,184.6,29.4z M213.9,4.3c-8.2,0-13.601,5.3-13.601,13.5c0,8.2,5,13.4,13.601,13.4c8,0,13.5-5.3,13.5-13.6
		S222.3,4.3,213.9,4.3z M214.2,29.4c-4,0-5.8-3.9-5.8-11.7c0-7.8,1.3-11.7,5.3-11.7s5.8,3.8,5.8,11.7
		C219.5,25.6,218.1,29.5,214.2,29.4z"/>
	<path fill="#231F20" d="M165.6,4.6c-3,0-5.8,2.2-7.699,5.2v-5l-11.2,0.5v1.4c3.2,0,3.9,1,3.9,2.7v17.9c0,1.5-0.7,1.9-3.9,2v1.4H163
		v-1.4c-4.1-0.1-5-0.6-5-2V11.4c0.9-1.4,2.3-2.5,3.9-3.1c0,0.2,0,0.4-0.101,0.7c-0.1,2.3,1.601,4.3,3.9,4.4s4.3-1.6,4.399-3.9V9.4V9
		c0-2.4-1.899-4.4-4.199-4.4C165.9,4.5,165.7,4.5,165.6,4.6 M285.42,27.527c0,1.1-0.5,2.199-1.5,2.8c-1.199,0.899-2.9,1-4.199,0.2
		c-1.601-0.9-2.201-3-1.301-4.7c0.1-0.101,0.1-0.2,0.2-0.3c1.3-1.7,3.601-2,5.3-0.801C284.92,25.327,285.52,26.427,285.42,27.527"/>
</g>
</svg>
