<?xml version="1.0" encoding="utf-8"?>
<!-- Generator: Adobe Illustrator 23.1.1, SVG Export Plug-In . SVG Version: 6.00 Build 0)  -->
<svg version="1.1" id="Layer_1" xmlns="http://www.w3.org/2000/svg" xmlns:xlink="http://www.w3.org/1999/xlink" x="0px" y="0px"
	 viewBox="0 0 413.7 67" style="enable-background:new 0 0 413.7 67;" xml:space="preserve">
<style type="text/css">
	.st0{enable-background:new    ;}
	.st1{fill:#B2CE97;}
</style>
<g class="st0">
	<path class="st1" d="M0.9,46.7c3.2-0.1,3.9-0.6,3.9-2.1v-32c0-1.8-0.6-2.7-4.2-2.8V8.5l11.8-0.6v18.9c2.7-3,6.2-5.2,9.9-5.2
		c4.8,0,7.1,2.9,7.1,8.3v14.9c0,1.5,0.6,2,4,2.1v1.4H18.7v-1.4c2.3-0.1,3.1-0.6,3.1-2.1V30.8c0-3.5-1.3-5.2-4.2-5.2
		c-2,0-3.7,1.1-5.2,2.7v16.3c0,1.5,0.9,2,3.1,2.1v1.4H0.9V46.7z"/>
	<path class="st1" d="M35.5,35.3c0-8.7,5.7-14.1,13.4-14.1c8,0,12.1,5.8,11.7,13.2H43.5v0.6v0.1c0,6.5,2.8,10.6,8.3,10.6
		c3.2,0,5.6-1.7,7.7-4.7l1.1,0.9c-2.5,4-6,6.7-11.7,6.7C40.6,48.7,35.5,43.7,35.5,35.3z M43.5,32.8l9.3-0.1c0.6-5.7-0.8-9.7-4.3-9.7
		C45.5,23,43.8,26.5,43.5,32.8z"/>
	<path class="st1" d="M64.2,41.8c0-2.2,1.2-4.7,3.6-6c4.1-2.2,10.6-2.2,12.5-2.9v-3.8c0-4.3-1.4-5.9-4.4-5.9c-1.4,0-2.6,0.4-3.4,1
		c0.7,0.9,1.1,1.8,1.1,3c0,2.3-1.5,3.9-4.1,3.9c-2.4,0-4-1.7-4-3.9c0-3.4,4.2-5.8,11.9-5.8c7,0,10.4,2.9,10.4,9.2v11.9
		c0,2.8,0.8,3.5,4,2.5l0.5,1.1c-2.1,1.4-3.9,2.2-6.2,2.2c-3.6,0-4.7-1.3-5.4-4.1h-0.2c-2.2,2.3-5,4.2-8.5,4.2
		C66.5,48.6,64.2,45.1,64.2,41.8z M80.3,42.6v-8c-6.3,1-8,2.3-8,6c0,2.6,1.4,4.4,3.9,4.4C77.8,45,79.3,43.9,80.3,42.6z"/>
	<path class="st1" d="M92.7,46.7c3.2-0.1,3.9-0.6,3.9-2.1v-32c0-1.8-0.7-2.7-4.2-2.8V8.5l11.8-0.6v36.8c0,1.5,0.6,2,3.9,2.1v1.4
		H92.7V46.7z"/>
	<path class="st1" d="M114.5,40.7V24.6h-5V23l5.1-1.1v-7.1l7.5-2.3V22h8.3v2.5h-8.3v16.3c0,3,1,4.4,3.2,4.4c1.7,0,3.1-1.2,4.4-3.6
		l1.3,0.7c-1.8,4.1-4.4,6.2-8.7,6.2C117.8,48.6,114.5,46.4,114.5,40.7z"/>
	<path class="st1" d="M132,46.7c3.2-0.1,3.9-0.6,3.9-2.1v-32c0-1.8-0.6-2.7-4.2-2.8V8.5l11.8-0.6v18.9c2.7-3,6.2-5.2,9.9-5.2
		c4.8,0,7.1,2.9,7.1,8.3v14.9c0,1.5,0.6,2,4,2.1v1.4h-14.6v-1.4c2.3-0.1,3.1-0.6,3.1-2.1V30.8c0-3.5-1.3-5.2-4.2-5.2
		c-2,0-3.7,1.1-5.2,2.7v16.3c0,1.5,0.9,2,3.1,2.1v1.4H132V46.7z"/>
	<path class="st1" d="M201.7,27.3c3.1,0,5,2.1,5,4.6c0,2.2-1.7,4-3.9,4c-2.2,0-3.9-1.8-3.9-3.8c0-0.3,0.1-0.5,0.2-0.8l-0.2-0.2
		c-1.6,1-3.3,2.9-4.9,6c3.4,5.9,5.7,7.6,8.1,7.6c1.4,0,2.2-0.4,3.9-1.7l0.9,1.2c-3.4,3.3-6.2,4.9-9.1,4.9c-4.2,0-6.3-1.7-8.7-5.9
		c-2.6,3.6-6.2,5.9-11,5.9c-7.2,0-11.1-4.2-11.1-9.3c0-4.9,3.4-8.5,10-10.6c-3-3.2-4.5-5.4-4.5-8.6c0-5.5,4.4-9.6,11.2-9.6
		c6.5,0,9.9,3.7,9.9,7.6c0,3.7-2.6,6.4-8.3,8.7c3,2.6,5.8,5.4,7.6,8.3C195.4,30,198.6,27.3,201.7,27.3z M174.5,37.8
		c0,4.6,3,7.3,7.2,7.3c2.4,0,4.5-1,6.4-3.2c-2.3-3.6-6.2-8.1-10-11.4C175.7,32.4,174.5,34.8,174.5,37.8z M187.6,18.3
		c0-3.5-1.6-5.5-4.4-5.5c-2.3,0-4.2,1.9-4.2,5.1c0,2.7,1.4,4.8,5,8.3C186.6,23.9,187.6,21.7,187.6,18.3z"/>
</g>
<g class="st0">
	<path d="M210.7,39.2h1.6c3.1,5.1,6.2,7.6,9.7,7.6c2.9,0,4.4-1.5,4.4-3.6c0-2.5-1.8-3.6-7.2-5.2c-6-1.7-8.4-3.6-8.4-7.7
		c0-5.3,4.2-8.8,10.5-8.8c2.4,0,4.9,0.8,6.4,1.8l1.4-1.8h1.5v8.4H229c-2.8-4.3-5.1-6.7-8.2-6.7c-2.4,0-4.1,1.5-4.1,3.8
		c0,2.3,2.3,3.3,6.2,4.3c6,1.5,9.2,3.6,9.2,8.3c0,5.1-4.2,9.1-10.7,9.1c-2.1,0-6-1-7.5-1.9l-1.7,1.9h-1.5V39.2z"/>
	<path d="M235.8,35.4c0-8.7,6-14.1,14-14.1c7.6,0,10.4,3.7,10.4,6.6c0,2.5-1.4,4.3-3.9,4.3c-2.8,0-4.3-1.7-4.3-3.8
		c0-1.5,1-2.9,1.9-3.4c-0.6-1-1.9-1.9-3.9-1.9c-3.8,0-6.2,4.2-6.2,11.6c0,6.2,2.5,11.1,8.1,11.1c3,0,5.6-1.6,7.7-4.3l1.1,0.9
		c-2.6,3.9-6,6.4-11.6,6.4C240.9,48.7,235.8,43.5,235.8,35.4z"/>
	<path d="M263.1,46.7c3.2-0.1,4.1-0.6,4.1-2.1V26.5c0-1.7-0.9-2.7-4.1-2.8v-1.4l11.7-0.5v23c0,1.5,0.6,2,3.9,2.1v1.4h-15.6V46.7z
		 M266.4,12.8c0-2.8,1.8-4.6,4.5-4.6c2.7,0,4.5,1.7,4.5,4.4c0,2.8-1.8,4.6-4.5,4.6C268.2,17.2,266.4,15.6,266.4,12.8z"/>
	<path d="M281.5,35.3c0-8.7,5.7-14.1,13.4-14.1c8,0,12.1,5.8,11.7,13.2h-17.1v0.6v0.1c0,6.5,2.8,10.6,8.3,10.6
		c3.2,0,5.6-1.7,7.7-4.7l1.1,0.9c-2.5,4-6,6.7-11.7,6.7C286.7,48.7,281.5,43.7,281.5,35.3z M289.6,32.8l9.3-0.1
		c0.6-5.7-0.8-9.7-4.3-9.7C291.5,23,289.8,26.5,289.6,32.8z"/>
	<path d="M309.8,46.7c3.2-0.1,3.9-0.6,3.9-2.1V26.5c0-1.7-0.7-2.7-3.9-2.8v-1.4l11.4-0.5v5c2.7-3,6.3-5.2,10-5.2c4.7,0,7,2.9,7,8.3
		v14.9c0,1.5,0.6,2,3.9,2.1v1.4h-14.6v-1.4c2.3-0.1,3.1-0.6,3.1-2.1V30.8c0-3.5-1.1-5.2-4-5.2c-2.1,0-3.7,1.1-5.2,2.7v16.3
		c0,1.5,0.9,2,3.1,2.1v1.4h-14.6V46.7z"/>
	<path d="M344.2,35.4c0-8.7,6-14.1,14-14.1c7.6,0,10.4,3.7,10.4,6.6c0,2.5-1.4,4.3-3.9,4.3c-2.8,0-4.3-1.7-4.3-3.8
		c0-1.5,1-2.9,1.9-3.4c-0.6-1-1.9-1.9-3.9-1.9c-3.8,0-6.2,4.2-6.2,11.6c0,6.2,2.5,11.1,8.1,11.1c3,0,5.6-1.6,7.7-4.3l1.1,0.9
		c-2.6,3.9-6,6.4-11.6,6.4C349.3,48.7,344.2,43.5,344.2,35.4z"/>
	<path d="M372.1,35.3c0-8.7,5.7-14.1,13.4-14.1c8,0,12.1,5.8,11.7,13.2h-17.1v0.6v0.1c0,6.5,2.8,10.6,8.3,10.6
		c3.2,0,5.6-1.7,7.7-4.7l1.1,0.9c-2.5,4-6,6.7-11.7,6.7C377.3,48.7,372.1,43.7,372.1,35.3z M380.2,32.8l9.3-0.1
		c0.6-5.7-0.8-9.7-4.3-9.7C382.1,23,380.5,26.5,380.2,32.8z"/>
	<path d="M401.7,44.6c0-2.5,2.2-4.5,4.7-4.5c2.6,0,4.7,2,4.7,4.5c0,2.5-2.2,4.5-4.7,4.5C403.7,49.1,401.7,47.1,401.7,44.6z"/>
</g>
</svg>
