<svg xmlns="http://www.w3.org/2000/svg" width="116" height="18" viewBox="0 0 116 18">
    <g fill="none" fill-rule="evenodd">
        <path fill="#006386" d="M2.217 2.517c0-1.15.732-1.9 1.809-1.9 1.1 0 1.809.704 1.809 1.83 0 1.149-.71 1.899-1.81 1.899-1.076 0-1.808-.68-1.808-1.83zM.91 16.493c1.306-.024 1.65-.235 1.65-.844V8.145c0-.704-.344-1.126-1.65-1.15V6.41l4.695-.21v9.45c0 .61.252.82 1.58.844v.586H.911v-.586zM15.865 15.156V7.957c-.39-.657-1.054-1.15-1.97-1.15-1.442 0-2.358 1.76-2.358 4.785 0 2.438.962 4.291 2.61 4.291.78 0 1.26-.281 1.718-.727m-7.557-3.283c0-3.142 1.923-5.815 5.313-5.815 1.007 0 1.603.164 2.244.445V2.47c0-.727-.252-1.126-1.695-1.15V.736L18.91.5v14.984c0 .633.298 1.056 1.604 1.056v.516l-4.603.14v-1.383c-.733.867-1.718 1.454-3.023 1.454-2.886 0-4.58-2.275-4.58-5.394M24.59 10.771l3.755-.023c.252-2.345-.32-4.01-1.74-4.01-1.237 0-1.9 1.43-2.016 4.033m-3.229 1.032c0-3.565 2.29-5.792 5.405-5.792 3.23 0 4.855 2.368 4.695 5.44h-6.893v.281c0 2.674 1.122 4.362 3.32 4.362 1.283 0 2.245-.704 3.115-1.923l.458.352c-1.008 1.642-2.428 2.767-4.695 2.767-3.343 0-5.405-2.04-5.405-5.487M39.36 14.78v-3.282c-2.519.399-3.229.961-3.229 2.486 0 1.078.55 1.805 1.557 1.805.687 0 1.306-.469 1.672-1.008m-6.458-.305a2.85 2.85 0 0 1 1.443-2.462c1.649-.915 4.26-.915 5.015-1.196V9.247c0-1.759-.55-2.416-1.763-2.416-.55 0-1.054.165-1.374.423.275.351.458.75.458 1.243 0 .96-.596 1.617-1.65 1.617-.984 0-1.602-.68-1.602-1.594 0-1.407 1.672-2.392 4.786-2.392 2.817 0 4.168 1.196 4.168 3.799v4.9c0 1.15.32 1.431 1.626 1.033l.183.469c-.847.562-1.58.89-2.496.89-1.443 0-1.9-.539-2.176-1.688h-.091c-.87.962-1.993 1.712-3.412 1.712-2.176 0-3.115-1.407-3.115-2.767M44.879 13.374h.641c1.236 2.11 2.496 3.142 3.893 3.142 1.168 0 1.763-.633 1.763-1.5 0-1.032-.71-1.501-2.908-2.158-2.405-.703-3.366-1.477-3.366-3.19 0-2.18 1.694-3.61 4.213-3.61.985 0 1.97.328 2.588.727l.573-.727h.595v3.47h-.641c-1.145-1.782-2.038-2.743-3.298-2.743-.962 0-1.649.61-1.649 1.57 0 .962.916 1.36 2.496 1.76 2.428.633 3.71 1.5 3.71 3.423 0 2.11-1.694 3.729-4.282 3.729-.847 0-2.405-.4-3.023-.798l-.687.798h-.618v-3.893z"/>
        <path fill="#231F20" d="M55.953 16.493c1.305-.024 1.58-.235 1.58-.844V8.145c0-.704-.275-1.126-1.58-1.15V6.41l4.58-.21v2.086c.779-1.266 1.9-2.18 3.137-2.18 1.351 0 2.038.867 2.038 1.946 0 1.078-.664 1.852-1.626 1.852-1.03 0-1.694-.68-1.694-1.57 0-.212.046-.493.114-.704-.71.047-1.42.633-1.923 1.36v6.66c0 .61.389.797 2.06.844v.586h-6.686v-.586zM74.318 11.639c0-3.307-.733-4.901-2.358-4.901-1.627 0-2.176 1.594-2.176 4.9 0 3.307.733 4.925 2.382 4.925 1.58 0 2.152-1.618 2.152-4.924m-7.786.047c0-3.448 2.198-5.675 5.542-5.675 3.412 0 5.519 2.134 5.519 5.58 0 3.471-2.221 5.699-5.519 5.699-3.48 0-5.542-2.134-5.542-5.604M86.776 11.639c0-3.307-.733-4.901-2.359-4.901s-2.176 1.594-2.176 4.9c0 3.307.733 4.925 2.382 4.925 1.58 0 2.153-1.618 2.153-4.924m-7.787.047c0-3.448 2.199-5.675 5.543-5.675 3.412 0 5.519 2.134 5.519 5.58 0 3.471-2.222 5.699-5.52 5.699-3.48 0-5.542-2.134-5.542-5.604M98.363 16.493c.916-.024 1.145-.235 1.145-.844V9.95c0-1.407-.504-2.134-1.672-2.134-.801 0-1.282.446-1.9 1.102v6.73c0 .61.206.821 1.099.845v.586H91.31v-.586c1.305-.024 1.58-.235 1.58-.844V8.145c0-.704-.275-1.126-1.58-1.15V6.41l4.58-.21v2.063c1.076-1.243 2.336-2.134 3.824-2.134 1.534 0 2.45.797 2.725 2.251 1.031-1.266 2.45-2.251 3.894-2.251 1.923 0 2.84 1.196 2.84 3.4v6.12c0 .61.251.821 1.557.845v.586h-5.726v-.586c.893-.024 1.122-.235 1.122-.844V9.95c0-1.407-.435-2.134-1.58-2.134-.595 0-1.374.47-2.038 1.22.023.21.046.328.046.469v6.144c0 .61.229.82 1.168.844v.586h-5.359v-.586zM111.988 15.602c0-1.032.87-1.853 1.901-1.853 1.053 0 1.878.82 1.878 1.853 0 1.031-.87 1.852-1.9 1.852-1.054 0-1.879-.82-1.879-1.852"/>
    </g>
</svg>
