<?xml version="1.0" encoding="utf-8"?>
<!-- Generator: Adobe Illustrator 16.0.0, SVG Export Plug-In . SVG Version: 6.00 Build 0)  -->
<!DOCTYPE svg PUBLIC "-//W3C//DTD SVG 1.1//EN" "http://www.w3.org/Graphics/SVG/1.1/DTD/svg11.dtd">
<svg version="1.1" id="Layer_1" xmlns="http://www.w3.org/2000/svg" xmlns:xlink="http://www.w3.org/1999/xlink" x="0px" y="0px"
	 width="112.615px" height="20px" viewBox="0 0 112.615 20" enable-background="new 0 0 112.615 20" xml:space="preserve">
<g>
	<path fill="#006386" d="M1.192,1.979c0-1.128,0.719-1.864,1.775-1.864c1.079,0,1.775,0.69,1.775,1.795
		c0,1.128-0.696,1.863-1.776,1.863C1.911,3.774,1.192,3.106,1.192,1.979L1.192,1.979z M-0.09,15.693
		c1.281-0.024,1.619-0.231,1.619-0.829V7.501c0-0.69-0.338-1.104-1.619-1.128V5.799l4.606-0.206v9.273
		c0,0.598,0.248,0.804,1.551,0.828v0.575h-6.156L-0.09,15.693L-0.09,15.693z M14.585,14.382V7.317
		c-0.383-0.645-1.034-1.128-1.934-1.128c-1.415,0-2.313,1.727-2.313,4.695c0,2.394,0.943,4.21,2.561,4.21
		C13.664,15.094,14.136,14.818,14.585,14.382 M7.17,11.159c0-3.082,1.887-5.706,5.213-5.706c0.988,0,1.573,0.161,2.202,0.437V1.933
		c0-0.713-0.248-1.104-1.664-1.128V0.231L17.573,0v14.703c0,0.621,0.292,1.036,1.574,1.036v0.507l-4.517,0.137v-1.357
		c-0.72,0.851-1.687,1.428-2.966,1.428C8.832,16.453,7.17,14.221,7.17,11.159 M23.146,10.079l3.685-0.022
		c0.248-2.302-0.314-3.936-1.708-3.936C23.91,6.121,23.259,7.524,23.146,10.079 M19.977,11.091c0-3.498,2.248-5.684,5.304-5.684
		c3.169,0,4.764,2.324,4.607,5.338h-6.764v0.276c0,2.624,1.101,4.279,3.258,4.279c1.259,0,2.203-0.689,3.057-1.886l0.45,0.346
		c-0.989,1.61-2.382,2.715-4.607,2.715C22,16.476,19.977,14.474,19.977,11.091 M37.64,14.013v-3.221
		c-2.472,0.391-3.169,0.942-3.169,2.44c0,1.058,0.54,1.77,1.528,1.77C36.673,15.002,37.281,14.542,37.64,14.013 M31.302,13.715
		c0.006-1.002,0.546-1.922,1.417-2.417c1.618-0.897,4.18-0.897,4.921-1.173V8.583c0-1.726-0.54-2.371-1.73-2.371
		c-0.54,0-1.035,0.162-1.348,0.415c0.27,0.345,0.449,0.736,0.449,1.22c0,0.942-0.585,1.587-1.619,1.587
		c-0.966,0-1.572-0.667-1.572-1.565c0-1.381,1.641-2.347,4.696-2.347c2.764,0,4.089,1.174,4.089,3.728v4.808
		c0,1.128,0.314,1.403,1.596,1.013l0.18,0.461c-0.831,0.551-1.55,0.873-2.449,0.873c-1.416,0-1.864-0.529-2.135-1.656h-0.089
		c-0.854,0.944-1.956,1.681-3.348,1.681C32.224,16.43,31.302,15.048,31.302,13.715 M43.055,12.633h0.629
		c1.212,2.07,2.449,3.082,3.82,3.082c1.146,0,1.73-0.621,1.73-1.471c0-1.012-0.697-1.473-2.853-2.118
		c-2.36-0.689-3.303-1.449-3.303-3.13c0-2.139,1.663-3.542,4.134-3.542c0.966,0,1.933,0.322,2.54,0.714l0.562-0.714h0.584v3.405
		h-0.629c-1.124-1.748-2-2.691-3.236-2.691c-0.944,0-1.618,0.599-1.618,1.54c0,0.944,0.899,1.335,2.449,1.728
		c2.383,0.621,3.64,1.471,3.64,3.358c0,2.07-1.662,3.659-4.201,3.659c-0.832,0-2.36-0.393-2.967-0.784l-0.674,0.784h-0.607V12.633z"
		/>
	<path fill="#231F20" d="M53.921,15.693c1.281-0.024,1.551-0.231,1.551-0.829V7.501c0-0.69-0.27-1.104-1.551-1.128V5.799
		l4.495-0.206V7.64c0.765-1.242,1.865-2.139,3.078-2.139c1.326,0,1.999,0.851,1.999,1.909s-0.651,1.818-1.595,1.818
		c-1.012,0-1.661-0.667-1.661-1.542c0-0.208,0.044-0.484,0.11-0.69c-0.697,0.046-1.393,0.621-1.887,1.334v6.535
		c0,0.598,0.381,0.782,2.021,0.828v0.575h-6.56V15.693L53.921,15.693z M71.942,10.93c0-3.245-0.719-4.809-2.314-4.809
		s-2.134,1.564-2.134,4.809c0,3.245,0.719,4.832,2.336,4.832C71.382,15.762,71.942,14.175,71.942,10.93 M64.303,10.976
		c0-3.383,2.157-5.568,5.438-5.568c3.349,0,5.416,2.094,5.416,5.476c0,3.407-2.18,5.593-5.416,5.593
		C66.326,16.476,64.303,14.382,64.303,10.976 M84.166,10.93c0-3.245-0.719-4.809-2.314-4.809c-1.595,0-2.134,1.564-2.134,4.809
		c0,3.245,0.719,4.832,2.336,4.832C83.605,15.762,84.166,14.175,84.166,10.93 M76.525,10.976c0-3.383,2.158-5.568,5.439-5.568
		c3.348,0,5.416,2.094,5.416,5.476c0,3.407-2.181,5.593-5.417,5.593C78.55,16.476,76.525,14.382,76.525,10.976 M95.537,15.693
		c0.899-0.024,1.123-0.231,1.123-0.829V9.273c0-1.381-0.494-2.094-1.641-2.094c-0.786,0-1.257,0.438-1.865,1.081v6.604
		c0,0.598,0.203,0.805,1.079,0.829v0.575h-5.616v-0.575c1.28-0.024,1.55-0.231,1.55-0.829V7.501c0-0.69-0.27-1.104-1.55-1.128V5.799
		l4.493-0.206v2.024c1.056-1.22,2.293-2.094,3.752-2.094c1.505,0,2.404,0.782,2.674,2.208c1.013-1.242,2.403-2.208,3.821-2.208
		c1.887,0,2.787,1.174,2.787,3.337v6.004c0,0.599,0.246,0.806,1.528,0.83v0.575h-5.62v-0.575c0.876-0.024,1.102-0.231,1.102-0.828
		V9.273c0-1.381-0.426-2.094-1.551-2.094c-0.583,0-1.348,0.461-2,1.197c0.023,0.206,0.046,0.322,0.046,0.46v6.028
		c0,0.599,0.226,0.805,1.146,0.829v0.575h-5.259V15.693L95.537,15.693z M108.907,14.818c0-1.012,0.853-1.817,1.864-1.817
		c1.033,0,1.844,0.804,1.844,1.817c0,1.012-0.854,1.818-1.865,1.818C109.716,16.637,108.907,15.831,108.907,14.818"/>
</g>
</svg>
