<svg xmlns="http://www.w3.org/2000/svg" width="434" height="60" viewBox="0 0 434 60">
    <path fill="#AA272E" fill-rule="evenodd" d="M8.98 10.541c-3.104 0-5.216-1.922-5.216-5.17C3.764 2.12 5.876 0 8.98 0c3.17 0 5.216 1.989 5.216 5.171 0 3.249-2.047 5.37-5.216 5.37zm-8.98 36v-1.657c3.764-.066 4.754-.663 4.754-2.387V21.282c0-1.99-.99-3.183-4.754-3.249v-1.657l13.536-.597v26.718c0 1.724.726 2.32 4.556 2.387v1.657H0zm20.93 0v-1.657c3.764-.066 4.557-.663 4.557-2.387V21.282c0-1.99-.793-3.183-4.556-3.249v-1.657l13.205-.597v5.834C37.24 18.1 41.4 15.58 45.691 15.58c5.48 0 8.056 3.381 8.056 9.613v17.304c0 1.724.726 2.32 4.555 2.387v1.657H41.333v-1.657c2.641-.066 3.632-.663 3.632-2.387v-16.11c0-4.044-1.32-6.033-4.622-6.033-2.377 0-4.292 1.26-6.075 3.116v19.027c0 1.724.99 2.32 3.566 2.387v1.657H20.93zm52.559.398L63.453 21.746c-1.189-2.984-2.245-3.713-5.283-4.243v-1.591h17.894v1.59c-2.84.332-3.962.796-3.962 2.122 0 .398.066.73.264 1.326l6.801 18.166h.264l5.745-14.85c.528-1.526.792-2.653.792-3.382 0-1.923-1.254-2.917-4.424-3.381v-1.591h12.744v1.59c-2.311.266-4.226 1.725-5.48 4.708L78.638 46.94h-5.15zm37.371.2c-9.64 0-15.582-5.769-15.582-15.515 0-10.077 6.603-16.375 15.582-16.375 9.31 0 13.998 6.696 13.536 15.38h-19.874v.796c0 7.558 3.235 12.332 9.574 12.332 3.697 0 6.47-1.989 8.98-5.437l1.32.995c-2.905 4.64-6.999 7.823-13.536 7.823zm-.462-29.835c-3.565 0-5.48 4.044-5.81 11.403l10.828-.066c.727-6.63-.924-11.337-5.018-11.337zm18.752 29.768V36.066H131c3.565 5.967 7.197 8.884 11.225 8.884 3.367 0 5.084-1.79 5.084-4.243 0-2.917-2.047-4.243-8.386-6.1-6.933-1.988-9.706-4.176-9.706-9.016 0-6.166 4.886-10.21 12.15-10.21 2.838 0 5.678.928 7.46 2.055l1.651-2.055h1.717v9.812h-1.849c-3.301-5.038-5.876-7.757-9.508-7.757-2.773 0-4.754 1.724-4.754 4.442 0 2.719 2.641 3.846 7.197 4.973 6.999 1.79 10.697 4.243 10.697 9.68 0 5.966-4.886 10.54-12.348 10.54-2.443 0-6.933-1.126-8.715-2.253l-1.981 2.254h-1.783zm42.126 0c-5.216 0-9.046-2.52-9.046-9.216V19.16h-5.81v-1.922l5.942-1.26V7.69l8.65-2.652V16.11h9.574v2.918h-9.574v19.027c0 3.514 1.122 5.172 3.763 5.172 1.981 0 3.632-1.393 5.084-4.177l1.453.862c-2.113 4.773-5.15 7.16-10.036 7.16zm20.733-36.53c-3.104 0-5.217-1.923-5.217-5.172 0-3.248 2.113-5.37 5.217-5.37 3.169 0 5.216 1.989 5.216 5.171 0 3.249-2.047 5.37-5.216 5.37zm-8.98 36v-1.658c3.763-.066 4.754-.663 4.754-2.387V21.282c0-1.99-.99-3.183-4.754-3.249v-1.657l13.535-.597v26.718c0 1.724.727 2.32 4.556 2.387v1.657H183.03zm35.985 11.535c5.678 0 9.508-2.386 9.508-6.1 0-2.452-1.783-3.844-8.848-3.844h-6.933c-2.377.928-3.697 2.254-3.697 4.375 0 3.382 3.367 5.57 9.97 5.57zm-.33-23.933c3.367 0 4.49-2.52 4.49-8.354 0-5.238-1.519-8.354-5.085-8.354-3.367 0-4.423 2.454-4.423 8.354 0 5.834 1.584 8.354 5.018 8.354zm-.264-18.564c2.179 0 4.291.332 6.14.995 1.519-3.249 3.698-5.967 7.197-5.967 2.641 0 4.094 1.59 4.094 3.646 0 1.79-1.189 3.315-3.235 3.315-1.585 0-3.17-1.26-3.17-3.58-1.32.464-2.575 1.79-3.301 3.249 3.301 1.657 5.546 4.442 5.546 8.42 0 6.43-5.744 10.408-13.271 10.408a25.04 25.04 0 0 1-3.896-.331c-2.575.862-3.764 1.724-3.764 2.983 0 1.326 1.32 2.188 6.603 2.188h4.82c8.32 0 12.15 2.586 12.15 8.155 0 5.768-6.471 10.939-17.036 10.939-8.187 0-13.932-2.785-13.932-6.696 0-2.851 2.377-5.039 7.593-5.834v-.2c-4.093-1.325-5.546-3.513-5.546-6.032 0-2.387 2.18-4.708 6.47-6.232-4.027-1.525-6.734-4.509-6.734-9.083 0-6.365 5.744-10.343 13.272-10.343zm27.401 31.426c-6.273 0-8.98-3.978-8.98-7.824 0-2.585 1.387-5.436 4.16-6.961 4.754-2.586 12.281-2.586 14.46-3.381v-4.442c0-4.973-1.585-6.829-5.084-6.829-1.585 0-3.037.464-3.962 1.193.793.995 1.32 2.122 1.32 3.514 0 2.718-1.716 4.575-4.753 4.575-2.84 0-4.622-1.923-4.622-4.508 0-3.978 4.82-6.763 13.8-6.763 8.121 0 12.017 3.381 12.017 10.74v13.857c0 3.248.924 4.044 4.688 2.917l.528 1.326c-2.443 1.591-4.556 2.52-7.197 2.52-4.16 0-5.48-1.526-6.273-4.774h-.264c-2.509 2.718-5.744 4.84-9.838 4.84zm4.82-4.111c1.98 0 3.764-1.326 4.82-2.85v-9.283c-7.263 1.128-9.31 2.719-9.31 7.028 0 3.05 1.585 5.105 4.49 5.105zm33.344 4.177c-5.216 0-9.046-2.52-9.046-9.216V19.16h-5.81v-1.922l5.942-1.26V7.69l8.65-2.652V16.11h9.574v2.918h-9.574v19.027c0 3.514 1.122 5.172 3.764 5.172 1.98 0 3.631-1.393 5.084-4.177l1.452.862c-2.113 4.773-5.15 7.16-10.036 7.16zm20.733-36.53c-3.104 0-5.216-1.923-5.216-5.172 0-3.248 2.112-5.37 5.216-5.37 3.17 0 5.216 1.989 5.216 5.171 0 3.249-2.047 5.37-5.216 5.37zm-8.98 36v-1.658c3.764-.066 4.754-.663 4.754-2.387V21.282c0-1.99-.99-3.183-4.754-3.249v-1.657l13.536-.597v26.718c0 1.724.726 2.32 4.556 2.387v1.657h-18.092zm37.306.596c-10.037 0-15.979-6.033-15.979-15.845 0-9.746 6.339-16.044 15.979-16.044 9.838 0 15.912 6.033 15.912 15.779 0 9.812-6.404 16.11-15.912 16.11zm.264-2.055c4.556 0 6.206-4.575 6.206-13.923 0-9.348-2.113-13.856-6.8-13.856-4.688 0-6.273 4.508-6.273 13.856 0 9.348 2.113 13.923 6.867 13.923zm19.28 1.458v-1.657c3.763-.066 4.556-.663 4.556-2.387V21.282c0-1.99-.793-3.183-4.556-3.249v-1.657l13.205-.597v5.834c3.104-3.514 7.263-6.033 11.555-6.033 5.48 0 8.056 3.381 8.056 9.613v17.304c0 1.724.726 2.32 4.556 2.387v1.657h-16.97v-1.657c2.642-.066 3.632-.663 3.632-2.387v-16.11c0-4.044-1.32-6.033-4.622-6.033-2.377 0-4.292 1.26-6.075 3.116v19.027c0 1.724.99 2.32 3.566 2.387v1.657h-16.903zm40.673.53V36.067h1.849c3.565 5.967 7.197 8.884 11.224 8.884 3.368 0 5.085-1.79 5.085-4.243 0-2.917-2.047-4.243-8.386-6.1-6.933-1.988-9.706-4.176-9.706-9.016 0-6.166 4.886-10.21 12.149-10.21 2.84 0 5.678.928 7.461 2.055l1.65-2.055h1.718v9.812h-1.85c-3.3-5.038-5.876-7.757-9.507-7.757-2.773 0-4.754 1.724-4.754 4.442 0 2.719 2.64 3.846 7.197 4.973 6.999 1.79 10.696 4.243 10.696 9.68 0 5.966-4.886 10.54-12.347 10.54-2.443 0-6.933-1.126-8.716-2.253l-1.98 2.254h-1.783zm35.259.531c-3.038 0-5.415-2.32-5.415-5.237 0-2.917 2.51-5.238 5.48-5.238 3.038 0 5.415 2.32 5.415 5.238 0 2.917-2.51 5.237-5.48 5.237z"/>
</svg>
