<svg xmlns="http://www.w3.org/2000/svg" width="937" height="131" viewBox="0 0 937 131">
    <g fill="none" fill-rule="evenodd">
        <path fill="#AA272E" fill-rule="nonzero" d="M0 98.386c8.363-.1 10.479-1.406 10.479-5.22V46.582c0-4.317-2.217-7.028-10.479-7.128V35.84l29.924-1.306v58.63c0 3.815 1.613 5.12 10.076 5.22V102H0v-3.614zm8.262-86.64C8.262 4.618 12.897 0 19.748 0c7.053 0 11.486 4.317 11.486 11.344 0 7.128-4.534 11.747-11.486 11.747-6.75-.1-11.486-4.317-11.486-11.345z"/>
        <path fill="#AA272E" d="M46 98.384c8.3-.1 10-1.406 10-5.223V46.555c0-4.319-1.7-7.03-10-7.131v-3.616l29-1.306v12.756C81.8 39.524 90.9 34 100.3 34c12 0 17.7 7.433 17.7 21.093v37.968c0 3.816 1.6 5.122 10 5.223v3.616H90.8v-3.616c5.8-.1 8-1.407 8-5.223V57.805c0-8.839-2.9-13.258-10.1-13.258-5.2 0-9.4 2.812-13.3 6.83V93.16c0 3.817 2.2 5.123 7.8 5.223V102H46v-3.616zM136.556 46.819c-2.59-6.51-4.881-8.112-11.556-9.314V34h39.151v3.605c-6.176.701-8.667 1.703-8.667 4.607 0 .901.1 1.602.598 2.904l14.844 39.759h.597l12.553-32.448c1.195-3.305 1.693-5.808 1.693-7.41 0-4.207-2.79-6.41-9.663-7.412V34.1H204v3.505c-5.08.601-9.265 3.806-11.955 10.315L169.83 102h-11.257l-22.017-55.181z"/>
        <path fill="#AA272E" fill-rule="nonzero" d="M205 69.005C205 46.88 219.508 33 239.218 33c20.41 0 30.716 14.684 29.715 33.793h-43.622v1.709c0 16.595 7.103 27.055 21.01 27.055 8.105 0 14.208-4.325 19.711-11.968l2.901 2.212C262.53 95.96 253.525 103 239.218 103 218.107 103.1 205 90.428 205 69.005zm20.51-6.436l23.813-.1c1.601-14.584-2-24.943-11.006-24.943-7.904 0-12.106 8.95-12.806 25.043z"/>
        <path fill="#AA272E" d="M279 78.07h4.138c7.871 12.962 15.945 19.343 24.825 19.343 7.468 0 11.303-3.888 11.303-9.273 0-6.381-4.541-9.273-18.569-13.261-15.34-4.288-21.495-9.074-21.495-19.643C279.202 41.775 290 33 306.046 33c6.257 0 12.615 1.994 16.55 4.487L326.23 33h3.835v21.338h-4.137c-7.266-10.968-13.019-16.851-21.092-16.851-6.156 0-10.496 3.789-10.496 9.672 0 5.883 5.854 8.376 15.945 10.868C325.826 61.917 334 67.301 334 79.067 334 92.028 323.202 102 306.651 102c-5.45 0-15.34-2.493-19.275-4.886l-4.34 4.886H279V78.07zM349.77 82.778V41.934H337v-4.205l13.071-2.803v-18.12L369.176 11v24.226h21.115v6.407h-21.115V83.28c0 7.708 2.513 11.312 8.345 11.312 4.324 0 8.044-3.003 11.261-9.11L392 87.383C387.375 97.794 380.638 103 369.88 103c-11.664 0-20.11-5.606-20.11-20.222z"/>
        <path fill="#AA272E" fill-rule="nonzero" d="M395 98.386c8.363-.1 10.479-1.406 10.479-5.22V46.582c0-4.317-2.217-7.028-10.479-7.128V35.84l29.924-1.306v58.63c0 3.815 1.613 5.12 10.076 5.22V102h-40v-3.614zm8.262-86.64C403.262 4.618 407.897 0 414.748 0c7.053 0 11.486 4.317 11.486 11.344 0 7.128-4.534 11.747-11.486 11.747-6.75-.1-11.486-4.317-11.486-11.345z"/>
        <path fill="#000" fill-rule="nonzero" d="M486.304 36.012C489.59 28.905 494.37 23 502.038 23c5.775 0 8.962 3.503 8.962 8.007 0 3.904-2.59 7.207-7.07 7.207-3.485 0-6.97-2.803-6.97-7.807-2.888 1-5.577 3.903-7.17 7.106 7.17 3.604 12.148 9.71 12.148 18.417 0 14.013-12.547 22.722-28.977 22.722-2.888 0-5.776-.3-8.465-.701-5.576 1.902-8.265 3.803-8.265 6.506 0 2.903 2.888 4.804 14.44 4.804h10.555c18.123 0 26.488 5.606 26.488 17.817 0 12.612-14.14 23.922-37.243 23.922-17.924 0-30.471-6.106-30.471-14.614 0-6.205 5.178-11.01 16.63-12.711v-.5c-8.962-2.903-12.149-7.708-12.149-13.213 0-5.205 4.78-10.31 14.14-13.613-8.763-3.303-14.737-9.809-14.737-19.818 0-13.913 12.547-22.62 28.977-22.62 4.78 0 9.36.7 13.443 2.101zm8.664 77.472c0-5.405-3.884-8.408-19.319-8.408h-15.136c-5.178 2.002-8.066 4.905-8.066 9.609 0 7.407 7.37 12.211 21.808 12.211 12.348-.1 20.713-5.305 20.713-13.412zm-11.75-57.253c0-11.41-3.287-18.217-11.153-18.217-7.37 0-9.66 5.405-9.66 18.217 0 12.712 3.486 18.217 10.954 18.217s9.858-5.505 9.858-18.217zM513 85.65c0-5.617 2.979-11.935 9.036-15.244 10.328-5.617 26.712-5.617 31.479-7.422v-9.728c0-10.932-3.476-14.944-11.122-14.944-3.476 0-6.653 1.003-8.64 2.608 1.689 2.206 2.88 4.613 2.88 7.722 0 5.918-3.773 10.03-10.327 10.03-6.156 0-10.03-4.213-10.03-9.829 0-8.725 10.527-14.843 30.089-14.843 17.676 0 26.215 7.422 26.215 23.568v30.388c0 7.121 1.986 8.826 10.228 6.419L584 97.283c-5.362 3.51-9.93 5.516-15.69 5.516-9.036 0-11.916-3.31-13.703-10.43h-.596C548.55 98.286 541.5 103 532.562 103 518.958 102.8 513 94.074 513 85.65zm40.614 1.905V67.196c-15.789 2.507-20.257 5.917-20.257 15.445 0 6.72 3.475 11.233 9.731 11.233 4.27-.1 8.143-3.01 10.526-6.319z"/>
        <path fill="#000" d="M596.87 82.778V41.934H584v-4.205l13.071-2.803v-18.12L616.176 11v24.226h21.115v6.407h-21.115V83.28c0 7.708 2.513 11.312 8.345 11.312 4.324 0 8.044-3.003 11.261-9.11L639 87.383C634.375 97.794 627.638 103 616.88 103c-11.564 0-20.01-5.606-20.01-20.222z"/>
        <path fill="#000" fill-rule="nonzero" d="M642 98.386c8.363-.1 10.479-1.406 10.479-5.22V46.582c0-4.317-2.217-7.028-10.479-7.128V35.84l29.924-1.306v58.63c0 3.815 1.613 5.12 10.076 5.22V102h-40v-3.614zm8.363-86.64C650.363 4.618 654.997 0 661.849 0c7.053 0 11.486 4.317 11.486 11.344 0 7.128-4.534 11.747-11.486 11.747-6.852-.1-11.486-4.317-11.486-11.345zM689 68.251C689 46.86 702.9 33 724.1 33c21.6 0 34.9 13.257 34.9 34.648C759 89.141 745 103 724.1 103 702 103 689 89.743 689 68.251zm49.2-.301c0-20.488-4.6-30.43-14.9-30.43s-13.8 9.842-13.8 30.43c0 20.488 4.6 30.53 15.1 30.53 10 0 13.6-10.042 13.6-30.53z"/>
        <path fill="#000" d="M767 98.384c8.3-.1 10-1.406 10-5.223V46.555c0-4.319-1.7-7.03-10-7.131v-3.616l29-1.306v12.756C802.8 39.524 811.9 34 821.3 34c12 0 17.7 7.433 17.7 21.093v37.968c0 3.816 1.6 5.122 10 5.223v3.616h-37.2v-3.616c5.8-.1 8-1.407 8-5.223V57.805c0-8.839-2.9-13.258-10.1-13.258-5.2 0-9.4 2.812-13.3 6.83V93.16c0 3.817 2.2 5.123 7.8 5.223V102h-37.1v-3.616h-.1zM856 78.07h4.13c7.857 12.962 15.916 19.343 24.78 19.343 7.454 0 11.282-3.888 11.282-9.273 0-6.381-4.533-9.273-18.534-13.261-15.312-4.288-21.457-9.074-21.457-19.643C856.201 41.775 866.98 33 883.097 33c6.245 0 12.592 1.994 16.52 4.487L903.244 33h3.827v21.338h-4.13c-7.252-10.968-12.994-16.851-21.053-16.851-6.144 0-10.476 3.789-10.476 9.672 0 5.883 5.843 8.376 15.916 10.868C902.84 61.917 911 67.301 911 79.067 911 92.028 900.222 102 883.701 102c-5.44 0-15.31-2.493-19.24-4.886L860.13 102h-3.929V78.07H856z"/>
        <circle cx="927" cy="94" r="10" fill="#000" fill-rule="nonzero"/>
    </g>
</svg>
