<svg xmlns="http://www.w3.org/2000/svg" width="343" height="48" viewBox="0 0 343 48">
    <g fill="none" fill-rule="evenodd" transform="translate(0 .364)">
        <path fill="#AA272E" fill-rule="nonzero" d="M0 35.777c3.016-.037 3.78-.511 3.78-1.899V16.94c0-1.57-.8-2.555-3.78-2.592v-1.314l10.793-.475v21.32c0 1.388.581 1.862 3.634 1.899v1.314H0v-1.314zM2.98 4.27C2.98 1.68 4.652 0 7.123 0c2.543 0 4.142 1.57 4.142 4.125 0 2.592-1.635 4.272-4.142 4.272C4.688 8.36 2.98 6.827 2.98 4.27z"/>
        <path fill="#AA272E" d="M16.591 35.776c2.994-.037 3.607-.511 3.607-1.9V16.93c0-1.57-.613-2.557-3.607-2.593v-1.315l10.46-.475v4.639c2.452-2.813 5.734-4.821 9.124-4.821 4.329 0 6.384 2.702 6.384 7.67V33.84c0 1.388.577 1.863 3.607 1.9v1.314H32.75V35.74c2.092-.036 2.885-.51 2.885-1.899V21.02c0-3.214-1.045-4.821-3.642-4.821-1.876 0-3.39 1.022-4.797 2.483v15.195c0 1.388.793 1.862 2.813 1.899v1.315H16.591v-1.315zM49.252 17.025c-.934-2.367-1.76-2.95-4.168-3.387v-1.274h14.12v1.31c-2.227.256-3.125.62-3.125 1.676 0 .328.036.583.216 1.056l5.353 14.458h.216l4.527-11.8c.431-1.201.61-2.112.61-2.694 0-1.53-1.005-2.331-3.484-2.695V12.4h10.06v1.275c-1.832.218-3.341 1.384-4.311 3.75l-8.013 19.666h-4.06l-7.94-20.066z"/>
        <path fill="#AA272E" fill-rule="nonzero" d="M73.938 25.093C73.938 17.047 79.17 12 86.279 12c7.362 0 11.079 5.34 10.718 12.288H81.263v.622c0 6.034 2.563 9.838 7.579 9.838 2.923 0 5.124-1.573 7.109-4.352l1.046.804c-2.31 3.694-5.557 6.255-10.718 6.255-7.614.036-12.341-4.572-12.341-12.362zm7.398-2.34l8.588-.037c.578-5.303-.722-9.07-3.97-9.07-2.85 0-4.366 3.255-4.618 9.106z"/>
        <path fill="#AA272E" d="M100.628 28.389h1.492c2.84 4.713 5.751 7.034 8.954 7.034 2.694 0 4.077-1.414 4.077-3.372 0-2.32-1.638-3.372-6.698-4.822-5.532-1.56-7.752-3.3-7.752-7.143 0-4.895 3.894-8.086 9.681-8.086 2.257 0 4.55.725 5.97 1.632l1.31-1.632h1.383v7.76h-1.492c-2.62-3.99-4.695-6.128-7.607-6.128-2.22 0-3.786 1.377-3.786 3.517 0 2.139 2.111 3.045 5.751 3.952 5.606 1.414 8.554 3.372 8.554 7.65 0 4.714-3.895 8.34-9.864 8.34-1.966 0-5.533-.907-6.952-1.777l-1.565 1.777h-1.456v-8.702zM126.152 30.101V15.25h-4.605v-1.53l4.714-1.019V6.111L133.151 4v8.81h7.616v2.33h-7.615v15.143c0 2.803.906 4.114 3.01 4.114 1.559 0 2.9-1.092 4.061-3.313l1.16.692c-1.667 3.786-4.097 5.679-7.978 5.679-4.206 0-7.253-2.039-7.253-7.354z"/>
        <path fill="#AA272E" fill-rule="nonzero" d="M142.466 35.777c3.016-.037 3.78-.511 3.78-1.899V16.94c0-1.57-.8-2.555-3.78-2.592v-1.314l10.793-.475v21.32c0 1.388.581 1.862 3.634 1.899v1.314h-14.427v-1.314zm2.98-31.506c0-2.592 1.671-4.271 4.142-4.271 2.544 0 4.143 1.57 4.143 4.125 0 2.592-1.635 4.272-4.143 4.272-2.434-.037-4.142-1.57-4.142-4.126z"/>
        <path fill="#000" fill-rule="nonzero" d="M175.397 13.095c1.185-2.584 2.909-4.731 5.674-4.731 2.084 0 3.233 1.274 3.233 2.911 0 1.42-.934 2.621-2.55 2.621-1.257 0-2.514-1.02-2.514-2.839-1.042.364-2.011 1.42-2.586 2.584 2.586 1.31 4.382 3.53 4.382 6.697 0 5.096-4.526 8.263-10.452 8.263-1.041 0-2.083-.11-3.053-.255-2.01.691-2.98 1.383-2.98 2.366 0 1.055 1.04 1.747 5.207 1.747h3.807c6.537 0 9.554 2.038 9.554 6.478 0 4.586-5.1 8.7-13.433 8.7-6.465 0-10.99-2.22-10.99-5.315 0-2.256 1.868-4.003 5.998-4.622v-.182c-3.232-1.056-4.382-2.803-4.382-4.805 0-1.892 1.724-3.748 5.1-4.95-3.16-1.2-5.315-3.567-5.315-7.206 0-5.06 4.525-8.226 10.451-8.226 1.724 0 3.376.255 4.849.764zm3.124 28.172c0-1.966-1.4-3.058-6.967-3.058h-5.46c-1.867.728-2.908 1.784-2.908 3.495 0 2.693 2.657 4.44 7.865 4.44 4.454-.036 7.47-1.929 7.47-4.877zm-4.238-20.82c0-4.149-1.185-6.624-4.022-6.624-2.658 0-3.484 1.966-3.484 6.625 0 4.622 1.257 6.624 3.95 6.624 2.694 0 3.556-2.002 3.556-6.624zM185.025 31.145c0-2.042 1.075-4.34 3.26-5.543 3.724-2.042 9.634-2.042 11.353-2.699v-3.537c0-3.975-1.254-5.434-4.012-5.434-1.253 0-2.4.365-3.115.948.608.802 1.038 1.678 1.038 2.808 0 2.152-1.36 3.647-3.725 3.647-2.22 0-3.617-1.532-3.617-3.574 0-3.173 3.797-5.397 10.852-5.397 6.375 0 9.455 2.698 9.455 8.57v11.05c0 2.59.717 3.21 3.69 2.334l.429 1.058c-1.934 1.276-3.581 2.006-5.659 2.006-3.259 0-4.298-1.204-4.942-3.793h-.215c-1.97 2.151-4.513 3.866-7.736 3.866-4.907-.073-7.056-3.246-7.056-6.31zm14.649.693v-7.403c-5.695.912-7.307 2.152-7.307 5.616 0 2.444 1.254 4.085 3.51 4.085 1.54-.037 2.937-1.094 3.797-2.298z"/>
        <path fill="#000" d="M215.275 30.101V15.25h-4.642v-1.53l4.714-1.019V6.111L222.237 4v8.81h7.617v2.33h-7.616v15.143c0 2.803.906 4.114 3.01 4.114 1.56 0 2.901-1.092 4.062-3.313l1.16.692c-1.668 3.786-4.098 5.679-7.978 5.679-4.17 0-7.217-2.039-7.217-7.354z"/>
        <path fill="#000" fill-rule="nonzero" d="M231.552 35.777c3.016-.037 3.78-.511 3.78-1.899V16.94c0-1.57-.8-2.555-3.78-2.592v-1.314l10.793-.475v21.32c0 1.388.581 1.862 3.634 1.899v1.314h-14.427v-1.314zm3.016-31.506c0-2.592 1.672-4.271 4.143-4.271 2.544 0 4.143 1.57 4.143 4.125 0 2.592-1.636 4.272-4.143 4.272-2.471-.037-4.143-1.57-4.143-4.126zM248.504 24.819c0-7.78 5.013-12.819 12.66-12.819 7.79 0 12.587 4.82 12.587 12.6 0 7.815-5.05 12.855-12.588 12.855-7.97 0-12.66-4.821-12.66-12.636zm17.745-.11c0-7.45-1.66-11.066-5.374-11.066-3.715 0-4.978 3.58-4.978 11.066 0 7.45 1.66 11.102 5.447 11.102 3.606 0 4.905-3.652 4.905-11.102z"/>
        <path fill="#000" d="M276.636 35.776c2.994-.037 3.607-.511 3.607-1.9V16.93c0-1.57-.613-2.557-3.607-2.593v-1.315l10.46-.475v4.639c2.452-2.813 5.734-4.821 9.125-4.821 4.328 0 6.384 2.702 6.384 7.67V33.84c0 1.388.577 1.863 3.606 1.9v1.314h-13.417V35.74c2.092-.036 2.886-.51 2.886-1.899V21.02c0-3.214-1.046-4.821-3.643-4.821-1.876 0-3.39 1.022-4.797 2.483v15.195c0 1.388.793 1.862 2.813 1.899v1.315h-13.38v-1.315h-.037zM308.736 28.389h1.49c2.834 4.713 5.74 7.034 8.937 7.034 2.689 0 4.07-1.414 4.07-3.372 0-2.32-1.636-3.372-6.686-4.822-5.522-1.56-7.738-3.3-7.738-7.143 0-4.895 3.887-8.086 9.7-8.086 2.253 0 4.542.725 5.959 1.632L325.776 12h1.38v7.76h-1.49c-2.615-3.99-4.686-6.128-7.593-6.128-2.216 0-3.778 1.377-3.778 3.517 0 2.139 2.107 3.045 5.74 3.952 5.595 1.414 8.538 3.372 8.538 7.65 0 4.714-3.887 8.34-9.846 8.34-1.962 0-5.522-.907-6.94-1.777l-1.561 1.777h-1.417v-8.702h-.073z"/>
        <ellipse cx="334.344" cy="34.182" fill="#000" fill-rule="nonzero" rx="3.607" ry="3.636"/>
    </g>
</svg>
