<?xml version="1.0" encoding="UTF-8"?>
<svg width="345px" height="65px" viewBox="0 0 345 65" version="1.1" xmlns="http://www.w3.org/2000/svg" xmlns:xlink="http://www.w3.org/1999/xlink">
    <!-- Generator: Sketch 52.6 (67491) - http://www.bohemiancoding.com/sketch -->
    <title>Group 2</title>
    <desc>Created with Sketch.</desc>
    <defs>
        <linearGradient x1="72.9869813%" y1="49.9886582%" x2="172.992677%" y2="49.9886582%" id="linearGradient-1">
            <stop stop-color="#AFAFAF" offset="0%"></stop>
            <stop stop-color="#C1C1C1" offset="11.77%"></stop>
            <stop stop-color="#DCDCDC" offset="33.17%"></stop>
            <stop stop-color="#F0F0F0" offset="54.91%"></stop>
            <stop stop-color="#FBFBFB" offset="77.01%"></stop>
            <stop stop-color="#FFFFFF" offset="100%"></stop>
        </linearGradient>
        <linearGradient x1="-0.0361475613%" y1="49.9876679%" x2="99.9690517%" y2="49.9876679%" id="linearGradient-2">
            <stop stop-color="#AFAFAF" offset="0%"></stop>
            <stop stop-color="#C1C1C1" offset="11.77%"></stop>
            <stop stop-color="#DCDCDC" offset="33.17%"></stop>
            <stop stop-color="#F0F0F0" offset="54.91%"></stop>
            <stop stop-color="#FBFBFB" offset="77.01%"></stop>
            <stop stop-color="#FFFFFF" offset="100%"></stop>
        </linearGradient>
        <linearGradient x1="-0.0487364621%" y1="49.9960216%" x2="607.841155%" y2="49.9960216%" id="linearGradient-3">
            <stop stop-color="#FFFFFF" offset="0%"></stop>
            <stop stop-color="#F0F0F0" offset="5.31%"></stop>
            <stop stop-color="#D8D8D8" offset="16.04%"></stop>
            <stop stop-color="#C6C6C6" offset="28.27%"></stop>
            <stop stop-color="#B9B9B9" offset="42.68%"></stop>
            <stop stop-color="#B1B1B1" offset="61.39%"></stop>
            <stop stop-color="#AFAFAF" offset="100%"></stop>
        </linearGradient>
        <linearGradient x1="-15.5241559%" y1="49.9918147%" x2="84.4906106%" y2="49.9918147%" id="linearGradient-4">
            <stop stop-color="#FFFFFF" offset="0%"></stop>
            <stop stop-color="#F0F0F0" offset="5.31%"></stop>
            <stop stop-color="#D8D8D8" offset="16.04%"></stop>
            <stop stop-color="#C6C6C6" offset="28.27%"></stop>
            <stop stop-color="#B9B9B9" offset="42.68%"></stop>
            <stop stop-color="#B1B1B1" offset="61.39%"></stop>
            <stop stop-color="#AFAFAF" offset="100%"></stop>
        </linearGradient>
    </defs>
    <g id="Symbols" stroke="none" stroke-width="1" fill="none" fill-rule="evenodd">
        <g id="newsroom-investigates." transform="translate(-777.000000, -118.000000)">
            <g id="NewsroomInvestigates_logo" transform="translate(0.000000, 0.000000)">
                <g id="Group" transform="translate(777.236787, 117.811069)">
                    <g id="Group-2">
                        <path d="M5.11568872,0.577195173 L5.11568872,7.60632543 L0.735330836,7.60632543 L0.735330836,0.577195173 L5.11568872,0.577195173 Z M5.11568872,14.3587183 L5.11568872,50.2634207 L0.735330836,50.2634207 L0.735330836,14.3587183 L5.11568872,14.3587183 Z" id="Shape" fill="#AFAFAF" fill-rule="nonzero"></path>
                        <path d="M17.8456097,14.3587183 L17.8456097,20.5497295 L17.9879318,20.5497295 C18.8260508,18.3674573 20.3046192,16.6200583 22.4394507,15.2996255 C24.5742821,13.9791927 26.91469,13.3150229 29.4685809,13.3150229 C31.9750312,13.3150229 34.0703288,13.639201 35.7623804,14.2875572 C37.454432,14.9359134 38.8143987,15.8531003 39.8343737,17.0391178 C40.8543487,18.2251352 41.573866,19.6720766 41.9929255,21.3878485 C42.411985,23.1036205 42.6175614,25.0328756 42.6175614,27.1598002 L42.6175614,50.2634207 L38.2372035,50.2634207 L38.2372035,27.8555972 C38.2372035,26.3216812 38.0948814,24.8984603 37.818144,23.5780275 C37.5414066,22.2575947 37.051186,21.1111111 36.3553891,20.13067 C35.6595922,19.1581357 34.718685,18.3911777 33.5405743,17.8377029 C32.3624636,17.284228 30.8838951,16.9995839 29.1206825,16.9995839 C27.3574698,16.9995839 25.7919268,17.3158552 24.4240533,17.9404911 C23.0561798,18.5651269 21.8938826,19.4269663 20.9450687,20.5181024 C19.9962547,21.6092385 19.2530171,22.9059509 18.7153558,24.4161465 C18.1776945,25.9263421 17.8930504,27.5630462 17.8456097,29.3183521 L17.8456097,50.2634207 L13.4652518,50.2634207 L13.4652518,14.3587183 L17.8456097,14.3587183 Z" id="Path" fill="url(#linearGradient-1)"></path>
                        <polygon id="Path" fill="url(#linearGradient-2)" points="51.7340824 14.3587183 63.0091552 45.8751561 63.1514773 45.8751561 74.284228 14.3587183 78.806908 14.3587183 65.3811902 50.2634207 60.7161881 50.2634207 46.8714107 14.3587183 51.7340824 14.3587183"></polygon>
                        <path d="M86.3499792,38.3953392 C86.7927591,40.0873908 87.4964628,41.6054931 88.4689971,42.9496463 C89.4415314,44.2937994 90.6749896,45.4086558 92.1535581,46.2863088 C93.6400333,47.1718685 95.4269663,47.6067416 97.5143571,47.6067416 C100.716604,47.6067416 103.223055,46.7686226 105.025801,45.1002913 C106.836454,43.43196 108.085726,41.2022472 108.781523,38.4190595 L113.161881,38.4190595 C112.236787,42.4989596 110.528922,45.6537661 108.046192,47.883479 C105.563462,50.1131918 102.052851,51.2201415 97.5064503,51.2201415 C94.6758219,51.2201415 92.2326259,50.7220141 90.1689555,49.7257595 C88.1052851,48.7295048 86.4211402,47.3616313 85.1244278,45.622139 C83.8277154,43.8826467 82.8630878,41.866417 82.2384519,39.5655431 C81.6138161,37.2646692 81.2975447,34.8451935 81.2975447,32.2913025 C81.2975447,29.9271744 81.6138161,27.6104869 82.2384519,25.3333333 C82.8630878,23.0640866 83.8277154,21.0320433 85.1244278,19.2451103 C86.4211402,17.4581773 88.1052851,16.0191427 90.1689555,14.9280067 C92.2326259,13.8368706 94.6837287,13.2913025 97.5064503,13.2913025 C100.384519,13.2913025 102.843529,13.8684977 104.883479,15.0307948 C106.923429,16.193092 108.583854,17.7111943 109.856846,19.585102 C111.129838,21.4669164 112.047025,23.6175614 112.608406,26.0528506 C113.161881,28.4881398 113.399084,30.9550562 113.304203,33.4615065 L85.6779026,33.4615065 C85.6858094,35.0665834 85.9071993,36.7032876 86.3499792,38.3953392 Z M108.054099,25.0012484 C107.516438,23.4673325 106.765293,22.1152726 105.792759,20.9292551 C104.820225,19.7432376 103.634207,18.7944236 102.242613,18.0749064 C100.85102,17.3553891 99.2775697,16.9995839 97.5143571,16.9995839 C95.7037037,16.9995839 94.1065335,17.3632959 92.7149397,18.0749064 C91.3233458,18.7944236 90.1373283,19.7432376 89.164794,20.9292551 C88.1922597,22.1152726 87.4094881,23.4831461 86.832293,25.0328756 C86.2550978,26.5905119 85.8676654,28.1797753 85.6858094,29.8006658 L108.923845,29.8006658 C108.876404,28.1323346 108.59176,26.5351644 108.054099,25.0012484 Z" id="Shape" fill="#FFFFFF" fill-rule="nonzero"></path>
                        <path d="M139.886808,21.3483146 C139.372867,20.3520599 138.692884,19.5297545 137.831045,18.8813983 C136.969205,18.233042 135.988764,17.758635 134.873908,17.4581773 C133.759051,17.1577195 132.58094,17.0074906 131.323762,17.0074906 C130.351228,17.0074906 129.36288,17.1102788 128.366625,17.323762 C127.37037,17.5293383 126.453184,17.8772368 125.615065,18.3674573 C124.776945,18.8576779 124.104869,19.4902206 123.598835,20.2808989 C123.084894,21.0715772 122.831877,22.0441115 122.831877,23.2064087 C122.831877,24.178943 123.076987,25.0012484 123.559301,25.673325 C124.049521,26.3454016 124.658344,26.91469 125.401581,27.3811902 C126.144819,27.8476904 126.951311,28.227216 127.836871,28.5276737 C128.714524,28.8281315 129.528922,29.0732418 130.27216,29.2550978 L136.115273,30.5755306 C137.364544,30.7652934 138.605909,31.0973783 139.839367,31.5875988 C141.064919,32.0778194 142.156055,32.710362 143.112776,33.5010404 C144.06159,34.2917187 144.844361,35.264253 145.445277,36.4265501 C146.046192,37.5888473 146.34665,38.9567208 146.34665,40.5301706 C146.34665,42.4752393 145.90387,44.1356638 145.026217,45.5035372 C144.140658,46.8714107 143.017894,47.9862672 141.650021,48.8401998 C140.282147,49.7020391 138.740325,50.3108614 137.024553,50.6824802 C135.308781,51.054099 133.616729,51.2359551 131.948398,51.2359551 C127.726176,51.2359551 124.302538,50.2397004 121.685393,48.247191 C119.068248,46.2546816 117.565959,43.0524345 117.19434,38.6483562 L121.574698,38.6483562 C121.756554,41.6213067 122.839784,43.8589263 124.808573,45.3612151 C126.777362,46.8714107 129.228464,47.6225551 132.146067,47.6225551 C133.213483,47.6225551 134.312526,47.5039534 135.451103,47.2746567 C136.58968,47.04536 137.641282,46.6500208 138.613816,46.0886392 C139.58635,45.5272576 140.384935,44.8235539 141.017478,43.9696213 C141.642114,43.1156887 141.958385,42.0561798 141.958385,40.806908 C141.958385,39.7394923 141.736995,38.8460258 141.294216,38.1265085 C140.851436,37.4069913 140.258427,36.8060757 139.523096,36.3158552 C138.779859,35.8256346 137.933833,35.4223887 136.985019,35.0982106 C136.036205,34.7740325 135.071577,34.497295 134.099043,34.2600916 L128.461506,33.0108198 C127.022472,32.639201 125.702039,32.2122347 124.492301,31.7220141 C123.282563,31.2317936 122.230961,30.6308781 121.329588,29.9113608 C120.428215,29.1918435 119.716604,28.3141906 119.21057,27.2704952 C118.696629,26.2267998 118.443612,24.9379942 118.443612,23.411985 C118.443612,21.6013317 118.846858,20.0516022 119.661257,18.7469829 C120.475655,17.4502705 121.527258,16.4065751 122.82397,15.6158968 C124.120682,14.8252185 125.575531,14.2480233 127.172701,13.8764045 C128.769871,13.5047857 130.359134,13.3229297 131.940491,13.3229297 C133.751144,13.3229297 135.427382,13.5522264 136.985019,14.0187266 C138.534748,14.4852268 139.910529,15.2047441 141.088639,16.1772784 C142.274657,17.1498127 143.207657,18.3595506 143.903454,19.7985851 C144.599251,21.2376196 144.99459,22.9296712 145.089471,24.8747399 L140.709114,24.8747399 C140.677486,23.5147732 140.400749,22.3445693 139.886808,21.3483146 Z" id="Path" fill="#FFFFFF"></path>
                        <path d="M166.951727,14.3587183 L166.951727,18.0432792 L159.645859,18.0432792 L159.645859,42.2538494 C159.645859,43.6928839 159.843529,44.8156471 160.238868,45.6300458 C160.634207,46.4444444 161.614648,46.8951311 163.196005,46.9900125 C164.445277,46.9900125 165.702455,46.9188514 166.951727,46.7844361 L166.951727,50.4689971 C166.303371,50.4689971 165.655015,50.4927174 165.006658,50.5401581 C164.358302,50.5875988 163.709946,50.6113192 163.06159,50.6113192 C160.13608,50.6113192 158.09613,50.0420308 156.941739,48.903454 C155.779442,47.7648772 155.225968,45.6695797 155.273408,42.6096546 L155.273408,18.051186 L149.011236,18.051186 L149.011236,14.3666251 L155.273408,14.3666251 L155.273408,3.58177278 L159.653766,3.58177278 L159.653766,14.3666251 L166.951727,14.3666251 L166.951727,14.3587183 Z" id="Path" fill="#FFFFFF"></path>
                        <path d="M177.736579,0.577195173 L177.736579,7.60632543 L173.356221,7.60632543 L173.356221,0.577195173 L177.736579,0.577195173 Z M177.736579,14.3587183 L177.736579,50.2634207 L173.356221,50.2634207 L173.356221,14.3587183 L177.736579,14.3587183 Z" id="Shape" fill="url(#linearGradient-3)" fill-rule="nonzero"></path>
                        <path d="M215.625884,54.5014565 C215.048689,56.636288 214.131502,58.4469413 212.874324,59.9255098 C211.625052,61.411985 209.988348,62.542655 207.972118,63.3333333 C205.955888,64.1240117 203.481065,64.5193508 200.563462,64.5193508 C198.752809,64.5193508 196.989596,64.3137744 195.273824,63.8947149 C193.558052,63.4756554 192.01623,62.8272992 190.648356,61.9496463 C189.280483,61.0640866 188.141906,59.9413233 187.240533,58.5734499 C186.339159,57.2055764 185.817312,55.5688722 185.67499,53.6712443 L190.055347,53.6712443 C190.284644,55.0153974 190.735331,56.1381606 191.415314,57.0474407 C192.087391,57.948814 192.901789,58.6841448 193.850603,59.2376196 C194.799417,59.7910945 195.858926,60.2022472 197.013317,60.4552643 C198.175614,60.7082813 199.353725,60.8347898 200.563462,60.8347898 C204.643362,60.8347898 207.592593,59.6724927 209.403246,57.3558052 C211.213899,55.0391178 212.115273,51.6945485 212.115273,47.3379109 L212.115273,42.4673325 L211.97295,42.4673325 C210.952975,44.6970454 209.458593,46.4839784 207.481898,47.8281315 C205.513109,49.1722846 203.204328,49.8443612 200.555556,49.8443612 C197.677486,49.8443612 195.218477,49.3699542 193.178527,48.4211402 C191.138577,47.4723263 189.454432,46.1598002 188.133999,44.491469 C186.813566,42.8231377 185.848939,40.8622555 185.248023,38.6088223 C184.647108,36.3632959 184.34665,33.9596338 184.34665,31.4057428 C184.34665,28.9467333 184.702455,26.6142322 185.421973,24.4161465 C186.14149,22.210154 187.185185,20.2888057 188.553059,18.6441948 C189.920932,16.9995839 191.612984,15.7028714 193.629213,14.7461506 C195.645443,13.7973367 197.954224,13.3229297 200.555556,13.3229297 C201.899709,13.3229297 203.164794,13.5047857 204.350811,13.8764045 C205.536829,14.2480233 206.612151,14.769871 207.584686,15.4419476 C208.55722,16.1140241 209.426966,16.8888889 210.193924,17.7744486 C210.960882,18.6600083 211.553891,19.585102 211.965044,20.5576363 L212.107366,20.5576363 L212.107366,14.3666251 L216.487724,14.3666251 L216.487724,47.3458177 C216.49563,49.9787765 216.203079,52.3666251 215.625884,54.5014565 Z M205.568456,44.9342489 C207.007491,44.1198502 208.209322,43.0524345 209.189763,41.7320017 C210.170204,40.4115689 210.897628,38.8934665 211.379942,37.1776945 C211.870162,35.4619226 212.107366,33.6987099 212.107366,31.8880566 C212.107366,30.1248439 211.901789,28.3616313 211.48273,26.5984186 C211.06367,24.835206 210.391594,23.2380358 209.4665,21.7990012 C208.541407,20.3599667 207.347482,19.1976696 205.884727,18.3200166 C204.421973,17.4423637 202.650853,16.9995839 200.563462,16.9995839 C198.476072,16.9995839 196.689139,17.4265501 195.202663,18.2883895 C193.716188,19.1502289 192.490637,20.2729921 191.518102,21.6645859 C190.545568,23.0561798 189.833958,24.6454432 189.399084,26.4323762 C188.956305,28.2193092 188.734915,30.0378693 188.734915,31.8959634 C188.734915,33.7066167 188.964211,35.4698294 189.430712,37.1856013 C189.897212,38.9013733 190.616729,40.4194757 191.589263,41.7399084 C192.561798,43.0603412 193.795256,44.127757 195.273824,44.9421556 C196.7603,45.7565543 198.523512,46.1598002 200.563462,46.1598002 C202.46109,46.1518935 204.129422,45.7486475 205.568456,44.9342489 Z" id="Shape" fill="url(#linearGradient-4)" fill-rule="nonzero"></path>
                        <path d="M225.746567,19.9250936 C226.489804,18.3911777 227.493966,17.141906 228.774865,16.1693716 C230.047857,15.1968373 231.542239,14.47732 233.265918,14.0108198 C234.98169,13.5443196 236.887224,13.3150229 238.974615,13.3150229 C240.548065,13.3150229 242.129422,13.4652518 243.702871,13.7657095 C245.276321,14.0661673 246.691635,14.6354557 247.948814,15.4735747 C249.205993,16.3116937 250.218061,17.4818976 251.008739,18.9841864 C251.799417,20.494382 252.194757,22.4552643 252.194757,24.8668331 L252.194757,43.9300874 C252.194757,45.6933 253.048689,46.570953 254.772368,46.570953 C255.278402,46.570953 255.744902,46.4760716 256.163962,46.2942156 L256.163962,49.9787765 C255.650021,50.0736579 255.199334,50.144819 254.803995,50.1843529 C254.408656,50.2317936 253.910529,50.2555139 253.309613,50.2555139 C252.194757,50.2555139 251.30129,50.1052851 250.629213,49.8048273 C249.957137,49.5043695 249.435289,49.0774032 249.06367,48.5160216 C248.692052,47.9625468 248.446941,47.298377 248.336246,46.5314191 C248.217645,45.7644611 248.162297,44.9184353 248.162297,43.9933417 L248.019975,43.9933417 C247.229297,45.1556388 246.430712,46.1835206 245.616313,47.0928007 C244.801914,47.9941739 243.900541,48.7532251 242.904286,49.3541407 C241.908032,49.9550562 240.769455,50.4215564 239.496463,50.7457345 C238.215564,51.0699126 236.697462,51.2359551 234.942156,51.2359551 C233.273824,51.2359551 231.708281,51.0382855 230.245526,50.6429463 C228.782772,50.2476072 227.509779,49.6229713 226.418643,48.7611319 C225.327507,47.9071993 224.473575,46.8160633 223.841032,45.4877237 C223.208489,44.1593841 222.900125,42.6017478 222.900125,40.7910945 C222.900125,38.2846442 223.4536,36.323762 224.568456,34.9084478 C225.683313,33.4931336 227.153974,32.4178111 228.988348,31.6745734 C230.822722,30.9313358 232.886392,30.4094881 235.179359,30.1090304 C237.472326,29.8085726 239.804827,29.5160216 242.168955,29.2392842 C243.094049,29.1444028 243.908448,29.0337079 244.604245,28.8913858 C245.300042,28.7490637 245.877237,28.5118602 246.343737,28.1639617 C246.810237,27.8160633 247.166042,27.3416563 247.41906,26.7407407 C247.672077,26.1398252 247.798585,25.3491469 247.798585,24.3766126 C247.798585,22.8901373 247.553475,21.6724927 247.071161,20.7236787 C246.58094,19.7748648 245.908864,19.0158136 245.054931,18.4623387 C244.193092,17.9088639 243.196837,17.5214315 242.066167,17.3158552 C240.927591,17.1102788 239.709946,16.9995839 238.413233,16.9995839 C235.630046,16.9995839 233.360799,17.6637536 231.597586,18.9841864 C229.834374,20.3046192 228.90928,22.4315439 228.814399,25.3491469 L224.434041,25.3491469 C224.560549,23.2617561 225.003329,21.4511028 225.746567,19.9250936 Z M247.66417,30.6387849 C247.387432,31.1527258 246.849771,31.5243446 246.067,31.7536413 C245.276321,31.982938 244.580524,32.1489804 243.979609,32.2438618 C242.121515,32.56804 240.208073,32.8605909 238.239284,33.113608 C236.262588,33.3666251 234.467749,33.7540574 232.846858,34.2600916 C231.225968,34.7740325 229.889721,35.5014565 228.846026,36.4502705 C227.80233,37.3990845 227.280483,38.7590512 227.280483,40.5222638 C227.280483,41.6371203 227.501873,42.6254682 227.944653,43.4794007 C228.387432,44.3412401 228.980441,45.076571 229.715772,45.7091136 C230.451103,46.3416563 231.312942,46.8081565 232.293383,47.1323346 C233.265918,47.4565127 234.262172,47.6225551 235.290054,47.6225551 C236.958385,47.6225551 238.563462,47.3695381 240.089471,46.8555972 C241.623387,46.3416563 242.951727,45.6063254 244.090304,44.6258843 C245.228881,43.65335 246.130254,42.4673325 246.80233,41.0757387 C247.474407,39.6841448 247.814399,38.110695 247.814399,36.3474823 L247.814399,30.6387849 L247.66417,30.6387849 Z" id="Shape" fill="#AFAFAF" fill-rule="nonzero"></path>
                        <path d="M275.219309,14.3587183 L275.219309,18.0432792 L267.913442,18.0432792 L267.913442,42.2538494 C267.913442,43.6928839 268.111111,44.8156471 268.50645,45.6300458 C268.901789,46.4444444 269.890137,46.8951311 271.463587,46.9900125 C272.712859,46.9900125 273.970037,46.9188514 275.219309,46.7844361 L275.219309,50.4689971 C274.570953,50.4689971 273.922597,50.4927174 273.274241,50.5401581 C272.625884,50.5875988 271.977528,50.6113192 271.329172,50.6113192 C268.403662,50.6113192 266.363712,50.0420308 265.209322,48.903454 C264.047025,47.7648772 263.49355,45.6695797 263.54099,42.6096546 L263.54099,18.051186 L257.278818,18.051186 L257.278818,14.3666251 L263.54099,14.3666251 L263.54099,3.58177278 L267.921348,3.58177278 L267.921348,14.3666251 L275.219309,14.3666251 L275.219309,14.3587183 Z" id="Path" fill="#AFAFAF"></path>
                        <path d="M284.786517,38.3953392 C285.229297,40.0873908 285.933,41.6054931 286.905535,42.9496463 C287.878069,44.2937994 289.111527,45.4086558 290.590096,46.2863088 C292.076571,47.1718685 293.863504,47.6067416 295.950895,47.6067416 C299.153142,47.6067416 301.659592,46.7686226 303.462339,45.1002913 C305.272992,43.43196 306.522264,41.2022472 307.218061,38.4190595 L311.598419,38.4190595 C310.673325,42.4989596 308.96546,45.6537661 306.48273,47.883479 C304,50.1131918 300.489388,51.2201415 295.942988,51.2201415 C293.11236,51.2201415 290.669164,50.7220141 288.605493,49.7257595 C286.541823,48.7295048 284.857678,47.3616313 283.560965,45.622139 C282.264253,43.8826467 281.299625,41.866417 280.67499,39.5655431 C280.050354,37.2646692 279.734082,34.8451935 279.734082,32.2913025 C279.734082,29.9271744 280.050354,27.6104869 280.67499,25.3333333 C281.299625,23.0640866 282.264253,21.0320433 283.560965,19.2451103 C284.857678,17.4581773 286.541823,16.0191427 288.605493,14.9280067 C290.669164,13.8368706 293.120266,13.2913025 295.942988,13.2913025 C298.821057,13.2913025 301.280067,13.8684977 303.320017,15.0307948 C305.359967,16.193092 307.020391,17.7111943 308.293383,19.585102 C309.566375,21.4669164 310.483562,23.6175614 311.044944,26.0528506 C311.606325,28.4881398 311.835622,30.9550562 311.740741,33.4615065 L284.11444,33.4615065 C284.122347,35.0665834 284.343737,36.7032876 284.786517,38.3953392 Z M306.490637,25.0012484 C305.960882,23.4673325 305.201831,22.1152726 304.229297,20.9292551 C303.256762,19.7432376 302.070745,18.7944236 300.679151,18.0749064 C299.287557,17.3553891 297.706201,16.9995839 295.950895,16.9995839 C294.140241,16.9995839 292.543071,17.3632959 291.151477,18.0749064 C289.759883,18.7944236 288.573866,19.7432376 287.601332,20.9292551 C286.628797,22.1152726 285.853933,23.4831461 285.268831,25.0328756 C284.691635,26.5905119 284.304203,28.1797753 284.122347,29.8006658 L307.360383,29.8006658 C307.312942,28.1323346 307.028298,26.5351644 306.490637,25.0012484 Z" id="Shape" fill="#AFAFAF" fill-rule="nonzero"></path>
                        <path d="M338.323346,21.3483146 C337.809405,20.3520599 337.129422,19.5297545 336.267582,18.8813983 C335.405743,18.233042 334.425302,17.758635 333.310445,17.4581773 C332.195589,17.1577195 331.017478,17.0074906 329.7603,17.0074906 C328.787765,17.0074906 327.799417,17.1102788 326.803163,17.323762 C325.806908,17.5372451 324.889721,17.8772368 324.051602,18.3674573 C323.213483,18.8576779 322.541407,19.4902206 322.035372,20.2808989 C321.521432,21.0715772 321.268414,22.0441115 321.268414,23.2064087 C321.268414,24.178943 321.513525,25.0012484 321.995839,25.673325 C322.486059,26.3454016 323.094881,26.91469 323.838119,27.3811902 C324.581357,27.8476904 325.387849,28.227216 326.273408,28.5276737 C327.151061,28.8281315 327.96546,29.0732418 328.708697,29.2550978 L334.55181,30.5755306 C335.801082,30.7652934 337.042447,31.0973783 338.275905,31.5875988 C339.501457,32.0778194 340.592593,32.710362 341.549313,33.5010404 C342.498127,34.2917187 343.280899,35.264253 343.881814,36.4265501 C344.48273,37.5888473 344.783188,38.9567208 344.783188,40.5301706 C344.783188,42.4752393 344.340408,44.1356638 343.462755,45.5035372 C342.577195,46.8714107 341.454432,47.9862672 340.086558,48.8401998 C338.718685,49.7020391 337.176862,50.3108614 335.46109,50.6824802 C333.745318,51.054099 332.053267,51.2359551 330.384935,51.2359551 C326.162713,51.2359551 322.739076,50.2397004 320.121931,48.247191 C317.496879,46.2546816 316.002497,43.0524345 315.630878,38.6483562 L320.011236,38.6483562 C320.193092,41.6213067 321.276321,43.8589263 323.24511,45.3612151 C325.213899,46.8714107 327.665002,47.6225551 330.582605,47.6225551 C331.650021,47.6225551 332.749064,47.5039534 333.88764,47.2746567 C335.026217,47.04536 336.077819,46.6500208 337.050354,46.0886392 C338.022888,45.5272576 338.821473,44.8235539 339.454016,43.9696213 C340.078652,43.1156887 340.394923,42.0561798 340.394923,40.806908 C340.394923,39.7394923 340.173533,38.8460258 339.730753,38.1265085 C339.287973,37.4069913 338.694965,36.8060757 337.959634,36.3158552 C337.216396,35.8256346 336.37037,35.4223887 335.421556,35.0982106 C334.472742,34.7740325 333.508115,34.497295 332.535581,34.2600916 L326.898044,33.0108198 C325.45901,32.639201 324.138577,32.2122347 322.928839,31.7220141 C321.719101,31.2317936 320.667499,30.6308781 319.766126,29.9113608 C318.864752,29.1918435 318.153142,28.3141906 317.647108,27.2704952 C317.133167,26.2267998 316.88015,24.9379942 316.88015,23.411985 C316.88015,21.6013317 317.283396,20.0516022 318.097794,18.7469829 C318.912193,17.4502705 319.963795,16.4065751 321.260508,15.6158968 C322.55722,14.8252185 324.012068,14.2480233 325.609238,13.8764045 C327.206409,13.5047857 328.795672,13.3229297 330.377029,13.3229297 C332.187682,13.3229297 333.86392,13.5522264 335.421556,14.0187266 C336.971286,14.4852268 338.347066,15.2047441 339.525177,16.1772784 C340.711194,17.1498127 341.644195,18.3595506 342.339992,19.7985851 C343.035789,21.2376196 343.431128,22.9296712 343.526009,24.8747399 L339.145651,24.8747399 C339.114024,23.5147732 338.837287,22.3445693 338.323346,21.3483146 Z" id="Path" fill="#AFAFAF"></path>
                    </g>
                </g>
            </g>
        </g>
    </g>
</svg>