<?xml version="1.0" encoding="utf-8"?>
<!-- Generator: Adobe Illustrator 22.0.0, SVG Export Plug-In . SVG Version: 6.00 Build 0)  -->
<svg version="1.1" id="Layer_1" xmlns="http://www.w3.org/2000/svg" xmlns:xlink="http://www.w3.org/1999/xlink" x="0px" y="0px"
	 viewBox="0 0 300 70" style="enable-background:new 0 0 300 70;" xml:space="preserve">
<style type="text/css">
	.st0{fill:#231F20;}
	.st1{fill:#73459B;}
</style>
<g>
	<path class="st0" d="M249.1,47.7c2.2-0.1,2.8-0.6,2.8-2V32.1c0-3.4-1.2-5.1-4.1-5.1c-1.9,0-3.1,1.1-4.6,2.6v16c0,1.5,0.5,1.9,2.7,2
		v1.4h-14v-1.4c3.2-0.1,3.9-0.6,3.9-2V27.8c0-1.7-0.7-2.7-3.9-2.7v-1.4l11.2-0.5v4.9c2.6-3,5.7-5.1,9.3-5.1c3.7,0,6,1.9,6.7,5.4
		c2.5-3,6-5.4,9.5-5.4c4.7,0,6.9,2.9,6.9,8.1v14.6c0,1.5,0.6,1.9,3.8,2v1.4h-14v-1.4c2.2-0.1,2.7-0.6,2.7-2V32.1
		c0-3.4-1.1-5.1-3.9-5.1c-1.5,0-3.4,1.1-5,2.9c0.1,0.4,0.1,0.7,0.1,1.1v14.6c0,1.5,0.6,1.9,2.9,2v1.4h-13.1L249.1,47.7z"/>
	<path class="st0" d="M288.7,45.7c0,1.1-0.5,2.2-1.5,2.8c-1.2,0.9-2.9,1-4.2,0.2c-1.6-0.9-2.2-3-1.3-4.7c0.1-0.1,0.1-0.2,0.2-0.3
		c1.3-1.7,3.6-2,5.3-0.8C288.2,43.6,288.7,44.6,288.7,45.7"/>
	<path class="st0" d="M188.8,22.7c-8.2,0-13.5,5.3-13.5,13.5s5,13.4,13.5,13.4c8,0,13.5-5.3,13.5-13.6S197.2,22.7,188.8,22.7z
		 M189,47.9c-4,0-5.8-3.9-5.8-11.7s1.3-11.7,5.3-11.7s5.8,3.8,5.8,11.7S192.9,47.9,189,47.9L189,47.9z"/>
	<path class="st0" d="M218.4,22.7c-8.2,0-13.5,5.3-13.5,13.5s5,13.4,13.5,13.4c8,0,13.5-5.3,13.5-13.6S226.7,22.7,218.4,22.7z
		 M218.6,47.9c-4,0-5.8-3.9-5.8-11.7s1.3-11.7,5.3-11.7s5.8,3.8,5.8,11.7S222.5,47.9,218.6,47.9L218.6,47.9z"/>
	<path class="st1" d="M88.7,47.8c3.2-0.1,3.9-0.6,3.9-2V27.8c0-1.7-0.7-2.7-3.9-2.7v-1.4l11.2-0.5v4.9c2.6-3,6.2-5.1,9.8-5.1
		c4.6,0,6.8,2.9,6.8,8.1v14.6c0,1.5,0.6,2,3.9,2v1.4H106v-1.4c2.2-0.1,3.1-0.6,3.1-2V32.1c0-3.4-1.1-5.1-3.9-5.1
		c-2,0-3.6,1.1-5.2,2.6v16.1c0,1.5,0.8,2,3,2v1.4H88.7V47.8z"/>
	<path class="st1" d="M138.8,23.8c1.3-2.7,3.1-5,6.1-5c2.2,0,3.5,1.3,3.5,3.1c0.1,1.5-1,2.7-2.5,2.8c-0.1,0-0.2,0-0.2,0
		c-1.3,0-2.7-1.1-2.7-3c-1.2,0.5-2.2,1.5-2.8,2.7c2.8,1.4,4.7,3.8,4.7,7.1c0,5.4-4.9,8.8-11.3,8.8c-1.1,0-2.2-0.1-3.3-0.3
		c-2.2,0.7-3.2,1.5-3.2,2.5c0,1.1,1.1,1.8,5.6,1.8h4.1c7.1,0,10.3,2.2,10.3,6.9c0,4.9-5.5,9.2-14.4,9.2c-6.9,0-11.8-2.4-11.8-5.7
		c0-2.4,2-4.3,6.4-4.9v-0.2c-3.5-1.1-4.7-3-4.7-5.1c0-2,1.8-4,5.5-5.3c-3.4-1.3-5.7-3.8-5.7-7.7c0-5.4,4.9-8.7,11.3-8.7
		C135.4,23,137.2,23.3,138.8,23.8z M142.2,53.8c0-2.1-1.5-3.2-7.5-3.2h-5.9c-2,0.8-3.1,1.9-3.1,3.7c0,2.9,2.9,4.7,8.5,4.7
		C138.9,58.9,142.2,56.9,142.2,53.8L142.2,53.8z M137.7,31.6c0-4.4-1.3-7.1-4.3-7.1c-2.9,0-3.8,2.1-3.8,7.1s1.3,7.1,4.3,7.1
		S137.7,36.6,137.7,31.6z"/>
	<path class="st1" d="M12.3,47.8c3.2-0.1,3.9-0.6,3.9-2V14.2c0-1.7-0.7-2.7-4.1-2.7v-1.4l11.6-0.6v36.2c0,1.5,0.6,2,3.9,2v1.4H12.3
		V47.8z"/>
	<path class="st1" d="M47.4,28.2c-1-2.5-1.9-3.1-4.5-3.6v-1.3h15.2v1.3c-2.4,0.3-3.4,0.7-3.4,1.8c0,0.4,0.1,0.8,0.2,1.1l5.8,15.3
		h0.2l4.9-12.5c0.4-0.9,0.6-1.9,0.7-2.9c0-1.6-1.1-2.5-3.8-2.9v-1.3h10.8v1.3c-2,0.2-3.6,1.5-4.6,4l-8.6,20.9h-4.4L47.4,28.2z"/>
	<path class="st1" d="M32.9,14.7c0-2.4,2-4.4,4.4-4.4c2.4,0,4.3,1.9,4.3,4.3c0,0,0,0,0,0.1c0,2.4-2,4.4-4.4,4.4
		C34.8,19,32.9,17.1,32.9,14.7C32.9,14.7,32.9,14.7,32.9,14.7z"/>
	<path class="st1" d="M74.7,14.7c0-2.4,2-4.4,4.4-4.4c2.4,0,4.3,1.9,4.3,4.3c0,0,0,0,0,0.1c0,2.4-2,4.4-4.4,4.4
		C76.7,19,74.7,17.1,74.7,14.7C74.7,14.7,74.7,14.7,74.7,14.7z"/>
	<path class="st0" d="M170,23c-3,0-5.8,2.2-7.7,5.2v-5l-11.2,0.5v1.4c3.2,0.1,3.9,1.1,3.9,2.7v17.9c0,1.5-0.7,1.9-3.9,2v1.4h16.3
		v-1.4c-4.1-0.1-5-0.6-5-2V29.8c1-1.5,2.4-2.7,3.9-3.1c0,0.2-0.1,0.4-0.1,0.7c-0.1,2.3,1.7,4.3,4,4.4c2.3,0.1,4.3-1.7,4.4-4
		c0-0.1,0-0.3,0-0.4C174.7,25.3,173.3,23,170,23"/>
	<path class="st1" d="M82.8,45.7V23.3h-7.4v22.1l0,0v0.3c0,1.5-0.8,2-4,2v1.4h15.3v-1.4C83.4,47.7,82.8,47.2,82.8,45.7z"/>
	<path class="st1" d="M40.9,45.7V23.3h-7.5v22.1l0,0v0.3c0,1.5-0.8,2-4,2v1.4h15.3v-1.4C41.6,47.7,40.9,47.2,40.9,45.7z"/>
</g>
</svg>
