<?xml version="1.0" encoding="utf-8"?>
<!-- Generator: Adobe Illustrator 22.0.0, SVG Export Plug-In . SVG Version: 6.00 Build 0)  -->
<svg version="1.1" id="Layer_1" xmlns="http://www.w3.org/2000/svg" xmlns:xlink="http://www.w3.org/1999/xlink" x="0px" y="0px"
	 viewBox="0 0 276.6 50.9" style="enable-background:new 0 0 276.6 50.9;" xml:space="preserve">
<style type="text/css">
	.st0{fill:#231F20;}
	.st1{fill:#73459B;}
</style>
<g>
	<path class="st0" d="M237,38.2c2.2-0.1,2.8-0.6,2.8-2V22.6c0-3.4-1.2-5.1-4.1-5.1c-1.9,0-3.1,1.1-4.6,2.6v16c0,1.5,0.5,1.9,2.7,2
		v1.4h-14v-1.4c3.2-0.1,3.9-0.6,3.9-2V18.3c0-1.7-0.7-2.7-3.9-2.7v-1.4l11.2-0.5v4.9c2.6-3,5.7-5.1,9.3-5.1c3.7,0,6,1.9,6.7,5.4
		c2.5-3,6-5.4,9.5-5.4c4.7,0,6.9,2.9,6.9,8.1v14.6c0,1.5,0.6,1.9,3.8,2v1.4h-14v-1.4c2.2-0.1,2.7-0.6,2.7-2V22.6
		c0-3.4-1.1-5.1-3.9-5.1c-1.5,0-3.4,1.1-5,2.9c0.1,0.4,0.1,0.7,0.1,1.1v14.6c0,1.5,0.6,1.9,2.9,2v1.4h-13.1L237,38.2z"/>
	<path class="st0" d="M276.6,36.2c0,1.1-0.5,2.2-1.5,2.8c-1.2,0.9-2.9,1-4.2,0.2c-1.6-0.9-2.2-3-1.3-4.7c0.1-0.1,0.1-0.2,0.2-0.3
		c1.3-1.7,3.6-2,5.3-0.8C276.1,34.1,276.6,35.1,276.6,36.2"/>
	<path class="st0" d="M176.7,13.2c-8.2,0-13.5,5.3-13.5,13.5s5,13.4,13.5,13.4c8,0,13.5-5.3,13.5-13.6S185.1,13.2,176.7,13.2z
		 M176.9,38.4c-4,0-5.8-3.9-5.8-11.7s1.3-11.7,5.3-11.7s5.8,3.8,5.8,11.7S180.8,38.4,176.9,38.4L176.9,38.4z"/>
	<path class="st0" d="M206.3,13.2c-8.2,0-13.5,5.3-13.5,13.5s5,13.4,13.5,13.4c8,0,13.5-5.3,13.5-13.6S214.6,13.2,206.3,13.2z
		 M206.5,38.4c-4,0-5.8-3.9-5.8-11.7S202,15,206,15s5.8,3.8,5.8,11.7S210.4,38.4,206.5,38.4L206.5,38.4z"/>
	<path class="st1" d="M76.6,38.3c3.2-0.1,3.9-0.6,3.9-2v-18c0-1.7-0.7-2.7-3.9-2.7v-1.4l11.2-0.5v4.9c2.6-3,6.2-5.1,9.8-5.1
		c4.6,0,6.8,2.9,6.8,8.1v14.6c0,1.5,0.6,2,3.9,2v1.4H93.9v-1.4c2.2-0.1,3.1-0.6,3.1-2V22.6c0-3.4-1.1-5.1-3.9-5.1
		c-2,0-3.6,1.1-5.2,2.6v16.1c0,1.5,0.8,2,3,2v1.4H76.6V38.3z"/>
	<path class="st1" d="M126.7,14.3c1.3-2.7,3.1-5,6.1-5c2.2,0,3.5,1.3,3.5,3.1c0.1,1.5-1,2.7-2.5,2.8c-0.1,0-0.2,0-0.2,0
		c-1.3,0-2.7-1.1-2.7-3c-1.2,0.5-2.2,1.5-2.8,2.7c2.8,1.4,4.7,3.8,4.7,7.1c0,5.4-4.9,8.8-11.3,8.8c-1.1,0-2.2-0.1-3.3-0.3
		C116,31.2,115,32,115,33c0,1.1,1.1,1.8,5.6,1.8h4.1c7.1,0,10.3,2.2,10.3,6.9c0,4.9-5.5,9.2-14.4,9.2c-6.9,0-11.8-2.4-11.8-5.7
		c0-2.4,2-4.3,6.4-4.9v-0.2c-3.5-1.1-4.7-3-4.7-5.1c0-2,1.8-4,5.5-5.3c-3.4-1.3-5.7-3.8-5.7-7.7c0-5.4,4.9-8.7,11.3-8.7
		C123.3,13.5,125.1,13.8,126.7,14.3z M130.1,44.3c0-2.1-1.5-3.2-7.5-3.2h-5.9c-2,0.8-3.1,1.9-3.1,3.7c0,2.9,2.9,4.7,8.5,4.7
		C126.8,49.4,130.1,47.4,130.1,44.3L130.1,44.3z M125.6,22.1c0-4.4-1.3-7.1-4.3-7.1c-2.9,0-3.8,2.1-3.8,7.1s1.3,7.1,4.3,7.1
		S125.6,27.1,125.6,22.1z"/>
	<path class="st1" d="M0.2,38.3c3.2-0.1,3.9-0.6,3.9-2V4.7C4.1,3,3.4,2,0,2V0.6L11.6,0v36.2c0,1.5,0.6,2,3.9,2v1.4H0.2V38.3z"/>
	<path class="st1" d="M35.3,18.7c-1-2.5-1.9-3.1-4.5-3.6v-1.3H46v1.3c-2.4,0.3-3.4,0.7-3.4,1.8c0,0.4,0.1,0.8,0.2,1.1l5.8,15.3h0.2
		l4.9-12.5c0.4-0.9,0.6-1.9,0.7-2.9c0-1.6-1.1-2.5-3.8-2.9v-1.3h10.8V15c-2,0.2-3.6,1.5-4.6,4l-8.6,20.9h-4.4L35.3,18.7z"/>
	<path class="st1" d="M20.8,5.2c0-2.4,2-4.4,4.4-4.4s4.3,1.9,4.3,4.3c0,0,0,0,0,0.1c0,2.4-2,4.4-4.4,4.4C22.7,9.5,20.8,7.6,20.8,5.2
		L20.8,5.2z"/>
	<path class="st1" d="M62.6,5.2c0-2.4,2-4.4,4.4-4.4s4.3,1.9,4.3,4.3c0,0,0,0,0,0.1c0,2.4-2,4.4-4.4,4.4C64.6,9.5,62.6,7.6,62.6,5.2
		L62.6,5.2z"/>
	<path class="st0" d="M157.9,13.5c-3,0-5.8,2.2-7.7,5.2v-5L139,14.2v1.4c3.2,0.1,3.9,1.1,3.9,2.7v17.9c0,1.5-0.7,1.9-3.9,2v1.4h16.3
		v-1.4c-4.1-0.1-5-0.6-5-2V20.3c1-1.5,2.4-2.7,3.9-3.1c0,0.2-0.1,0.4-0.1,0.7c-0.1,2.3,1.7,4.3,4,4.4c2.3,0.1,4.3-1.7,4.4-4
		c0-0.1,0-0.3,0-0.4C162.6,15.8,161.2,13.5,157.9,13.5"/>
	<path class="st1" d="M70.7,36.2V13.8h-7.4v22.1l0,0v0.3c0,1.5-0.8,2-4,2v1.4h15.3v-1.4C71.3,38.2,70.7,37.7,70.7,36.2z"/>
	<path class="st1" d="M28.8,36.2V13.8h-7.5v22.1l0,0v0.3c0,1.5-0.8,2-4,2v1.4h15.3v-1.4C29.5,38.2,28.8,37.7,28.8,36.2z"/>
</g>
</svg>
