<?xml version="1.0" encoding="utf-8"?>
<!-- Generator: Adobe Illustrator 22.0.0, SVG Export Plug-In . SVG Version: 6.00 Build 0)  -->
<svg version="1.1" id="Layer_1" xmlns="http://www.w3.org/2000/svg" xmlns:xlink="http://www.w3.org/1999/xlink" x="0px" y="0px"
	 viewBox="0 0 319.3 70" style="enable-background:new 0 0 319.3 70;" xml:space="preserve">
<style type="text/css">
	.st0{fill:#80C342;}
	.st1{fill:#231F20;}
</style>
<path class="st0" d="M17.6,47.1c3.2,0,3.9-0.6,3.9-2V13.7c-0.1-1.8-0.7-2.7-4.2-2.8V9.6L28.9,9v36.1c0,1.5,0.6,2,3.9,2v1.4H17.6
	V47.1z"/>
<path class="st0" d="M34.1,35.6c0-8.2,5.4-13.5,13.5-13.5c8.3,0,13.5,5.1,13.5,13.3S55.7,49,47.6,49C39.1,49,34.1,43.9,34.1,35.6z
	 M53.1,35.5c0-7.9-1.8-11.7-5.8-11.7S42,27.6,42,35.5s1.8,11.8,5.8,11.8C51.7,47.3,53.1,43.4,53.1,35.5L53.1,35.5z"/>
<path class="st0" d="M63.2,36c0-8.6,5.9-13.9,13.8-13.9c7.4,0,10.2,3.6,10.2,6.4c0,2.5-1.4,4.2-3.9,4.2c-2.8,0-4.2-1.7-4.2-3.8
	c0-1.3,0.7-2.6,1.8-3.4c-0.9-1.2-2.3-1.9-3.8-1.8c-3.7,0-6.1,4.1-6.1,11.4c0,6,2.5,10.9,8,10.9c2.9,0,5.5-1.6,7.5-4.2l1.1,0.8
	c-2.4,4-5.8,6.4-11.3,6.4C68.2,49,63.2,44,63.2,36z"/>
<path class="st0" d="M99.6,45.2c0,1.4,0.8,2,2.7,2v1.3h-14v-1.4c3.2,0,3.9-0.6,3.9-2V13.7c0-1.7-0.6-2.7-4.1-2.7V9.6L99.6,9v27
	l7.3-7.5c2.1-2.2,1.6-3.7-2-4.5v-1.4h12.9V24c-3.4,0.6-5.2,1.8-8.2,4.7l-2.8,2.7l8.3,12.5c1.7,2.5,2.3,3,4.7,3.2v1.4h-14.2v-1.3
	c2.5-0.2,2.9-0.9,1.7-2.8l-5.2-8.2l-2.4,2.3L99.6,45.2z"/>
<path class="st0" d="M118.2,35.9c0-8.5,5.6-13.8,13.2-13.8c7.9,0,11.9,5.6,11.5,13h-16.8v0.7c0,6.4,2.7,10.4,8.1,10.4
	c3.1,0,5.5-1.7,7.6-4.6l1.1,0.8c-2.5,3.9-5.9,6.6-11.5,6.6C123.2,49,118.2,44.1,118.2,35.9z M126,33.5l9.2-0.1
	c0.6-5.6-0.8-9.6-4.2-9.6C127.9,23.8,126.4,27.2,126,33.5z"/>
<path class="st0" d="M143.6,47.1c3.2,0,3.9-0.6,3.9-2V27.2c0-1.7-0.7-2.7-3.9-2.7v-1.4l11.2-0.5v5c1.9-3,4.6-5.2,7.7-5.2
	c3.3,0,5,2.1,5,4.6c0,2.6-1.6,4.4-4,4.4c-2.5,0-4.1-1.6-4.1-3.8c0-0.6,0.1-1.1,0.3-1.7c-1.7,0.1-3.5,1.5-4.7,3.2V45
	c0,1.5,0.9,1.9,5,2v1.4h-16.3L143.6,47.1L143.6,47.1z"/>
<path class="st1" d="M268,47.3c2.2-0.1,2.8-0.6,2.8-2V31.7c0-3.4-1.2-5.1-4.1-5.1c-1.9,0-3.1,1.1-4.6,2.6v16c0,1.5,0.5,1.9,2.7,2
	v1.4h-14v-1.4c3.2-0.1,3.9-0.6,3.9-2V27.4c0-1.7-0.7-2.7-3.9-2.7v-1.4l11.2-0.5v4.9c2.6-3,5.7-5.1,9.3-5.1s6,1.9,6.7,5.4
	c2.5-3,6-5.4,9.5-5.4c4.7,0,6.9,2.9,6.9,8.1v14.6c0,1.5,0.6,1.9,3.8,2v1.4h-14v-1.4c2.2-0.1,2.7-0.6,2.7-2V31.7
	c0-3.4-1.1-5.1-3.9-5.1c-1.5,0-3.4,1.1-5,2.9c0.1,0.4,0.1,0.7,0.1,1.1v14.6c0,1.5,0.6,1.9,2.9,2v1.4h-13V47.3L268,47.3z"/>
<path class="st1" d="M307.5,45.3c0,1.1-0.5,2.2-1.5,2.8c-1.2,0.9-2.9,1-4.2,0.2c-1.6-0.9-2.2-3-1.3-4.7c0.1-0.1,0.1-0.2,0.2-0.3
	c1.3-1.7,3.6-2,5.3-0.8C307,43.1,307.6,44.2,307.5,45.3"/>
<path class="st1" d="M207.7,22.3c-8.2,0-13.6,5.3-13.6,13.5s5,13.4,13.6,13.4c8.1,0,13.5-5.3,13.5-13.6S216,22.3,207.7,22.3z
	 M207.9,47.4c-4,0-5.8-3.9-5.8-11.7s1.3-11.7,5.3-11.7s5.8,3.8,5.8,11.7S211.8,47.5,207.9,47.4L207.9,47.4z"/>
<path class="st1" d="M237.2,22.3c-8.2,0-13.6,5.3-13.6,13.5s5,13.4,13.6,13.4c8,0,13.5-5.3,13.5-13.6S245.6,22.3,237.2,22.3z
	 M237.5,47.4c-4,0-5.8-3.9-5.8-11.7S233,24,237,24s5.8,3.8,5.8,11.7S241.4,47.5,237.5,47.4L237.5,47.4z"/>
<path class="st1" d="M188.9,22.6c-3,0-5.8,2.2-7.7,5.2v-5L170,23.3v1.4c3.2,0,3.9,1,3.9,2.7v17.9c0,1.5-0.7,1.9-3.9,2v1.4h16.3v-1.4
	c-4.1-0.1-5-0.6-5-2V29.4c0.9-1.4,2.3-2.5,3.9-3.1c0,0.2,0,0.4-0.1,0.7c-0.1,2.3,1.6,4.3,3.9,4.4s4.3-1.6,4.4-3.9v-0.1
	c0-0.1,0-0.3,0-0.4c0-2.4-1.9-4.4-4.2-4.4C189.2,22.5,189,22.5,188.9,22.6"/>
</svg>
