<svg xmlns="http://www.w3.org/2000/svg" width="291" height="41" viewBox="0 0 291 41">
    <g fill="none" fill-rule="evenodd">
        <path fill="#979797" d="M.3 38.1c3.2 0 3.9-.6 3.9-2V4.7C4.1 2.9 3.5 2 0 1.9V.6L11.6 0v36.1c0 1.5.6 2 3.9 2v1.4H.3v-1.4z"/>
        <path fill="#979797" fill-rule="nonzero" d="M16.8 26.6c0-8.2 5.4-13.5 13.5-13.5 8.3 0 13.5 5.1 13.5 13.3 0 8.2-5.4 13.6-13.5 13.6-8.5 0-13.5-5.1-13.5-13.4zm19-.1c0-7.9-1.8-11.7-5.8-11.7s-5.3 3.8-5.3 11.7c0 7.9 1.8 11.8 5.8 11.8 3.9 0 5.3-3.9 5.3-11.8z"/>
        <path fill="#979797" d="M45.9 27c0-8.6 5.9-13.9 13.8-13.9 7.4 0 10.2 3.6 10.2 6.4 0 2.5-1.4 4.2-3.9 4.2-2.8 0-4.2-1.7-4.2-3.8 0-1.3.7-2.6 1.8-3.4-.9-1.2-2.3-1.9-3.8-1.8-3.7 0-6.1 4.1-6.1 11.4 0 6 2.5 10.9 8 10.9 2.9 0 5.5-1.6 7.5-4.2l1.1.8c-2.4 4-5.8 6.4-11.3 6.4-8.1 0-13.1-5-13.1-13zM82.3 36.2c0 1.4.8 2 2.7 2v1.3H71v-1.4c3.2 0 3.9-.6 3.9-2V4.7c0-1.7-.6-2.7-4.1-2.7V.6L82.3 0v27l7.3-7.5c2.1-2.2 1.6-3.7-2-4.5v-1.4h12.9V15c-3.4.6-5.2 1.8-8.2 4.7l-2.8 2.7 8.3 12.5c1.7 2.5 2.3 3 4.7 3.2v1.4H88.3v-1.3c2.5-.2 2.9-.9 1.7-2.8l-5.2-8.2-2.4 2.3-.1 6.7z"/>
        <path fill="#979797" fill-rule="nonzero" d="M100.9 26.9c0-8.5 5.6-13.8 13.2-13.8 7.9 0 11.9 5.6 11.5 13h-16.8v.7c0 6.4 2.7 10.4 8.1 10.4 3.1 0 5.5-1.7 7.6-4.6l1.1.8c-2.5 3.9-5.9 6.6-11.5 6.6-8.2 0-13.2-4.9-13.2-13.1zm7.8-2.4l9.2-.1c.6-5.6-.8-9.6-4.2-9.6-3.1 0-4.6 3.4-5 9.7z"/>
        <path fill="#979797" d="M126.3 38.1c3.2 0 3.9-.6 3.9-2V18.2c0-1.7-.7-2.7-3.9-2.7v-1.4l11.2-.5v5c1.9-3 4.6-5.2 7.7-5.2 3.3 0 5 2.1 5 4.6 0 2.6-1.6 4.4-4 4.4-2.5 0-4.1-1.6-4.1-3.8 0-.6.1-1.1.3-1.7-1.7.1-3.5 1.5-4.7 3.2V36c0 1.5.9 1.9 5 2v1.4h-16.3l-.1-1.3z"/>
        <path fill="#231F20" d="M250.7 38.3c2.2-.1 2.8-.6 2.8-2V22.7c0-3.4-1.2-5.1-4.1-5.1-1.9 0-3.1 1.1-4.6 2.6v16c0 1.5.5 1.9 2.7 2v1.4h-14v-1.4c3.2-.1 3.9-.6 3.9-2V18.4c0-1.7-.7-2.7-3.9-2.7v-1.4l11.2-.5v4.9c2.6-3 5.7-5.1 9.3-5.1 3.6 0 6 1.9 6.7 5.4 2.5-3 6-5.4 9.5-5.4 4.7 0 6.9 2.9 6.9 8.1v14.6c0 1.5.6 1.9 3.8 2v1.4h-14v-1.4c2.2-.1 2.7-.6 2.7-2V22.7c0-3.4-1.1-5.1-3.9-5.1-1.5 0-3.4 1.1-5 2.9.1.4.1.7.1 1.1v14.6c0 1.5.6 1.9 2.9 2v1.4h-13v-1.3zM290.2 36.3c0 1.1-.5 2.2-1.5 2.8-1.2.9-2.9 1-4.2.2-1.6-.9-2.2-3-1.3-4.7.1-.1.1-.2.2-.3 1.3-1.7 3.6-2 5.3-.8 1 .6 1.6 1.7 1.5 2.8"/>
        <path fill="#231F20" fill-rule="nonzero" d="M190.4 13.3c-8.2 0-13.6 5.3-13.6 13.5s5 13.4 13.6 13.4c8.1 0 13.5-5.3 13.5-13.6s-5.2-13.3-13.5-13.3zm.2 25.1c-4 0-5.8-3.9-5.8-11.7 0-7.8 1.3-11.7 5.3-11.7s5.8 3.8 5.8 11.7c0 7.9-1.4 11.8-5.3 11.7zM219.9 13.3c-8.2 0-13.6 5.3-13.6 13.5s5 13.4 13.6 13.4c8 0 13.5-5.3 13.5-13.6s-5.1-13.3-13.5-13.3zm.3 25.1c-4 0-5.8-3.9-5.8-11.7 0-7.8 1.3-11.7 5.3-11.7s5.8 3.8 5.8 11.7c0 7.9-1.4 11.8-5.3 11.7z"/>
        <path fill="#231F20" d="M171.6 13.6c-3 0-5.8 2.2-7.7 5.2v-5l-11.2.5v1.4c3.2 0 3.9 1 3.9 2.7v17.9c0 1.5-.7 1.9-3.9 2v1.4H169v-1.4c-4.1-.1-5-.6-5-2V20.4c.9-1.4 2.3-2.5 3.9-3.1 0 .2 0 .4-.1.7-.1 2.3 1.6 4.3 3.9 4.4 2.3.1 4.3-1.6 4.4-3.9v-.1-.4c0-2.4-1.9-4.4-4.2-4.4 0-.1-.2-.1-.3 0"/>
    </g>
</svg>
