<svg xmlns="http://www.w3.org/2000/svg" xmlns:xlink="http://www.w3.org/1999/xlink" width="229" height="25" viewBox="0 0 229 25">
    <defs>
        <path id="prefix__a" d="M0.178 0.015L15.109 0.015 15.109 18.1 0.178 18.1z"/>
    </defs>
    <g fill="none" fill-rule="evenodd">
        <path fill="#000" d="M152.623 9.057c-.462-1.279-.87-1.605-1.931-1.741v-.653h6.772v.653c-1.088.109-1.523.299-1.523.843 0 .163.054.354.108.598l2.312 7.072h.136l1.958-5.766c.218-.653.3-1.142.3-1.414 0-.79-.517-1.142-1.741-1.333v-.653h5.221v.653c-1.223.163-1.985.816-2.42 2.094l-3.48 9.981h-2.177l-2.556-7.424-2.964 7.424h-2.149l-3.916-10.334c-.463-1.197-.871-1.55-2.122-1.741v-.653h6.908v.653c-.952.082-1.36.299-1.36.789 0 .163.082.408.163.652l2.612 7.153h.135l2.203-5.412-.49-1.441zM167.96 11.912l4.46-.027c.299-2.72-.381-4.65-2.067-4.65-1.47 0-2.258 1.659-2.394 4.677m-3.834 1.197c0-4.134 2.72-6.718 6.418-6.718 3.835 0 5.765 2.747 5.575 6.31h-8.186v.326c0 3.1 1.332 5.059 3.944 5.059 1.523 0 2.665-.816 3.698-2.23l.544.407c-1.197 1.904-2.883 3.21-5.575 3.21-3.97 0-6.418-2.366-6.418-6.364M181.447 11.912l4.46-.027c.3-2.72-.38-4.65-2.066-4.65-1.469 0-2.258 1.659-2.394 4.677m-3.834 1.197c0-4.134 2.72-6.718 6.418-6.718 3.835 0 5.765 2.747 5.575 6.31h-8.186v.326c0 3.1 1.333 5.059 3.944 5.059 1.523 0 2.665-.816 3.698-2.23l.544.407c-1.197 1.904-2.882 3.21-5.575 3.21-3.97 0-6.418-2.366-6.418-6.364M196.187 17.596c0 .68.407.952 1.332.98v.652h-6.826v-.68c1.55-.027 1.876-.272 1.876-.98V2.286c0-.843-.299-1.306-2.012-1.333v-.68l5.63-.272v13.136l3.562-3.644c1.034-1.088.762-1.822-.952-2.176v-.652h6.255v.652c-1.659.272-2.529.87-3.97 2.285l-1.387 1.305 4.024 6.092c.816 1.224 1.116 1.442 2.285 1.55v.68h-6.907v-.653c1.196-.081 1.414-.435.815-1.386l-2.556-3.999-1.17 1.143v3.263zM206.03 18.548c1.55-.027 1.876-.272 1.876-.98V2.286c0-.843-.326-1.306-2.012-1.333v-.68l5.63-.272v17.569c0 .707.298.952 1.876.98v.679h-7.37v-.68z"/>
        <g transform="translate(213.166 6.649)">
            <mask id="prefix__b" fill="#fff">
                <use xlink:href="#prefix__a"/>
            </mask>
            <path fill="#000" d="M2.436 2.408C1.865 1.211 1.456.885.178.668V.014h7.398v.652c-1.523.137-1.795.571-1.442 1.415l2.91 6.88 2.312-5.629C12.063 1.62 11.682.94 9.833.667V.015h5.277v.652c-.952.11-1.741.68-2.34 2.04L8.011 13.803C6.597 17.121 5.183 18.1 3.578 18.1S.994 17.23.994 15.925c0-.925.68-1.877 1.85-1.877 1.088 0 1.768.843 1.768 1.822 0 .435-.164.843-.381 1.06 1.006-.135 1.795-.951 2.964-3.807l.109-.326L2.436 2.408z" mask="url(#prefix__b)"/>
        </g>
        <path fill="#FCB813" d="M.134 18.987c1.522-.027 1.842-.268 1.842-.962V3.015c0-.828-.32-1.281-1.976-1.308v-.668L5.529.772v17.253c0 .694.294.935 1.842.962v.667H.134v-.667zM17.093 13.458c0-3.766-.855-5.582-2.751-5.582s-2.538 1.816-2.538 5.582.855 5.609 2.778 5.609c1.843 0 2.51-1.843 2.51-5.609m-9.08.053c0-3.925 2.564-6.463 6.463-6.463 3.98 0 6.437 2.43 6.437 6.357 0 3.953-2.59 6.49-6.437 6.49-4.06 0-6.464-2.43-6.464-6.384M21.925 13.672c0-4.087 2.805-6.624 6.57-6.624 3.553 0 4.888 1.737 4.888 3.072 0 1.175-.667 2.003-1.843 2.003-1.335 0-2.003-.802-2.003-1.79 0-.72.48-1.362.881-1.602-.267-.454-.907-.881-1.816-.881-1.762 0-2.91 1.95-2.91 5.448 0 2.884 1.175 5.181 3.819 5.181 1.388 0 2.644-.747 3.605-2.003l.508.401c-1.202 1.843-2.832 3.018-5.422 3.018-3.9 0-6.277-2.404-6.277-6.223M39.284 18.052c0 .667.401.935 1.31.962v.64h-6.705v-.667c1.523-.027 1.844-.268 1.844-.962V3.015c0-.828-.294-1.281-1.977-1.308v-.668l5.528-.267v12.9l3.5-3.579c1.014-1.068.747-1.79-.936-2.137v-.64h6.143v.64c-1.629.268-2.483.855-3.9 2.244l-1.361 1.282 3.953 5.983c.8 1.201 1.095 1.415 2.243 1.522v.667h-6.784v-.64c1.176-.08 1.39-.428.802-1.363l-2.511-3.926-1.149 1.122v3.205z"/>
        <path fill="#FCB813" d="M51.92 12.47l4.38-.027c.293-2.67-.374-4.567-2.03-4.567-1.442 0-2.217 1.63-2.35 4.594m-3.766 1.175c0-4.06 2.67-6.597 6.303-6.597 3.766 0 5.662 2.698 5.475 6.197h-8.04v.32c0 3.045 1.31 4.968 3.874 4.968 1.495 0 2.617-.801 3.632-2.19l.534.4c-1.175 1.87-2.83 3.152-5.475 3.152-3.9 0-6.303-2.324-6.303-6.25M60.308 18.987c1.522-.027 1.843-.268 1.843-.962V9.48c0-.801-.32-1.282-1.843-1.309v-.668l5.342-.24v2.377c.908-1.442 2.217-2.483 3.66-2.483 1.575 0 2.376.987 2.376 2.216s-.774 2.11-1.896 2.11c-1.202 0-1.976-.775-1.976-1.79 0-.24.053-.56.133-.8-.828.053-1.656.72-2.244 1.548v7.585c0 .694.455.908 2.404.962v.667h-7.799v-.667z"/>
        <path fill="#231F20" d="M119.67 19.084c1.068-.028 1.336-.268 1.336-.96v-6.488c0-1.603-.587-2.43-1.95-2.43-.923 0-1.494.508-2.214 1.254v7.66c0 .694.23.925 1.282.961v.668h-6.676v-.668c1.523-.027 1.848-.267 1.848-.96V9.575c0-.801-.32-1.282-1.848-1.306V7.6l5.34-.231v2.349c1.254-1.416 2.724-2.43 4.458-2.43 1.788 0 2.857.907 3.178 2.564 1.2-1.442 2.857-2.564 4.538-2.564 2.243 0 3.31 1.362 3.31 3.87v6.968c0 .693.293.925 1.815.962v.667h-6.675v-.667c1.042-.028 1.308-.269 1.308-.962v-6.491c0-1.603-.508-2.43-1.848-2.43-.693 0-1.603.534-2.377 1.386.027.176.045.355.054.533v6.994c0 .693.268.923 1.362.96v.668h-6.236l-.004-.663zM138.575 18.125c.017.538-.245 1.046-.693 1.344-.583.45-1.386.487-2.007.093-.783-.445-1.057-1.44-.612-2.223.031-.056.066-.109.103-.16.605-.794 1.729-.964 2.541-.386.435.301.688.802.675 1.33M90.997 19.149c-1.921 0-2.771-1.848-2.771-5.606 0-3.757.64-5.58 2.54-5.58 1.901 0 2.751 1.816 2.751 5.58 0 3.765-.677 5.61-2.517 5.61l-.003-.004zm-.106-12.01c-3.899 0-6.467 2.54-6.467 6.467 0 3.926 2.403 6.381 6.467 6.381 3.843 0 6.435-2.54 6.435-6.488 0-3.947-2.456-6.36-6.435-6.36z"/>
        <path fill="#231F20" d="M105.12 19.149c-1.92 0-2.771-1.848-2.771-5.606 0-3.757.64-5.58 2.54-5.58 1.901 0 2.75 1.816 2.75 5.58 0 3.765-.676 5.61-2.519 5.61v-.004zm-.106-12.01c-3.899 0-6.467 2.54-6.467 6.467 0 3.926 2.402 6.381 6.467 6.381 3.843 0 6.435-2.54 6.435-6.488 0-3.947-2.458-6.36-6.435-6.36zM81.905 7.247c-1.442 0-2.749 1.042-3.656 2.48v-2.37l-5.335.23v.667c1.52.028 1.847.506 1.847 1.307v8.546c0 .693-.32.924-1.847.96v.668h7.78v-.667c-1.946-.053-2.401-.268-2.401-.961v-7.575c.498-.693 1.168-1.287 1.866-1.48-.016.103-.025.208-.026.313-.053 1.105.8 2.043 1.904 2.096 1.105.054 2.043-.799 2.096-1.903.004-.065.004-.129 0-.193 0-1.004-.663-2.113-2.24-2.113"/>
    </g>
</svg>
