<?xml version="1.0" encoding="utf-8"?>
<!-- Generator: Adobe Illustrator 16.0.0, SVG Export Plug-In . SVG Version: 6.00 Build 0)  -->
<!DOCTYPE svg PUBLIC "-//W3C//DTD SVG 1.1//EN" "http://www.w3.org/Graphics/SVG/1.1/DTD/svg11.dtd">
<svg version="1.1" id="Layer_1" xmlns="http://www.w3.org/2000/svg" xmlns:xlink="http://www.w3.org/1999/xlink" x="0px" y="0px"
	 width="291px" height="49px" viewBox="0 0 291 49" enable-background="new 0 0 291 49" xml:space="preserve">
<g>
	<path fill="#F6AE00" d="M0.3,38.1c3.2,0,3.9-0.6,3.9-2V4.7C4.1,2.9,3.5,2,0,1.9V0.6L11.6,0v36.1c0,1.5,0.6,2,3.9,2v1.4H0.3V38.1z"
		/>
	<path fill="#F6AE00" d="M16.8,26.6c0-8.2,5.4-13.5,13.5-13.5c8.3,0,13.5,5.1,13.5,13.3C43.8,34.6,38.4,40,30.3,40
		C21.8,40,16.8,34.9,16.8,26.6z M35.8,26.5c0-7.9-1.8-11.7-5.8-11.7s-5.3,3.8-5.3,11.7c0,7.9,1.8,11.8,5.8,11.8
		C34.4,38.3,35.8,34.4,35.8,26.5z"/>
	<path fill="#F6AE00" d="M45.9,27c0-8.6,5.9-13.9,13.8-13.9c7.4,0,10.2,3.6,10.2,6.4c0,2.5-1.4,4.2-3.9,4.2c-2.8,0-4.2-1.7-4.2-3.8
		c0-1.3,0.7-2.6,1.8-3.4c-0.9-1.2-2.3-1.9-3.8-1.8c-3.7,0-6.1,4.1-6.1,11.399c0,6,2.5,10.9,8,10.9c2.9,0,5.5-1.6,7.5-4.2l1.1,0.8
		c-2.4,4-5.8,6.4-11.3,6.4C50.9,40,45.9,35,45.9,27z M82.3,36.2c0,1.399,0.8,2,2.7,2v1.3H71v-1.4c3.2,0,3.9-0.6,3.9-2V4.7
		C74.9,3,74.3,2,70.8,2V0.6L82.3,0v27l7.3-7.5c2.1-2.2,1.6-3.7-2-4.5v-1.4h12.9V15c-3.4,0.6-5.2,1.8-8.2,4.7l-2.8,2.7l8.3,12.5
		c1.7,2.5,2.3,3,4.7,3.199v1.4H88.3v-1.3c2.5-0.2,2.9-0.9,1.7-2.8l-5.2-8.2l-2.4,2.3L82.3,36.2z"/>
	<path fill="#F6AE00" d="M100.9,26.9c0-8.5,5.6-13.8,13.2-13.8c7.9,0,11.9,5.6,11.5,13h-16.8v0.7c0,6.4,2.7,10.4,8.1,10.4
		c3.1,0,5.5-1.7,7.6-4.601l1.1,0.801c-2.5,3.899-5.9,6.6-11.5,6.6C105.9,40,100.9,35.1,100.9,26.9z M108.7,24.5l9.2-0.1
		c0.6-5.601-0.8-9.601-4.2-9.601C110.6,14.8,109.1,18.2,108.7,24.5z"/>
	<path fill="#F6AE00" d="M126.3,38.1c3.2,0,3.9-0.6,3.9-2V18.2c0-1.7-0.7-2.7-3.9-2.7v-1.4l11.2-0.5v5c1.9-3,4.6-5.2,7.7-5.2
		c3.3,0,5,2.1,5,4.6c0,2.6-1.601,4.4-4,4.4c-2.5,0-4.1-1.601-4.1-3.8c0-0.6,0.1-1.1,0.3-1.7c-1.7,0.1-3.5,1.5-4.7,3.2V36
		c0,1.5,0.9,1.9,5,2v1.4h-16.3L126.3,38.1z"/>
	<path fill="#231F20" d="M250.7,38.3c2.2-0.1,2.8-0.6,2.8-2V22.7c0-3.4-1.2-5.1-4.1-5.1c-1.9,0-3.101,1.1-4.601,2.6v16
		c0,1.5,0.5,1.899,2.7,2V39.6h-14V38.2c3.2-0.101,3.9-0.601,3.9-2V18.4c0-1.7-0.7-2.7-3.9-2.7v-1.4l11.2-0.5v4.9
		c2.6-3,5.7-5.1,9.3-5.1s6,1.9,6.7,5.4c2.5-3,6-5.4,9.5-5.4c4.7,0,6.899,2.9,6.899,8.1v14.6c0,1.5,0.601,1.9,3.801,2v1.4h-14v-1.4
		c2.199-0.1,2.699-0.6,2.699-2V22.7c0-3.4-1.1-5.1-3.899-5.1c-1.5,0-3.4,1.1-5,2.9c0.1,0.4,0.1,0.7,0.1,1.1V36.2
		c0,1.5,0.601,1.899,2.9,2V39.6h-13V38.3L250.7,38.3z M290.2,36.3c0,1.101-0.5,2.2-1.5,2.8c-1.2,0.9-2.9,1-4.2,0.2
		c-1.6-0.899-2.2-3-1.3-4.7c0.1-0.1,0.1-0.199,0.2-0.3c1.3-1.7,3.6-2,5.3-0.8C289.7,34.1,290.3,35.2,290.2,36.3"/>
	<path fill="#231F20" d="M190.4,13.3c-8.2,0-13.601,5.3-13.601,13.5c0,8.2,5,13.4,13.601,13.4c8.1,0,13.5-5.3,13.5-13.601
		C203.9,18.3,198.7,13.3,190.4,13.3z M190.6,38.4c-4,0-5.8-3.9-5.8-11.7c0-7.8,1.3-11.7,5.3-11.7s5.801,3.8,5.801,11.7
		C195.9,34.6,194.5,38.5,190.6,38.4z M219.9,13.3c-8.2,0-13.601,5.3-13.601,13.5c0,8.2,5,13.4,13.601,13.4c8,0,13.5-5.3,13.5-13.601
		C233.4,18.3,228.3,13.3,219.9,13.3z M220.2,38.4c-4,0-5.8-3.9-5.8-11.7c0-7.8,1.3-11.7,5.3-11.7s5.8,3.8,5.8,11.7
		C225.5,34.6,224.1,38.5,220.2,38.4z"/>
	<path fill="#231F20" d="M171.6,13.6c-3,0-5.8,2.2-7.699,5.2v-5l-11.2,0.5v1.4c3.2,0,3.899,1,3.899,2.7v17.9
		c0,1.5-0.699,1.9-3.899,2v1.4H169v-1.4c-4.1-0.1-5-0.6-5-2V20.4c0.9-1.4,2.3-2.5,3.9-3.1c0,0.2,0,0.4-0.101,0.7
		c-0.1,2.3,1.601,4.3,3.9,4.4c2.3,0.1,4.3-1.601,4.399-3.9v-0.1V18c0-2.4-1.899-4.4-4.199-4.4C171.9,13.5,171.7,13.5,171.6,13.6"/>
</g>
</svg>
