<?xml version="1.0" encoding="UTF-8" standalone="no"?>
<svg width="71px" height="74px" viewBox="0 0 71 74" version="1.1" xmlns="http://www.w3.org/2000/svg" xmlns:xlink="http://www.w3.org/1999/xlink">
    <!-- Generator: sketchtool 50.2 (55047) - http://www.bohemiancoding.com/sketch -->
    <title>9AA3E5C8-66AD-493A-BFFB-320BDBCDE4BC</title>
    <desc>Created with sketchtool.</desc>
    <defs></defs>
    <g id="Symbols" stroke="none" stroke-width="1" fill="none" fill-rule="evenodd">
        <g id="What-Newsroom-Pro-offers-" transform="translate(-384.000000, -146.000000)" fill="#E22F22" fill-rule="nonzero">
            <g id="global" transform="translate(384.000000, 146.000000)">
                <g id="Group">
                    <path d="M63.9286692,23.8619482 C62.4904325,18.749024 59.8536651,13.8739101 56.1382201,10.0689432 C49.9058608,3.6480615 41.6359994,0.0809050122 32.6470196,0.0809050122 C32.6470196,0.0809050122 32.6470196,0.0809050122 32.6470196,0.0809050122 C32.6470196,0.0809050122 32.6470196,0.0809050122 32.6470196,0.0809050122 C23.7778929,0.0809050122 15.2683254,3.76696671 9.27567219,10.0689432 C3.52272514,16.014204 0.286692416,23.8619482 0.286692416,32.1853134 C0.286692416,40.5086785 3.52272514,48.3564228 9.27567219,54.3016836 C15.3881784,60.60366 23.897746,64.2897217 32.6470196,64.2897217 C32.6470196,64.2897217 32.6470196,64.2897217 32.6470196,64.2897217 C32.6470196,64.2897217 32.6470196,64.2897217 32.6470196,64.2897217 C35.0440809,64.2897217 37.4411422,64.0519113 39.8382034,63.4573852 L39.8382034,73.802139 L71,73.802139 L71,23.8619482 L63.9286692,23.8619482 Z M68.6029387,33.3743655 L42.2352647,33.3743655 L42.2352647,26.2400526 L68.6029387,26.2400526 L68.6029387,33.3743655 Z M2.68375369,30.9962612 C2.92345982,24.2186639 5.56022722,17.678877 10.1146436,12.5659527 C12.0322927,14.349531 14.0697947,15.8952988 16.347003,17.2032561 C15.1484723,21.3649387 14.3095009,26.0022421 14.3095009,30.877356 L2.68375369,30.877356 L2.68375369,30.9962612 Z M18.5043581,18.3923083 C22.5793623,20.2947918 26.8940726,21.4838439 31.448489,21.6027491 L31.448489,30.9962612 L16.7065621,30.9962612 C16.8264152,26.477863 17.4256805,22.1972752 18.5043581,18.3923083 Z M33.8455503,33.3743655 L39.8382034,33.3743655 L39.8382034,43.4813089 C37.9205544,43.005688 35.8830523,42.7678776 33.8455503,42.7678776 L33.8455503,33.3743655 Z M33.8455503,45.1459819 C35.8830523,45.2648872 37.9205544,45.5026976 39.8382034,45.9783185 L39.8382034,58.7011766 C37.9205544,60.4847548 35.8830523,61.5549018 33.8455503,61.9116174 L33.8455503,45.1459819 Z M39.8382034,23.8619482 L39.8382034,30.9962612 L33.8455503,30.9962612 L33.8455503,21.6027491 C38.3999667,21.4838439 42.83453,20.413697 46.7896811,18.3923083 C47.2690934,20.0569813 47.6286526,21.9594648 47.9882118,23.8619482 L39.8382034,23.8619482 Z M33.8455503,19.2246448 L33.8455503,2.57791455 C38.8793789,3.29134585 43.4337953,8.52317536 46.0705627,16.1331092 C42.3551178,18.0355927 38.1602605,19.1057396 33.8455503,19.2246448 Z M31.448489,2.57791455 L31.448489,19.2246448 C27.1337787,19.1057396 22.9389215,18.0355927 19.2234765,16.1331092 C21.8602439,8.52317536 26.2948072,3.29134585 31.448489,2.57791455 Z M31.448489,33.3743655 L31.448489,42.7678776 C26.8940726,42.8867828 22.4595092,44.075835 18.5043581,45.9783185 C17.4256805,42.1733515 16.8264152,37.8927638 16.7065621,33.3743655 L31.448489,33.3743655 Z M31.448489,45.1459819 L31.448489,61.7927122 C26.2948072,61.0792809 21.8602439,55.8474514 19.2234765,48.2375176 C22.9389215,46.3350341 27.1337787,45.2648872 31.448489,45.1459819 Z M42.2352647,35.7524699 L68.6029387,35.7524699 L68.6029387,61.9116174 L42.2352647,61.9116174 L42.2352647,35.7524699 Z M61.4117549,23.8619482 L50.385273,23.8619482 C50.0257139,21.6027491 49.5463016,19.34355 48.9470363,17.3221614 C51.2242445,16.014204 53.2617466,14.4684362 55.1793956,12.6848579 C58.0558691,15.8952988 60.2132243,19.7002657 61.4117549,23.8619482 Z M53.5014527,10.9012797 C51.8235098,12.4470475 50.1455669,13.7550049 48.2279179,14.944057 C46.4301219,10.0689432 44.0330607,6.26397625 41.1565871,3.6480615 C45.7110036,4.95601888 50.0257139,7.45302841 53.5014527,10.9012797 Z M24.2573052,3.6480615 C21.3808316,6.26397625 18.8639173,10.1878484 17.1859744,14.944057 C15.2683254,13.7550049 13.4705294,12.4470475 11.7925865,10.7823745 C15.3881784,7.45302841 19.5830357,4.95601888 24.2573052,3.6480615 Z M2.68375369,33.3743655 L14.1896478,33.3743655 C14.3095009,38.3683846 15.0286193,43.005688 16.2271499,47.0484654 C13.9499417,48.3564228 11.9124396,49.9021906 9.99479058,51.6857688 C5.56022722,46.6917498 2.92345982,40.1519629 2.68375369,33.3743655 Z M11.7925865,53.4693471 C13.4705294,51.9235793 15.2683254,50.4967167 17.1859744,49.3076645 C18.9837704,54.0638732 21.3808316,57.9877453 24.2573052,60.60366 C19.5830357,59.4146079 15.3881784,56.9175983 11.7925865,53.4693471 Z M42.2352647,71.4240347 L42.2352647,64.2897217 L68.6029387,64.2897217 L68.6029387,71.4240347 L42.2352647,71.4240347 Z" id="Shape"></path>
                    <rect id="Rectangle-path" x="51.8235098" y="28.6181569" width="7.19118382" height="2.37810432"></rect>
                    <rect id="Rectangle-path" x="54.2205711" y="66.6678261" width="2.39706127" height="2.37810432"></rect>
                    <path d="M59.2543998,48.5942332 C60.5727835,47.5240863 61.4117549,45.8594132 61.4117549,44.075835 C61.4117549,40.7464889 58.7749875,38.1305742 55.4191017,38.1305742 C52.0632159,38.1305742 49.4264485,40.7464889 49.4264485,44.075835 C49.4264485,45.8594132 50.26542,47.5240863 51.5838037,48.5942332 C48.347771,50.0210958 46.0705627,53.2315366 46.0705627,57.0365036 L48.467624,57.0365036 C48.467624,53.2315366 51.5838037,50.140001 55.4191017,50.140001 C59.2543998,50.140001 62.3705794,53.2315366 62.3705794,57.0365036 L64.7676407,57.0365036 C64.7676407,53.2315366 62.4904325,50.0210958 59.2543998,48.5942332 Z M55.4191017,40.5086785 C57.4566038,40.5086785 59.0146936,42.0544463 59.0146936,44.075835 C59.0146936,46.0972237 57.4566038,47.6429915 55.4191017,47.6429915 C53.3815996,47.6429915 51.8235098,46.0972237 51.8235098,44.075835 C51.8235098,42.0544463 53.3815996,40.5086785 55.4191017,40.5086785 Z" id="Shape"></path>
                </g>
            </g>
        </g>
    </g>
</svg>