<?xml version="1.0" encoding="UTF-8" standalone="no"?>
<svg width="94px" height="112px" viewBox="0 0 94 112" version="1.1" xmlns="http://www.w3.org/2000/svg" xmlns:xlink="http://www.w3.org/1999/xlink">
    <!-- Generator: sketchtool 50.2 (55047) - http://www.bohemiancoding.com/sketch -->
    <title>AE82710D-FBC8-462F-819D-6232A4F17759</title>
    <desc>Created with sketchtool.</desc>
    <defs></defs>
    <g id="Symbols" stroke="none" stroke-width="1" fill="none" fill-rule="evenodd">
        <g id="What-Newsroom-Pro-offers-" transform="translate(-1166.000000, -131.000000)">
            <g id="media-monitoring" transform="translate(1166.000000, 131.000000)">
                <g transform="translate(0.234146, 0.206349)"></g>
                <g id="Group-3" fill="#E22F22" fill-rule="nonzero">
                    <rect id="Rectangle-path" x="41.9707317" y="59.3174603" width="3.02439024" height="3.01587302"></rect>
                    <rect id="Rectangle-path" x="36.5268293" y="59.3174603" width="3.02439024" height="3.01587302"></rect>
                    <rect id="Rectangle-path" x="47.4146341" y="59.3174603" width="3.02439024" height="3.01587302"></rect>
                    <polygon id="Shape" points="74.2899916 40.015873 77.0536585 40.015873 77.0536585 24.9365079 44.995122 24.9365079 44.995122 27.6735951 74.2899916 27.6735951"></polygon>
                    <path d="M22.0143895,40.2411418 C24.7047654,38.5901883 26.4638574,35.7010197 26.4638574,32.2959282 C26.4638574,27.1366987 22.3248175,23.009315 17.1510176,23.009315 C11.9772176,23.009315 7.83817772,27.1366987 7.83817772,32.2959282 C7.83817772,35.7010197 9.59726969,38.5901883 12.2876456,40.2411418 C5.45822977,42.3048336 0.594857853,48.5990936 0.594857853,56.0283842 C0.594857853,65.1086282 8.45903371,64.1799669 11.3563617,64.3863361 C12.1841696,64.3863361 21.9109135,64.3863361 22.8421975,64.3863361 C28.3264254,64.3863361 33.6037013,63.7672285 33.6037013,56.0283842 C33.7071773,48.5990936 28.7403293,42.3048336 22.0143895,40.2411418 Z M9.90769769,32.3991128 C9.90769769,28.3749138 13.1154536,25.1761915 17.1510176,25.1761915 C21.1865815,25.1761915 24.3943374,28.3749138 24.3943374,32.3991128 C24.3943374,36.4233119 21.1865815,39.6220342 17.1510176,39.6220342 C13.2189296,39.5188496 9.90769769,36.3201273 9.90769769,32.3991128 Z M22.9456735,62.3226442 C22.1178655,62.3226442 12.2876456,62.3226442 11.4598377,62.3226442 C7.73470172,62.2194597 2.76785381,62.632198 2.76785381,56.0283842 C2.76785381,48.0831707 9.2868417,41.5825414 17.2544936,41.5825414 C25.2221454,41.5825414 31.7411333,48.0831707 31.7411333,56.0283842 C31.6376573,61.3939829 28.9472813,62.3226442 22.9456735,62.3226442 Z" id="Shape"></path>
                    <path d="M59.5761768,0.411889597 L28.5333773,0.411889597 C25.6360494,0.411889597 23.3595774,2.6819506 23.3595774,5.57111915 L23.3595774,15.8895783 C23.3595774,18.7787468 25.6360494,21.0488078 28.5333773,21.0488078 L29.7750893,21.0488078 L27.9125214,28.581283 L39.1914052,21.0488078 L59.5761768,21.0488078 C62.4735047,21.0488078 64.7499767,18.7787468 64.7499767,15.8895783 L64.7499767,5.57111915 C64.7499767,2.6819506 62.3700287,0.411889597 59.5761768,0.411889597 Z M62.6804567,15.8895783 C62.6804567,17.6437163 61.3352688,18.985116 59.5761768,18.985116 L38.5705492,18.985116 L31.2237533,23.8347918 L32.4654653,18.985116 L28.5333773,18.985116 C26.7742854,18.985116 25.4290974,17.6437163 25.4290974,15.8895783 L25.4290974,5.57111915 C25.4290974,3.8169811 26.7742854,2.47558142 28.5333773,2.47558142 L59.5761768,2.47558142 C61.3352688,2.47558142 62.6804567,3.8169811 62.6804567,5.57111915 L62.6804567,15.8895783 Z" id="Shape"></path>
                    <path d="M44.0547771,6.60296506 C41.7783051,6.60296506 39.9157371,8.4602877 39.9157371,10.7303487 C39.9157371,13.0004097 41.7783051,14.8577323 44.0547771,14.8577323 C46.331249,14.8577323 48.193817,13.0004097 48.193817,10.7303487 C48.193817,8.4602877 46.331249,6.60296506 44.0547771,6.60296506 Z M44.0547771,12.7940405 C42.9165411,12.7940405 41.9852571,11.8653792 41.9852571,10.7303487 C41.9852571,9.5953182 42.9165411,8.66665688 44.0547771,8.66665688 C45.193013,8.66665688 46.124297,9.5953182 46.124297,10.7303487 C46.124297,11.8653792 45.193013,12.7940405 44.0547771,12.7940405 Z" id="Shape"></path>
                    <path d="M55.4371369,6.60296506 C53.1606649,6.60296506 51.2980969,8.4602877 51.2980969,10.7303487 C51.2980969,13.0004097 53.1606649,14.8577323 55.4371369,14.8577323 C57.7136088,14.8577323 59.5761768,13.0004097 59.5761768,10.7303487 C59.5761768,8.4602877 57.7136088,6.60296506 55.4371369,6.60296506 Z M55.4371369,12.7940405 C54.2989009,12.7940405 53.3676169,11.8653792 53.3676169,10.7303487 C53.3676169,9.5953182 54.2989009,8.66665688 55.4371369,8.66665688 C56.5753728,8.66665688 57.5066568,9.5953182 57.5066568,10.7303487 C57.5066568,11.8653792 56.5753728,12.7940405 55.4371369,12.7940405 Z" id="Shape"></path>
                    <path d="M32.6724173,6.60296506 C30.3959453,6.60296506 28.5333773,8.4602877 28.5333773,10.7303487 C28.5333773,13.0004097 30.3959453,14.8577323 32.6724173,14.8577323 C34.9488892,14.8577323 36.8114572,13.0004097 36.8114572,10.7303487 C36.8114572,8.4602877 34.9488892,6.60296506 32.6724173,6.60296506 Z M32.6724173,12.7940405 C31.5341813,12.7940405 30.6028973,11.8653792 30.6028973,10.7303487 C30.6028973,9.5953182 31.5341813,8.66665688 32.6724173,8.66665688 C33.8106533,8.66665688 34.7419372,9.5953182 34.7419372,10.7303487 C34.7419372,11.8653792 33.8106533,12.7940405 32.6724173,12.7940405 Z" id="Shape"></path>
                    <path d="M55.5960791,45.4444444 C52.7484877,45.4444444 50.4390244,47.7790777 50.4390244,50.6576998 L50.4390244,105.374047 C50.4390244,108.252671 52.7484877,110.587302 55.5960791,110.587302 L82.7841065,110.587302 C85.6316978,110.587302 87.9411612,108.252671 87.9411612,105.374047 L87.9411612,89.1514042 C87.9411612,89.1514042 87.9422627,88.5946276 87.3903869,88.5946276 C86.8386597,88.5946276 86.8396126,89.1514042 86.8396126,89.1514042 L86.8396126,99.1733822 L51.540573,99.1733822 L51.540573,52.960928 L86.8396126,52.960928 L86.8396126,62.982906 C86.8396126,62.982906 86.8080532,63.5396825 87.3903869,63.5396825 C87.9727371,63.5396825 87.9411612,62.982906 87.9411612,62.982906 L87.9411612,57.0986914 L87.9411612,50.6576998 C87.9411612,47.7790777 85.6316978,45.4444444 82.7841065,45.4444444 L55.5960791,45.4444444 Z M55.6794574,46.6507937 L82.7010304,46.6507937 C84.9436008,46.6507937 86.7317073,48.5173822 86.7317073,50.8583828 L86.7317073,52.0793651 L51.6487805,52.0793651 L51.6487805,50.8583828 C51.6487805,48.5173822 53.436887,46.6507937 55.6794574,46.6507937 Z M74.4651099,68.3650794 C73.2276775,68.3650794 72.2146341,69.3829728 72.2146341,70.6263296 L72.2146341,81.1821035 C72.2146341,82.4254603 73.2276775,83.4444444 74.4651099,83.4444444 L90.5289265,83.4444444 C91.7663589,83.4444444 92.7804878,82.4254603 92.7804878,81.1821035 L92.7804878,70.6263296 C92.7804878,69.3829728 91.7663589,68.3650794 90.5289265,68.3650794 L74.4651099,68.3650794 Z M74.5510185,69.5714286 L90.4430295,69.5714286 C91.0769731,69.5714286 91.5707317,70.0742884 91.5707317,70.7213243 L91.5707317,71.3812263 L82.2645026,76.8095238 L73.4243902,71.6530796 L73.4243902,70.7213243 C73.4243902,70.0742884 73.917075,69.5714286 74.5510185,69.5714286 Z M91.5707317,72.5873016 L91.5707317,81.1051198 C91.5707317,81.7420277 91.0769731,82.2380952 90.4430295,82.2380952 L74.5510185,82.2380952 C73.917075,82.2380952 73.4243902,81.7420277 73.4243902,81.1051198 L73.4243902,72.8548996 L82.2645026,77.9295511 L91.5707317,72.5873016 Z M51.6487805,100.333333 L86.7317073,100.333333 L86.7317073,105.343367 C86.7317073,107.589782 84.9436008,109.380952 82.7010304,109.380952 L55.6794574,109.380952 C53.436887,109.380952 51.6487805,107.589782 51.6487805,105.343367 L51.6487805,100.333333 Z M69.4926829,101.539683 C67.6618961,101.539683 66.1658537,103.031511 66.1658537,104.857143 C66.1658537,106.68278 67.6618955,108.174603 69.4926829,108.174603 C71.3234703,108.174603 72.8195122,106.68278 72.8195122,104.857143 C72.8195122,103.031511 71.3234703,101.539683 69.4926829,101.539683 Z M68.8878049,102.746032 C70.0632992,102.746032 71.004878,103.684959 71.004878,104.857143 C71.004878,106.029332 70.0632992,106.968254 68.8878049,106.968254 C67.7123111,106.968254 66.7707317,106.029332 66.7707317,104.857143 C66.7707317,103.684959 67.7123111,102.746032 68.8878049,102.746032 Z" id="Shape" stroke="#E22F22"></path>
                </g>
            </g>
        </g>
    </g>
</svg>