<?xml version="1.0" encoding="UTF-8" standalone="no"?>
<svg width="77px" height="79px" viewBox="0 0 77 79" version="1.1" xmlns="http://www.w3.org/2000/svg" xmlns:xlink="http://www.w3.org/1999/xlink">
    <!-- Generator: sketchtool 50.2 (55047) - http://www.bohemiancoding.com/sketch -->
    <title>9ABD0BDE-FF6F-4652-AB79-43D3382089F4</title>
    <desc>Created with sketchtool.</desc>
    <defs></defs>
    <g id="Symbols" stroke="none" stroke-width="1" fill="none" fill-rule="evenodd">
        <g id="What-Newsroom-Pro-offers-" transform="translate(-776.000000, -147.000000)" fill="#E22F22" fill-rule="nonzero">
            <g id="satellite-coputer" transform="translate(776.000000, 147.000000)">
                <g id="Group-2">
                    <path d="M24.9831803,11.063836 C25.4895727,11.3162912 25.9959652,11.4425188 26.6289557,11.4425188 C28.7811236,11.4425188 30.4268991,9.67533241 30.4268991,7.65569077 C30.4268991,5.63604913 28.6545255,3.8688627 26.6289557,3.8688627 C24.4767879,3.8688627 22.7044143,5.63604913 22.8310124,7.65569077 C22.8310124,8.7917392 23.2108067,9.29664961 23.2108067,9.29664961 C23.2108067,9.29664961 19.4128634,13.0834777 19.4128634,13.0834777 L6.75305232,0.46071743 C6.75305232,0.46071743 0.296548657,5.76227674 0.296548657,14.8506641 C0.296548657,19.647313 2.06892221,24.1915067 5.3604731,27.7258796 L5.3604731,36.6880394 L2.82851088,36.6880394 L2.82851088,39.2125914 L18.1468823,39.2125914 L18.1468823,36.6880394 L15.6149201,36.6880394 L15.6149201,33.6585769 C16.8809012,33.9110321 18.1468823,34.0372597 19.5394615,34.0372597 C28.4013293,34.0372597 33.9716462,27.599652 33.9716462,27.599652 L21.3118351,14.9768917 L24.9831803,11.063836 Z M26.6289557,6.39341475 C27.3885444,6.39341475 27.8949368,6.89832516 27.8949368,7.65569077 C27.8949368,8.41305639 27.3885444,8.9179668 26.6289557,8.9179668 C25.8693671,8.9179668 25.3629746,8.41305639 25.3629746,7.65569077 C25.3629746,6.89832516 25.9959652,6.39341475 26.6289557,6.39341475 Z M12.9563598,36.6880394 L7.89243532,36.6880394 L7.89243532,30.124204 C9.41161265,31.2602524 11.1839862,32.2700733 12.9563598,32.9012113 L12.9563598,36.6880394 Z M30.1737028,27.4734244 C27.1353482,29.9979764 23.3374049,31.5127076 19.4128634,31.5127076 C14.9819295,31.5127076 10.8041919,29.7455212 7.63923909,26.7160588 C4.47428632,23.6865963 2.82851088,19.3948578 2.82851088,14.9768917 C2.82851088,10.9376084 4.2210901,7.15078036 6.87965043,4.2475455 L30.1737028,27.4734244 Z" id="Shape"></path>
                    <path d="M76.8884058,73.6727269 L76.8884058,45.6501991 L38.5291782,45.6501991 L38.5291782,73.6727269 L48.7836252,73.6727269 L48.7836252,76.1972789 L46.2516629,76.1972789 L46.2516629,78.721831 L69.2925191,78.721831 L69.2925191,76.1972789 L66.7605569,76.1972789 L66.7605569,73.6727269 L76.8884058,73.6727269 Z M41.0611404,48.1747512 L74.2298455,48.1747512 L74.2298455,65.9728431 L41.0611404,65.9728431 L41.0611404,48.1747512 Z M64.1019966,76.1972789 L51.3155874,76.1972789 L51.3155874,73.6727269 L64.1019966,73.6727269 L64.1019966,76.1972789 Z M41.0611404,71.0219472 L41.0611404,68.4973952 L74.2298455,68.4973952 L74.2298455,71.0219472 L41.0611404,71.0219472 Z" id="Shape"></path>
                    <rect id="Rectangle-path" x="35.997216" y="37.9503154" width="2.53196222" height="2.52455205"></rect>
                    <rect id="Rectangle-path" x="30.8066934" y="37.9503154" width="2.53196222" height="2.52455205"></rect>
                    <rect id="Rectangle-path" x="41.0611404" y="37.9503154" width="2.53196222" height="2.52455205"></rect>
                    <polygon id="Shape" points="6.4998561 42.9994195 3.96789388 42.9994195 3.96789388 72.4104509 33.3386556 72.4104509 33.3386556 69.7596712 6.4998561 69.7596712"></polygon>
                    <polygon id="Shape" points="65.3679777 35.4257633 67.8999399 35.4257633 67.8999399 6.14095954 38.5291782 6.14095954 38.5291782 8.66551159 65.3679777 8.66551159"></polygon>
                </g>
            </g>
        </g>
    </g>
</svg>