<svg xmlns="http://www.w3.org/2000/svg" xmlns:xlink="http://www.w3.org/1999/xlink" width="236" height="26" viewBox="0 0 236 26">
    <defs>
        <path id="a" d="M0 .172v18.114h9.838V.172H0z"/>
    </defs>
    <g fill="none" fill-rule="evenodd">
        <path fill="#FCFCFC" d="M30.16 1.211c2.382 0 3.343 2.771 2.92 6.674l-6.302.04c.192-4.333 1.306-6.714 3.381-6.714zm-3.42 7.845h11.567c.269-5.113-2.46-9.055-7.879-9.055-5.226 0-9.069 3.708-9.069 9.64 0 5.738 3.459 9.134 9.07 9.134 3.804 0 6.187-1.874 7.878-4.606l-.77-.585c-1.46 2.03-3.073 3.2-5.225 3.2-3.69 0-5.573-2.81-5.573-7.26V9.057zM51.997 3.826c-.653-1.834-1.23-2.303-2.729-2.498V.391h9.57v.937c-1.538.156-2.153.43-2.153 1.21 0 .234.077.507.154.859l3.267 10.148h.192l2.767-8.275c.307-.936.423-1.639.423-2.03 0-1.131-.73-1.638-2.46-1.912V.391h7.378v.937c-1.729.234-2.805 1.171-3.42 3.006l-4.919 14.324h-3.074L53.38 8.002l-4.19 10.656h-3.035L40.622 3.826c-.653-1.717-1.23-2.224-2.998-2.498V.391h9.762v.937c-1.346.117-1.922.43-1.922 1.132 0 .234.115.585.23.937l3.69 10.265h.192l3.113-7.767-.692-2.069zM67.82 12.257h1.076c2.075 3.512 4.189 5.23 6.533 5.23 1.96 0 2.959-1.054 2.959-2.498 0-1.718-1.191-2.498-4.88-3.59-4.036-1.172-5.65-2.46-5.65-5.309 0-3.63 2.844-6.01 7.071-6.01 1.653 0 3.305.546 4.343 1.21l.96-1.21h1v5.776h-1.076c-1.922-2.966-3.42-4.567-5.534-4.567-1.614 0-2.767 1.015-2.767 2.615 0 1.6 1.537 2.264 4.189 2.928 4.073 1.053 6.225 2.498 6.225 5.698 0 3.513-2.843 6.206-7.186 6.206-1.422 0-4.035-.664-5.073-1.327l-1.153 1.327H67.82v-6.48zM109.768 17.565c-2.767 0-3.997-2.693-3.997-8.197 0-5.503.923-8.157 3.651-8.157 2.729 0 3.958 2.654 3.958 8.157 0 5.504-.96 8.197-3.612 8.197M109.615 0c-5.612 0-9.3 3.708-9.3 9.446 0 5.776 3.458 9.328 9.3 9.328 5.533 0 9.261-3.708 9.261-9.485 0-5.737-3.536-9.289-9.261-9.289M130.098 17.565c-2.767 0-3.997-2.693-3.997-8.197 0-5.503.923-8.157 3.65-8.157 2.73 0 3.96 2.654 3.96 8.157 0 5.504-.961 8.197-3.613 8.197M129.944 0c-5.61 0-9.3 3.708-9.3 9.446 0 5.776 3.459 9.328 9.3 9.328 5.534 0 9.262-3.708 9.262-9.485 0-5.737-3.536-9.289-9.262-9.289"/>
        <path fill="#FCFCFC" d="M151.017 17.448c1.537-.04 1.921-.39 1.921-1.405V6.558c0-2.342-.845-3.551-2.805-3.551-1.345 0-2.152.741-3.19 1.834v11.202c0 1.014.346 1.366 1.845 1.405v.976h-9.607v-.976c2.19-.04 2.651-.39 2.651-1.405V3.553c0-1.171-.461-1.873-2.651-1.913V.665l7.685-.352v3.435c1.807-2.068 3.92-3.552 6.418-3.552 2.575 0 4.112 1.327 4.573 3.747 1.73-2.107 4.112-3.747 6.533-3.747 3.229 0 4.766 1.99 4.766 5.66v10.187c0 1.014.422 1.366 2.613 1.405v.976h-9.608v-.976c1.5-.04 1.884-.39 1.884-1.405V6.558c0-2.342-.73-3.551-2.652-3.551-1 0-2.306.78-3.42 2.029.038.351.076.547.076.78v10.227c0 1.014.385 1.366 1.96 1.405v.976h-8.992v-.976z"/>
        <path fill="#E22F22" d="M194.239 9.382c0-4.105-1.27-7.037-4.003-7.037-1.155 0-2.194.509-3.31 1.408v11.14c.809 1.955 2.079 2.62 3.58 2.62 2.27 0 3.733-2.463 3.733-8.131zM179.189 24.9c2.195-.04 2.618-.391 2.618-1.408V3.557c0-1.173-.462-1.876-2.656-1.915V.665l7.698-.352v2.384c1.732-1.524 3.464-2.619 5.696-2.619 4.542 0 7.12 3.675 7.12 9.07 0 5.237-2.963 9.576-8.159 9.576-1.847 0-3.233-.351-4.58-.977v5.746c0 1.017.693 1.33 3.618 1.408v.977H179.19V24.9zM229.998 9.382c0-5.512-1.232-8.17-3.964-8.17-2.733 0-3.657 2.658-3.657 8.17 0 5.511 1.232 8.209 4.003 8.209 2.656 0 3.618-2.698 3.618-8.21m-13.086.079c0-5.746 3.695-9.46 9.314-9.46 5.735 0 9.276 3.557 9.276 9.304 0 5.785-3.734 9.498-9.276 9.498-5.85 0-9.314-3.557-9.314-9.342"/>
        <path fill="#FCFCFC" d="M178.23 16.047c.017.86-.373 1.503-1.007 1.966-.917.67-1.92.7-2.89.135-1.122-.652-1.616-2.235-.722-3.482.87-1.213 2.597-1.372 3.647-.563.625.48.994 1.134.972 1.944M96.678.195c-2.074 0-3.956 1.522-5.261 3.628V.351l-7.682.351v.976c2.19.039 2.65.74 2.65 1.91v12.484c0 1.014-.46 1.365-2.65 1.404v.975H94.95v-.975c-2.804-.078-3.457-.39-3.457-1.404V4.993c.718-1.026 1.684-1.881 2.687-2.165a3.26 3.26 0 0 0-.035.459c0 1.697 1.29 3.073 2.88 3.073 1.59 0 2.88-1.376 2.88-3.073 0-1.47-.955-3.092-3.227-3.092"/>
        <path fill="#E22F22" d="M213.147.195c-2.074 0-3.956 1.522-5.261 3.628V.351l-7.682.351v.976c2.19.039 2.65.74 2.65 1.91v12.484c0 1.014-.46 1.365-2.65 1.404v.975h11.215v-.975c-2.804-.078-3.457-.39-3.457-1.404V4.993c.717-1.026 1.684-1.881 2.687-2.165a3.26 3.26 0 0 0-.035.459c0 1.697 1.29 3.073 2.88 3.073 1.59 0 2.88-1.376 2.88-3.073 0-1.47-.955-3.092-3.227-3.092"/>
        <g transform="translate(0 .216)">
            <mask id="b" fill="#fff">
                <use xlink:href="#a"/>
            </mask>
            <path fill="#FCFCFC" d="M7.763.172L0 .527v.976c2.19.039 2.652.742 2.652 1.912v12.49c0 1.015-.461 1.366-2.652 1.405v.976h9.838v-.976c-1.499-.04-2.075-.39-2.075-1.405V.172z" mask="url(#b)"/>
        </g>
        <path fill="#FCFCFC" d="M19.1 16.12V5.935c0-3.669-1.5-5.66-4.689-5.66-1.909 0-3.727.827-5.285 2.14V3.76c.659-.423 1.37-.674 2.172-.674 1.922 0 2.69 1.17 2.69 3.551v9.485c0 1.014-.576 1.365-2.113 1.405v.975h9.876v-.975c-2.229-.04-2.651-.39-2.651-1.405"/>
    </g>
</svg>
