<?xml version="1.0" encoding="UTF-8" standalone="no"?>
<svg width="236px" height="26px" viewBox="0 0 236 26" version="1.1" xmlns="http://www.w3.org/2000/svg" xmlns:xlink="http://www.w3.org/1999/xlink">
    <!-- Generator: sketchtool 50.2 (55047) - http://www.bohemiancoding.com/sketch -->
    <title>F712D63D-F3E7-4B8B-B0EF-89666DDCD286</title>
    <desc>Created with sketchtool.</desc>
    <defs>
        <polygon id="path-1" points="0 0.172376623 0 18.2859351 9.83794701 18.2859351 9.83794701 0.172376623 4.50577526e-21 0.172376623"></polygon>
    </defs>
    <g id="Symbols" stroke="none" stroke-width="1" fill="none" fill-rule="evenodd">
        <g id="newsroom.pro-logo-copy">
            <g id="Group-2">
                <g id="Page-1" transform="translate(0.000000, 0.000000)">
                    <path d="M30.159493,1.21112727 C32.5422878,1.21112727 33.5027865,3.98232208 33.0802203,7.88536104 L26.7776332,7.92452987 C26.9697995,3.59198442 28.0842306,1.21112727 30.159493,1.21112727 L30.159493,1.21112727 Z M26.739067,9.05637403 L38.3066099,9.05637403 C38.5755761,3.94315325 35.8470151,0.00128311688 30.4284592,0.00128311688 C25.2020696,0.00128311688 21.3590774,3.70915325 21.3590774,9.64188052 C21.3590774,15.3791013 24.8177371,18.7746338 30.4284592,18.7746338 C34.2328852,18.7746338 36.61568,16.9012831 38.3066099,14.1692571 L37.5379449,13.5837506 C36.0777475,15.613439 34.4636177,16.7844519 32.3115553,16.7844519 C28.6224956,16.7844519 26.739067,13.9740883 26.739067,9.52471169 L26.739067,9.48554286 L26.739067,9.05637403 Z" id="Fill-1" fill="#000000"></path>
                    <path d="M51.9968914,3.82615325 C51.3435927,1.99163377 50.767094,1.5232961 49.2683304,1.32812727 L49.2683304,0.391451948 L58.8374109,0.391451948 L58.8374109,1.32812727 C57.3004135,1.48446494 56.6853486,1.75763377 56.6853486,2.53830909 C56.6853486,2.77230909 56.7621486,3.04547792 56.8389486,3.39698442 L60.1057745,13.5447506 L60.2979408,13.5447506 L63.0647356,5.27033506 C63.3722681,4.33365974 63.4876343,3.63098442 63.4876343,3.24064675 C63.4876343,2.1088026 62.7572031,1.60163377 61.0280395,1.32812727 L61.0280395,0.391451948 L68.4064914,0.391451948 L68.4064914,1.32812727 C66.6769953,1.56246494 65.6011304,2.49914026 64.9863979,4.33365974 L60.0672083,18.6576338 L56.992881,18.6576338 L53.3806213,8.00236104 L49.1915304,18.6576338 L46.1557694,18.6576338 L40.6215148,3.82615325 C39.9685486,2.1088026 39.3920499,1.60163377 37.62432,1.32812727 L37.62432,0.391451948 L47.3855668,0.391451948 L47.3855668,1.32812727 C46.0404031,1.4452961 45.4639044,1.75763377 45.4639044,2.45997143 C45.4639044,2.69430909 45.5792706,3.04547792 45.6943044,3.39698442 L49.3836966,13.6619195 L49.5758629,13.6619195 L52.6887564,5.89467273 L51.9968914,3.82615325 Z" id="Fill-3" fill="#000000"></path>
                    <path d="M67.8197527,12.2567377 L68.8959501,12.2567377 C70.9712125,15.769439 73.0847086,17.4867896 75.4289371,17.4867896 C77.3888332,17.4867896 78.3878982,16.4329455 78.3878982,14.9887636 C78.3878982,13.271413 77.196667,12.4907377 73.5072748,11.3980623 C69.4724488,10.2270494 67.858319,8.93920519 67.858319,6.09001039 C67.858319,2.46014026 70.7022462,0.0792831169 74.9292384,0.0792831169 C76.5816021,0.0792831169 78.2342982,0.625620779 79.2719294,1.28912727 L80.2324281,0.0792831169 L81.2318255,0.0792831169 L81.2318255,5.85567273 L80.1556281,5.85567273 C78.2342982,2.88964675 76.7355345,1.28912727 74.6220384,1.28912727 C73.0079086,1.28912727 71.8549112,2.30414026 71.8549112,3.90432208 C71.8549112,5.5045039 73.392241,6.16801039 76.0436696,6.83151688 C80.1173943,7.88536104 82.2694566,9.32954286 82.2694566,12.5299065 C82.2694566,16.0426078 79.4255294,18.7358026 75.0831709,18.7358026 C73.6612073,18.7358026 71.0480125,18.0722961 70.0103813,17.4087896 L68.8573839,18.7358026 L67.8197527,18.7358026 L67.8197527,12.2567377 Z" id="Fill-5" fill="#000000"></path>
                    <path d="M109.768112,17.5648234 C107.000985,17.5648234 105.771188,14.8716286 105.771188,9.36840779 C105.771188,3.86518701 106.693785,1.21116104 109.422014,1.21116104 C112.150907,1.21116104 113.380372,3.86518701 113.380372,9.36840779 C113.380372,14.8716286 112.419873,17.5648234 109.768112,17.5648234 M109.614512,0.00131688312 C104.003458,0.00131688312 100.314398,3.70918701 100.314398,9.44674545 C100.314398,15.2231351 103.773058,18.7746675 109.614512,18.7746675 C115.148102,18.7746675 118.87606,15.0667974 118.87606,9.29040779 C118.87606,3.55284935 115.340268,0.00131688312 109.614512,0.00131688312" id="Fill-7" fill="#000000"></path>
                    <path d="M130.09787,17.5648234 C127.330743,17.5648234 126.100945,14.8716286 126.100945,9.36840779 C126.100945,3.86518701 127.023543,1.21116104 129.751771,1.21116104 C132.480665,1.21116104 133.71013,3.86518701 133.71013,9.36840779 C133.71013,14.8716286 132.749631,17.5648234 130.09787,17.5648234 M129.94427,0.00131688312 C124.333216,0.00131688312 120.644156,3.70918701 120.644156,9.44674545 C120.644156,15.2231351 124.102816,18.7746675 129.94427,18.7746675 C135.47786,18.7746675 139.205818,15.0667974 139.205818,9.29040779 C139.205818,3.55284935 135.670026,0.00131688312 129.94427,0.00131688312" id="Fill-9" fill="#000000"></path>
                    <path d="M151.016761,17.4477558 C152.55409,17.408587 152.938423,17.0574182 152.938423,16.0427429 L152.938423,6.55848312 C152.938423,4.21645714 152.092958,3.00661299 150.133062,3.00661299 C148.787898,3.00661299 147.980999,3.74811948 146.943368,4.84079481 L146.943368,16.0427429 C146.943368,17.0574182 147.289135,17.408587 148.787898,17.4477558 L148.787898,18.4236 L139.180584,18.4236 L139.180584,17.4477558 C141.37088,17.408587 141.832012,17.0574182 141.832012,16.0427429 L141.832012,3.55295065 C141.832012,2.38193766 141.37088,1.6796 139.180584,1.64043117 L139.180584,0.664924675 L146.866236,0.313418182 L146.866236,3.74811948 C148.672532,1.6796 150.786361,0.196249351 153.284189,0.196249351 C155.858818,0.196249351 157.396148,1.52326234 157.85728,3.94328831 C159.586776,1.8356 161.969238,0.196249351 164.390267,0.196249351 C167.618527,0.196249351 169.155857,2.18676883 169.155857,5.85580779 L169.155857,16.0427429 C169.155857,17.0574182 169.578423,17.408587 171.769051,17.4477558 L171.769051,18.4236 L162.161405,18.4236 L162.161405,17.4477558 C163.660168,17.408587 164.044501,17.0574182 164.044501,16.0427429 L164.044501,6.55848312 C164.044501,4.21645714 163.314402,3.00661299 161.393072,3.00661299 C160.393675,3.00661299 159.087077,3.78728831 157.972646,5.03596364 C158.011212,5.38747013 158.049446,5.58263896 158.049446,5.81663896 L158.049446,16.0427429 C158.049446,17.0574182 158.433779,17.408587 160.009342,17.4477558 L160.009342,18.4236 L151.016761,18.4236 L151.016761,17.4477558 Z" id="Fill-11" fill="#000000"></path>
                    <path d="M194.238903,9.38167792 C194.238903,5.27705455 192.968877,2.34547013 190.235994,2.34547013 C189.081334,2.34547013 188.042041,2.85365195 186.925947,3.75284675 L186.925947,14.8933403 C187.734508,16.8480675 189.004534,17.512587 190.505625,17.512587 C192.776711,17.512587 194.238903,15.0500156 194.238903,9.38167792 L194.238903,9.38167792 Z M179.189428,24.900639 C181.383713,24.8614701 181.806944,24.5099636 181.806944,23.4932623 L181.806944,3.5570026 C181.806944,2.3843013 181.345147,1.68095065 179.151194,1.64178182 L179.151194,0.664587013 L186.848815,0.312742857 L186.848815,2.69731429 C188.58097,1.17276883 190.313126,0.0780675325 192.545313,0.0780675325 C197.087152,0.0780675325 199.66577,3.75284675 199.66577,9.14734026 C199.66577,14.3851584 196.702155,18.7244571 191.50602,18.7244571 C189.65883,18.7244571 188.273438,18.372613 186.925947,17.7469247 L186.925947,23.4932623 C186.925947,24.5099636 187.618809,24.822639 190.544191,24.900639 L190.544191,25.8778338 L179.189428,25.8778338 L179.189428,24.900639 Z" id="Fill-13" fill="#E22F22"></path>
                    <path d="M229.998047,9.38167792 C229.998047,3.87001558 228.766255,1.21193766 226.033704,1.21193766 C223.300821,1.21193766 222.377226,3.87001558 222.377226,9.38167792 C222.377226,14.8933403 223.608686,17.5909247 226.379803,17.5909247 C229.035553,17.5909247 229.998047,14.8933403 229.998047,9.38167792 M216.911792,9.45967792 C216.911792,3.71367792 220.606504,6.75324673e-05 226.22587,6.75324673e-05 C231.960935,6.75324673e-05 235.502047,3.5570026 235.502047,9.30367792 C235.502047,15.0888468 231.768436,18.8024571 226.22587,18.8024571 C220.375771,18.8024571 216.911792,15.2451844 216.911792,9.45967792" id="Fill-15" fill="#E22F22"></path>
                    <path d="M178.229959,16.0469974 C178.246915,16.9063481 177.856598,17.5495948 177.222583,18.0132052 C176.30597,18.6834649 175.302915,18.7125039 174.33211,18.1479325 C173.211362,17.4959065 172.716983,15.9129455 173.610988,14.6656208 C174.480391,13.4527377 176.207559,13.294374 177.258157,14.1030753 C177.882863,14.5835688 178.251902,15.2369455 178.229959,16.0469974" id="Fill-17" fill="#000000"></path>
                    <path d="M96.6783003,0.195303896 C94.6043678,0.195303896 92.7222691,1.71681039 91.4166691,3.82314805 L91.4166691,0.351303896 L83.7350068,0.702472727 L83.7350068,1.67764156 C85.9243055,1.71681039 86.3851055,2.41881039 86.3851055,3.58881039 L86.3851055,16.0715117 C86.3851055,17.0855117 85.9243055,17.4366805 83.7350068,17.4758494 L83.7350068,18.4506805 L94.950134,18.4506805 L94.950134,17.4758494 C92.1464353,17.3978494 91.4934691,17.0855117 91.4934691,16.0715117 L91.4934691,4.99314805 C92.2106016,3.96699221 93.1767522,3.11169351 94.1804717,2.82771948 C94.1591938,2.97797922 94.1448977,3.13026494 94.1448977,3.2866026 C94.1448977,4.98436883 95.4342068,6.36034286 97.0247314,6.36034286 C98.6155886,6.36034286 99.9045652,4.98436883 99.9045652,3.2866026 C99.9045652,1.8170961 98.9500509,0.195303896 96.6783003,0.195303896" id="Fill-19" fill="#000000"></path>
                    <path d="M213.147196,0.195303896 C211.073263,0.195303896 209.191165,1.71681039 207.885565,3.82314805 L207.885565,0.351303896 L200.203902,0.702472727 L200.203902,1.67764156 C202.393201,1.71681039 202.854001,2.41881039 202.854001,3.58881039 L202.854001,16.0715117 C202.854001,17.0855117 202.393201,17.4366805 200.203902,17.4758494 L200.203902,18.4506805 L211.41903,18.4506805 L211.41903,17.4758494 C208.615331,17.3978494 207.962365,17.0855117 207.962365,16.0715117 L207.962365,4.99314805 C208.679497,3.96699221 209.645648,3.11169351 210.649367,2.82771948 C210.628089,2.97797922 210.613793,3.13026494 210.613793,3.2866026 C210.613793,4.98436883 211.903102,6.36034286 213.493627,6.36034286 C215.084484,6.36034286 216.373461,4.98436883 216.373461,3.2866026 C216.373461,1.8170961 215.418946,0.195303896 213.147196,0.195303896" id="Fill-21" fill="#E22F22"></path>
                    <g id="Group-25" transform="translate(0.000000, 0.215665)">
                        <mask id="mask-2" fill="white">
                            <use xlink:href="#path-1"></use>
                        </mask>
                        <g id="Clip-24"></g>
                        <path d="M7.76301714,0.172376623 L-9.97402603e-05,0.52725974 L-9.97402603e-05,1.50276623 C2.19052883,1.54193506 2.6516613,2.24461039 2.6516613,3.41528571 L2.6516613,15.9050779 C2.6516613,16.9197532 2.19052883,17.2709221 -9.97402603e-05,17.3100909 L-9.97402603e-05,18.2859351 L9.83794701,18.2859351 L9.83794701,17.3100909 C8.33918338,17.2709221 7.76268468,16.9197532 7.76268468,15.9050779 L7.76301714,0.172376623 Z" id="Fill-23" fill="#000000" mask="url(#mask-2)"></path>
                    </g>
                    <path d="M19.0995948,16.1206078 L19.0995948,5.93367273 C19.0995948,2.26497143 17.6008312,0.274451948 14.4111377,0.274451948 C12.5021091,0.274451948 10.6838442,1.10138701 9.1259013,2.41455584 L9.1259013,3.75912727 C9.78485195,3.33603636 10.496,3.08481558 11.2982442,3.08481558 C13.2199065,3.08481558 13.9885714,4.25549091 13.9885714,6.63634805 L13.9885714,16.1206078 C13.9885714,17.1352831 13.4120727,17.4864519 11.8750753,17.5256208 L11.8750753,18.5014649 L21.7513558,18.5014649 L21.7513558,17.5256208 C19.522161,17.4864519 19.0995948,17.1352831 19.0995948,16.1206078" id="Fill-26" fill="#000000"></path>
                </g>
            </g>
        </g>
    </g>
</svg>