<svg xmlns="http://www.w3.org/2000/svg" width="35" height="35" viewBox="0 0 35 35">
    <g fill="none" fill-rule="evenodd">
        <path fill="#E22F22" fill-rule="nonzero" d="M17.5 35C27.165 35 35 27.165 35 17.5S27.165 0 17.5 0 0 7.835 0 17.5 7.835 35 17.5 35zM35 17.5C35 7.835 27.165 0 17.5 0S0 7.835 0 17.5 7.835 35 17.5 35 35 27.165 35 17.5z"/>
        <path fill="#FCFCFC" d="M29.167 17.504c-.005.21-.042.41-.253.617l-7.18 7.628a.907.907 0 0 1-1.275.028c-.335-.33-.351-.92-.028-1.262l5.763-6.114H6.731a.897.897 0 1 1 0-1.795h19.463l-5.763-6.114c-.323-.341-.321-.961.028-1.276a.907.907 0 0 1 1.276.042l7.18 7.629c.127.134.252.409.252.617z"/>
    </g>
</svg>
