<svg xmlns="http://www.w3.org/2000/svg" xmlns:xlink="http://www.w3.org/1999/xlink" width="164" height="18" viewBox="0 0 164 18">
    <defs>
        <path id="prefix__a" d="M0 0.119L0 12.659 6.811 12.659 6.811 0.119 0 0.119z"/>
    </defs>
    <g fill="none" fill-rule="evenodd">
        <path fill="#FFF" d="M20.88.838c1.65 0 2.314 1.919 2.022 4.621l-4.364.027c.133-3 .905-4.648 2.342-4.648zM18.512 6.27h8.008C26.706 2.73 24.817 0 21.066 0c-3.618 0-6.279 2.568-6.279 6.675 0 3.972 2.395 6.323 6.279 6.323 2.634 0 4.283-1.297 5.454-3.189l-.532-.405c-1.011 1.405-2.129 2.216-3.618 2.216-2.554 0-3.858-1.946-3.858-5.026V6.27zM35.998 2.649c-.452-1.27-.852-1.594-1.89-1.73V.271h6.626v.648c-1.064.109-1.49.298-1.49.838 0 .162.053.351.106.595l2.262 7.025h.133L43.66 3.65c.213-.649.293-1.135.293-1.405 0-.784-.506-1.135-1.703-1.325V.271h5.108v.648c-1.197.163-1.942.811-2.367 2.081l-3.406 9.917h-2.128L36.956 5.54l-2.9 7.377h-2.102L28.123 2.649c-.452-1.19-.852-1.54-2.075-1.73V.271h6.757v.648c-.93.082-1.33.298-1.33.784 0 .162.08.405.16.649l2.554 7.106h.133l2.155-5.377-.48-1.432zM46.952 8.485h.745c1.437 2.432 2.9 3.621 4.523 3.621 1.357 0 2.049-.73 2.049-1.73 0-1.188-.825-1.729-3.38-2.485-2.793-.81-3.91-1.702-3.91-3.675 0-2.513 1.969-4.161 4.895-4.161 1.144 0 2.288.378 3.007.837l.665-.837h.691v3.999h-.745C54.162 2 53.125.892 51.662.892c-1.118 0-1.916.703-1.916 1.811s1.064 1.567 2.9 2.027c2.82.73 4.31 1.729 4.31 3.945 0 2.431-1.97 4.296-4.975 4.296-.985 0-2.794-.46-3.512-.919l-.799.919h-.718V8.485zM75.993 12.16c-1.915 0-2.767-1.864-2.767-5.674 0-3.81.639-5.648 2.528-5.648s2.74 1.838 2.74 5.648c0 3.81-.665 5.674-2.5 5.674M75.886 0c-3.885 0-6.439 2.568-6.439 6.54 0 4 2.395 6.458 6.439 6.458 3.83 0 6.412-2.567 6.412-6.566C82.299 2.46 79.85 0 75.887 0M90.068 12.16c-1.916 0-2.767-1.864-2.767-5.674 0-3.81.638-5.648 2.527-5.648 1.89 0 2.74 1.838 2.74 5.648 0 3.81-.664 5.674-2.5 5.674M89.96 0c-3.884 0-6.438 2.568-6.438 6.54 0 4 2.394 6.458 6.438 6.458 3.831 0 6.412-2.567 6.412-6.566C96.373 2.46 93.925 0 89.961 0"/>
        <path fill="#FFF" d="M104.55 12.08c1.064-.028 1.33-.271 1.33-.973V4.54c0-1.62-.585-2.458-1.942-2.458-.931 0-1.49.513-2.208 1.27v7.755c0 .702.24.945 1.277.972v.676h-6.651v-.676c1.516-.027 1.835-.27 1.835-.972V2.46c0-.811-.319-1.297-1.835-1.324V.46l5.32-.243v2.378c1.251-1.432 2.715-2.46 4.444-2.46 1.782 0 2.847.92 3.166 2.595 1.197-1.46 2.847-2.594 4.523-2.594 2.235 0 3.299 1.378 3.299 3.918v7.053c0 .702.292.945 1.809.972v.676h-6.651v-.676c1.037-.027 1.303-.27 1.303-.972V4.54c0-1.62-.505-2.458-1.835-2.458-.692 0-1.597.54-2.368 1.404.026.244.053.379.053.54v7.08c0 .703.266.946 1.357.973v.676h-6.226v-.676z"/>
        <path fill="#E22F22" d="M134.473 6.495c0-2.842-.88-4.871-2.771-4.871-.8 0-1.519.352-2.292.974v7.713c.56 1.353 1.44 1.813 2.479 1.813 1.572 0 2.584-1.705 2.584-5.629zm-10.419 10.744c1.52-.027 1.812-.27 1.812-.974V2.463c0-.812-.32-1.3-1.838-1.326V.46l5.329-.243v1.65c1.2-1.055 2.398-1.813 3.944-1.813 3.144 0 4.93 2.544 4.93 6.279 0 3.626-2.053 6.63-5.65 6.63-1.279 0-2.238-.243-3.17-.677v3.979c0 .703.479.92 2.504.974v.676h-7.86v-.676zM159.23 6.495c0-3.816-.853-5.656-2.745-5.656-1.892 0-2.532 1.84-2.532 5.656s.853 5.683 2.771 5.683c1.84 0 2.505-1.867 2.505-5.683m-9.06.054c0-3.978 2.559-6.549 6.449-6.549 3.97 0 6.422 2.463 6.422 6.441 0 4.005-2.585 6.576-6.422 6.576-4.05 0-6.448-2.463-6.448-6.468"/>
        <path fill="#FFF" d="M123.39 11.11c.012.594-.259 1.04-.697 1.36-.635.465-1.33.485-2.002.094-.775-.451-1.118-1.547-.499-2.41.602-.84 1.798-.95 2.525-.39.433.332.688.785.673 1.345M66.931.135c-1.436 0-2.739 1.054-3.643 2.512V.243L57.97.486v.675c1.516.028 1.835.514 1.835 1.324v8.641c0 .702-.319.946-1.835.973v.675h7.765v-.675c-1.941-.054-2.393-.27-2.393-.973v-7.67c.496-.71 1.165-1.302 1.86-1.498-.015.104-.025.21-.025.317 0 1.176.893 2.128 1.994 2.128s1.994-.952 1.994-2.128c0-1.017-.661-2.14-2.234-2.14"/>
        <path fill="#E22F22" d="M147.563.135c-1.435 0-2.738 1.054-3.642 2.512V.243l-5.318.243v.675c1.515.028 1.834.514 1.834 1.324v8.641c0 .702-.319.946-1.834.973v.675h7.764v-.675c-1.941-.054-2.393-.27-2.393-.973v-7.67c.496-.71 1.165-1.302 1.86-1.498-.015.104-.024.21-.024.317 0 1.176.892 2.128 1.993 2.128 1.102 0 1.994-.952 1.994-2.128 0-1.017-.66-2.14-2.234-2.14"/>
        <g transform="translate(0 .15)">
            <mask id="prefix__b" fill="#fff">
                <use xlink:href="#prefix__a"/>
            </mask>
            <path fill="#FFF" d="M5.374.12L0 .364v.675c1.517.027 1.836.514 1.836 1.324v8.647c0 .703-.32.946-1.836.973v.675h6.81v-.675c-1.037-.027-1.436-.27-1.436-.973V.12z" mask="url(#prefix__b)"/>
        </g>
        <path fill="#FFF" d="M13.223 11.16V4.108c0-2.54-1.038-3.918-3.246-3.918-1.322 0-2.58.572-3.66 1.482v.93c.457-.292.95-.466 1.505-.466 1.33 0 1.862.81 1.862 2.458v6.566c0 .703-.399.946-1.463.973v.676h6.838v-.676c-1.544-.027-1.836-.27-1.836-.973"/>
    </g>
</svg>
