<?xml version="1.0" encoding="utf-8"?>
<!-- Generator: Adobe Illustrator 21.1.0, SVG Export Plug-In . SVG Version: 6.00 Build 0)  -->
<!DOCTYPE svg PUBLIC "-//W3C//DTD SVG 1.1//EN" "http://www.w3.org/Graphics/SVG/1.1/DTD/svg11.dtd">
<svg version="1.1" id="Layer_1" xmlns="http://www.w3.org/2000/svg" xmlns:xlink="http://www.w3.org/1999/xlink" x="0px" y="0px"
	 viewBox="0 0 534 39" style="enable-background:new 0 0 534 39;" xml:space="preserve">
<style type="text/css">
	.st0{clip-path:url(#SVGID_2_);}
	.st1{clip-path:url(#SVGID_4_);enable-background:new    ;}
	.st2{clip-path:url(#SVGID_6_);}
	.st3{clip-path:url(#SVGID_8_);}
	.st4{clip-path:url(#SVGID_10_);}
	.st5{clip-path:url(#SVGID_12_);}
	.st6{clip-path:url(#SVGID_14_);enable-background:new    ;}
	.st7{clip-path:url(#SVGID_16_);}
	.st8{clip-path:url(#SVGID_18_);}
	.st9{clip-path:url(#SVGID_20_);}
	.st10{clip-path:url(#SVGID_22_);}
	.st11{clip-path:url(#SVGID_24_);}
	.st12{clip-path:url(#SVGID_26_);}
	.st13{clip-path:url(#SVGID_28_);}
	.st14{clip-path:url(#SVGID_30_);}
	.st15{clip-path:url(#SVGID_32_);enable-background:new    ;}
	.st16{clip-path:url(#SVGID_34_);}
	.st17{clip-path:url(#SVGID_36_);}
	.st18{clip-path:url(#SVGID_38_);}
	.st19{clip-path:url(#SVGID_40_);}
	.st20{clip-path:url(#SVGID_42_);enable-background:new    ;}
	.st21{clip-path:url(#SVGID_44_);}
	.st22{clip-path:url(#SVGID_46_);}
	.st23{clip-path:url(#SVGID_48_);}
	.st24{clip-path:url(#SVGID_50_);}
	.st25{clip-path:url(#SVGID_52_);}
	.st26{clip-path:url(#SVGID_54_);}
	.st27{clip-path:url(#SVGID_56_);}
	.st28{clip-path:url(#SVGID_58_);}
	.st29{clip-path:url(#SVGID_60_);}
	.st30{clip-path:url(#SVGID_62_);}
	.st31{clip-path:url(#SVGID_64_);enable-background:new    ;}
	.st32{clip-path:url(#SVGID_66_);}
	.st33{clip-path:url(#SVGID_68_);}
	.st34{clip-path:url(#SVGID_70_);}
	.st35{clip-path:url(#SVGID_72_);}
	.st36{fill:#F2705F;}
	.st37{font-family:'ChronicleDeck-Semi';}
	.st38{font-size:64px;}
</style>
<g>
	<defs>
		<rect id="SVGID_1_" x="223" y="5" width="16.8" height="30.2"/>
	</defs>
	<clipPath id="SVGID_2_">
		<use xlink:href="#SVGID_1_"  style="overflow:visible;"/>
	</clipPath>
	<g class="st0">
		<defs>
			<rect id="SVGID_3_" x="-2" y="-41" width="535" height="91"/>
		</defs>
		<clipPath id="SVGID_4_">
			<use xlink:href="#SVGID_3_"  style="overflow:visible;"/>
		</clipPath>
		<g class="st1">
			<g>
				<defs>
					<rect id="SVGID_5_" x="223" y="4" width="17" height="32"/>
				</defs>
				<clipPath id="SVGID_6_">
					<use xlink:href="#SVGID_5_"  style="overflow:visible;"/>
				</clipPath>
				<g class="st2">
					<defs>
						<path id="SVGID_7_" d="M236.3,5L223,5.6v1.6c3.7,0.1,4.5,1.2,4.5,3.2v20.8c0,1.7-0.8,2.3-4.5,2.3v1.6h16.8v-1.6
							c-2.6-0.1-3.5-0.7-3.5-2.3L236.3,5z"/>
					</defs>
					<clipPath id="SVGID_8_">
						<use xlink:href="#SVGID_7_"  style="overflow:visible;"/>
					</clipPath>
					<g class="st3">
						<defs>
							<rect id="SVGID_9_" x="223" y="4" width="17" height="32"/>
						</defs>
						<clipPath id="SVGID_10_">
							<use xlink:href="#SVGID_9_"  style="overflow:visible;"/>
						</clipPath>
						<rect x="218" y="0" class="st4" width="26.8" height="40.2"/>
					</g>
				</g>
			</g>
		</g>
	</g>
</g>
<g>
	<defs>
		<rect id="SVGID_11_" x="260.7" y="4.5" width="29" height="31.3"/>
	</defs>
	<clipPath id="SVGID_12_">
		<use xlink:href="#SVGID_11_"  style="overflow:visible;"/>
	</clipPath>
	<g class="st5">
		<defs>
			<rect id="SVGID_13_" x="-2" y="-41" width="535" height="91"/>
		</defs>
		<clipPath id="SVGID_14_">
			<use xlink:href="#SVGID_13_"  style="overflow:visible;"/>
		</clipPath>
		<g class="st6">
			<g>
				<defs>
					<rect id="SVGID_15_" x="260" y="4" width="31" height="32"/>
				</defs>
				<clipPath id="SVGID_16_">
					<use xlink:href="#SVGID_15_"  style="overflow:visible;"/>
				</clipPath>
				<g class="st7">
					<defs>
						<path id="SVGID_17_" d="M275.7,6.5c4.1,0,5.7,4.6,5,11.1l-10.8,0.1C270.3,10.4,272.2,6.5,275.7,6.5z M269.9,19.5h19.8
							c0.5-8.5-4.2-15.1-13.5-15.1c-8.9,0-15.5,6.2-15.5,16.1c0,9.6,5.9,15.2,15.5,15.2c6.5,0,10.6-3.1,13.5-7.7l-1.3-1
							c-2.5,3.4-5.3,5.3-8.9,5.3c-6.3,0-9.5-4.7-9.5-12.1v-0.1V19.5z"/>
					</defs>
					<clipPath id="SVGID_18_">
						<use xlink:href="#SVGID_17_"  style="overflow:visible;"/>
					</clipPath>
					<g class="st8">
						<defs>
							<rect id="SVGID_19_" x="260" y="4" width="30" height="32"/>
						</defs>
						<clipPath id="SVGID_20_">
							<use xlink:href="#SVGID_19_"  style="overflow:visible;"/>
						</clipPath>
						<rect x="255.7" y="-0.5" class="st9" width="39" height="41.3"/>
					</g>
				</g>
			</g>
		</g>
	</g>
</g>
<g>
	<defs>
		<path id="SVGID_21_" d="M313.6,10.8c-1.1-3.1-2.1-3.8-4.7-4.2V5.1h16.4v1.6c-2.6,0.3-3.7,0.7-3.7,2c0,0.4,0.1,0.8,0.3,1.4
			l5.6,16.9h0.3l4.7-13.8c0.5-1.6,0.7-2.7,0.7-3.4c0-1.9-1.2-2.7-4.2-3.2V5.1h12.6v1.6c-3,0.4-4.8,1.9-5.8,5l-8.4,23.9h-5.3
			L316,17.8l-7.2,17.7h-5.2l-9.5-24.7c-1.1-2.9-2.1-3.7-5.1-4.2V5.1h16.7v1.6c-2.3,0.2-3.3,0.7-3.3,1.9c0,0.4,0.2,1,0.4,1.6
			l6.3,17.1h0.3l5.3-12.9L313.6,10.8z"/>
	</defs>
	<clipPath id="SVGID_22_">
		<use xlink:href="#SVGID_21_"  style="overflow:visible;"/>
	</clipPath>
	<g class="st10">
		<defs>
			<rect id="SVGID_23_" x="-2" y="-41" width="535" height="91"/>
		</defs>
		<clipPath id="SVGID_24_">
			<use xlink:href="#SVGID_23_"  style="overflow:visible;"/>
		</clipPath>
		<rect x="284.1" y="0.1" class="st11" width="62.6" height="40.4"/>
	</g>
</g>
<g>
	<defs>
		<path id="SVGID_25_" d="M341.8,24.9h1.8c3.5,5.9,7.2,8.7,11.2,8.7c3.4,0,5.1-1.8,5.1-4.2c0-2.9-2-4.2-8.3-6
			c-6.9-1.9-9.7-4.1-9.7-8.8c0-6,4.9-10,12.1-10c2.8,0,5.7,0.9,7.4,2l1.6-2h1.7v9.6h-1.8c-3.3-4.9-5.8-7.6-9.5-7.6
			c-2.8,0-4.7,1.7-4.7,4.4c0,2.7,2.6,3.8,7.2,4.9c7,1.8,10.6,4.2,10.6,9.5c0,5.9-4.9,10.3-12.3,10.3c-2.4,0-6.9-1.1-8.7-2.2l-2,2.2
			h-1.8V24.9z"/>
	</defs>
	<clipPath id="SVGID_26_">
		<use xlink:href="#SVGID_25_"  style="overflow:visible;"/>
	</clipPath>
	<g class="st12">
		<defs>
			<rect id="SVGID_27_" x="-2" y="-41" width="535" height="91"/>
		</defs>
		<clipPath id="SVGID_28_">
			<use xlink:href="#SVGID_27_"  style="overflow:visible;"/>
		</clipPath>
		<rect x="336.8" y="-0.4" class="st13" width="34.7" height="41.1"/>
	</g>
</g>
<g>
	<defs>
		<rect id="SVGID_29_" x="397.4" y="4.5" width="31.7" height="31.3"/>
	</defs>
	<clipPath id="SVGID_30_">
		<use xlink:href="#SVGID_29_"  style="overflow:visible;"/>
	</clipPath>
	<g class="st14">
		<defs>
			<rect id="SVGID_31_" x="-2" y="-41" width="535" height="91"/>
		</defs>
		<clipPath id="SVGID_32_">
			<use xlink:href="#SVGID_31_"  style="overflow:visible;"/>
		</clipPath>
		<g class="st15">
			<g>
				<defs>
					<rect id="SVGID_33_" x="397" y="4" width="33" height="32"/>
				</defs>
				<clipPath id="SVGID_34_">
					<use xlink:href="#SVGID_33_"  style="overflow:visible;"/>
				</clipPath>
				<g class="st16">
					<defs>
						<path id="SVGID_35_" d="M413.6,33.7c-4.7,0-6.8-4.5-6.8-13.7s1.6-13.6,6.2-13.6c4.7,0,6.8,4.4,6.8,13.6S418.1,33.7,413.6,33.7
							 M413.3,4.5c-9.6,0-15.9,6.2-15.9,15.7c0,9.6,5.9,15.5,15.9,15.5c9.5,0,15.8-6.2,15.8-15.8C429.2,10.4,423.1,4.5,413.3,4.5"/>
					</defs>
					<clipPath id="SVGID_36_">
						<use xlink:href="#SVGID_35_"  style="overflow:visible;"/>
					</clipPath>
					<g class="st17">
						<defs>
							<rect id="SVGID_37_" x="397" y="4" width="33" height="32"/>
						</defs>
						<clipPath id="SVGID_38_">
							<use xlink:href="#SVGID_37_"  style="overflow:visible;"/>
						</clipPath>
						<rect x="392.4" y="-0.5" class="st18" width="41.7" height="41.3"/>
					</g>
				</g>
			</g>
		</g>
	</g>
</g>
<g>
	<defs>
		<rect id="SVGID_39_" x="432.2" y="4.5" width="31.7" height="31.3"/>
	</defs>
	<clipPath id="SVGID_40_">
		<use xlink:href="#SVGID_39_"  style="overflow:visible;"/>
	</clipPath>
	<g class="st19">
		<defs>
			<rect id="SVGID_41_" x="-2" y="-41" width="535" height="91"/>
		</defs>
		<clipPath id="SVGID_42_">
			<use xlink:href="#SVGID_41_"  style="overflow:visible;"/>
		</clipPath>
		<g class="st20">
			<g>
				<defs>
					<rect id="SVGID_43_" x="432" y="4" width="32" height="32"/>
				</defs>
				<clipPath id="SVGID_44_">
					<use xlink:href="#SVGID_43_"  style="overflow:visible;"/>
				</clipPath>
				<g class="st21">
					<defs>
						<path id="SVGID_45_" d="M448.4,33.7c-4.7,0-6.8-4.5-6.8-13.7s1.6-13.6,6.2-13.6c4.7,0,6.8,4.4,6.8,13.6S452.9,33.7,448.4,33.7
							 M448.1,4.5c-9.6,0-15.9,6.2-15.9,15.7c0,9.6,5.9,15.5,15.9,15.5c9.5,0,15.8-6.2,15.8-15.8C463.9,10.4,457.9,4.5,448.1,4.5"/>
					</defs>
					<clipPath id="SVGID_46_">
						<use xlink:href="#SVGID_45_"  style="overflow:visible;"/>
					</clipPath>
					<g class="st22">
						<defs>
							<rect id="SVGID_47_" x="432" y="4" width="32" height="32"/>
						</defs>
						<clipPath id="SVGID_48_">
							<use xlink:href="#SVGID_47_"  style="overflow:visible;"/>
						</clipPath>
						<rect x="427.2" y="-0.5" class="st23" width="41.7" height="41.3"/>
					</g>
				</g>
			</g>
		</g>
	</g>
</g>
<g>
	<defs>
		<path id="SVGID_49_" d="M485.3,33.5c2.6-0.1,3.3-0.6,3.3-2.3V15.4c0-3.9-1.4-5.9-4.8-5.9c-2.3,0-3.7,1.2-5.5,3.1v18.7
			c0,1.7,0.6,2.3,3.2,2.3v1.6H465v-1.6c3.7-0.1,4.5-0.6,4.5-2.3V10.4c0-2-0.8-3.1-4.5-3.2V5.6L478.2,5v5.7c3.1-3.4,6.7-5.9,11-5.9
			c4.4,0,7,2.2,7.8,6.2c3-3.5,7-6.2,11.2-6.2c5.5,0,8.2,3.3,8.2,9.4v17c0,1.7,0.7,2.3,4.5,2.3v1.6h-16.4v-1.6
			c2.6-0.1,3.2-0.6,3.2-2.3V15.4c0-3.9-1.2-5.9-4.5-5.9c-1.7,0-3.9,1.3-5.8,3.4c0.1,0.6,0.1,0.9,0.1,1.3v17c0,1.7,0.7,2.3,3.4,2.3
			v1.6h-15.4V33.5z"/>
	</defs>
	<clipPath id="SVGID_50_">
		<use xlink:href="#SVGID_49_"  style="overflow:visible;"/>
	</clipPath>
	<g class="st24">
		<defs>
			<rect id="SVGID_51_" x="-2" y="-41" width="535" height="91"/>
		</defs>
		<clipPath id="SVGID_52_">
			<use xlink:href="#SVGID_51_"  style="overflow:visible;"/>
		</clipPath>
		<rect x="460" y="-0.2" class="st25" width="65.7" height="40.4"/>
	</g>
</g>
<g>
	<defs>
		<path id="SVGID_53_" d="M255.7,31.2v-17c0-6.1-2.6-9.4-8-9.4c-3.3,0-6.4,1.4-9,3.6v2.2c1.1-0.7,2.3-1.1,3.7-1.1
			c3.3,0,4.6,1.9,4.6,5.9v15.8c0,1.7-1,2.3-3.6,2.3v1.6h16.9v-1.6C256.4,33.5,255.7,32.9,255.7,31.2"/>
	</defs>
	<clipPath id="SVGID_54_">
		<use xlink:href="#SVGID_53_"  style="overflow:visible;"/>
	</clipPath>
	<g class="st26">
		<defs>
			<rect id="SVGID_55_" x="-2" y="-41" width="535" height="91"/>
		</defs>
		<clipPath id="SVGID_56_">
			<use xlink:href="#SVGID_55_"  style="overflow:visible;"/>
		</clipPath>
		<rect x="233.6" y="-0.2" class="st27" width="31.6" height="40.4"/>
	</g>
</g>
<g>
	<defs>
		<path id="SVGID_57_" d="M391.2,4.7c-3.5,0-6.8,2.5-9,6V5l-13.1,0.6v1.6c3.7,0.1,4.5,1.2,4.5,3.2v20.8c0,1.7-0.8,2.3-4.5,2.3v1.6
			h19.2v-1.6c-4.8-0.1-5.9-0.6-5.9-2.3V12.7c1.2-1.7,2.9-3.1,4.6-3.6c0,0.3-0.1,0.5-0.1,0.8c0,2.8,2.2,5.1,4.9,5.1
			c2.7,0,4.9-2.3,4.9-5.1C396.7,7.4,395.1,4.7,391.2,4.7"/>
	</defs>
	<clipPath id="SVGID_58_">
		<use xlink:href="#SVGID_57_"  style="overflow:visible;"/>
	</clipPath>
	<g class="st28">
		<defs>
			<rect id="SVGID_59_" x="-2" y="-41" width="535" height="91"/>
		</defs>
		<clipPath id="SVGID_60_">
			<use xlink:href="#SVGID_59_"  style="overflow:visible;"/>
		</clipPath>
		<rect x="364.1" y="-0.3" class="st29" width="37.7" height="40.4"/>
	</g>
</g>
<g>
	<defs>
		<rect id="SVGID_61_" x="522.9" y="27" width="8.7" height="8.2"/>
	</defs>
	<clipPath id="SVGID_62_">
		<use xlink:href="#SVGID_61_"  style="overflow:visible;"/>
	</clipPath>
	<g class="st30">
		<defs>
			<rect id="SVGID_63_" x="-2" y="-41" width="535" height="91"/>
		</defs>
		<clipPath id="SVGID_64_">
			<use xlink:href="#SVGID_63_"  style="overflow:visible;"/>
		</clipPath>
		<g class="st31">
			<g>
				<defs>
					<rect id="SVGID_65_" x="522" y="26" width="10" height="10"/>
				</defs>
				<clipPath id="SVGID_66_">
					<use xlink:href="#SVGID_65_"  style="overflow:visible;"/>
				</clipPath>
				<g class="st32">
					<defs>
						<path id="SVGID_67_" d="M531.6,31.1c0,1.4-0.6,2.5-1.7,3.3c-1.6,1.1-3.3,1.2-4.9,0.2c-1.9-1.1-2.8-3.7-1.2-5.8
							c1.5-2,4.4-2.3,6.2-0.9C531,28.7,531.6,29.8,531.6,31.1"/>
					</defs>
					<clipPath id="SVGID_68_">
						<use xlink:href="#SVGID_67_"  style="overflow:visible;"/>
					</clipPath>
					<g class="st33">
						<defs>
							<rect id="SVGID_69_" x="522" y="27" width="10" height="9"/>
						</defs>
						<clipPath id="SVGID_70_">
							<use xlink:href="#SVGID_69_"  style="overflow:visible;"/>
						</clipPath>
						<rect x="517.9" y="22" class="st34" width="18.7" height="18.2"/>
					</g>
				</g>
			</g>
		</g>
	</g>
</g>
<g>
	<defs>
		<rect id="SVGID_71_" x="-2" y="-41" width="535" height="91"/>
	</defs>
	<clipPath id="SVGID_72_">
		<use xlink:href="#SVGID_71_"  style="overflow:visible;"/>
	</clipPath>
	<g class="st35">
		<path class="st36" d="M0.8,25.2h1.5c3.5,5.9,6.4,8.5,10.4,8.5c3.5,0,5.2-2.2,5.2-4.6c0-2.9-1.9-4.4-7.9-6.1
			c-6.6-1.9-9.2-4-9.2-8.5C0.9,8.9,5.3,5,11.9,5c2.5,0,5.1,0.9,6.7,1.9L20,5h1.4v9.2h-1.6c-3-4.9-5.2-7.4-8.7-7.4
			c-2.9,0-5,1.9-5,4.6c0,2.7,2.4,4,7.2,5.3c6.5,1.7,9.5,4,9.5,8.9c0,5.4-3.8,9.9-10.8,9.9c-2.4,0-6.1-1-7.9-2.1l-2,2.1H0.8V25.2z"/>
		<path class="st36" d="M29,26.4V10c0-1.9-1-2.8-4.6-2.9V5.6l11.3-0.3v19.3c0,4.7,1.7,6.8,5.5,6.8c2.7,0,4.6-1.4,6.4-3.6V10
			c0-1.9-1-2.8-4.6-2.9V5.7l11.3-0.3v25.8c0,1.7,1,2.3,4.6,2.4V35H47.8v-5.2c-2.9,3.5-6.5,5.8-10.7,5.8C32.1,35.5,29,32.4,29,26.4z"
			/>
		<path class="st36" d="M79,33.5c2.9-0.1,3.6-0.6,3.6-2.4V15.9c0-4.7-1.7-6.8-5.2-6.8c-2.7,0-4.5,1.7-6.3,3.9v18.2
			c0,1.8,0.4,2.3,3.4,2.4V35H59.7v-1.5c3.7-0.1,4.6-0.6,4.6-2.4V10.5c0-1.9-0.9-3.1-4.6-3.2V5.8l11.2-0.4v5.8c3-3.5,6.5-6,10.8-6
			c4,0,6.5,2.2,7.3,6.1c3.1-3.6,7-6.1,11.1-6.1c4.9,0,7.5,3.1,7.5,9v17c0,1.8,0.9,2.3,4.6,2.4V35H97.3v-1.5c2.9-0.1,3.5-0.6,3.5-2.4
			V15.9c0-4.7-1.5-6.8-5.1-6.8c-2,0-4.4,1.4-6.5,3.9c0.1,0.4,0.1,0.8,0.1,1.1v17.1c0,1.8,0.7,2.3,4,2.4V35H79V33.5z"/>
		<path class="st36" d="M131.9,33.5c2.9-0.1,3.6-0.6,3.6-2.4V15.9c0-4.7-1.7-6.8-5.2-6.8c-2.7,0-4.5,1.7-6.3,3.9v18.2
			c0,1.8,0.4,2.3,3.4,2.4V35h-14.7v-1.5c3.7-0.1,4.6-0.6,4.6-2.4V10.5c0-1.9-0.9-3.1-4.6-3.2V5.8l11.2-0.4v5.8c3-3.5,6.5-6,10.8-6
			c4,0,6.5,2.2,7.3,6.1c3.1-3.6,7-6.1,11.1-6.1c4.9,0,7.5,3.1,7.5,9v17c0,1.8,0.9,2.3,4.6,2.4V35h-14.8v-1.5
			c2.9-0.1,3.5-0.6,3.5-2.4V15.9c0-4.7-1.5-6.8-5.1-6.8c-2,0-4.4,1.4-6.5,3.9c0.1,0.4,0.1,0.8,0.1,1.1v17.1c0,1.8,0.7,2.3,4,2.4V35
			h-14.3V33.5z"/>
		<path class="st36" d="M166.1,20.6c0-9.2,6.1-15.6,14.3-15.6c8.6,0,12.9,6.6,12.4,14.2h-19.5v0.9v0.1c0,7.2,3.3,12.3,9.7,12.3
			c3.8,0,6.4-2,9-5.4l1.1,0.9c-2.6,4.2-6.1,7.6-12.5,7.6C171.6,35.5,166.1,29.4,166.1,20.6z M173.4,17.5l12.4-0.1
			c0.6-6.3-1.2-10.7-5.7-10.7C176.2,6.7,173.9,10.3,173.4,17.5z"/>
		<path class="st36" d="M195.1,33.5c3.7-0.1,4.6-0.6,4.6-2.4V10.5c0-1.9-0.9-3.1-4.6-3.2V5.8l11.2-0.4v5.8c2.2-3.5,5.2-6,8.6-6
			c3.5,0,5.2,2.2,5.2,4.7c0,2.4-1.6,4.2-3.9,4.2c-2.4,0-4-1.5-4-3.8c0-0.4,0.1-1.1,0.3-1.5c-2.5,0.1-4.4,1.9-6,4.3v18.1
			c0,1.8,1.1,2.2,5.5,2.4V35h-16.8V33.5z"/>
	</g>
	<g class="st35">
		<text transform="matrix(1 0 0 1 218.2236 35)" class="st36 st37 st38"> </text>
	</g>
</g>
</svg>
