<svg xmlns="http://www.w3.org/2000/svg" width="180" height="9" viewBox="0 0 180 9">
    <g fill="#FFF" fill-rule="evenodd">
        <path d="M.846 8.611v-.42c.983-.017 1.19-.168 1.19-.605V2.21c0-.504-.207-.807-1.19-.824v-.42L4.293.814v1.479c.81-.89 1.896-1.53 3.016-1.53 1.43 0 2.103.858 2.103 2.437v4.386c0 .437.19.588 1.189.605v.42H6.17v-.42c.69-.017.948-.168.948-.605V3.503c0-1.025-.344-1.53-1.206-1.53-.62 0-1.12.32-1.586.79v4.823c0 .437.259.588.931.605v.42H.846zm14.494.152c-2.516 0-4.067-1.462-4.067-3.933 0-2.554 1.723-4.15 4.067-4.15 2.43 0 3.654 1.697 3.533 3.898h-5.187v.202c0 1.916.844 3.126 2.499 3.126.965 0 1.689-.505 2.343-1.378l.345.252c-.758 1.176-1.827 1.983-3.533 1.983zM15.22 1.2c-.931 0-1.431 1.026-1.517 2.89l2.826-.016c.19-1.68-.241-2.874-1.31-2.874zm10.788 2.017l-.31-.89c-.293-.79-.552-.992-1.224-1.076V.848h4.292v.403c-.69.067-.966.185-.966.52 0 .102.035.22.07.37l1.464 4.37h.086l1.241-3.563c.138-.403.19-.706.19-.874 0-.487-.328-.706-1.103-.823V.848h3.309v.403c-.776.1-1.258.504-1.534 1.294l-2.206 6.167h-1.379l-1.62-4.588-1.878 4.588h-1.362l-2.481-6.386c-.293-.74-.552-.958-1.345-1.075V.848h4.378v.403c-.603.05-.862.185-.862.487 0 .101.052.252.103.404l1.655 4.42h.086l1.396-3.345zm7.531 5.529v-2.79h.483c.93 1.513 1.878 2.252 2.93 2.252.879 0 1.327-.454 1.327-1.075 0-.74-.534-1.076-2.189-1.546-1.81-.505-2.533-1.06-2.533-2.286 0-1.563 1.275-2.588 3.17-2.588.742 0 1.483.235 1.948.521l.431-.52h.448V3.2h-.482c-.862-1.277-1.534-1.966-2.482-1.966-.724 0-1.241.437-1.241 1.126 0 .689.69.975 1.878 1.26 1.827.454 2.792 1.076 2.792 2.454 0 1.512-1.275 2.672-3.222 2.672-.638 0-1.81-.286-2.275-.572l-.517.572h-.466zm7.411-.135v-.42c.982-.017 1.19-.168 1.19-.605V2.21c0-.504-.208-.807-1.19-.824v-.42l3.447-.151V2.31c.586-.908 1.43-1.563 2.361-1.563 1.017 0 1.534.621 1.534 1.395 0 .773-.5 1.327-1.224 1.327-.775 0-1.275-.487-1.275-1.126 0-.151.034-.353.086-.504-.534.034-1.068.454-1.448.975v4.772c0 .437.293.572 1.551.605v.42H40.95zm12.116.152c-2.62 0-4.171-1.53-4.171-4.017 0-2.47 1.654-4.067 4.17-4.067 2.569 0 4.154 1.53 4.154 4 0 2.487-1.672 4.084-4.153 4.084zm.069-.521c1.189 0 1.62-1.16 1.62-3.53 0-2.369-.552-3.512-1.775-3.512-1.224 0-1.638 1.143-1.638 3.513s.552 3.529 1.793 3.529zm9.306.52c-2.62 0-4.17-1.529-4.17-4.016 0-2.47 1.654-4.067 4.17-4.067 2.568 0 4.153 1.53 4.153 4 0 2.487-1.671 4.084-4.153 4.084zm.069-.52c1.19 0 1.62-1.16 1.62-3.53 0-2.369-.551-3.512-1.775-3.512-1.224 0-1.637 1.143-1.637 3.513s.551 3.529 1.792 3.529zm10.34.37v-.42c.69-.018.862-.169.862-.606V3.503c0-1.009-.379-1.53-1.258-1.53-.603 0-.965.32-1.43.79v4.823c0 .437.155.588.827.605v.42h-4.309v-.42c.983-.017 1.19-.168 1.19-.605V2.21c0-.504-.207-.807-1.19-.824v-.42L70.99.814v1.479c.81-.89 1.758-1.53 2.878-1.53 1.155 0 1.844.572 2.051 1.614.776-.908 1.844-1.613 2.93-1.613 1.448 0 2.137.857 2.137 2.436v4.386c0 .437.19.588 1.172.605v.42h-4.309v-.42c.673-.017.845-.168.845-.605V3.503c0-1.009-.328-1.53-1.19-1.53-.447 0-1.033.337-1.533.874.017.152.034.236.034.336v4.403c0 .437.173.588.88.605v.42H72.85zm11.668.268c-.793 0-1.413-.588-1.413-1.327 0-.74.655-1.328 1.43-1.328.793 0 1.413.588 1.413 1.328 0 .74-.654 1.327-1.43 1.327zM90.508 8.518V.513h1.805v8.005h-1.805zm4.924 0V.513h1.854l2.087 3.978.786 1.768h.049c-.074-.847-.221-1.977-.221-2.922V.513h1.719v8.005h-1.854l-2.088-3.99-.785-1.744h-.05c.074.884.221 1.952.221 2.898v2.836h-1.718zm10.78 0l-2.42-8.005h1.916l.958 3.732c.246.872.405 1.682.65 2.566h.05c.233-.884.405-1.694.638-2.566l.946-3.732h1.841l-2.406 8.005h-2.173zm6.667 0V.513h5.01v1.522h-3.205v1.609h2.725v1.51h-2.725v1.842h3.327v1.522h-5.132zm7.44-1.007l1.032-1.24c.577.491 1.313.835 1.976.835.75 0 1.118-.295 1.118-.774 0-.503-.455-.663-1.154-.957l-1.044-.442c-.823-.332-1.609-1.02-1.609-2.186 0-1.326 1.18-2.382 2.849-2.382.92 0 1.89.369 2.578 1.056l-.92 1.142c-.528-.405-1.02-.638-1.658-.638-.626 0-1.02.27-1.02.724 0 .491.529.663 1.216.945l1.032.418c.97.393 1.584 1.044 1.584 2.173 0 1.326-1.105 2.48-3.02 2.48-1.044 0-2.15-.393-2.96-1.154zm9.884 1.007V2.035h-2.198V.513h6.213v1.522h-2.198v6.483h-1.817zm6.495 0V.513h1.805v8.005h-1.805zm4.543-3.954c0-2.652 1.768-4.199 3.941-4.199 1.118 0 1.953.504 2.48 1.044l-.994 1.117c-.393-.368-.773-.601-1.461-.601-1.24 0-2.112.97-2.112 2.578 0 1.645.75 2.603 2.247 2.603.332 0 .663-.086.86-.246V5.485h-1.327V4.012h2.923v3.683c-.565.54-1.56.97-2.677.97-2.16 0-3.88-1.412-3.88-4.1zm11.026.639h1.707l-.185-.737c-.22-.798-.442-1.743-.65-2.578h-.05c-.196.847-.405 1.78-.626 2.578l-.196.737zm2.566 3.315l-.491-1.903h-2.443l-.492 1.903h-1.841L152.07.513h2.174l2.504 8.005h-1.915zm5.083 0V2.035h-2.198V.513h6.213v1.522h-2.198v6.483h-1.817zm6.495 0V.513h5.01v1.522h-3.205v1.609h2.726v1.51h-2.726v1.842h3.328v1.522h-5.133zm7.44-1.007l1.032-1.24c.577.491 1.314.835 1.977.835.749 0 1.117-.295 1.117-.774 0-.503-.454-.663-1.154-.957l-1.044-.442c-.822-.332-1.608-1.02-1.608-2.186 0-1.326 1.179-2.382 2.849-2.382.92 0 1.89.369 2.578 1.056l-.92 1.142c-.529-.405-1.02-.638-1.658-.638-.627 0-1.02.27-1.02.724 0 .491.528.663 1.216.945l1.031.418c.97.393 1.584 1.044 1.584 2.173 0 1.326-1.105 2.48-3.02 2.48-1.044 0-2.149-.393-2.96-1.154z"/>
    </g>
</svg>
