<?xml version="1.0" encoding="utf-8"?>
<!-- Generator: Adobe Illustrator 16.0.0, SVG Export Plug-In . SVG Version: 6.00 Build 0)  -->
<!DOCTYPE svg PUBLIC "-//W3C//DTD SVG 1.1//EN" "http://www.w3.org/Graphics/SVG/1.1/DTD/svg11.dtd">
<svg version="1.1" id="Layer_1" xmlns="http://www.w3.org/2000/svg" xmlns:xlink="http://www.w3.org/1999/xlink" x="0px" y="0px"
	 width="180.09px" height="26px" viewBox="0 4.9 180.09 26" enable-background="new 0 4.9 180.09 26" xml:space="preserve">
<title>F712D63D-F3E7-4B8B-B0EF-89666DDCD286</title>
<desc>Created with sketchtool.</desc>
<g id="Symbols">
	<g id="newsroom.pro-logo-copy">
		<g id="Group-2">
			<g id="Page-1" transform="translate(0.000000, 0.000000)">
				<path id="Fill-1" d="M23.063,12.011c1.822,0,2.557,2.119,2.234,5.104l-4.82,0.03C20.624,13.831,21.476,12.011,23.063,12.011
					L23.063,12.011z M20.448,18.01h8.846c0.206-3.91-1.881-6.924-6.024-6.924c-3.997,0-6.936,2.835-6.936,7.373
					c0,4.388,2.645,6.983,6.936,6.983c2.909,0,4.731-1.434,6.024-3.521l-0.588-0.448c-1.117,1.552-2.351,2.447-3.997,2.447
					c-2.821,0-4.261-2.149-4.261-5.551v-0.03V18.01z"/>
				<path id="Fill-3" d="M39.762,14.01c-0.5-1.403-0.94-1.761-2.086-1.91v-0.716h7.317V12.1c-1.175,0.12-1.646,0.329-1.646,0.925
					c0,0.179,0.059,0.388,0.118,0.657l2.498,7.76h0.147l2.116-6.328c0.235-0.716,0.323-1.254,0.323-1.552
					c0-0.865-0.559-1.253-1.881-1.462v-0.716h5.643V12.1c-1.323,0.179-2.146,0.896-2.616,2.298l-3.762,10.954h-2.351l-2.762-8.148
					l-3.203,8.148h-2.322L31.063,14.01c-0.499-1.313-0.94-1.701-2.292-1.91v-0.716h7.464V12.1c-1.028,0.09-1.469,0.329-1.469,0.866
					c0,0.179,0.088,0.448,0.176,0.716l2.821,7.851h0.147l2.38-5.939L39.762,14.01z"/>
				<path id="Fill-5" d="M51.862,20.457h0.823c1.587,2.688,3.203,4,4.996,4c1.499,0,2.263-0.807,2.263-1.91
					c0-1.313-0.911-1.91-3.732-2.746c-3.085-0.896-4.32-1.88-4.32-4.059c0-2.776,2.175-4.597,5.407-4.597
					c1.264,0,2.527,0.418,3.321,0.925l0.735-0.925h0.764v4.417h-0.823c-1.469-2.268-2.615-3.492-4.231-3.492
					c-1.234,0-2.116,0.776-2.116,2c0,1.224,1.176,1.731,3.203,2.238c3.115,0.806,4.761,1.91,4.761,4.356
					c0,2.687-2.175,4.746-5.496,4.746c-1.087,0-3.085-0.506-3.879-1.015l-0.882,1.015h-0.793L51.862,20.457L51.862,20.457z"/>
				<path id="Fill-7" d="M83.94,24.516c-2.116,0-3.057-2.06-3.057-6.269c0-4.208,0.706-6.237,2.792-6.237
					c2.087,0,3.027,2.029,3.027,6.237C86.702,22.457,85.968,24.516,83.94,24.516 M83.823,11.085c-4.291,0-7.112,2.835-7.112,7.223
					c0,4.417,2.645,7.133,7.112,7.133c4.232,0,7.083-2.836,7.083-7.253C90.904,13.801,88.202,11.085,83.823,11.085"/>
				<path id="Fill-9" d="M99.486,24.516c-2.116,0-3.057-2.06-3.057-6.269c0-4.208,0.705-6.237,2.791-6.237
					c2.088,0,3.027,2.029,3.027,6.237C102.248,22.457,101.516,24.516,99.486,24.516 M99.369,11.085c-4.29,0-7.112,2.835-7.112,7.223
					c0,4.417,2.646,7.133,7.112,7.133c4.23,0,7.083-2.836,7.083-7.253C106.452,13.801,103.747,11.085,99.369,11.085"/>
				<path id="Fill-11" d="M115.482,24.426c1.177-0.029,1.471-0.298,1.471-1.074v-7.253c0-1.791-0.646-2.716-2.146-2.716
					c-1.029,0-1.646,0.567-2.438,1.402v8.566c0,0.775,0.265,1.045,1.409,1.074v0.747h-7.346v-0.747
					c1.676-0.029,2.027-0.299,2.027-1.074v-9.55c0-0.896-0.354-1.433-2.027-1.462v-0.746l5.877-0.269v2.626
					c1.381-1.582,2.998-2.716,4.908-2.716c1.969,0,3.145,1.015,3.496,2.866c1.323-1.612,3.145-2.866,4.996-2.866
					c2.469,0,3.645,1.522,3.645,4.328v7.79c0,0.776,0.323,1.045,1.998,1.074v0.747h-7.347v-0.747c1.146-0.029,1.44-0.298,1.44-1.074
					v-7.253c0-1.791-0.559-2.716-2.027-2.716c-0.766,0-1.764,0.597-2.615,1.552c0.028,0.269,0.059,0.418,0.059,0.597v7.819
					c0,0.775,0.293,1.045,1.498,1.074v0.747h-6.877V24.426z"/>
				<path id="Fill-13" fill="#E22F22" d="M148.536,18.259c0-3.139-0.972-5.381-3.062-5.381c-0.884,0-1.679,0.389-2.531,1.076v8.52
					c0.617,1.495,1.589,2.003,2.736,2.003C147.417,24.477,148.536,22.593,148.536,18.259L148.536,18.259z M137.027,30.125
					c1.678-0.029,2-0.297,2-1.076V13.805c0-0.897-0.353-1.435-2.029-1.465v-0.747l5.886-0.269v1.823
					c1.325-1.166,2.65-2.003,4.357-2.003c3.473,0,5.444,2.81,5.444,6.936c0,4.005-2.268,7.324-6.24,7.324
					c-1.412,0-2.473-0.27-3.502-0.748v4.395c0,0.777,0.529,1.018,2.767,1.076v0.748h-8.683V30.125z"/>
				<path id="Fill-15" fill="#E22F22" d="M175.881,18.259c0-4.215-0.941-6.248-3.031-6.248s-2.795,2.033-2.795,6.248
					c0,4.215,0.94,6.277,3.061,6.277C175.146,24.537,175.881,22.473,175.881,18.259 M165.874,18.318
					c0-4.394,2.825-7.234,7.122-7.234c4.386,0,7.094,2.72,7.094,7.115c0,4.423-2.854,7.264-7.094,7.264
					C168.521,25.463,165.874,22.744,165.874,18.318"/>
				<path id="Fill-17" d="M136.294,23.356c0.013,0.656-0.286,1.148-0.771,1.505c-0.701,0.512-1.469,0.533-2.211,0.103
					c-0.856-0.499-1.235-1.709-0.553-2.663c0.666-0.928,1.986-1.049,2.789-0.43C136.027,22.238,136.311,22.736,136.294,23.356"/>
				<path id="Fill-19" d="M73.931,11.234c-1.586,0-3.025,1.164-4.024,2.774v-2.655l-5.874,0.269v0.746
					c1.674,0.03,2.026,0.567,2.026,1.461v9.545c0,0.775-0.352,1.045-2.026,1.074v0.746h8.576v-0.746
					c-2.144-0.06-2.643-0.299-2.643-1.074v-8.471c0.548-0.785,1.287-1.439,2.055-1.656c-0.017,0.115-0.027,0.231-0.027,0.351
					c0,1.298,0.986,2.351,2.202,2.351c1.217,0,2.202-1.052,2.202-2.351C76.397,12.474,75.668,11.234,73.931,11.234"/>
				<path id="Fill-21" fill="#E22F22" d="M162.995,11.234c-1.586,0-3.024,1.164-4.022,2.774v-2.655l-5.875,0.269v0.746
					c1.674,0.03,2.026,0.567,2.026,1.461v9.545c0,0.775-0.353,1.045-2.026,1.074v0.746h8.575v-0.746
					c-2.144-0.06-2.644-0.299-2.644-1.074v-8.471c0.55-0.785,1.287-1.439,2.056-1.656c-0.017,0.115-0.026,0.231-0.026,0.351
					c0,1.298,0.985,2.351,2.201,2.351c1.217,0,2.202-1.052,2.202-2.351C165.462,12.474,164.732,11.234,162.995,11.234"/>
				<g id="Group-25" transform="translate(0.000000, 0.215665)">
					<g id="Clip-24">
					</g>
					<defs>
						<filter id="Adobe_OpacityMaskFilter" filterUnits="userSpaceOnUse" x="0" y="11.166" width="7.523" height="13.851">
							<feColorMatrix  type="matrix" values="1 0 0 0 0  0 1 0 0 0  0 0 1 0 0  0 0 0 1 0"/>
						</filter>
					</defs>
					<mask maskUnits="userSpaceOnUse" x="0" y="11.166" width="7.523" height="13.851" id="mask-2">
						<g filter="url(#Adobe_OpacityMaskFilter)">
							<polygon id="path-1" fill="#FFFFFF" points="0,11.166 0,25.017 7.523,25.017 7.523,11.166 							"/>
						</g>
					</mask>
					<path id="Fill-23" mask="url(#mask-2)" d="M5.937,11.166L0,11.437v0.746c1.675,0.03,2.028,0.567,2.028,1.462v9.552
						c0,0.775-0.353,1.044-2.028,1.074v0.746h7.523v-0.746c-1.146-0.03-1.587-0.299-1.587-1.074L5.937,11.166z"/>
				</g>
				<path id="Fill-26" d="M14.605,23.412v-7.79c0-2.806-1.146-4.328-3.585-4.328c-1.46,0-2.851,0.632-4.042,1.637v1.028
					c0.504-0.323,1.048-0.516,1.662-0.516c1.47,0,2.058,0.896,2.058,2.716v7.252c0,0.775-0.441,1.045-1.616,1.074v0.746h7.552
					v-0.746C14.929,24.457,14.605,24.188,14.605,23.412"/>
			</g>
		</g>
	</g>
</g>
</svg>
