<?xml version="1.0" encoding="utf-8"?>
<!-- Generator: Adobe Illustrator 16.0.0, SVG Export Plug-In . SVG Version: 6.00 Build 0)  -->
<!DOCTYPE svg PUBLIC "-//W3C//DTD SVG 1.1//EN" "http://www.w3.org/Graphics/SVG/1.1/DTD/svg11.dtd">
<svg version="1.1" id="Layer_1" xmlns="http://www.w3.org/2000/svg" xmlns:xlink="http://www.w3.org/1999/xlink" x="0px" y="0px"
	 width="180.09px" height="35.8px" viewBox="0 -14.66 180.09 35.8" enable-background="new 0 -14.66 180.09 35.8"
	 xml:space="preserve">
<title>F712D63D-F3E7-4B8B-B0EF-89666DDCD286</title>
<desc>Created with sketchtool.</desc>
<g id="Symbols">
	<g id="newsroom.pro-logo-copy">
		<g id="Group-2">
			<g id="Page-1" transform="translate(0.000000, 0.000000)">
				<path id="Fill-1" d="M23.063,2.288c1.822,0,2.557,2.119,2.234,5.104l-4.82,0.03C20.624,4.108,21.476,2.288,23.063,2.288
					L23.063,2.288z M20.448,8.287h8.846c0.206-3.91-1.881-6.924-6.024-6.924c-3.997,0-6.936,2.835-6.936,7.372
					c0,4.388,2.645,6.984,6.936,6.984c2.909,0,4.731-1.434,6.024-3.522l-0.588-0.448c-1.117,1.552-2.351,2.447-3.997,2.447
					c-2.821,0-4.261-2.149-4.261-5.551v-0.03V8.287z"/>
				<path id="Fill-3" d="M39.762,4.287c-0.5-1.403-0.94-1.761-2.086-1.91V1.661h7.317v0.716c-1.175,0.12-1.646,0.329-1.646,0.925
					c0,0.179,0.059,0.388,0.118,0.657l2.498,7.76h0.147l2.116-6.328c0.235-0.716,0.323-1.254,0.323-1.552
					c0-0.865-0.559-1.253-1.881-1.462V1.661h5.643v0.716c-1.323,0.179-2.146,0.896-2.616,2.298l-3.762,10.954h-2.351L40.82,7.481
					l-3.203,8.148h-2.322L31.063,4.287c-0.499-1.313-0.94-1.701-2.292-1.91V1.661h7.464v0.716c-1.028,0.09-1.469,0.329-1.469,0.866
					c0,0.179,0.088,0.448,0.176,0.716l2.821,7.85h0.147l2.38-5.939L39.762,4.287z"/>
				<path id="Fill-5" d="M51.862,10.734h0.823c1.587,2.687,3.203,3.999,4.996,3.999c1.499,0,2.263-0.806,2.263-1.91
					c0-1.313-0.911-1.91-3.732-2.746c-3.085-0.896-4.32-1.88-4.32-4.059c0-2.776,2.175-4.597,5.407-4.597
					c1.264,0,2.527,0.418,3.321,0.925l0.735-0.925h0.764v4.417h-0.823c-1.469-2.268-2.615-3.492-4.231-3.492
					c-1.234,0-2.116,0.776-2.116,2c0,1.224,1.176,1.731,3.203,2.238c3.115,0.806,4.761,1.91,4.761,4.357
					c0,2.686-2.175,4.746-5.496,4.746c-1.087,0-3.085-0.507-3.879-1.015l-0.882,1.015h-0.793V10.734z"/>
				<path id="Fill-7" d="M83.94,14.793c-2.116,0-3.057-2.059-3.057-6.268s0.706-6.238,2.792-6.238c2.087,0,3.027,2.029,3.027,6.238
					S85.968,14.793,83.94,14.793 M83.823,1.362c-4.291,0-7.112,2.835-7.112,7.223c0,4.417,2.645,7.133,7.112,7.133
					c4.232,0,7.083-2.836,7.083-7.253C90.905,4.078,88.202,1.362,83.823,1.362"/>
				<path id="Fill-9" d="M99.487,14.793c-2.117,0-3.057-2.059-3.057-6.268s0.705-6.238,2.791-6.238c2.087,0,3.027,2.029,3.027,6.238
					S101.515,14.793,99.487,14.793 M99.369,1.362c-4.29,0-7.112,2.835-7.112,7.223c0,4.417,2.646,7.133,7.112,7.133
					c4.231,0,7.083-2.836,7.083-7.253C106.452,4.078,103.747,1.362,99.369,1.362"/>
				<path id="Fill-11" d="M115.483,14.703c1.176-0.029,1.47-0.298,1.47-1.074V6.376c0-1.791-0.646-2.716-2.146-2.716
					c-1.029,0-1.646,0.567-2.439,1.402v8.566c0,0.776,0.265,1.045,1.41,1.074v0.747h-7.346v-0.747
					c1.675-0.029,2.027-0.298,2.027-1.074V4.078c0-0.896-0.353-1.433-2.027-1.462V1.87l5.877-0.269v2.626
					c1.381-1.582,2.998-2.716,4.908-2.716c1.969,0,3.145,1.015,3.496,2.866c1.323-1.612,3.145-2.866,4.996-2.866
					c2.469,0,3.645,1.522,3.645,4.328v7.79c0,0.776,0.323,1.045,1.998,1.074v0.747h-7.347v-0.747c1.146-0.029,1.44-0.298,1.44-1.074
					V6.376c0-1.791-0.559-2.716-2.027-2.716c-0.766,0-1.764,0.597-2.616,1.552c0.029,0.269,0.059,0.418,0.059,0.597v7.819
					c0,0.776,0.294,1.045,1.499,1.074v0.747h-6.877V14.703z"/>
				<path id="Fill-13" fill="#E22F22" d="M148.536,8.536c0-3.139-0.972-5.381-3.062-5.381c-0.883,0-1.678,0.389-2.531,1.076v8.52
					c0.618,1.495,1.589,2.003,2.737,2.003C147.417,14.754,148.536,12.87,148.536,8.536L148.536,8.536z M137.027,20.402
					c1.678-0.029,2.001-0.298,2.001-1.076V4.082c0-0.897-0.353-1.435-2.03-1.465V1.87l5.886-0.269v1.823
					c1.325-1.166,2.65-2.003,4.357-2.003c3.473,0,5.444,2.81,5.444,6.936c0,4.005-2.267,7.323-6.239,7.323
					c-1.413,0-2.473-0.269-3.503-0.747v4.394c0,0.778,0.53,1.018,2.767,1.076v0.748h-8.683V20.402z"/>
				<path id="Fill-15" fill="#E22F22" d="M175.881,8.536c0-4.215-0.942-6.248-3.031-6.248c-2.09,0-2.796,2.033-2.796,6.248
					s0.941,6.278,3.061,6.278C175.146,14.813,175.881,12.75,175.881,8.536 M165.874,8.595c0-4.394,2.825-7.234,7.122-7.234
					c4.386,0,7.094,2.72,7.094,7.115c0,4.424-2.854,7.264-7.094,7.264C168.522,15.74,165.874,13.02,165.874,8.595"/>
				<path id="Fill-17" d="M136.294,13.633c0.013,0.656-0.286,1.148-0.771,1.504c-0.701,0.512-1.468,0.534-2.21,0.103
					c-0.857-0.499-1.236-1.709-0.553-2.663c0.666-0.927,1.986-1.049,2.789-0.43C136.028,12.514,136.311,13.013,136.294,13.633"/>
				<path id="Fill-19" d="M73.931,1.511c-1.586,0-3.025,1.164-4.024,2.774V1.63l-5.874,0.269v0.746
					c1.674,0.03,2.026,0.567,2.026,1.461v9.546c0,0.775-0.352,1.044-2.026,1.073v0.746h8.576v-0.746
					c-2.144-0.059-2.643-0.298-2.643-1.073V5.18c0.548-0.785,1.287-1.439,2.055-1.656c-0.017,0.115-0.027,0.231-0.027,0.351
					c0,1.298,0.986,2.351,2.202,2.351c1.217,0,2.202-1.052,2.202-2.351C76.397,2.751,75.668,1.511,73.931,1.511"/>
				<path id="Fill-21" fill="#E22F22" d="M162.995,1.511c-1.586,0-3.025,1.164-4.023,2.774V1.63l-5.875,0.269v0.746
					c1.675,0.03,2.027,0.567,2.027,1.461v9.546c0,0.775-0.353,1.044-2.027,1.073v0.746h8.576v-0.746
					c-2.144-0.059-2.643-0.298-2.643-1.073V5.18c0.549-0.785,1.287-1.439,2.055-1.656c-0.017,0.115-0.027,0.231-0.027,0.351
					c0,1.298,0.986,2.351,2.202,2.351c1.217,0,2.202-1.052,2.202-2.351C165.462,2.751,164.732,1.511,162.995,1.511"/>
				<g id="Group-25" transform="translate(0.000000, 0.215665)">
					<g id="Clip-24">
					</g>
					<defs>
						<filter id="Adobe_OpacityMaskFilter" filterUnits="userSpaceOnUse" x="0" y="1.443" width="7.523" height="13.852">
							<feColorMatrix  type="matrix" values="1 0 0 0 0  0 1 0 0 0  0 0 1 0 0  0 0 0 1 0"/>
						</filter>
					</defs>
					<mask maskUnits="userSpaceOnUse" x="0" y="1.443" width="7.523" height="13.852" id="mask-2">
						<g filter="url(#Adobe_OpacityMaskFilter)">
							<polygon id="path-1" fill="#FFFFFF" points="0,1.443 0,15.294 7.523,15.294 7.523,1.443 							"/>
						</g>
					</mask>
					<path id="Fill-23" mask="url(#mask-2)" d="M5.937,1.443L0,1.714V2.46c1.675,0.03,2.028,0.567,2.028,1.462v9.552
						c0,0.775-0.353,1.044-2.028,1.074v0.746h7.523v-0.746c-1.146-0.03-1.587-0.299-1.587-1.074L5.937,1.443z"/>
				</g>
				<path id="Fill-26" d="M14.605,13.689V5.899c0-2.806-1.146-4.328-3.585-4.328c-1.46,0-2.851,0.632-4.042,1.637v1.028
					C7.482,3.913,8.026,3.72,8.64,3.72c1.47,0,2.058,0.896,2.058,2.716v7.253c0,0.775-0.441,1.044-1.616,1.074v0.746h7.552v-0.746
					C14.929,14.733,14.605,14.465,14.605,13.689"/>
			</g>
		</g>
	</g>
</g>
</svg>
