<?xml version="1.0" encoding="utf-8"?>
<!-- Generator: Adobe Illustrator 21.1.0, SVG Export Plug-In . SVG Version: 6.00 Build 0)  -->
<!DOCTYPE svg PUBLIC "-//W3C//DTD SVG 1.1//EN" "http://www.w3.org/Graphics/SVG/1.1/DTD/svg11.dtd">
<svg version="1.1" id="Layer_1" xmlns="http://www.w3.org/2000/svg" xmlns:xlink="http://www.w3.org/1999/xlink" x="0px" y="0px"
	 viewBox="0 0 225 39" style="enable-background:new 0 0 225 39;" xml:space="preserve">
<style type="text/css">
	.st35{clip-path:url(#SVGID_72_);}
	.st36{fill:#F2705F;}
	.st37{font-family:'ChronicleDeck-Semi';}
	.st38{font-size:64px;}
</style>
<g>
	<defs>
		<rect id="SVGID_71_" x="-2" y="-41" width="535" height="91"/>
	</defs>
	<clipPath id="SVGID_72_">
		<use xlink:href="#SVGID_71_"  style="overflow:visible;"/>
	</clipPath>
	<g class="st35">
		<path class="st36" d="M0.8,25.2h1.5c3.5,5.9,6.4,8.5,10.4,8.5c3.5,0,5.2-2.2,5.2-4.6c0-2.9-1.9-4.4-7.9-6.1
			c-6.6-1.9-9.2-4-9.2-8.5C0.9,8.9,5.3,5,11.9,5c2.5,0,5.1,0.9,6.7,1.9L20,5h1.4v9.2h-1.6c-3-4.9-5.2-7.4-8.7-7.4
			c-2.9,0-5,1.9-5,4.6c0,2.7,2.4,4,7.2,5.3c6.5,1.7,9.5,4,9.5,8.9c0,5.4-3.8,9.9-10.8,9.9c-2.4,0-6.1-1-7.9-2.1l-2,2.1H0.8V25.2z"/>
		<path class="st36" d="M29,26.4V10c0-1.9-1-2.8-4.6-2.9V5.6l11.3-0.3v19.3c0,4.7,1.7,6.8,5.5,6.8c2.7,0,4.6-1.4,6.4-3.6V10
			c0-1.9-1-2.8-4.6-2.9V5.7l11.3-0.3v25.8c0,1.7,1,2.3,4.6,2.4V35H47.8v-5.2c-2.9,3.5-6.5,5.8-10.7,5.8C32.1,35.5,29,32.4,29,26.4z"
			/>
		<path class="st36" d="M79,33.5c2.9-0.1,3.6-0.6,3.6-2.4V15.9c0-4.7-1.7-6.8-5.2-6.8c-2.7,0-4.5,1.7-6.3,3.9v18.2
			c0,1.8,0.4,2.3,3.4,2.4V35H59.7v-1.5c3.7-0.1,4.6-0.6,4.6-2.4V10.5c0-1.9-0.9-3.1-4.6-3.2V5.8l11.2-0.4v5.8c3-3.5,6.5-6,10.8-6
			c4,0,6.5,2.2,7.3,6.1c3.1-3.6,7-6.1,11.1-6.1c4.9,0,7.5,3.1,7.5,9v17c0,1.8,0.9,2.3,4.6,2.4V35H97.3v-1.5c2.9-0.1,3.5-0.6,3.5-2.4
			V15.9c0-4.7-1.5-6.8-5.1-6.8c-2,0-4.4,1.4-6.5,3.9c0.1,0.4,0.1,0.8,0.1,1.1v17.1c0,1.8,0.7,2.3,4,2.4V35H79V33.5z"/>
		<path class="st36" d="M131.9,33.5c2.9-0.1,3.6-0.6,3.6-2.4V15.9c0-4.7-1.7-6.8-5.2-6.8c-2.7,0-4.5,1.7-6.3,3.9v18.2
			c0,1.8,0.4,2.3,3.4,2.4V35h-14.7v-1.5c3.7-0.1,4.6-0.6,4.6-2.4V10.5c0-1.9-0.9-3.1-4.6-3.2V5.8l11.2-0.4v5.8c3-3.5,6.5-6,10.8-6
			c4,0,6.5,2.2,7.3,6.1c3.1-3.6,7-6.1,11.1-6.1c4.9,0,7.5,3.1,7.5,9v17c0,1.8,0.9,2.3,4.6,2.4V35h-14.8v-1.5
			c2.9-0.1,3.5-0.6,3.5-2.4V15.9c0-4.7-1.5-6.8-5.1-6.8c-2,0-4.4,1.4-6.5,3.9c0.1,0.4,0.1,0.8,0.1,1.1v17.1c0,1.8,0.7,2.3,4,2.4V35
			h-14.3V33.5z"/>
		<path class="st36" d="M166.1,20.6c0-9.2,6.1-15.6,14.3-15.6c8.6,0,12.9,6.6,12.4,14.2h-19.5v0.9v0.1c0,7.2,3.3,12.3,9.7,12.3
			c3.8,0,6.4-2,9-5.4l1.1,0.9c-2.6,4.2-6.1,7.6-12.5,7.6C171.6,35.5,166.1,29.4,166.1,20.6z M173.4,17.5l12.4-0.1
			c0.6-6.3-1.2-10.7-5.7-10.7C176.2,6.7,173.9,10.3,173.4,17.5z"/>
		<path class="st36" d="M195.1,33.5c3.7-0.1,4.6-0.6,4.6-2.4V10.5c0-1.9-0.9-3.1-4.6-3.2V5.8l11.2-0.4v5.8c2.2-3.5,5.2-6,8.6-6
			c3.5,0,5.2,2.2,5.2,4.7c0,2.4-1.6,4.2-3.9,4.2c-2.4,0-4-1.5-4-3.8c0-0.4,0.1-1.1,0.3-1.5c-2.5,0.1-4.4,1.9-6,4.3v18.1
			c0,1.8,1.1,2.2,5.5,2.4V35h-16.8V33.5z"/>
	</g>
	<g class="st35">
		<text transform="matrix(1 0 0 1 218.2236 35)" class="st36 st37 st38"> </text>
	</g>
</g>
</svg>
