<svg xmlns="http://www.w3.org/2000/svg" width="75" height="72" viewBox="0 0 75 72">
    <g fill="none" fill-rule="evenodd" stroke="#E02020" stroke-width="1.6">
        <g>
            <path d="M26.328 21.6H.8v20.036c0 3.525 1.429 6.716 3.738 9.026 2.31 2.31 5.501 3.738 9.026 3.738 3.524 0 6.715-1.429 9.025-3.738 2.31-2.31 3.739-5.501 3.739-9.026V21.6zM27.913 24.8h-1.581V36h1.58c1.105 0 2.105-.448 2.83-1.172.723-.723 1.17-1.723 1.17-2.828v-3.2c0-1.105-.447-2.105-1.17-2.828-.725-.724-1.725-1.172-2.83-1.172z" transform="translate(39.894 14.4)"/>
            <path stroke-linecap="round" stroke-linejoin="round" d="M11.013 0c1.2 3.125 1.269 6.37.21 9.738-1.06 3.367-1.13 6.255-.21 8.662M16.599 0c1.198 3.125 1.268 6.37.209 9.738-1.06 3.367-1.13 6.255-.21 8.662" transform="translate(39.894 14.4)"/>
            <path d="M20.67 35.2c.59 9.6-2.31 14.4-8.702 14.4" transform="translate(39.894 14.4)"/>
        </g>
        <path stroke-linecap="round" d="M16.755 18.8L33.511 18.8M16.755 24.4L36.702 24.4"/>
        <path d="M35.904 61.6L0.798 61.6 0.798 24.8 6.311 20.8"/>
        <path d="M19.947 10.414L30.997 1.6 41.489 10.414 20.061 10.414 6.383 10.414 6.383 28.8"/>
        <path d="M0.798 24.8L30.696 47.2 36.702 42.638"/>
    </g>
</svg>
