<svg xmlns="http://www.w3.org/2000/svg" width="60" height="50" viewBox="0 0 60 50">
    <g fill="none" fill-rule="evenodd" stroke="#E02020" stroke-width="1.426">
        <path d="M46.27 0v11.167l-19.606 19.09-2.575 7.52h-7.53l-9.534 8.796v-8.795H0V0h46.27zm0 26.574v11.204l-10.895-.001L46.27 26.574z" transform="translate(.741 1.256)"/>
        <path stroke-linecap="square" d="M5.73 8.579L35.273 8.579M5.734 16.75L13.311 16.75M17.906 16.75L29.792 16.75M5.73 23.287L21.572 23.287M5.73 29.823L21.572 29.823" transform="translate(.741 1.256)"/>
        <path d="M26.664 30.258L50.187 7.354 57.635 14.89 35.008 38.155 21.918 44.122zM26.676 29.415L35.312 37.177M32.065 33.091L54.388 11.439" transform="translate(.741 1.256)"/>
    </g>
</svg>
