<svg xmlns="http://www.w3.org/2000/svg" width="69" height="67" viewBox="0 0 69 67">
    <g fill="none" fill-rule="evenodd">
        <path stroke="#E02020" stroke-width="1.426" d="M56.012 12.256v11.167l-19.607 19.09-2.575 7.52H26.3l-9.534 8.796v-8.795H9.741V12.256h46.27zm0 26.574v11.204H45.116L56.011 38.83z"/>
        <circle cx="32.471" cy="12.256" r="1" fill="#E02020"/>
        <path stroke="#E02020" stroke-linecap="square" stroke-width="1.426" d="M15.471 20.835L45.014 20.835M15.476 29.006L23.052 29.006M27.647 29.006L39.533 29.006M15.471 35.543L31.313 35.543M15.471 42.079L31.313 42.079"/>
        <path stroke="#E02020" stroke-width="1.426" d="M36.405 42.514L59.928 19.61 67.376 27.146 44.749 50.411 31.659 56.378zM36.417 41.671L45.053 49.433M41.806 45.348L64.129 23.695"/>
    </g>
</svg>
