<svg xmlns="http://www.w3.org/2000/svg" width="41" height="59" viewBox="0 0 41 59">
    <g fill="none" fill-rule="evenodd" transform="translate(0 2.159)">
        <path stroke="#E02020" stroke-width="1.44" d="M18.178 32.77v-9.448c0-4.536 3.677-8.212 8.212-8.212s8.212 3.676 8.212 8.212v9.449h.775c1.084 0 1.962.878 1.962 1.962s-.878 1.962-1.962 1.962H18.069c-1.083 0-1.962-.878-1.962-1.962s.879-1.962 1.962-1.962h.11zM27.09 17.988c1.858.082 3.323 1.042 4.392 2.878M24.16 15.11v-2.12c0-1.214.984-2.197 2.197-2.197s2.197.983 2.197 2.196v2.12h0"/>
        <path stroke="#E02020" stroke-width="1.44" d="M24.16 36.73l.038.608c.076 1.256 1.116 2.235 2.374 2.235 1.292 0 2.394-.935 2.604-2.21l.11-.668h0"/>
        <path stroke="#E02020" stroke-width="1.44" d="M32.946 12.9V3.6c0-1.988-1.611-3.6-3.6-3.6H3.6C1.612 0 0 1.612 0 3.6v47.483c0 1.988 1.612 3.6 3.6 3.6h25.35c1.989 0 3.6-1.612 3.6-3.6V40.116h0"/>
        <path stroke="#E02020" stroke-linecap="square" stroke-width="1.44" d="M0 47.848L32.214 47.848M0 3.957L32.214 3.957"/>
        <ellipse cx="16.839" cy="51.805" stroke="#E02020" stroke-width="1.44" rx="1.476" ry="1.439"/>
        <path fill="#E02020" d="M4.393 20.866H7.321999999999999V23.744H4.393zM8.786 20.866H11.715V23.744H8.786zM13.179 20.866H16.108V23.744H13.179z"/>
    </g>
</svg>
