<svg xmlns="http://www.w3.org/2000/svg" width="69" height="67" viewBox="0 0 69 67">
    <g fill="none" fill-rule="evenodd" stroke-width="1.62">
        <ellipse cx="46.676" cy="12.665" stroke="#E02020" rx="10.149" ry="10.22"/>
        <path stroke="#E02020" d="M35.038 54.744h-5.814v-13.19c0-9.863 7.995-17.859 17.858-17.859 9.864 0 17.86 7.996 17.86 17.859v13.19h0-3.709"/>
        <g stroke="#E22F22" transform="translate(36.53 42.488)">
            <ellipse cx="10.959" cy="11.03" rx="10.149" ry="10.22"/>
            <g stroke-linecap="round">
                <path d="M4.465.377L4.465 9.428M0 5.107L8.929 5.107" transform="translate(6.494 6.537)"/>
            </g>
        </g>
        <path stroke="#E02020" d="M27.158 54.485H1.18v-11.58c0-8.947 7.253-16.2 16.2-16.2h.035"/>
        <ellipse cx="17.453" cy="16.75" stroke="#E02020" rx="9.337" ry="9.403"/>
        <path stroke="#E02020" d="M17.416 26.705l.092-.003c4.061-.112 7.966 1.526 11.716 4.914"/>
    </g>
</svg>
