<?xml version="1.0" encoding="UTF-8"?>
<svg width="420px" height="52px" viewBox="0 0 420 52" version="1.1" xmlns="http://www.w3.org/2000/svg" xmlns:xlink="http://www.w3.org/1999/xlink">
    <!-- Generator: Sketch 64 (93537) - https://sketch.com -->
    <title>summerpuzzles. copy</title>
    <desc>Created with Sketch.</desc>
    <g id="Page-1" stroke="none" stroke-width="1" fill="none" fill-rule="evenodd">
        <g id="Homepage-summer-variation---D" transform="translate(-1369.000000, -3347.000000)" fill-rule="nonzero">
            <g id="summerpuzzles.-copy" transform="translate(1369.974295, 3347.732320)">
                <path d="M1.5378039,40.7233255 L3.2464749,38.7868317 C4.7842788,39.7550786 8.6572664,40.7233255 10.7646273,40.7233255 C17.2006214,40.7233255 21.4153432,36.7933822 21.4153432,31.6673692 C21.4153432,26.9970018 18.225824,24.8896409 12.1885198,23.351837 C8.2585765,22.3835901 5.9803485,21.4153432 5.9803485,19.0801595 C5.9803485,16.7449758 7.6890195,15.2641276 10.0811589,15.2641276 C13.2137224,15.2641276 15.4349947,17.5993113 18.2827797,21.9279445 L19.8775393,21.9279445 L19.8775393,13.4985009 L18.3966911,13.4985009 L16.9727986,15.2641276 C15.4349947,14.2958807 12.9858996,13.4985009 10.5368045,13.4985009 C4.2716775,13.4985009 0.0569557,16.9727986 0.0569557,22.2696787 C0.0569557,26.4274448 2.4490951,28.3069829 8.4294436,30.0156539 C13.8971908,31.6104135 15.6628175,32.7495275 15.6628175,35.2555783 C15.6628175,37.3629392 14.1819693,38.9007431 11.2772286,38.9007431 C7.8029309,38.9007431 4.6703674,36.3946923 1.5947596,31.2686793 L1.13686838e-13,31.2686793 L1.13686838e-13,40.7233255 L1.5378039,40.7233255 Z M35.5694897,40.7233255 C39.2146545,40.7233255 42.2333066,38.7868317 44.7393574,35.5973125 L44.7393574,40.2676799 L56.1304974,40.2676799 L56.1304974,38.8437874 C52.9409782,38.729876 52.2005541,38.2742304 52.2005541,36.6794708 L52.2005541,13.7832794 L40.638547,14.0680579 L40.638547,15.4919504 C43.7711105,15.6058618 44.625446,16.4601973 44.625446,18.1688683 L44.625446,34.0025529 C43.1445978,35.5973125 41.777661,36.5086037 39.7272558,36.5086037 C36.8225151,36.5086037 35.512534,34.6860213 35.512534,31.2117236 L35.512534,13.7832794 L23.9505269,14.0680579 L23.9505269,15.4349947 C27.2539575,15.5489061 27.9374259,16.4601973 27.9374259,18.1688683 L27.9374259,32.3508376 C27.9374259,37.8185848 30.8421666,40.7233255 35.5694897,40.7233255 Z M72.6767833,40.2676799 L72.6767833,38.8437874 C70.455511,38.7868317 69.9429097,38.2742304 69.9429097,36.7933822 L69.9429097,20.4470963 C71.4807136,18.8523367 72.6767833,17.7701784 74.6702328,17.7701784 C77.5749735,17.7701784 78.8279989,19.5358051 78.8279989,22.9531471 L78.8279989,36.7933822 C78.8279989,38.2742304 78.2584419,38.7868317 75.9802139,38.8437874 L75.9802139,40.2676799 L89.3078477,40.2676799 L89.3078477,38.8437874 C86.972664,38.7868317 86.403107,38.2742304 86.403107,36.7933822 L86.403107,21.8709888 C86.403107,21.5292546 86.3461513,21.2444761 86.2891956,20.7318748 C87.9409109,18.9092924 89.8774047,17.7701784 91.3582529,17.7701784 C94.2060379,17.7701784 95.2881962,19.5358051 95.2881962,22.9531471 L95.2881962,36.7933822 C95.2881962,38.2742304 94.7186392,38.7868317 92.4973669,38.8437874 L92.4973669,40.2676799 L106.736292,40.2676799 L106.736292,38.8437874 C103.489817,38.7868317 102.863304,38.2742304 102.863304,36.7933822 L102.863304,21.9279445 C102.863304,16.5741087 100.585076,13.669368 95.8007975,13.669368 C92.2125884,13.669368 88.681335,16.0615074 86.1183285,19.1371152 C85.4348601,15.6058618 83.1566321,13.669368 79.3406002,13.669368 C75.6384797,13.669368 72.5059162,15.8336846 69.8289983,18.8523367 L69.8289983,13.8402351 L58.4378583,14.3528364 L58.4378583,15.7767289 C61.6843332,15.8336846 62.3678016,16.8588872 62.3678016,18.5675582 L62.3678016,36.7933822 C62.3678016,38.2742304 61.6843332,38.7868317 58.4378583,38.8437874 L58.4378583,40.2676799 L72.6767833,40.2676799 Z M123.054755,40.2676799 L123.054755,38.8437874 C120.833483,38.7868317 120.320881,38.2742304 120.320881,36.7933822 L120.320881,20.4470963 C121.858685,18.8523367 123.054755,17.7701784 125.048205,17.7701784 C127.952945,17.7701784 129.205971,19.5358051 129.205971,22.9531471 L129.205971,36.7933822 C129.205971,38.2742304 128.636414,38.7868317 126.358186,38.8437874 L126.358186,40.2676799 L139.685819,40.2676799 L139.685819,38.8437874 C137.350636,38.7868317 136.781079,38.2742304 136.781079,36.7933822 L136.781079,21.8709888 C136.781079,21.5292546 136.724123,21.2444761 136.667167,20.7318748 C138.318883,18.9092924 140.255376,17.7701784 141.736225,17.7701784 C144.58401,17.7701784 145.666168,19.5358051 145.666168,22.9531471 L145.666168,36.7933822 C145.666168,38.2742304 145.096611,38.7868317 142.875339,38.8437874 L142.875339,40.2676799 L157.114264,40.2676799 L157.114264,38.8437874 C153.867789,38.7868317 153.241276,38.2742304 153.241276,36.7933822 L153.241276,21.9279445 C153.241276,16.5741087 150.963048,13.669368 146.178769,13.669368 C142.59056,13.669368 139.059307,16.0615074 136.4963,19.1371152 C135.812832,15.6058618 133.534604,13.669368 129.718572,13.669368 C126.016451,13.669368 122.883888,15.8336846 120.20697,18.8523367 L120.20697,13.8402351 L108.81583,14.3528364 L108.81583,15.7767289 C112.062305,15.8336846 112.745773,16.8588872 112.745773,18.5675582 L112.745773,36.7933822 C112.745773,38.2742304 112.062305,38.7868317 108.81583,38.8437874 L108.81583,40.2676799 L123.054755,40.2676799 Z M172.977081,40.7802812 C178.615695,40.7802812 182.146949,38.0464076 184.653,34.0595086 L183.513886,33.2051731 C181.349569,36.1668695 178.95743,37.8755405 175.76791,37.8755405 C170.300163,37.8755405 167.509334,33.7747301 167.509334,27.2817803 L167.509334,26.5983119 L184.653,26.5983119 C185.05169,19.1371152 181.007835,13.3845895 172.977081,13.3845895 C165.231106,13.3845895 159.535536,18.795381 159.535536,27.4526474 C159.535536,35.8251353 164.661549,40.7802812 172.977081,40.7802812 Z M167.56629,24.9465966 C167.851068,18.6245139 169.502783,15.1502162 172.578391,15.1502162 C176.109645,15.1502162 177.533537,19.1940709 176.907024,24.8896409 L167.56629,24.9465966 Z M204.616628,40.2676799 L204.616628,38.8437874 C200.458861,38.729876 199.490615,38.2742304 199.490615,36.7933822 L199.490615,20.6179634 C200.74364,18.8523367 202.509267,17.4284442 204.274893,17.3145328 C204.104026,17.8271341 203.990115,18.5106025 203.990115,19.0232038 C203.990115,21.1875204 205.64183,22.8392357 208.204837,22.8392357 C210.596976,22.8392357 212.248691,20.9596976 212.248691,18.3397354 C212.248691,15.7197732 210.54002,13.6124123 207.179634,13.6124123 C204.104026,13.6124123 201.313197,15.8336846 199.376703,18.9092924 L199.376703,13.8402351 L187.985563,14.3528364 L187.985563,15.7767289 C191.232038,15.8336846 191.915506,16.8588872 191.915506,18.5675582 L191.915506,36.7933822 C191.915506,38.2742304 191.232038,38.7868317 187.985563,38.8437874 L187.985563,40.2676799 L204.616628,40.2676799 Z" id="summer" fill="#5271FF"></path>
                <path d="M230.048003,51.0892629 L230.048003,49.6653704 C225.719369,49.551459 224.694167,49.0958134 224.694167,47.6149652 L224.694167,39.2424773 C226.687616,40.1537685 228.738022,40.6663698 231.471895,40.6663698 C239.160915,40.6663698 243.546504,34.3442871 243.546504,26.7122233 C243.546504,18.8523367 239.730472,13.4985009 233.009699,13.4985009 C229.706268,13.4985009 227.143262,15.0932605 224.580255,17.3145328 L224.580255,13.8402351 L213.189115,14.3528364 L213.189115,15.7767289 C216.43559,15.8336846 217.119059,16.8588872 217.119059,18.5675582 L217.119059,47.6149652 C217.119059,49.0958134 216.492546,49.6084147 213.246071,49.6653704 L213.246071,51.0892629 L230.048003,51.0892629 Z M229.991047,38.9007431 C227.769775,38.9007431 225.890237,37.9324962 224.694167,35.0847112 L224.694167,18.8523367 C226.345882,17.5423556 227.883686,16.8019315 229.592357,16.8019315 C233.636212,16.8019315 235.51575,21.073609 235.51575,27.0539575 C235.51575,35.312534 233.351433,38.9007431 229.991047,38.9007431 Z M257.814561,40.7233255 C261.459726,40.7233255 264.478378,38.7868317 266.984429,35.5973125 L266.984429,40.2676799 L278.375569,40.2676799 L278.375569,38.8437874 C275.18605,38.729876 274.445626,38.2742304 274.445626,36.6794708 L274.445626,13.7832794 L262.883619,14.0680579 L262.883619,15.4919504 C266.016182,15.6058618 266.870518,16.4601973 266.870518,18.1688683 L266.870518,34.0025529 C265.38967,35.5973125 264.022733,36.5086037 261.972328,36.5086037 C259.067587,36.5086037 257.757606,34.6860213 257.757606,31.2117236 L257.757606,13.7832794 L246.195599,14.0680579 L246.195599,15.4349947 C249.499029,15.5489061 250.182498,16.4601973 250.182498,18.1688683 L250.182498,32.3508376 C250.182498,37.8185848 253.087238,40.7233255 257.814561,40.7233255 Z M304.718235,40.2676799 L305.344748,30.0156539 L303.693033,29.9017425 C300.731336,35.7112239 298.908754,38.2742304 294.580121,38.2742304 L289.454108,38.2742304 L305.743438,15.378039 L305.629527,13.9541465 L282.67638,13.9541465 L282.106823,23.6935712 L283.701582,23.8074826 C286.606323,17.9980012 288.428905,15.8906403 292.47276,15.8906403 L297.257039,15.8906403 L280.967709,38.7868317 L281.08162,40.2676799 L304.718235,40.2676799 Z M332.769573,40.2676799 L333.396085,30.0156539 L331.74437,29.9017425 C328.782674,35.7112239 326.960091,38.2742304 322.631458,38.2742304 L317.505445,38.2742304 L333.794775,15.378039 L333.680864,13.9541465 L310.727717,13.9541465 L310.15816,23.6935712 L311.752919,23.8074826 C314.65766,17.9980012 316.480243,15.8906403 320.524097,15.8906403 L325.308376,15.8906403 L309.019046,38.7868317 L309.132957,40.2676799 L332.769573,40.2676799 Z M351.935821,40.2676799 L351.935821,38.8437874 C348.63239,38.7868317 348.005878,38.2742304 348.005878,36.7933822 L348.005878,0 L336.216048,0.569557 L336.216048,1.9934495 C339.747301,2.0504052 340.430769,3.0186521 340.430769,4.7842788 L340.430769,36.7933822 C340.430769,38.2742304 339.747301,38.7868317 336.500826,38.8437874 L336.500826,40.2676799 L351.935821,40.2676799 Z M368.254284,40.7802812 C373.892898,40.7802812 377.424152,38.0464076 379.930202,34.0595086 L378.791088,33.2051731 C376.626772,36.1668695 374.234632,37.8755405 371.045113,37.8755405 C365.577366,37.8755405 362.786537,33.7747301 362.786537,27.2817803 L362.786537,26.5983119 L379.930202,26.5983119 C380.328892,19.1371152 376.285038,13.3845895 368.254284,13.3845895 C360.508309,13.3845895 354.812739,18.795381 354.812739,27.4526474 C354.812739,35.8251353 359.938752,40.7802812 368.254284,40.7802812 Z M362.843492,24.9465966 C363.128271,18.6245139 364.779986,15.1502162 367.855594,15.1502162 C371.386847,15.1502162 372.81074,19.1940709 372.184227,24.8896409 L362.843492,24.9465966 Z M385.768817,40.7233255 L387.477488,38.7868317 C389.015292,39.7550786 392.888279,40.7233255 394.99564,40.7233255 C401.431634,40.7233255 405.646356,36.7933822 405.646356,31.6673692 C405.646356,26.9970018 402.456837,24.8896409 396.419533,23.351837 C392.489589,22.3835901 390.211361,21.4153432 390.211361,19.0801595 C390.211361,16.7449758 391.920032,15.2641276 394.312172,15.2641276 C397.444735,15.2641276 399.666008,17.5993113 402.513793,21.9279445 L404.108552,21.9279445 L404.108552,13.4985009 L402.627704,13.4985009 L401.203811,15.2641276 C399.666008,14.2958807 397.216912,13.4985009 394.767817,13.4985009 C388.50269,13.4985009 384.287969,16.9727986 384.287969,22.2696787 C384.287969,26.4274448 386.680108,28.3069829 392.660456,30.0156539 C398.128204,31.6104135 399.89383,32.7495275 399.89383,35.2555783 C399.89383,37.3629392 398.412982,38.9007431 395.508241,38.9007431 C392.033944,38.9007431 388.90138,36.3946923 385.825772,31.2686793 L384.231013,31.2686793 L384.231013,40.7233255 L385.768817,40.7233255 Z M413.421464,41.1789711 C415.984471,41.1789711 418.148787,39.1855216 418.148787,36.6794708 C418.148787,34.17342 416.098382,32.1799705 413.47842,32.1799705 C410.915413,32.1799705 408.751097,34.17342 408.751097,36.6794708 C408.751097,39.1855216 410.801502,41.1789711 413.421464,41.1789711 Z" id="puzzles." fill="#000000"></path>
            </g>
        </g>
    </g>
</svg>