<?xml version="1.0" encoding="UTF-8"?>
<svg width="285px" height="32px" viewBox="0 0 285 32" version="1.1" xmlns="http://www.w3.org/2000/svg" xmlns:xlink="http://www.w3.org/1999/xlink">
    <!-- Generator: sketchtool 56.3 (101010) - https://sketch.com -->
    <title>EFD60A97-353A-417C-B782-33BE50B60FE4</title>
    <desc>Created with sketchtool.</desc>
    <g id="Newsroom" stroke="none" stroke-width="1" fill="none" fill-rule="evenodd">
        <g id="01-Homepage--v-XL" transform="translate(-1219.000000, -2793.000000)" fill-rule="nonzero">
            <g id="newsroompuzzles." transform="translate(1219.850000, 2793.962000)">
                <path d="M1.93267624e-12,24.038 L1.93267624e-12,23.188 C1.938,23.154 2.346,22.848 2.346,21.964 L2.346,11.084 C2.346,10.064 1.938,9.452 1.93267624e-12,9.418 L1.93267624e-12,8.568 L6.8,8.262 L6.8,11.254 C8.398,9.452 10.54,8.16 12.75,8.16 C15.572,8.16 16.898,9.894 16.898,13.09 L16.898,21.964 C16.898,22.848 17.272,23.154 19.244,23.188 L19.244,24.038 L10.506,24.038 L10.506,23.188 C11.866,23.154 12.376,22.848 12.376,21.964 L12.376,13.702 C12.376,11.628 11.696,10.608 9.996,10.608 C8.772,10.608 7.786,11.254 6.868,12.206 L6.868,21.964 C6.868,22.848 7.378,23.154 8.704,23.188 L8.704,24.038 L1.93267624e-12,24.038 Z M28.594,24.344 C23.63,24.344 20.57,21.386 20.57,16.388 C20.57,11.22 23.97,7.99 28.594,7.99 C33.388,7.99 35.802,11.424 35.564,15.878 L25.33,15.878 L25.33,16.286 C25.33,20.162 26.996,22.61 30.26,22.61 C32.164,22.61 33.592,21.59 34.884,19.822 L35.564,20.332 C34.068,22.712 31.96,24.344 28.594,24.344 Z M28.356,9.044 C26.52,9.044 25.534,11.118 25.364,14.892 L30.94,14.858 C31.314,11.458 30.464,9.044 28.356,9.044 Z M49.64,13.124 L49.028,11.322 C48.45,9.724 47.94,9.316 46.614,9.146 L46.614,8.33 L55.08,8.33 L55.08,9.146 C53.72,9.282 53.176,9.52 53.176,10.2 C53.176,10.404 53.244,10.642 53.312,10.948 L56.202,19.788 L56.372,19.788 L58.82,12.58 C59.092,11.764 59.194,11.152 59.194,10.812 C59.194,9.826 58.548,9.384 57.018,9.146 L57.018,8.33 L63.546,8.33 L63.546,9.146 C62.016,9.35 61.064,10.166 60.52,11.764 L56.168,24.242 L53.448,24.242 L50.252,14.96 L46.546,24.242 L43.86,24.242 L38.964,11.322 C38.386,9.826 37.876,9.384 36.312,9.146 L36.312,8.33 L44.948,8.33 L44.948,9.146 C43.758,9.248 43.248,9.52 43.248,10.132 C43.248,10.336 43.35,10.642 43.452,10.948 L46.716,19.89 L46.886,19.89 L49.64,13.124 Z M64.498,24.31 L64.498,18.666 L65.45,18.666 C67.286,21.726 69.156,23.222 71.23,23.222 C72.964,23.222 73.848,22.304 73.848,21.046 C73.848,19.55 72.794,18.87 69.53,17.918 C65.96,16.898 64.532,15.776 64.532,13.294 C64.532,10.132 67.048,8.058 70.788,8.058 C72.25,8.058 73.712,8.534 74.63,9.112 L75.48,8.058 L76.364,8.058 L76.364,13.09 L75.412,13.09 C73.712,10.506 72.386,9.112 70.516,9.112 C69.088,9.112 68.068,9.996 68.068,11.39 C68.068,12.784 69.428,13.362 71.774,13.94 C75.378,14.858 77.282,16.116 77.282,18.904 C77.282,21.964 74.766,24.31 70.924,24.31 C69.666,24.31 67.354,23.732 66.436,23.154 L65.416,24.31 L64.498,24.31 Z M79.118,24.038 L79.118,23.188 C81.056,23.154 81.464,22.848 81.464,21.964 L81.464,11.084 C81.464,10.064 81.056,9.452 79.118,9.418 L79.118,8.568 L85.918,8.262 L85.918,11.288 C87.074,9.452 88.74,8.126 90.576,8.126 C92.582,8.126 93.602,9.384 93.602,10.948 C93.602,12.512 92.616,13.634 91.188,13.634 C89.658,13.634 88.672,12.648 88.672,11.356 C88.672,11.05 88.74,10.642 88.842,10.336 C87.788,10.404 86.734,11.254 85.986,12.308 L85.986,21.964 C85.986,22.848 86.564,23.12 89.046,23.188 L89.046,24.038 L79.118,24.038 Z M103.02,24.344 C97.852,24.344 94.792,21.25 94.792,16.218 C94.792,11.22 98.056,7.99 103.02,7.99 C108.086,7.99 111.214,11.084 111.214,16.082 C111.214,21.114 107.916,24.344 103.02,24.344 Z M103.156,23.29 C105.502,23.29 106.352,20.944 106.352,16.15 C106.352,11.356 105.264,9.044 102.85,9.044 C100.436,9.044 99.62,11.356 99.62,16.15 C99.62,20.944 100.708,23.29 103.156,23.29 Z M121.516,24.344 C116.348,24.344 113.288,21.25 113.288,16.218 C113.288,11.22 116.552,7.99 121.516,7.99 C126.582,7.99 129.71,11.084 129.71,16.082 C129.71,21.114 126.412,24.344 121.516,24.344 Z M121.652,23.29 C123.998,23.29 124.848,20.944 124.848,16.15 C124.848,11.356 123.76,9.044 121.346,9.044 C118.932,9.044 118.116,11.356 118.116,16.15 C118.116,20.944 119.204,23.29 121.652,23.29 Z M142.052,24.038 L142.052,23.188 C143.412,23.154 143.752,22.848 143.752,21.964 L143.752,13.702 C143.752,11.662 143.004,10.608 141.27,10.608 C140.08,10.608 139.366,11.254 138.448,12.206 L138.448,21.964 C138.448,22.848 138.754,23.154 140.08,23.188 L140.08,24.038 L131.58,24.038 L131.58,23.188 C133.518,23.154 133.926,22.848 133.926,21.964 L133.926,11.084 C133.926,10.064 133.518,9.452 131.58,9.418 L131.58,8.568 L138.38,8.262 L138.38,11.254 C139.978,9.452 141.848,8.16 144.058,8.16 C146.336,8.16 147.696,9.316 148.104,11.424 C149.634,9.588 151.742,8.16 153.884,8.16 C156.74,8.16 158.1,9.894 158.1,13.09 L158.1,21.964 C158.1,22.848 158.474,23.154 160.412,23.188 L160.412,24.038 L151.912,24.038 L151.912,23.188 C153.238,23.154 153.578,22.848 153.578,21.964 L153.578,13.702 C153.578,11.662 152.932,10.608 151.232,10.608 C150.348,10.608 149.192,11.288 148.206,12.376 C148.24,12.682 148.274,12.852 148.274,13.056 L148.274,21.964 C148.274,22.848 148.614,23.154 150.008,23.188 L150.008,24.038 L142.052,24.038 Z" id="newsroom" fill="#5171FF"></path>
                <path d="M161.024,30.498 L161.024,29.648 C162.962,29.614 163.336,29.308 163.336,28.424 L163.336,11.084 C163.336,10.064 162.928,9.452 160.99,9.418 L160.99,8.568 L167.79,8.262 L167.79,10.336 C169.32,9.01 170.85,8.058 172.822,8.058 C176.834,8.058 179.112,11.254 179.112,15.946 C179.112,20.502 176.494,24.276 171.904,24.276 C170.272,24.276 169.048,23.97 167.858,23.426 L167.858,28.424 C167.858,29.308 168.47,29.58 171.054,29.648 L171.054,30.498 L161.024,30.498 Z M171.02,23.222 C173.026,23.222 174.318,21.08 174.318,16.15 C174.318,12.58 173.196,10.03 170.782,10.03 C169.762,10.03 168.844,10.472 167.858,11.254 L167.858,20.944 C168.572,22.644 169.694,23.222 171.02,23.222 Z M187.51,24.31 C184.688,24.31 182.954,22.576 182.954,19.312 L182.954,10.846 C182.954,9.826 182.546,9.282 180.574,9.214 L180.574,8.398 L187.476,8.228 L187.476,18.632 C187.476,20.706 188.258,21.794 189.992,21.794 C191.216,21.794 192.032,21.25 192.916,20.298 L192.916,10.846 C192.916,9.826 192.406,9.316 190.536,9.248 L190.536,8.398 L197.438,8.228 L197.438,21.896 C197.438,22.848 197.88,23.12 199.784,23.188 L199.784,24.038 L192.984,24.038 L192.984,21.25 C191.488,23.154 189.686,24.31 187.51,24.31 Z M201.28,24.038 L201.212,23.154 L210.936,9.486 L208.08,9.486 C205.666,9.486 204.578,10.744 202.844,14.212 L201.892,14.144 L202.232,8.33 L215.934,8.33 L216.002,9.18 L206.278,22.848 L209.338,22.848 C211.922,22.848 213.01,21.318 214.778,17.85 L215.764,17.918 L215.39,24.038 L201.28,24.038 Z M217.906,24.038 L217.838,23.154 L227.562,9.486 L224.706,9.486 C222.292,9.486 221.204,10.744 219.47,14.212 L218.518,14.144 L218.858,8.33 L232.56,8.33 L232.628,9.18 L222.904,22.848 L225.964,22.848 C228.548,22.848 229.636,21.318 231.404,17.85 L232.39,17.918 L232.016,24.038 L217.906,24.038 Z M234.124,24.038 L234.124,23.188 C236.062,23.154 236.47,22.848 236.47,21.964 L236.47,2.856 C236.47,1.802 236.062,1.224 233.954,1.19 L233.954,0.34 L240.992,2.27373675e-13 L240.992,21.964 C240.992,22.848 241.366,23.154 243.338,23.188 L243.338,24.038 L234.124,24.038 Z M252.96,24.344 C247.996,24.344 244.936,21.386 244.936,16.388 C244.936,11.22 248.336,7.99 252.96,7.99 C257.754,7.99 260.168,11.424 259.93,15.878 L249.696,15.878 L249.696,16.286 C249.696,20.162 251.362,22.61 254.626,22.61 C256.53,22.61 257.958,21.59 259.25,19.822 L259.93,20.332 C258.434,22.712 256.326,24.344 252.96,24.344 Z M252.722,9.044 C250.886,9.044 249.9,11.118 249.73,14.892 L255.306,14.858 C255.68,11.458 254.83,9.044 252.722,9.044 Z M262.378,24.31 L262.378,18.666 L263.33,18.666 C265.166,21.726 267.036,23.222 269.11,23.222 C270.844,23.222 271.728,22.304 271.728,21.046 C271.728,19.55 270.674,18.87 267.41,17.918 C263.84,16.898 262.412,15.776 262.412,13.294 C262.412,10.132 264.928,8.058 268.668,8.058 C270.13,8.058 271.592,8.534 272.51,9.112 L273.36,8.058 L274.244,8.058 L274.244,13.09 L273.292,13.09 C271.592,10.506 270.266,9.112 268.396,9.112 C266.968,9.112 265.948,9.996 265.948,11.39 C265.948,12.784 267.308,13.362 269.654,13.94 C273.258,14.858 275.162,16.116 275.162,18.904 C275.162,21.964 272.646,24.31 268.804,24.31 C267.546,24.31 265.234,23.732 264.316,23.154 L263.296,24.31 L262.378,24.31 Z M280.534,24.582 C278.97,24.582 277.746,23.392 277.746,21.896 C277.746,20.4 279.038,19.21 280.568,19.21 C282.132,19.21 283.356,20.4 283.356,21.896 C283.356,23.392 282.064,24.582 280.534,24.582 Z" id="puzzles." fill="#000000"></path>
            </g>
        </g>
    </g>
</svg>