<svg xmlns="http://www.w3.org/2000/svg" width="140" height="22" viewBox="0 0 140 22">
    <g fill="none" fill-rule="nonzero">
        <g fill="#000">
            <path d="M98.489 16.608c-1.65 0-2.383-1.582-2.383-4.813 0-3.23.55-4.79 2.177-4.79s2.36 1.558 2.36 4.79c0 3.233-.573 4.813-2.154 4.813m-.09-10.312c-3.345 0-5.547 2.177-5.547 5.546 0 3.392 2.063 5.477 5.547 5.477 3.3 0 5.522-2.177 5.522-5.569 0-3.369-2.108-5.454-5.522-5.454M110.613 16.608c-1.65 0-2.383-1.582-2.383-4.813 0-3.23.55-4.79 2.177-4.79s2.36 1.558 2.36 4.79c0 3.233-.573 4.813-2.154 4.813m-.092-10.312c-3.345 0-5.546 2.177-5.546 5.546 0 3.392 2.063 5.477 5.546 5.477 3.3 0 5.522-2.177 5.522-5.569 0-3.369-2.108-5.454-5.522-5.454M123.483 16.539c.917-.023 1.146-.229 1.146-.826v-5.567c0-1.376-.504-2.085-1.673-2.085-.803 0-1.284.436-1.902 1.076v6.578c0 .595.206.801 1.1.825v.573h-5.73v-.573c1.307-.022 1.582-.228 1.582-.825V8.38c0-.687-.275-1.1-1.581-1.123v-.573l4.584-.206v2.016c1.076-1.215 2.338-2.085 3.826-2.085 1.535 0 2.452.779 2.727 2.2 1.032-1.238 2.452-2.2 3.896-2.2 1.924 0 2.841 1.168 2.841 3.323v5.98c0 .596.253.802 1.558.826v.573h-5.73v-.573c.893-.023 1.123-.229 1.123-.826v-5.567c0-1.376-.436-2.085-1.582-2.085-.595 0-1.375.458-2.04 1.192.023.206.047.32.047.459v6.003c0 .595.228.801 1.168.825v.573h-5.363v-.574h.003zM90.688 6.387c-1.237 0-2.36.893-3.139 2.132V6.48l-4.584.206v.573c1.306.022 1.582.436 1.582 1.123v7.334c0 .595-.276.801-1.582.825v.573h6.692v-.573c-1.674-.045-2.063-.228-2.063-.825V9.206c.428-.603 1.004-1.105 1.603-1.272-.013.088-.021.177-.021.27 0 .998.769 1.805 1.718 1.805.95 0 1.719-.807 1.719-1.805.001-.864-.568-1.817-1.925-1.817M139.641 15.69c.01.503-.222.88-.598 1.15-.546.392-1.141.408-1.719.078a1.394 1.394 0 0 1-.428-2.038c.517-.71 1.543-.803 2.17-.33.37.283.588.665.575 1.14"/>
        </g>
        <g fill="#F58131">
            <path d="M.84 16.518c1.33-.023 1.608-.233 1.608-.838V8.222c0-.699-.28-1.119-1.608-1.143v-.582l4.662-.21v2.075c.791-1.259 1.934-2.168 3.192-2.168 1.376 0 2.074.863 2.074 1.934 0 1.072-.676 1.841-1.654 1.841-1.05 0-1.725-.676-1.725-1.56 0-.21.047-.49.116-.699-.722.047-1.445.63-1.958 1.352v6.618c0 .606.396.791 2.098.838v.582H.84v-.582zM11.606 11.858c0-3.543 2.33-5.755 5.5-5.755 3.286 0 4.941 2.354 4.777 5.406h-7.015v.28c0 2.656 1.142 4.335 3.379 4.335 1.305 0 2.283-.7 3.17-1.912l.466.35c-1.025 1.63-2.47 2.75-4.777 2.75-3.403 0-5.5-2.028-5.5-5.454zm3.286-1.026l3.821-.023c.256-2.33-.326-3.986-1.771-3.986-1.258 0-1.934 1.423-2.05 4.009zM23.35 14.515c0-.91.49-1.912 1.468-2.448 1.678-.909 4.335-.909 5.104-1.189v-1.56c0-1.748-.56-2.401-1.794-2.401-.56 0-1.072.162-1.398.42.28.349.466.745.466 1.235 0 .956-.606 1.608-1.678 1.608-1.002 0-1.632-.676-1.632-1.585 0-1.398 1.701-2.377 4.871-2.377 2.866 0 4.241 1.19 4.241 3.775v4.87c0 1.143.327 1.422 1.654 1.026l.187.466c-.862.56-1.607.885-2.54.885-1.468 0-1.935-.536-2.215-1.678h-.093c-.885.956-2.027 1.7-3.472 1.7-2.213.002-3.168-1.396-3.168-2.747zm6.573.302v-3.263c-2.563.396-3.285.956-3.285 2.47 0 1.071.56 1.794 1.585 1.794.698.002 1.327-.465 1.7-1zM35.446 11.927c0-3.123 1.958-5.78 5.406-5.78 1.025 0 1.632.163 2.283.443V2.582c0-.722-.256-1.118-1.725-1.142V.857l4.824-.233v14.891c0 .63.303 1.05 1.632 1.05v.513l-4.684.14v-1.376c-.745.862-1.748 1.445-3.077 1.445-2.936 0-4.66-2.26-4.66-5.36zm7.69 3.263V8.035c-.397-.653-1.072-1.142-2.006-1.142-1.467 0-2.4 1.747-2.4 4.754 0 2.423.978 4.264 2.656 4.264.793.002 1.284-.278 1.75-.72zM48.588 16.518c1.33-.023 1.678-.233 1.678-.838V8.222c0-.699-.349-1.119-1.678-1.143v-.582l4.777-.21v9.393c0 .606.256.815 1.608.838v.582h-6.386v-.582h.001zm1.33-13.89c0-1.142.744-1.887 1.84-1.887 1.118 0 1.84.7 1.84 1.819 0 1.142-.722 1.887-1.84 1.887-1.096 0-1.84-.676-1.84-1.818zM55.975 16.518c1.33-.023 1.608-.233 1.608-.838V8.222c0-.699-.28-1.119-1.608-1.143v-.582l4.662-.21V8.34c1.095-1.236 2.563-2.12 4.078-2.12 1.934 0 2.844 1.189 2.844 3.378v6.083c0 .606.255.815 1.607.838v.582h-5.989v-.582c.932-.023 1.283-.233 1.283-.838v-5.664c0-1.421-.467-2.12-1.632-2.12-.838 0-1.514.442-2.143 1.095v6.689c0 .606.349.815 1.258.838v.582h-5.966v-.582h-.002zM77.205 6.568c.535-1.143 1.305-2.099 2.54-2.099.932 0 1.445.56 1.445 1.283 0 .629-.42 1.165-1.142 1.165-.56 0-1.119-.443-1.119-1.258-.466.162-.909.629-1.164 1.142 1.164.582 1.958 1.56 1.958 2.959 0 2.26-2.028 3.659-4.684 3.659-.467 0-.932-.047-1.374-.116-.91.302-1.33.607-1.33 1.05 0 .466.467.768 2.33.768h1.701c2.937 0 4.288.91 4.288 2.867 0 2.028-2.283 3.846-6.013 3.846-2.89 0-4.917-.978-4.917-2.354 0-1.002.839-1.772 2.68-2.051v-.07c-1.444-.466-1.957-1.235-1.957-2.12 0-.839.769-1.654 2.283-2.19-1.422-.536-2.377-1.585-2.377-3.193 0-2.236 2.028-3.634 4.684-3.634a6.373 6.373 0 0 1 2.168.346zm1.398 12.444c0-.863-.63-1.352-3.123-1.352h-2.448c-.838.327-1.304.792-1.304 1.538 0 1.19 1.189 1.959 3.518 1.959 2.005-.002 3.357-.84 3.357-2.145zm-1.888-9.205c0-1.841-.535-2.937-1.794-2.937-1.189 0-1.56.863-1.56 2.937 0 2.051.56 2.936 1.771 2.936 1.188 0 1.583-.885 1.583-2.936z"/>
        </g>
    </g>
</svg>
