<svg xmlns="http://www.w3.org/2000/svg" xmlns:xlink="http://www.w3.org/1999/xlink" width="252" height="26" viewBox="0 0 252 26">
    <defs>
        <path id="prefix__a" d="M0.104 0.326L14.599 0.326 14.599 19.77 0.104 19.77z"/>
        <path id="prefix__c" d="M0.178 0.33L15.109 0.33 15.109 18.416 0.178 18.416z"/>
    </defs>
    <g fill="none" fill-rule="evenodd">
        <path fill="#231F20" d="M113.843 6.944c-3.904 0-6.472 2.54-6.472 6.472 0 3.958 2.407 6.39 6.472 6.39 3.85 0 6.445-2.54 6.445-6.497 0-3.931-2.46-6.365-6.445-6.365m.107 12.034c-1.926 0-2.781-1.845-2.781-5.616 0-3.77.641-5.589 2.54-5.589s2.755 1.819 2.755 5.59c0 3.77-.669 5.615-2.514 5.615M127.99 6.944c-3.905 0-6.472 2.54-6.472 6.472 0 3.958 2.407 6.39 6.472 6.39 3.85 0 6.444-2.54 6.444-6.497 0-3.931-2.46-6.365-6.444-6.365m.107 12.034c-1.926 0-2.782-1.845-2.782-5.616 0-3.77.642-5.589 2.541-5.589 1.898 0 2.754 1.819 2.754 5.59 0 3.77-.668 5.615-2.513 5.615M143.116 18.898c1.07-.027 1.337-.267 1.337-.963v-6.498c0-1.605-.589-2.433-1.952-2.433-.936 0-1.498.508-2.22 1.256v7.675c0 .696.24.936 1.284.963v.668h-6.686v-.668c1.525-.027 1.846-.267 1.846-.963V9.378c0-.803-.321-1.283-1.846-1.31v-.67l5.349-.24v2.354c1.257-1.417 2.727-2.434 4.466-2.434 1.792 0 2.861.91 3.182 2.567 1.203-1.443 2.861-2.567 4.546-2.567 2.246 0 3.316 1.364 3.316 3.877v6.98c0 .696.294.936 1.818.963v.668h-6.685v-.668c1.043-.027 1.31-.267 1.31-.963v-6.498c0-1.605-.508-2.433-1.845-2.433-.695 0-1.604.534-2.38 1.39.026.24.054.374.054.535v7.006c0 .696.267.936 1.363.963v.668h-6.257v-.668zM104.847 7.051c-1.444 0-2.755 1.044-3.664 2.487v-2.38l-5.348.24v.67c1.524.027 1.845.507 1.845 1.31v8.557c0 .696-.321.936-1.845.963v.668h7.808v-.668c-1.952-.054-2.407-.267-2.407-.963V10.34c.5-.703 1.173-1.29 1.871-1.484-.014.103-.024.207-.024.314 0 1.164.898 2.108 2.005 2.108 1.107 0 2.005-.944 2.005-2.108 0-1.007-.664-2.119-2.246-2.119M161.971 17.906c.012.587-.259 1.026-.699 1.343-.635.458-1.332.477-2.005.092-.778-.445-1.12-1.527-.5-2.379.603-.828 1.801-.936 2.53-.384.433.328.69.775.674 1.328"/>
        <path fill="#F58131" d="M0 18.873c1.55-.027 1.877-.272 1.877-.979V9.192c0-.816-.327-1.306-1.877-1.333v-.68l5.44-.245v2.42c.924-1.468 2.257-2.529 3.725-2.529 1.605 0 2.42 1.007 2.42 2.258 0 1.25-.788 2.148-1.93 2.148-1.224 0-2.013-.788-2.013-1.822 0-.245.055-.571.136-.816-.843.055-1.686.734-2.284 1.577v7.724c0 .707.462.925 2.447.98v.68H0v-.68zM16.398 12.237l4.46-.027c.3-2.72-.38-4.65-2.067-4.65-1.469 0-2.257 1.659-2.393 4.677m-3.835 1.197c0-4.133 2.72-6.717 6.419-6.717 3.834 0 5.765 2.746 5.575 6.31H16.37v.325c0 3.1 1.333 5.059 3.944 5.059 1.523 0 2.665-.816 3.698-2.23l.545.408c-1.197 1.903-2.883 3.209-5.575 3.209-3.971 0-6.419-2.366-6.419-6.364M33.938 16.888V13.08c-2.992.463-3.835 1.116-3.835 2.883 0 1.252.653 2.094 1.85 2.094.816 0 1.55-.543 1.985-1.169m-7.67-.354c0-1.06.572-2.23 1.714-2.855 1.958-1.06 5.058-1.06 5.956-1.387V10.47c0-2.04-.653-2.802-2.094-2.802-.653 0-1.251.19-1.632.49.326.408.544.87.544 1.441 0 1.116-.707 1.877-1.958 1.877-1.17 0-1.904-.789-1.904-1.85 0-1.631 1.985-2.774 5.684-2.774 3.345 0 4.95 1.387 4.95 4.406v5.684c0 1.333.38 1.66 1.93 1.197l.218.544c-1.006.652-1.876 1.033-2.964 1.033-1.713 0-2.257-.625-2.584-1.958h-.108c-1.034 1.115-2.367 1.986-4.053 1.986-2.584 0-3.698-1.632-3.698-3.21"/>
        <g transform="translate(40.278)">
            <mask id="prefix__b" fill="#fff">
                <use xlink:href="#prefix__a"/>
            </mask>
            <path fill="#F58131" d="M9.078 17.323v-8.35c-.462-.76-1.25-1.332-2.338-1.332-1.713 0-2.802 2.04-2.802 5.548 0 2.829 1.143 4.977 3.101 4.977.925 0 1.496-.326 2.04-.843M.103 13.515c0-3.644 2.284-6.744 6.31-6.744 1.196 0 1.903.19 2.664.516V2.61c0-.843-.298-1.306-2.012-1.333v-.68l5.63-.272v17.379c0 .734.353 1.224 1.903 1.224v.598l-5.466.163v-1.604c-.87 1.006-2.04 1.685-3.59 1.685-3.427 0-5.44-2.637-5.44-6.255" mask="url(#prefix__b)"/>
        </g>
        <path fill="#F58131" d="M57.269 2.664c0-1.332.87-2.203 2.148-2.203 1.306 0 2.149.816 2.149 2.122 0 1.333-.843 2.203-2.149 2.203-1.278 0-2.148-.789-2.148-2.122zm-1.55 16.21c1.55-.028 1.958-.273 1.958-.98V9.192c0-.816-.408-1.306-1.959-1.333v-.68l5.576-.245v10.96c0 .707.3.952 1.876.98v.68h-7.452v-.68zM64.338 18.873c1.55-.027 1.877-.272 1.877-.979V9.192c0-.816-.326-1.306-1.877-1.333v-.68l5.44-.245v2.393c1.278-1.441 2.991-2.474 4.759-2.474 2.257 0 3.318 1.387 3.318 3.943v7.098c0 .707.3.952 1.876.98v.68h-6.989v-.68c1.088-.028 1.496-.273 1.496-.98v-6.609c0-1.658-.544-2.474-1.904-2.474-.979 0-1.768.516-2.502 1.278v7.805c0 .707.408.952 1.469.98v.68h-6.963v-.68zM88.542 11.04c0-2.148-.626-3.426-2.095-3.426-1.387 0-1.822 1.006-1.822 3.427 0 2.393.653 3.427 2.067 3.427 1.387 0 1.85-1.034 1.85-3.427m2.202 10.743c0-1.007-.734-1.578-3.644-1.578h-2.856c-.979.38-1.523.924-1.523 1.795 0 1.387 1.387 2.284 4.107 2.284 2.339 0 3.916-.979 3.916-2.501M89.113 7.26c.625-1.332 1.523-2.447 2.964-2.447 1.088 0 1.686.653 1.686 1.495 0 .735-.49 1.36-1.332 1.36-.653 0-1.306-.516-1.306-1.468-.544.19-1.06.734-1.36 1.333 1.36.68 2.285 1.822 2.285 3.453 0 2.638-2.366 4.27-5.467 4.27-.543 0-1.088-.054-1.604-.136-1.061.354-1.55.707-1.55 1.224 0 .544.544.898 2.719.898h1.986c3.426 0 5.003 1.06 5.003 3.345 0 2.366-2.665 4.487-7.016 4.487-3.372 0-5.739-1.142-5.739-2.747 0-1.17.98-2.066 3.128-2.393v-.082c-1.686-.544-2.284-1.441-2.284-2.474 0-.98.897-1.931 2.665-2.557-1.659-.626-2.774-1.85-2.774-3.726 0-2.61 2.366-4.242 5.466-4.242.898 0 1.768.136 2.53.407"/>
        <path fill="#000" d="M175.968 9.408c-.462-1.278-.87-1.605-1.931-1.74v-.653h6.772v.652c-1.088.11-1.523.3-1.523.843 0 .164.054.354.108.599l2.312 7.07h.136l1.958-5.765c.218-.653.3-1.142.3-1.414 0-.788-.517-1.142-1.741-1.333v-.652h5.221v.652c-1.223.164-1.985.816-2.42 2.094l-3.48 9.982h-2.177l-2.556-7.425-2.964 7.425h-2.149l-3.916-10.335c-.463-1.196-.871-1.55-2.122-1.74v-.653h6.908v.652c-.952.082-1.36.3-1.36.789 0 .163.082.408.163.653l2.612 7.152h.135l2.203-5.412-.49-1.441zM191.304 12.263l4.46-.027c.3-2.72-.38-4.65-2.066-4.65-1.47 0-2.258 1.659-2.394 4.677m-3.834 1.197c0-4.133 2.72-6.717 6.418-6.717 3.835 0 5.765 2.746 5.575 6.31h-8.186v.325c0 3.1 1.332 5.059 3.944 5.059 1.523 0 2.665-.816 3.698-2.23l.544.408c-1.197 1.904-2.883 3.209-5.575 3.209-3.97 0-6.418-2.366-6.418-6.364M204.792 12.263l4.46-.027c.3-2.72-.38-4.65-2.066-4.65-1.469 0-2.258 1.659-2.394 4.677m-3.834 1.197c0-4.133 2.72-6.717 6.418-6.717 3.835 0 5.765 2.746 5.575 6.31h-8.186v.325c0 3.1 1.333 5.059 3.944 5.059 1.523 0 2.665-.816 3.698-2.23l.544.408c-1.197 1.904-2.883 3.209-5.575 3.209-3.97 0-6.418-2.366-6.418-6.364M219.532 17.948c0 .68.407.952 1.332.978v.653h-6.826v-.68c1.55-.027 1.876-.271 1.876-.979V2.636c0-.843-.299-1.305-2.012-1.332v-.68l5.63-.272v13.135l3.562-3.644c1.034-1.088.762-1.822-.952-2.175v-.653h6.255v.653c-1.659.271-2.529.87-3.97 2.284l-1.387 1.305 4.024 6.092c.816 1.224 1.116 1.442 2.285 1.55v.68h-6.907v-.653c1.196-.081 1.414-.435.815-1.386l-2.556-3.998-1.17 1.142v3.264zM229.375 18.9c1.55-.028 1.876-.273 1.876-.98V2.636c0-.843-.326-1.305-2.012-1.333v-.68l5.63-.272v17.57c0 .706.298.951 1.876.979v.68h-7.37v-.68z"/>
        <g transform="translate(236.511 6.684)">
            <mask id="prefix__d" fill="#fff">
                <use xlink:href="#prefix__c"/>
            </mask>
            <path fill="#000" d="M2.436 2.724C1.865 1.527 1.456 1.2.178.983V.33h7.398v.653c-1.523.136-1.795.57-1.442 1.414l2.91 6.881 2.312-5.63c.707-1.713.326-2.393-1.523-2.665V.33h5.277v.653c-.952.109-1.741.68-2.34 2.04L8.011 14.119c-1.414 3.318-2.828 4.297-4.433 4.297S.994 17.546.994 16.24c0-.924.68-1.876 1.85-1.876 1.088 0 1.768.843 1.768 1.821 0 .436-.164.844-.381 1.061 1.006-.136 1.795-.952 2.964-3.807l.109-.326-4.868-10.39z" mask="url(#prefix__d)"/>
        </g>
    </g>
</svg>
