<svg width="201" height="18" viewBox="0 0 201 18" xmlns="http://www.w3.org/2000/svg">
    <g fill-rule="nonzero" fill="none">
        <path d="M0 17.727v-4.115h.683c1.318 2.231 2.66 3.322 4.15 3.322 1.244 0 1.879-.67 1.879-1.587 0-1.09-.757-1.587-3.1-2.28C1.05 12.321.024 11.503.024 9.693c0-2.306 1.807-3.818 4.491-3.818 1.05 0 2.1.347 2.758.769l.61-.769h.635v3.67h-.683C6.615 7.66 5.662 6.644 4.32 6.644c-1.025 0-1.757.644-1.757 1.66 0 1.017.976 1.439 2.66 1.86 2.587.67 3.954 1.587 3.954 3.62 0 2.232-1.806 3.942-4.564 3.942-.903 0-2.563-.421-3.222-.843l-.732.843H0zm15.157 0c-2.026 0-3.27-1.264-3.27-3.644V7.909c0-.744-.294-1.14-1.71-1.19v-.595L15.133 6v7.587c0 1.512.562 2.306 1.806 2.306.88 0 1.465-.397 2.1-1.091V7.909c0-.744-.367-1.116-1.709-1.165v-.62L22.284 6v9.967c0 .694.317.893 1.684.942v.62h-4.882v-2.033c-1.074 1.388-2.367 2.231-3.93 2.231zm10.129 0v-4.115h.683c1.318 2.231 2.66 3.322 4.15 3.322 1.244 0 1.879-.67 1.879-1.587 0-1.09-.757-1.587-3.1-2.28-2.563-.745-3.588-1.563-3.588-3.373 0-2.306 1.806-3.818 4.491-3.818 1.05 0 2.099.347 2.758.769l.61-.769h.635v3.67h-.684c-1.22-1.885-2.172-2.901-3.514-2.901-1.025 0-1.758.644-1.758 1.66 0 1.017.977 1.439 2.66 1.86 2.588.67 3.955 1.587 3.955 3.62 0 2.232-1.806 3.942-4.564 3.942-.903 0-2.563-.421-3.222-.843l-.732.843h-.66zm15.571 0c-1.928 0-3.343-.942-3.343-3.446V7.289h-2.148V6.57l2.196-.47V3l3.198-.992v4.14h3.539V7.24h-3.54v7.115c0 1.314.416 1.934 1.392 1.934.732 0 1.342-.52 1.88-1.562l.536.323c-.78 1.785-1.903 2.677-3.71 2.677zm7.908-.025c-2.318 0-3.32-1.487-3.32-2.925 0-.967.513-2.033 1.539-2.603 1.757-.967 4.54-.967 5.345-1.265V9.248c0-1.86-.586-2.554-1.88-2.554-.585 0-1.122.174-1.464.446.293.372.488.794.488 1.315 0 1.016-.635 1.71-1.757 1.71-1.05 0-1.709-.719-1.709-1.686 0-1.487 1.782-2.529 5.101-2.529 3.002 0 4.442 1.265 4.442 4.017v5.182c0 1.215.342 1.512 1.733 1.09l.196.497c-.903.595-1.684.942-2.66.942-1.538 0-2.027-.57-2.32-1.785h-.097c-.928 1.016-2.123 1.81-3.637 1.81zm1.782-1.537c.732 0 1.391-.496 1.782-1.066v-3.47c-2.685.42-3.442 1.016-3.442 2.627 0 1.14.586 1.91 1.66 1.91zM61.115 4.066c-1.147 0-1.928-.719-1.928-1.934 0-1.215.781-2.008 1.928-2.008 1.172 0 1.928.744 1.928 1.934 0 1.215-.756 2.008-1.928 2.008zm-3.32 13.463v-.62c1.392-.025 1.758-.248 1.758-.892V8.083c0-.744-.366-1.19-1.757-1.215v-.62l5.003-.223v9.992c0 .644.269.867 1.684.892v.62h-6.687zm7.738 0v-.62c1.391-.025 1.684-.248 1.684-.892V8.083c0-.744-.293-1.19-1.684-1.215v-.62l4.881-.223v2.182C71.561 6.893 73.1 5.95 74.686 5.95c2.025 0 2.977 1.265 2.977 3.595v6.472c0 .644.269.867 1.684.892v.62h-6.272v-.62c.976-.025 1.342-.248 1.342-.892V9.992c0-1.513-.488-2.256-1.708-2.256-.88 0-1.587.47-2.246 1.165v7.116c0 .644.366.867 1.318.892v.62h-6.248zm18.183.173c-2.319 0-3.32-1.487-3.32-2.925 0-.967.513-2.033 1.538-2.603 1.758-.967 4.54-.967 5.346-1.265V9.248c0-1.86-.586-2.554-1.88-2.554-.586 0-1.122.174-1.464.446.293.372.488.794.488 1.315 0 1.016-.635 1.71-1.757 1.71-1.05 0-1.709-.719-1.709-1.686 0-1.487 1.782-2.529 5.101-2.529 3.002 0 4.442 1.265 4.442 4.017v5.182c0 1.215.342 1.512 1.733 1.09l.195.497c-.903.595-1.684.942-2.66.942-1.538 0-2.026-.57-2.319-1.785h-.097c-.928 1.016-2.124 1.81-3.637 1.81zm1.782-1.537c.732 0 1.391-.496 1.782-1.066v-3.47c-2.685.42-3.442 1.016-3.442 2.627 0 1.14.586 1.91 1.66 1.91zM93.748 18l.073-2.355V2.083c0-.769-.269-1.19-1.806-1.215v-.62L97.042 0v7.364c.977-.893 2.148-1.488 3.637-1.488 2.953 0 4.491 2.43 4.491 5.554 0 3.595-2.075 6.297-5.54 6.297-1.172 0-2.685-.322-3.808-1.09L94.333 18h-.586zm5.515-1.041c1.709 0 2.441-1.984 2.441-5.33 0-2.728-1-4.414-2.636-4.414-.756 0-1.318.297-2.026.843v7.19c.537 1.14 1.294 1.71 2.221 1.71zm7.2.57v-.62c1.392-.025 1.685-.248 1.685-.892V2.083c0-.769-.293-1.19-1.806-1.215v-.62L111.393 0v16.017c0 .644.268.867 1.684.892v.62h-6.614zm13.522.223c-3.563 0-5.76-2.157-5.76-5.802 0-3.768 2.44-6.124 5.76-6.124 3.441 0 5.174 2.505 5.003 5.753h-7.346v.297c0 2.826 1.196 4.612 3.539 4.612 1.367 0 2.392-.744 3.32-2.033l.487.371c-1.073 1.736-2.587 2.926-5.003 2.926zm-.17-11.157c-1.319 0-2.027 1.512-2.149 4.265l4.003-.025c.269-2.48-.342-4.24-1.855-4.24z" fill="#169058"/>
        <path d="M126.413 17.605v-.617c1.41-.025 1.678-.247 1.678-.89V7.458H126V6.74l2.091-.47v-.765c0-1.926.438-3.308 1.314-4.222C130.255.395 131.496 0 133.1 0c2.432 0 3.575.988 3.575 2.222 0 1.013-.56 1.729-1.63 1.729-.948 0-1.702-.544-1.702-1.803 0-.37.195-.963.365-1.234a1.561 1.561 0 0 0-.754-.198c-.389 0-.68.099-.973.395-.413.42-.656 1.309-.656 3.136V6.32h3.04v1.086h-3.04V16.1c0 .642.438.815 2.31.889v.617h-7.223zm13.376.197c-2.019 0-3.259-1.259-3.259-3.63V8.026c0-.741-.292-1.136-1.702-1.185v-.593l4.937-.124v7.556c0 1.506.559 2.296 1.8 2.296.875 0 1.458-.395 2.09-1.086V8.025c0-.741-.364-1.111-1.702-1.16v-.618l4.937-.124v9.926c0 .692.316.89 1.678.939v.617h-4.864V15.58c-1.07 1.383-2.359 2.222-3.915 2.222zm14.737 0c-1.92 0-3.331-.938-3.331-3.432V7.407h-2.14v-.716l2.188-.469V3.136l3.186-.988v4.124h3.526v1.086h-3.526v7.086c0 1.31.413 1.926 1.386 1.926.73 0 1.338-.518 1.873-1.555l.535.32c-.778 1.779-1.897 2.667-3.697 2.667zm8.974 0c-2.018 0-3.259-1.259-3.259-3.63V8.026c0-.741-.292-1.136-1.702-1.185v-.593l4.937-.124v7.556c0 1.506.559 2.296 1.8 2.296.875 0 1.458-.395 2.09-1.086V8.025c0-.741-.364-1.111-1.702-1.16v-.618l4.937-.124v9.926c0 .692.316.89 1.678.939v.617h-4.864V15.58c-1.07 1.383-2.359 2.222-3.915 2.222zm9.679-.197v-.617c1.386-.025 1.678-.247 1.678-.89v-7.9c0-.741-.292-1.186-1.678-1.21V6.37l4.864-.222v2.198c.827-1.334 2.018-2.297 3.332-2.297 1.434 0 2.164.914 2.164 2.05 0 1.136-.705 1.95-1.727 1.95-1.094 0-1.8-.716-1.8-1.654 0-.222.05-.518.122-.74-.754.049-1.508.666-2.043 1.431V16.1c0 .642.414.84 2.19.889v.617h-7.102zm16.95.222c-3.55 0-5.739-2.148-5.739-5.778 0-3.753 2.432-6.098 5.74-6.098 3.428 0 5.155 2.493 4.985 5.728h-7.32v.296c0 2.815 1.191 4.593 3.526 4.593 1.362 0 2.383-.74 3.307-2.025l.487.37c-1.07 1.729-2.578 2.914-4.986 2.914zm-.17-11.111c-1.313 0-2.018 1.506-2.14 4.247l3.988-.025c.268-2.469-.34-4.222-1.848-4.222zM198.982 18c-1.12 0-1.995-.864-1.995-1.95 0-1.087.924-1.951 2.019-1.951 1.119 0 1.994.864 1.994 1.95 0 1.087-.924 1.951-2.018 1.951z" fill="#000"/>
    </g>
</svg>
