<svg width="202" height="18" viewBox="0 0 202 18" xmlns="http://www.w3.org/2000/svg">
    <g fill-rule="nonzero" fill="none">
        <path d="M0 17.6v-4.053h.683c1.319 2.197 2.661 3.271 4.15 3.271 1.245 0 1.88-.659 1.88-1.562 0-1.074-.757-1.562-3.1-2.246C1.05 12.278.024 11.473.024 9.69c0-2.27 1.807-3.758 4.492-3.758 1.05 0 2.099.341 2.758.756l.61-.756h.635v3.612h-.684C6.615 7.69 5.663 6.688 4.32 6.688c-1.025 0-1.757.635-1.757 1.636 0 1 .976 1.415 2.66 1.83 2.588.66 3.955 1.563 3.955 3.564 0 2.197-1.806 3.881-4.565 3.881-.903 0-2.563-.415-3.222-.83l-.732.83H0zm15.158 0c-2.026 0-3.27-1.246-3.27-3.589V7.933c0-.732-.293-1.123-1.71-1.172v-.585l4.956-.122v7.469c0 1.489.561 2.27 1.806 2.27.879 0 1.465-.39 2.1-1.074V7.933c0-.732-.367-1.098-1.71-1.147v-.61l4.956-.122v9.812c0 .684.317.879 1.684.928v.61h-4.882v-2.002c-1.074 1.367-2.367 2.197-3.93 2.197zm10.13 0v-4.053h.684c1.318 2.197 2.66 3.271 4.15 3.271 1.244 0 1.879-.659 1.879-1.562 0-1.074-.757-1.562-3.1-2.246-2.563-.732-3.588-1.537-3.588-3.32 0-2.27 1.806-3.758 4.491-3.758 1.05 0 2.1.341 2.758.756l.61-.756h.635v3.612h-.683c-1.22-1.855-2.173-2.856-3.515-2.856-1.025 0-1.758.635-1.758 1.636 0 1 .977 1.415 2.661 1.83 2.587.66 3.954 1.563 3.954 3.564 0 2.197-1.806 3.881-4.564 3.881-.903 0-2.563-.415-3.222-.83l-.733.83h-.659zm15.574 0c-1.929 0-3.344-.928-3.344-3.394V7.323h-2.149v-.708l2.197-.464V3.1l3.198-.976V6.2h3.54v1.074h-3.54v7.006c0 1.293.415 1.904 1.391 1.904.733 0 1.343-.513 1.88-1.538l.537.317c-.781 1.758-1.904 2.636-3.71 2.636zm7.908-.025c-2.319 0-3.32-1.465-3.32-2.88 0-.952.513-2.002 1.538-2.563 1.758-.952 4.54-.952 5.346-1.245V9.25c0-1.83-.586-2.514-1.88-2.514-.585 0-1.122.17-1.464.44.293.366.488.78.488 1.293 0 1-.634 1.684-1.757 1.684-1.05 0-1.709-.707-1.709-1.66 0-1.464 1.782-2.49 5.102-2.49 3.002 0 4.442 1.246 4.442 3.955v5.102c0 1.196.342 1.489 1.733 1.074l.196.488c-.904.586-1.685.927-2.661.927-1.538 0-2.026-.56-2.319-1.757h-.098c-.927 1-2.123 1.782-3.637 1.782zm1.782-1.513c.733 0 1.392-.489 1.782-1.05v-3.417c-2.685.415-3.442 1-3.442 2.587 0 1.123.586 1.88 1.66 1.88zM61.122 4.15c-1.148 0-1.929-.708-1.929-1.904S59.974.269 61.122.269c1.171 0 1.928.732 1.928 1.903 0 1.197-.757 1.978-1.928 1.978zm-3.32 13.254v-.61c1.391-.025 1.757-.244 1.757-.879V8.104c0-.732-.366-1.172-1.757-1.196v-.61l5.004-.22v9.837c0 .635.268.854 1.684.879v.61h-6.688zm7.738 0v-.61c1.391-.025 1.684-.244 1.684-.879V8.104c0-.732-.293-1.172-1.684-1.196v-.61l4.882-.22v2.148c1.147-1.294 2.685-2.221 4.271-2.221 2.026 0 2.978 1.245 2.978 3.54v6.37c0 .635.269.854 1.685.879v.61h-6.274v-.61c.977-.025 1.343-.244 1.343-.879V9.984c0-1.49-.488-2.222-1.709-2.222-.879 0-1.586.464-2.246 1.147v7.006c0 .635.367.854 1.319.879v.61h-6.25zm18.185.17c-2.319 0-3.32-1.464-3.32-2.88 0-.951.513-2.001 1.538-2.562 1.757-.952 4.54-.952 5.346-1.245V9.25c0-1.83-.586-2.514-1.88-2.514-.586 0-1.123.17-1.464.44.292.366.488.78.488 1.293 0 1-.635 1.684-1.758 1.684-1.05 0-1.708-.707-1.708-1.66 0-1.464 1.781-2.49 5.101-2.49 3.003 0 4.443 1.246 4.443 3.955v5.102c0 1.196.341 1.489 1.733 1.074l.195.488c-.903.586-1.684.927-2.66.927-1.538 0-2.027-.56-2.32-1.757h-.097c-.928 1-2.124 1.782-3.637 1.782zm1.782-1.512c.732 0 1.391-.489 1.782-1.05v-3.417c-2.685.415-3.442 1-3.442 2.587 0 1.123.586 1.88 1.66 1.88zm8.25 1.806.073-2.32V2.198c0-.757-.268-1.172-1.806-1.196V.39l5.029-.245v7.25c.976-.879 2.148-1.464 3.637-1.464 2.953 0 4.49 2.392 4.49 5.467 0 3.54-2.074 6.2-5.54 6.2-1.172 0-2.685-.317-3.808-1.074l-1.489 1.343h-.586zm5.517-1.025c1.708 0 2.44-1.953 2.44-5.248 0-2.686-1-4.345-2.635-4.345-.757 0-1.319.293-2.026.83v7.078c.537 1.123 1.293 1.685 2.22 1.685zm7.2.561v-.61c1.392-.025 1.685-.244 1.685-.879V2.197c0-.757-.293-1.172-1.806-1.196V.39l5.052-.245v15.769c0 .635.269.854 1.685.879v.61h-6.615zm13.524.22c-3.564 0-5.761-2.124-5.761-5.712 0-3.71 2.44-6.03 5.76-6.03 3.442 0 5.175 2.466 5.004 5.664h-7.347v.293c0 2.782 1.196 4.54 3.54 4.54 1.367 0 2.392-.732 3.32-2.002l.487.366c-1.074 1.71-2.587 2.88-5.003 2.88zm-.171-10.985c-1.318 0-2.026 1.49-2.148 4.199l4.003-.025c.268-2.44-.342-4.174-1.855-4.174z" fill="#169058"/>
        <path d="M126.515 17.404v-.61c1.416-.025 1.684-.244 1.684-.879V7.372h-2.1v-.708l2.1-.464v-.757c0-1.904.44-3.27 1.318-4.174.855-.878 2.1-1.269 3.71-1.269 2.441 0 3.589.976 3.589 2.197 0 1-.562 1.709-1.636 1.709-.952 0-1.708-.537-1.708-1.782 0-.367.195-.952.366-1.22a1.586 1.586 0 0 0-.757-.196c-.39 0-.683.098-.976.39-.415.415-.66 1.294-.66 3.1v2.05h3.052v1.075h-3.051v8.592c0 .635.439.806 2.319.879v.61h-7.25zm13.425.195c-2.026 0-3.27-1.245-3.27-3.588V7.933c0-.732-.294-1.123-1.71-1.172v-.585l4.956-.122v7.469c0 1.489.561 2.27 1.806 2.27.879 0 1.465-.39 2.1-1.074V7.933c0-.732-.367-1.098-1.71-1.147v-.61l4.956-.122v9.812c0 .684.317.879 1.684.928v.61h-4.882v-2.002c-1.074 1.367-2.368 2.197-3.93 2.197zm14.792 0c-1.928 0-3.344-.927-3.344-3.393V7.323h-2.148v-.708l2.197-.464V3.1l3.198-.976V6.2h3.54v1.074h-3.54v7.006c0 1.293.415 1.904 1.391 1.904.732 0 1.343-.513 1.88-1.538l.537.317c-.781 1.758-1.904 2.636-3.71 2.636zm9.008 0c-2.026 0-3.271-1.245-3.271-3.588V7.933c0-.732-.293-1.123-1.71-1.172v-.585l4.956-.122v7.469c0 1.489.562 2.27 1.806 2.27.88 0 1.465-.39 2.1-1.074V7.933c0-.732-.367-1.098-1.709-1.147v-.61l4.955-.122v9.812c0 .684.317.879 1.684.928v.61h-4.882v-2.002c-1.074 1.367-2.367 2.197-3.93 2.197zm9.715-.195v-.61c1.39-.025 1.684-.244 1.684-.879V8.104c0-.732-.293-1.172-1.684-1.196v-.61l4.881-.22V8.25c.83-1.318 2.026-2.27 3.345-2.27 1.44 0 2.172.904 2.172 2.026 0 1.123-.708 1.929-1.733 1.929-1.099 0-1.806-.708-1.806-1.636 0-.22.048-.512.122-.732-.757.049-1.514.659-2.05 1.416v6.932c0 .635.414.83 2.196.879v.61h-7.127zm17.013.22c-3.564 0-5.76-2.124-5.76-5.712 0-3.71 2.44-6.03 5.76-6.03 3.442 0 5.175 2.466 5.004 5.664h-7.347v.293c0 2.782 1.196 4.54 3.54 4.54 1.366 0 2.391-.732 3.319-2.002l.488.366c-1.074 1.71-2.587 2.88-5.004 2.88zm-.17-10.985c-1.319 0-2.027 1.49-2.149 4.199l4.003-.025c.269-2.44-.341-4.174-1.855-4.174zm9.055 11.156c-1.123 0-2.002-.855-2.002-1.929s.928-1.928 2.026-1.928c1.123 0 2.002.854 2.002 1.928 0 1.074-.927 1.929-2.026 1.929z" fill="#000"/>
    </g>
</svg>
