<?xml version="1.0" encoding="utf-8"?>
<!-- Generator: Adobe Illustrator 23.1.1, SVG Export Plug-In . SVG Version: 6.00 Build 0)  -->
<svg version="1.1" id="Layer_1" xmlns="http://www.w3.org/2000/svg" xmlns:xlink="http://www.w3.org/1999/xlink" x="0px" y="0px"
	 viewBox="0 0 293.8 67" style="enable-background:new 0 0 293.8 67;" xml:space="preserve">
<style type="text/css">
	.st0{enable-background:new    ;}
	.st1{fill:#8A8B93;}
</style>
<g class="st0">
	<path class="st1" d="M5.5,40.7V24.6h-5V23l5.1-1.1v-7.1l7.5-2.3V22h8.3v2.5H13v16.3c0,3,1,4.4,3.2,4.4c1.7,0,3.1-1.2,4.4-3.6
		l1.3,0.7c-1.8,4.1-4.4,6.2-8.7,6.2C8.8,48.6,5.5,46.4,5.5,40.7z"/>
	<path class="st1" d="M23.8,35.3c0-8.7,5.7-14.1,13.4-14.1c8,0,12.1,5.8,11.7,13.2H31.7v0.6v0.1c0,6.5,2.8,10.6,8.3,10.6
		c3.2,0,5.6-1.7,7.7-4.7l1.1,0.9c-2.5,4-6,6.7-11.7,6.7C28.9,48.7,23.8,43.7,23.8,35.3z M31.8,32.8l9.3-0.1c0.6-5.7-0.8-9.7-4.3-9.7
		C33.7,23,32.1,26.5,31.8,32.8z"/>
	<path class="st1" d="M52.3,35.4c0-8.7,6-14.1,14-14.1c7.6,0,10.4,3.7,10.4,6.6c0,2.5-1.4,4.3-3.9,4.3c-2.8,0-4.3-1.7-4.3-3.8
		c0-1.5,1-2.9,1.9-3.4c-0.6-1-1.9-1.9-3.9-1.9c-3.8,0-6.2,4.2-6.2,11.6c0,6.2,2.5,11.1,8.1,11.1c3,0,5.6-1.6,7.7-4.3l1.1,0.9
		c-2.6,3.9-6,6.4-11.6,6.4C57.4,48.7,52.3,43.5,52.3,35.4z"/>
	<path class="st1" d="M79.2,46.7c3.2-0.1,3.9-0.6,3.9-2.1v-32c0-1.8-0.6-2.7-4.2-2.8V8.5l11.8-0.6v18.9c2.7-3,6.2-5.2,9.9-5.2
		c4.8,0,7.1,2.9,7.1,8.3v14.9c0,1.5,0.6,2,4,2.1v1.4H96.9v-1.4c2.3-0.1,3.1-0.6,3.1-2.1V30.8c0-3.5-1.3-5.2-4.2-5.2
		c-2,0-3.7,1.1-5.2,2.7v16.3c0,1.5,0.9,2,3.1,2.1v1.4H79.2V46.7z"/>
</g>
<g class="st0">
	<path d="M113.4,46.7c3.2-0.1,3.9-0.6,3.9-2.1V26.5c0-1.7-0.7-2.7-3.9-2.8v-1.4l11.4-0.5v5c2.7-3,6.3-5.2,10-5.2
		c4.7,0,6.9,2.9,6.9,8.3v14.9c0,1.5,0.6,2,3.9,2.1v1.4H131v-1.4c2.3-0.1,3.1-0.6,3.1-2.1V30.8c0-3.5-1.1-5.2-4-5.2
		c-2.1,0-3.7,1.1-5.2,2.7v16.3c0,1.5,0.9,2,3.1,2.1v1.4h-14.6V46.7z"/>
	<path d="M147.9,35.1c0-8.4,5.5-13.8,13.8-13.8c8.5,0,13.7,5.2,13.7,13.6c0,8.4-5.5,13.8-13.7,13.8C153,48.7,147.9,43.5,147.9,35.1z
		 M167.2,34.9c0-8-1.8-11.9-5.9-11.9c-4,0-5.4,3.9-5.4,11.9s1.8,12,5.9,12C165.8,46.9,167.2,43,167.2,34.9z"/>
	<path d="M178.2,46.7c3.2-0.1,3.9-0.6,3.9-2.1v-32c0-1.8-0.7-2.7-4.2-2.8V8.5l11.8-0.6v36.8c0,1.5,0.6,2,3.9,2.1v1.4h-15.4V46.7z"/>
	<path d="M196.3,35.1c0-8.4,5.5-13.8,13.8-13.8c8.5,0,13.7,5.2,13.7,13.6c0,8.4-5.5,13.8-13.7,13.8
		C201.5,48.7,196.3,43.5,196.3,35.1z M215.7,34.9c0-8-1.8-11.9-5.9-11.9s-5.4,3.9-5.4,11.9s1.8,12,5.9,12
		C214.3,46.9,215.7,43,215.7,34.9z"/>
	<path d="M244.5,22.4c1.3-2.8,3.2-5.1,6.2-5.1c2.3,0,3.5,1.4,3.5,3.1c0,1.5-1,2.8-2.8,2.8c-1.4,0-2.7-1.1-2.7-3.1
		c-1.1,0.4-2.2,1.5-2.8,2.8c2.8,1.4,4.8,3.8,4.8,7.2c0,5.5-5,8.9-11.4,8.9c-1.1,0-2.3-0.1-3.4-0.3c-2.2,0.7-3.2,1.5-3.2,2.6
		c0,1.1,1.1,1.9,5.7,1.9h4.2c7.2,0,10.5,2.2,10.5,7c0,5-5.6,9.4-14.7,9.4c-7.1,0-12-2.4-12-5.8c0-2.4,2.1-4.3,6.6-5v-0.2
		c-3.5-1.1-4.8-3-4.8-5.2c0-2.1,1.9-4,5.6-5.4c-3.5-1.3-5.8-3.9-5.8-7.8c0-5.5,5-8.9,11.4-8.9C241,21.6,242.9,21.8,244.5,22.4z
		 M247.9,52.8c0-2.1-1.5-3.3-7.6-3.3h-6c-2.1,0.8-3.2,1.9-3.2,3.8c0,2.9,2.9,4.8,8.6,4.8C244.6,58.1,247.9,56,247.9,52.8z
		 M243.3,30.3c0-4.5-1.3-7.2-4.4-7.2c-2.9,0-3.8,2.1-3.8,7.2c0,5,1.4,7.2,4.3,7.2C242.3,37.5,243.3,35.3,243.3,30.3z"/>
	<path d="M257.6,26.9c-1.2-2.5-2.1-3.2-4.7-3.6v-1.4h15.5v1.4c-3.2,0.3-3.8,1.2-3,3l6.1,14.4l4.8-11.8c1.5-3.6,0.7-5-3.2-5.6v-1.4
		h11.1v1.4c-2,0.2-3.6,1.4-4.9,4.3l-10,23.2c-3,6.9-5.9,9-9.3,9c-3.4,0-5.4-1.8-5.4-4.6c0-1.9,1.4-3.9,3.9-3.9
		c2.3,0,3.7,1.8,3.7,3.8c0,0.9-0.3,1.8-0.8,2.2c2.1-0.3,3.8-2,6.2-8l0.2-0.7L257.6,26.9z"/>
	<path d="M281.7,44.6c0-2.5,2.2-4.5,4.7-4.5c2.6,0,4.7,2,4.7,4.5c0,2.5-2.2,4.5-4.7,4.5C283.8,49.1,281.7,47.1,281.7,44.6z"/>
</g>
</svg>
