<svg width="53.054051995277405" height="20.378377914428725" version="1.1" xmlns="http://www.w3.org/2000/svg" xmlns:xlink="http://www.w3.org/1999/xlink"><rect id="backgroundrect" width="100%" height="100%" x="0" y="0" fill="none" stroke="none" style="" class=""/>
    
    
<g class="currentLayer" style=""><title>Layer 1</title><g id="Artboard" stroke="none" stroke-width="1" fill="none" fill-rule="evenodd" class="">
        <g id="Room-logos" fill="#73459B" fill-rule="nonzero">
            <g id="video.">
                <path d="M5.110184918707716,14.612918788877778 L6.683697531271491,14.612918788877778 L9.790377155333204,7.335043352055436 C10.173671651292238,6.45699358673221 10.758696033552724,6.027767629076152 11.464757846001476,5.949711042094577 L11.464757846001476,5.481414782567185 L7.571318937451792,5.481414782567185 L7.571318937451792,5.949711042094577 C8.539637188680558,6.086309755816956 8.922926668713558,6.378979008131182 8.922926668713558,6.944804306500373 C8.922926668713558,7.159416971833025 8.842234839591129,7.491156526018585 8.68085118134627,7.939896943915414 L6.925778661555569,12.310549801492698 L6.8450868324331395,12.310549801492698 L4.767241980226686,6.9643181397503895 C4.706720443674158,6.7887331409177705 4.686550151104257,6.691162093695425 4.686550151104257,6.574077840213818 C4.686550151104257,6.183838167668 5.029493089585287,6.047281462326168 5.89694388970031,5.949711042094577 L5.89694388970031,5.481414782567185 L0.4299926820822293,5.481414782567185 L0.4299926820822293,5.949711042094577 C1.3579598460760565,6.10578220767718 1.6807326487348746,6.320436881390378 2.0438513659549074,7.198445265323812 L5.110184918707716,14.612918788877778 zM14.212919767746826,3.9009830135329366 C15.181235511012574,3.9009830135329366 15.806604867348142,3.2766162154136964 15.806604867348142,2.3205095496135186 C15.806604867348142,1.383959038939281 15.181235511012574,0.7986201424416066 14.212919767746826,0.7986201424416066 C13.264776825013996,0.7986201424416066 12.619237176108527,1.4229871756823798 12.619237176108527,2.379051833102011 C12.619237176108527,3.3351166472693308 13.264776825013996,3.9009830135329366 14.212919767746826,3.9009830135329366 zM11.469358704157457,14.49583453539617 L16.99682643240203,14.49583453539617 L16.99682643240203,14.008064570027045 L16.80540113914958,14.003135168715744 C15.832545982821784,13.968493929533679 15.617569662851565,13.794915301115225 15.605434883790394,13.348306024792691 L15.604873100074428,5.442386489076398 L11.469358704157457,5.618013496289564 L11.469358704157457,6.10578220767718 C12.619237176108527,6.125296040927196 12.921834200028343,6.476507419982227 12.921834200028343,7.061887932991226 L12.921834200028343,13.305641811916985 C12.921834200028343,13.812924983545372 12.619237176108527,13.988552617749292 11.469358704157457,14.008064570027045 L11.469358704157457,14.49583453539617 zM21.843006006886753,14.65194770935932 C22.992881970874805,14.65194770935932 23.860331203512942,14.164136362600402 24.505875868344447,13.442199144249571 L24.505875868344447,14.593404328637007 L28.560697808148234,14.4763200751554 L28.560697808148234,14.047093490508587 C27.44367615969213,14.047093490508587 27.164281555630623,13.715647367996098 27.149226253635334,13.21375506287427 L27.148571675287712,0.7010498005838599 L22.972707916360378,0.896148789414184 L22.972707916360378,1.383959038939281 C24.24362319150896,1.4034731856846747 24.46553026727861,1.7351707314896885 24.46553026727861,2.3400236963589123 L24.46553026727861,5.696069456280384 C23.900679312541797,5.461900949317169 23.376173958870822,5.325343616984583 22.48854816375524,5.325343616984583 C19.50290973182632,5.325343616984583 17.808356867615885,7.549656644378842 17.808356867615885,10.164251352699466 C17.808356867615885,12.759289592398773 19.301177964552608,14.65194770935932 21.843006006886753,14.65194770935932 zM22.952536369808968,13.500741270990375 C21.500059619956573,13.500741270990375 20.652785695814373,11.959337168456159 20.652785695814373,9.930124854116798 C20.652785695814373,7.413099939037011 21.459714018890736,5.949711042094577 22.730629294039318,5.949711042094577 C23.53755887109719,5.949711042094577 24.12258388034843,6.359464547890411 24.46553026727861,6.905776013009586 L24.46553026727861,12.895888306121151 C24.062064224768164,13.26661539939846 23.638424127743292,13.500741270990375 22.952536369808968,13.500741270990375 zM33.891034627275076,14.671460915618582 C35.888188277349855,14.671460915618582 37.13892699002099,13.734911031935098 38.026550277173556,12.36905054684371 L37.62308423466311,12.076380040547974 C36.856502766634094,13.09098776519454 36.00922508054737,13.676368905194295 34.87952317107374,13.676368905194295 C32.976282704159985,13.676368905194295 31.988769757975206,12.319533325022121 31.955285943725812,10.16149259337999 L31.95440314074358,9.813039346653682 L38.026550277173556,9.813039346653682 C38.167761134885495,7.256987392064616 36.735463455473564,5.28631595048455 33.891034627275076,5.28631595048455 C31.147473563685708,5.28631595048455 29.130150875022537,7.139944519972801 29.130150875022537,10.105709225958663 C29.130150875022537,12.973944893102725 30.945740542430485,14.671460915618582 33.891034627275076,14.671460915618582 zM33.749823769563136,5.891168915353774 C35.00056248223427,5.891168915353774 35.50489628935384,7.276501852305387 35.28298670562117,9.227700842025229 L31.97457468729499,9.247173293885453 C32.07544245190411,7.081402393231997 32.66046746115535,5.891168915353774 33.749823769563136,5.891168915353774 zM43.962086160066065,14.671460915618582 C46.86702962791878,14.671460915618582 48.823837676927724,12.817831719139576 48.823837676927724,9.930124854116798 C48.823837676927724,7.061887932991226 46.96789990049092,5.28631595048455 43.962086160066065,5.28631595048455 C41.016792075221474,5.28631595048455 39.08016058868998,7.139944519972801 39.08016058868998,10.008138805727071 C39.08016058868998,12.895888306121151 40.89575025609793,14.671460915618582 43.962086160066065,14.671460915618582 zM44.04277736219774,14.066607950749358 C42.61535014696619,14.066607950749358 41.9672573917087,12.76631063486684 41.94533779493395,10.110180924019232 L41.944760963439876,9.969110512236284 C41.944760963439876,7.217959098573829 42.428918208081996,5.891168915353774 43.86122090341996,5.891168915353774 C45.293518582831894,5.891168915353774 45.9390632476634,7.217959098573829 45.9390632476634,9.969110512236284 L45.937252498364614,10.248700737413174 C45.903229472066414,12.811521684187028 45.38673455227399,14.066607950749358 44.04277736219774,14.066607950749358 zM51.10801515456387,14.808016993969659 C50.18004877430849,14.808016993969659 49.453807891419274,14.12510869610037 49.453807891419274,13.26661539939846 C49.453807891419274,12.408078213343742 50.22039186741131,11.725168661492944 51.128184193152265,11.725168661492944 C52.056155589333684,11.725168661492944 52.7823964722229,12.408078213343742 52.7823964722229,13.26661539939846 C52.7823964722229,14.12510869610037 52.015812496230865,14.808016993969659 51.10801515456387,14.808016993969659 z" id="svg_1"/>
            </g>
        </g>
    </g></g></svg>