<svg width="58" height="20" version="1.1" xmlns="http://www.w3.org/2000/svg" xmlns:xlink="http://www.w3.org/1999/xlink"><rect id="backgroundrect" width="100%" height="100%" x="0" y="0" fill="none" stroke="none" style="" class=""/>
    <!-- Generator: Sketch 59 (86127) - https://sketch.com -->
    <title>video</title>
    <desc>Created with Sketch.</desc>
    
<g class="currentLayer" style=""><title>Layer 1</title><g id="Artboard" stroke="none" stroke-width="1" fill="none" fill-rule="evenodd" class="">
        <g id="Room-logos" fill="#73459B" fill-rule="nonzero">
            <g id="video.">
                <path d="M5.558515982140079,15.945581964153462 L7.2827604134186,15.945581964153462 L10.687039287072821,7.970535221027831 C11.107050379612701,7.0083741241644475 11.748115596786192,6.538031257708326 12.521813915757775,6.4524971299051685 L12.521813915757775,5.939341479490395 L8.255409952632135,5.939341479490395 L8.255409952632135,6.4524971299051685 C9.316486784860444,6.6021814616744905 9.736492652250945,6.922886500190771 9.736492652250945,7.542913698416214 C9.736492652250945,7.778085131644275 9.64807058438555,8.141602954119207 9.471227493684637,8.633329744412322 L7.548031319649226,13.422661432322911 L7.4596097742987695,13.422661432322911 L5.182721148682276,7.564297099738269 C5.11640198520854,7.37189194663938 5.0942996033318195,7.264974417514168 5.0942996033318195,7.136674009581839 C5.0942996033318195,6.709052486970222 5.470093914274685,6.559414136515443 6.420641071611499,6.4524971299051685 L6.420641071611499,5.939341479490395 L0.4299926772073377,5.939341479490395 L0.4299926772073377,6.4524971299051685 C1.4468528584673663,6.623518881682003 1.8005450487909798,6.858736296224606 2.198448142418556,7.820851934288385 L5.558515982140079,15.945581964153462 zM15.533231573049761,4.207515095204258 C16.594304747673505,4.207515095204258 17.279580998779693,3.5233379542701186 17.279580998779693,2.475642729603578 C17.279580998779693,1.449377148831104 16.594304747673505,0.8079667452267074 15.533231573049761,0.8079667452267074 C14.49426287036249,0.8079667452267074 13.786884237379581,1.4921439514752137 13.786884237379581,2.5397931948272117 C13.786884237379581,3.5874424381792096 14.49426287036249,4.207515095204258 15.533231573049761,4.207515095204258 zM12.526855139879444,15.817281556221133 L18.583816950093023,15.817281556221133 L18.583816950093023,15.282786395739095 L18.374054373269246,15.277384636310217 C17.308006856435895,15.23942497109556 17.07243726682509,15.049219083370645 17.0591392616534,14.55982741233538 L17.058523739056454,5.896574676846285 L12.526855139879444,6.089025288744779 L12.526855139879444,6.623518881682003 C13.786884237379581,6.644902283004058 14.118468036904687,7.029757002971564 14.118468036904687,7.671213061318667 L14.118468036904687,14.513076955804081 C14.118468036904687,15.068954472578298 13.786884237379581,15.261406129506668 12.526855139879444,15.282786395739095 L12.526855139879444,15.817281556221133 zM23.894228227452913,15.988349811827447 C25.154254189863423,15.988349811827447 26.104798734625547,15.453808670030867 26.81218363778771,14.662714783743922 L26.81218363778771,15.924198562831407 L31.25542912406945,15.795898154899078 L31.25542912406945,15.32555424341308 C30.031404440886035,15.32555424341308 29.725246218243228,14.962358290139946 29.7087493766212,14.4123872822247 L29.708030396066533,0.7010498039308004 L25.132147627867198,0.9148379664655408 L25.132147627867198,1.449377148831104 C26.52480878213555,1.4707605501531589 26.767972603855014,1.8342325219422833 26.767972603855014,2.497026392183102 L26.767972603855014,6.17455837151806 C26.149011858617996,5.91795807816834 25.574262147313675,5.7683197277135605 24.601608950495574,5.7683197277135605 C21.32996735875895,5.7683197277135605 19.473087213107647,8.20570717677083 19.473087213107647,11.070762129754257 C19.473087213107647,13.914387700101088 21.10891009903571,15.988349811827447 23.894228227452913,15.988349811827447 zM25.110043155930725,14.726864987710087 C23.518429213875606,14.726864987710087 22.58999332116946,13.03780514481059 22.58999332116946,10.814208340234018 C22.58999332116946,8.05606882631605 23.47422027000266,6.4524971299051685 24.866879334211262,6.4524971299051685 C25.751108373104216,6.4524971299051685 26.392173590277707,6.901502576353778 26.767972603855014,7.5001468957721045 L26.767972603855014,14.064071509355472 C26.325858084408537,14.470312243219723 25.861634912906084,14.726864987710087 25.110043155930725,14.726864987710087 zM37.09637489868146,16.009732168119626 C39.28484302397737,16.009732168119626 40.65539552618975,14.983466848604621 41.6280466329481,13.48676670000441 L41.18593211350162,13.166059571428377 C40.34591619860112,14.277860586291354 39.41747403571571,14.919316644638457 38.17955672536118,14.919316644638457 C36.09399896213108,14.919316644638457 35.01188724604435,13.432505613754529 34.97519624709912,11.067738858323082 L34.974228549433974,10.685906887271813 L41.6280466329481,10.685906887271813 C41.782786296742415,7.885002138254549 40.21328100674327,5.725553447584389 37.09637489868146,5.725553447584389 C34.09000160060077,5.725553447584389 31.87943318348789,7.756747189121825 31.87943318348789,11.006611925788093 C31.87943318348789,14.149605114643691 33.86894225081778,16.009732168119626 37.09637489868146,16.009732168119626 zM36.94163941500665,6.388347448453942 C38.31218773709952,6.388347448453942 38.86483715658687,7.906385539576604 38.621667064688154,10.044496810239252 L34.99633302137045,10.065834230246764 C35.10686374129182,7.69259698515566 35.74793104852506,6.388347448453942 36.94163941500665,6.388347448453942 zM48.132166276789576,16.009732168119626 C51.315385800660806,16.009732168119626 53.45964080196427,13.978537904067252 53.45964080196427,10.814208340234018 C53.45964080196427,7.671213061318667 51.42591652058218,5.725553447584389 48.132166276789576,5.725553447584389 C44.9047336289259,5.725553447584389 42.78258727967841,7.756747189121825 42.78258727967841,10.899694919177819 C42.78258727967841,14.064071509355472 44.77209843706805,16.009732168119626 48.132166276789576,16.009732168119626 zM48.22058834465497,15.346937644735135 C46.65642106726227,15.346937644735135 45.946248024391025,13.922081210047963 45.92222905772178,11.011512070876506 L45.92159367955719,10.856928116533709 C45.92159367955719,7.8422348130955015 46.45213026686906,6.388347448453942 48.02163973698771,6.388347448453942 C49.59114084686735,6.388347448453942 50.29852575002951,7.8422348130955015 50.29852575002951,10.856928116533709 L50.29654019326517,11.163301615330965 C50.25925770741014,13.971622941377973 49.69328624706395,15.346937644735135 48.22058834465497,15.346937644735135 zM55.962629478970484,16.15936895102959 C54.94576942833919,16.15936895102959 54.14995827719213,15.411042912416633 54.14995827719213,14.470312243219723 C54.14995827719213,13.529532457618643 54.98997419209263,12.781204328945933 55.98472977078745,12.781204328945933 C57.00159400153825,12.781204328945933 57.797405152685315,13.529532457618643 57.797405152685315,14.470312243219723 C57.797405152685315,15.411042912416633 56.957385057665306,16.15936895102959 55.962629478970484,16.15936895102959 z" id="svg_1"/>
            </g>
        </g>
    </g></g></svg>