<?xml version="1.0" encoding="UTF-8"?>
<svg width="149px" height="42px" viewBox="0 0 149 42" version="1.1" xmlns="http://www.w3.org/2000/svg" xmlns:xlink="http://www.w3.org/1999/xlink">
    <!-- Generator: Sketch 59 (86127) - https://sketch.com -->
    <title>video</title>
    <desc>Created with Sketch.</desc>
    <g id="Artboard" stroke="none" stroke-width="1" fill="none" fill-rule="evenodd">
        <g id="Room-logos" transform="translate(-164.000000, -1442.000000)" fill="#73459B" fill-rule="nonzero">
            <g id="video." transform="translate(164.430000, 1442.701000)">
                <path d="M13.224,40.641 L17.67,40.641 L26.448,19.38 C27.531,16.815 29.184,15.561 31.179,15.333 L31.179,13.965 L20.178,13.965 L20.178,15.333 C22.914,15.732 23.997,16.587 23.997,18.24 C23.997,18.867 23.769,19.836 23.313,21.147 L18.354,33.915 L18.126,33.915 L12.255,18.297 C12.084,17.784 12.027,17.499 12.027,17.157 C12.027,16.017 12.996,15.618 15.447,15.333 L15.447,13.965 L0,13.965 L0,15.333 C2.622,15.789 3.534,16.416 4.56,18.981 L13.224,40.641 Z M38.944,9.348 C41.68,9.348 43.447,7.524 43.447,4.731 C43.447,1.995 41.68,0.285 38.944,0.285 C36.265,0.285 34.441,2.109 34.441,4.902 C34.441,7.695 36.265,9.348 38.944,9.348 Z M31.192,40.299 L46.81,40.299 L46.81,38.874 L46.2691175,38.8596659 C43.520291,38.7583728 42.9128724,38.2513965 42.8785834,36.9466675 L42.877,13.851 L31.192,14.364 L31.192,15.789 C34.441,15.846 35.296,16.872 35.296,18.582 L35.296,36.822 C35.296,38.304 34.441,38.817 31.192,38.874 L31.192,40.299 Z M60.503,40.755 C63.752,40.755 66.203,39.33 68.027,37.221 L68.027,40.584 L79.484,40.242 L79.484,38.988 C76.3278286,38.988 75.5383902,38.019791 75.4958559,36.553646 L75.494,1.13686838e-13 L63.695,0.57 L63.695,1.995 C67.286,2.052 67.913,3.021 67.913,4.788 L67.913,14.592 C66.317,13.908 64.835,13.509 62.327,13.509 C53.891,13.509 49.103,20.007 49.103,27.645 C49.103,35.226 53.321,40.755 60.503,40.755 Z M63.638,37.392 C59.534,37.392 57.14,32.889 57.14,26.961 C57.14,19.608 59.42,15.333 63.011,15.333 C65.291,15.333 66.944,16.53 67.913,18.126 L67.913,35.625 C66.773,36.708 65.576,37.392 63.638,37.392 Z M94.545,40.812 C100.188,40.812 103.722,38.076 106.23,34.086 L105.09,33.231 C102.924,36.195 100.53,37.905 97.338,37.905 C91.9603448,37.905 89.1701067,33.9412973 89.0754902,27.6369597 L89.073,26.619 L106.23,26.619 C106.629,19.152 102.582,13.395 94.545,13.395 C86.793,13.395 81.093,18.81 81.093,27.474 C81.093,35.853 86.223,40.812 94.545,40.812 Z M94.146,15.162 C97.68,15.162 99.105,19.209 98.478,24.909 L89.13,24.966 C89.415,18.639 91.068,15.162 94.146,15.162 Z M123.001,40.812 C131.209,40.812 136.738,35.397 136.738,26.961 C136.738,18.582 131.494,13.395 123.001,13.395 C114.679,13.395 109.207,18.81 109.207,27.189 C109.207,35.625 114.337,40.812 123.001,40.812 Z M123.229,39.045 C119.195759,39.045 117.364574,35.2464515 117.302629,27.4870478 L117.301,27.075 C117.301,19.038 118.669,15.162 122.716,15.162 C126.763,15.162 128.587,19.038 128.587,27.075 L128.581872,27.8917811 C128.485742,35.3785648 127.026379,39.045 123.229,39.045 Z M143.192,41.211 C140.57,41.211 138.518,39.216 138.518,36.708 C138.518,34.2 140.684,32.205 143.249,32.205 C145.871,32.205 147.923,34.2 147.923,36.708 C147.923,39.216 145.757,41.211 143.192,41.211 Z"></path>
            </g>
        </g>
    </g>
</svg>