<?xml version="1.0" encoding="UTF-8"?>
<svg width="329px" height="51px" viewBox="0 0 329 51" version="1.1" xmlns="http://www.w3.org/2000/svg" xmlns:xlink="http://www.w3.org/1999/xlink">
    <!-- Generator: sketchtool 42 (36781) - http://www.bohemiancoding.com/sketch -->
    <title>06296056-0CE7-4C86-8245-AD473E8A4731</title>
    <desc>Created with sketchtool.</desc>
    <defs>
        <polygon id="path-1" points="27.7705997 42.6634615 0.212979118 42.6634615 0.212979118 0.368867308 27.7705997 0.368867308 27.7705997 42.6634615"></polygon>
        <polygon id="path-3" points="0 0.00647307692 0 26.5755115 30.6379799 26.5755115 30.6379799 0.00647307692 0 0.00647307692"></polygon>
    </defs>
    <g id="Desktop" stroke="none" stroke-width="1" fill="none" fill-rule="evenodd">
        <g id="Desktop---Homepage" transform="translate(-378.000000, -3697.000000)">
            <g id="Viewing-room-logo-header" transform="translate(378.000000, 3697.000000)">
                <path d="M289.07435,37.9389 C291.31155,37.8820154 291.87085,37.3720154 291.87085,35.8984096 L291.87085,22.1244865 C291.87085,18.7231788 290.640487,16.9661308 287.788347,16.9661308 C285.830797,16.9661308 284.656558,18.0430154 283.146544,19.6299 L283.146544,35.8984096 C283.146544,37.3720154 283.649721,37.8820154 285.830797,37.9389 L285.830797,39.3561115 L271.849749,39.3561115 L271.849749,37.9389 C275.037178,37.8820154 275.708241,37.3720154 275.708241,35.8984096 L275.708241,17.7595731 C275.708241,16.0589192 275.037178,15.0389192 271.849749,14.9820346 L271.849749,13.5653135 L283.034297,13.0548231 L283.034297,18.0430154 C285.66291,15.0389192 288.73906,12.8846596 292.374027,12.8846596 C296.120756,12.8846596 298.357956,14.8118712 299.029019,18.3264577 C301.545869,15.2654769 305.012949,12.8846596 308.536152,12.8846596 C313.234078,12.8846596 315.471278,15.7754769 315.471278,21.1039962 L315.471278,35.8984096 C315.471278,37.3720154 316.086218,37.8820154 319.274131,37.9389 L319.274131,39.3561115 L305.292599,39.3561115 L305.292599,37.9389 C307.473675,37.8820154 308.032975,37.3720154 308.032975,35.8984096 L308.032975,22.1244865 C308.032975,18.7231788 306.970499,16.9661308 304.174483,16.9661308 C302.720109,16.9661308 300.818683,18.0999 299.196906,19.9133423 C299.252546,20.4238327 299.308669,20.707275 299.308669,21.0471115 L299.308669,35.8984096 C299.308669,37.3720154 299.867969,37.8820154 302.160809,37.9389 L302.160809,39.3561115 L289.07435,39.3561115 L289.07435,37.9389 Z" id="Fill-1" fill="#000000"></path>
                <path d="M328.67637,35.9045885 C328.701045,37.1526173 328.133037,38.0868 327.210385,38.7600981 C325.876484,39.7335115 324.416788,39.7756846 323.004023,38.9557615 C321.373054,38.0088288 320.653609,35.7099058 321.95461,33.898425 C323.219809,32.1369635 325.733272,31.9069731 327.262154,33.0814442 C328.171259,33.7792615 328.708303,34.7281558 328.67637,35.9045885" id="Fill-3" fill="#000000"></path>
                <path d="M229.010465,38.08425 C224.983602,38.08425 223.193939,34.1729423 223.193939,26.1806538 C223.193939,18.1883654 224.536549,14.3339423 228.506805,14.3339423 C232.478028,14.3339423 234.267208,18.1883654 234.267208,26.1806538 C234.267208,34.1729423 232.869442,38.08425 229.010465,38.08425 M228.786939,12.5768942 C220.621449,12.5768942 215.252943,17.9618077 215.252943,26.2944231 C215.252943,34.6834327 220.286159,39.8412981 228.786939,39.8412981 C236.839697,39.8412981 242.264811,34.4563846 242.264811,26.067375 C242.264811,17.7347596 237.119348,12.5768942 228.786939,12.5768942" id="Fill-5" fill="#000000"></path>
                <path d="M258.595355,38.08425 C254.568491,38.08425 252.778828,34.1729423 252.778828,26.1806538 C252.778828,18.1883654 254.121439,14.3339423 258.091694,14.3339423 C262.062918,14.3339423 263.852097,18.1883654 263.852097,26.1806538 C263.852097,34.1729423 262.454331,38.08425 258.595355,38.08425 M258.371828,12.5768942 C250.206339,12.5768942 244.837833,17.9618077 244.837833,26.2944231 C244.837833,34.6834327 249.871049,39.8412981 258.371828,39.8412981 C266.424587,39.8412981 271.8497,34.4563846 271.8497,26.067375 C271.8497,17.7347596 266.704237,12.5768942 258.371828,12.5768942" id="Fill-7" fill="#000000"></path>
                <path d="M128.151451,37.951601 C131.344203,37.8952067 132.01575,37.384226 132.01575,35.9076779 L132.01575,17.7408894 C132.01575,16.0377837 131.344203,15.0158221 128.151451,14.9594279 L128.151451,13.5397644 L139.353417,13.029274 L139.353417,18.0248221 C141.986385,15.0158221 145.51491,12.8586202 149.155682,12.8586202 C153.804258,12.8586202 155.988722,15.753851 155.988722,21.0907067 L155.988722,35.9076779 C155.988722,37.384226 156.605113,37.8952067 159.853504,37.951601 L159.853504,39.3712644 L145.458786,39.3712644 L145.458786,37.951601 C147.699373,37.8952067 148.539775,37.384226 148.539775,35.9076779 L148.539775,22.1121779 C148.539775,18.6495721 147.419239,16.9464663 144.618385,16.9464663 C142.602292,16.9464663 140.978097,18.0248221 139.465664,19.6141587 L139.465664,35.9076779 C139.465664,37.384226 140.305582,37.8952067 142.490529,37.951601 L142.490529,39.3712644 L128.151451,39.3712644 L128.151451,37.951601 Z" id="Fill-9" fill="#FDB813"></path>
                <g id="Group-13" transform="translate(160.145588, 8.232087)">
                    <mask id="mask-2" fill="white">
                        <use xlink:href="#path-1"></use>
                    </mask>
                    <g id="Clip-12"></g>
                    <path d="M17.0161703,13.3694538 C17.0161703,8.88439615 15.7277482,6.21621346 12.7033674,6.21621346 C9.84687324,6.21621346 8.95034824,8.31653077 8.95034824,13.3694538 C8.95034824,18.3654923 10.29441,20.5222038 13.2075115,20.5222038 C16.0640056,20.5222038 17.0161703,18.3654923 17.0161703,13.3694538 M21.5529835,35.7942519 C21.5529835,33.6934442 20.0405512,32.5013192 14.0474291,32.5013192 L8.16607029,32.5013192 C6.14997765,33.2962327 5.02992618,34.4314731 5.02992618,36.2483481 C5.02992618,39.1435788 7.88642029,41.0168481 13.4871615,41.0168481 C18.3041085,41.0168481 21.5529835,38.972925 21.5529835,35.7942519 M18.1923453,5.47818462 C19.4807674,2.69623269 21.3289732,0.368867308 24.2977144,0.368867308 C26.5383012,0.368867308 27.7705997,1.73115577 27.7705997,3.49114615 C27.7705997,5.02408846 26.7623115,6.32998269 25.0258688,6.32998269 C23.6813232,6.32998269 22.3372615,5.25113654 22.3372615,3.26409808 C21.21721,3.6618 20.1523144,4.79704038 19.5364071,6.04605 C22.3372615,7.46522308 24.2415909,9.84947308 24.2415909,13.2556846 C24.2415909,18.7627038 19.3685203,22.1689154 12.9830174,22.1689154 C11.8634497,22.1689154 10.7429144,22.0551462 9.67850265,21.8854731 C7.49403941,22.6235019 6.48575118,23.3610404 6.48575118,24.4398865 C6.48575118,25.5751269 7.60628647,26.3131558 12.0869762,26.3131558 L16.1762526,26.3131558 C23.2337865,26.3131558 26.4816938,28.5277327 26.4816938,33.2962327 C26.4816938,38.2353865 20.9931997,42.6635596 12.0308526,42.6635596 C5.08556588,42.6635596 0.212979118,40.2793096 0.212979118,36.9294923 C0.212979118,34.4883577 2.22907176,32.6150885 6.65412176,31.9334538 L6.65412176,31.7632904 C3.18123647,30.62805 1.94893794,28.7547808 1.94893794,26.5970885 C1.94893794,24.5531654 3.79762765,22.5661269 7.43791588,21.2607231 C4.02163794,19.9548288 1.72541147,17.399925 1.72541147,13.4827327 C1.72541147,8.03308846 6.59799824,4.62638654 12.9830174,4.62638654 C14.8312232,4.62638654 16.6237894,4.91031923 18.1923453,5.47818462" id="Fill-11" fill="#FDB813" mask="url(#mask-2)"></path>
                </g>
                <path d="M52.0632824,24.0994125 L61.2491559,24.0425279 C61.8655471,18.3653452 60.4648779,14.334874 56.9924765,14.334874 C53.9680956,14.334874 52.3434162,17.7974798 52.0632824,24.0994125 M44.1658309,26.5974317 C44.1658309,17.9681337 49.7670559,12.5748837 57.3843735,12.5748837 C65.281825,12.5748837 69.2588544,18.3084606 68.8664735,25.7456337 L52.0076426,25.7456337 L52.0076426,26.3703837 L52.0076426,26.4272683 C52.0076426,32.898874 54.7518897,36.9867202 60.1291044,36.9867202 C63.2652485,36.9867202 65.6180824,35.283124 67.7464221,32.331499 L68.8664735,33.1828067 C66.4023603,37.1563933 62.929475,39.881951 57.3843735,39.881951 C49.2067882,39.881951 44.1658309,34.9427971 44.1658309,26.5974317" id="Fill-14" fill="#FDB813"></path>
                <path d="M88.5120312,18.1384442 C87.5598665,15.4702615 86.7199488,14.7886269 84.5350018,14.5051846 L84.5350018,13.1424058 L98.4816988,13.1424058 L98.4816988,14.5051846 C96.2420797,14.7322327 95.3455547,15.1294442 95.3455547,16.265175 C95.3455547,16.6055019 95.4573179,17.0032038 95.569565,17.5141846 L100.330872,32.2742712 L100.610522,32.2742712 L104.643675,20.2387615 C105.091696,18.8764731 105.259583,17.8545115 105.259583,17.2871365 C105.259583,15.640425 104.195171,14.9023962 101.674934,14.5051846 L101.674934,13.1424058 L112.429364,13.1424058 L112.429364,14.5051846 C109.908643,14.8455115 108.340087,16.2082904 107.444046,18.8764731 L100.274749,39.7114442 L95.7935753,39.7114442 L90.5286076,24.2128385 L84.4232385,39.7114442 L79.9981885,39.7114442 L71.9323665,18.1384442 C70.9806856,15.640425 70.1402841,14.9023962 67.5639238,14.5051846 L67.5639238,13.1424058 L81.7907547,13.1424058 L81.7907547,14.5051846 C79.8303018,14.6753481 78.9899003,15.1294442 78.9899003,16.1514058 C78.9899003,16.4922231 79.1582709,17.0032038 79.3261576,17.5141846 L84.7033724,32.444925 L84.9835062,32.444925 L89.5203194,21.1474442 L88.5120312,18.1384442 Z" id="Fill-16" fill="#FDB813"></path>
                <g id="Group-20" transform="translate(0.000000, 13.135933)">
                    <mask id="mask-4" fill="white">
                        <use xlink:href="#path-3"></use>
                    </mask>
                    <g id="Clip-19"></g>
                    <path d="M4.48054456,5.00251154 C3.47225632,2.44809808 2.57621515,1.82334808 -0.000145147059,1.36925192 L-0.000145147059,0.00647307692 L15.1788504,0.00647307692 L15.1788504,1.36925192 C12.7703769,1.65269423 11.8182122,2.05039615 11.8182122,3.18563654 C11.8182122,3.52645385 11.8738519,3.81038654 12.0422225,4.32136731 L17.8113343,19.8763673 L18.0358284,19.8763673 L22.9084151,7.15971346 C23.3569196,5.85381923 23.5809299,4.88923269 23.5809299,4.26448269 C23.5809299,2.61826154 22.5160343,1.76646346 19.8279107,1.36925192 L19.8279107,0.00647307692 L30.6379799,0.00647307692 L30.6379799,1.36925192 C28.6780107,1.5963 27.0533313,2.84530962 25.9889196,5.40021346 L17.3633137,26.5755115 L12.9943872,26.5755115 L4.48054456,5.00251154 Z" id="Fill-18" fill="#FDB813" mask="url(#mask-4)"></path>
                </g>
                <path d="M209.96151,12.8586692 C206.943419,12.8586692 204.204494,15.0683423 202.304519,18.1273615 L202.304519,13.0852269 L191.125776,13.5952269 L191.125776,15.0114577 C194.311754,15.0683423 194.982334,16.0878519 194.982334,17.7870346 L194.982334,35.9155731 C194.982334,37.3881981 194.311754,37.8981981 191.125776,37.9550827 L191.125776,39.3708231 L207.446596,39.3708231 L207.446596,37.9550827 C203.366512,37.8418038 202.416282,37.3881981 202.416282,35.9155731 L202.416282,19.8265442 C203.45989,18.3362654 204.865881,17.0941212 206.326544,16.6817077 C206.295579,16.8999288 206.274775,17.1210923 206.274775,17.3481404 C206.274775,19.8137942 208.151043,21.8121115 210.465654,21.8121115 C212.78075,21.8121115 214.656534,19.8137942 214.656534,17.3481404 C214.656534,15.2139865 213.267476,12.8586692 209.96151,12.8586692" id="Fill-21" fill="#000000"></path>
                <path d="M114.164984,4.41355962 C114.164984,1.95575192 116.170916,9.80769231e-05 118.546006,9.80769231e-05 C120.973348,9.80769231e-05 122.873807,1.95575192 122.873807,4.41355962 C122.873807,6.87136731 120.867875,8.82702115 118.492785,8.82702115 C116.065443,8.82702115 114.164984,6.87136731 114.164984,4.41355962" id="Fill-23" fill="#FDB813"></path>
                <path d="M122.253691,35.9076779 L122.253691,13.1425529 L114.80426,13.1425529 L114.80426,35.5948125 L114.80426,35.9076779 C114.80426,37.384226 113.963858,37.8952067 110.771591,37.951601 L110.771591,39.370774 L126.118473,39.370774 L126.118473,37.951601 C122.869598,37.8952067 122.253691,37.384226 122.253691,35.9076779" id="Fill-25" fill="#FDB813"></path>
                <path d="M32.2438869,4.41355962 C32.2438869,1.95575192 34.2498193,9.80769231e-05 36.624909,9.80769231e-05 C39.0522516,9.80769231e-05 40.9527104,1.95575192 40.9527104,4.41355962 C40.9527104,6.87136731 38.9467781,8.82702115 36.5716884,8.82702115 C34.1443457,8.82702115 32.2438869,6.87136731 32.2438869,4.41355962" id="Fill-27" fill="#FDB813"></path>
                <path d="M40.3325454,35.9076779 L40.3325454,13.1425529 L32.8831146,13.1425529 L32.8831146,35.5948125 L32.8831146,35.9076779 C32.8831146,37.384226 32.0427131,37.8952067 28.8504454,37.951601 L28.8504454,39.370774 L44.1973278,39.370774 L44.1973278,37.951601 C40.9484528,37.8952067 40.3325454,37.384226 40.3325454,35.9076779" id="Fill-29" fill="#FDB813"></path>
            </g>
        </g>
    </g>
</svg>