<?xml version="1.0" encoding="utf-8"?>
<!-- Generator: Adobe Illustrator 16.0.0, SVG Export Plug-In . SVG Version: 6.00 Build 0)  -->
<!DOCTYPE svg PUBLIC "-//W3C//DTD SVG 1.1//EN" "http://www.w3.org/Graphics/SVG/1.1/DTD/svg11.dtd">
<svg version="1.1" id="VF_Business_Logo_AW" xmlns="http://www.w3.org/2000/svg" xmlns:xlink="http://www.w3.org/1999/xlink"
	 x="0px" y="0px" width="374.553px" height="124.888px" viewBox="62.705 187.593 374.553 124.888"
	 enable-background="new 62.705 187.593 374.553 124.888" xml:space="preserve">
<g id="XMLID_82_">
	<circle id="XMLID_84_" fill="#3B3B3B" cx="125.149" cy="250.037" r="62.444"/>
	<path id="XMLID_83_" fill="#FFFFFF" d="M125.67,284.836c-17.138,0.074-35.022-14.568-35.097-38.115
		c-0.037-15.537,8.346-30.514,19.076-39.381c10.469-8.644,24.776-14.232,37.779-14.27c1.677,0,3.428,0.149,4.508,0.484
		c-11.364,2.348-20.417,12.929-20.38,24.926c0,0.41,0.038,0.82,0.075,1.006c19.001,4.62,27.646,16.095,27.683,31.967
		C159.389,267.399,146.833,284.762,125.67,284.836z"/>
</g>
<g>
	<g id="XMLID_60_">
		<path id="XMLID_80_" fill="#3B3B3B" d="M221.945,243.442l-12.034-28.726h7.861l7.526,19.076l7.266-19.076h7.526l-11.699,28.726
			H221.945z"/>
		<path id="XMLID_77_" fill="#3B3B3B" d="M268.331,228.949c0,1.863-0.298,3.726-0.856,5.514c-0.56,1.826-1.416,3.428-2.571,4.844
			c-1.118,1.416-2.571,2.571-4.284,3.465c-1.715,0.857-3.764,1.304-6.037,1.304c-2.271,0-4.321-0.447-6.035-1.304
			s-3.167-2.012-4.285-3.465c-1.118-1.416-1.975-3.055-2.571-4.844c-0.559-1.826-0.857-3.651-0.857-5.514s0.298-3.688,0.857-5.477
			c0.559-1.789,1.416-3.391,2.571-4.807c1.118-1.416,2.571-2.533,4.285-3.39s3.764-1.267,6.035-1.267
			c2.273,0,4.322,0.41,6.037,1.267c1.713,0.857,3.129,1.975,4.284,3.39c1.155,1.416,2.012,3.018,2.608,4.807
			C268.033,225.261,268.331,227.086,268.331,228.949z M261.065,228.912c0-1.192-0.149-2.347-0.409-3.428
			c-0.262-1.081-0.709-2.012-1.268-2.794c-0.559-0.782-1.229-1.378-2.012-1.863c-0.782-0.447-1.714-0.671-2.795-0.671
			c-1.08,0-2.012,0.224-2.793,0.671c-0.783,0.447-1.454,1.081-2.013,1.863c-0.559,0.783-0.969,1.714-1.267,2.794
			c-0.261,1.081-0.41,2.198-0.41,3.428s0.149,2.384,0.41,3.428c0.261,1.043,0.67,1.975,1.229,2.794
			c0.521,0.782,1.229,1.416,2.012,1.9c0.819,0.447,1.751,0.671,2.831,0.671c1.081,0,2.013-0.224,2.795-0.671
			c0.782-0.447,1.453-1.081,2.012-1.9c0.559-0.783,0.969-1.714,1.268-2.794C260.916,231.296,261.065,230.142,261.065,228.912z"/>
		<path id="XMLID_74_" fill="#3B3B3B" d="M291.133,243.442l-0.299-2.198c-0.67,0.745-1.564,1.416-2.682,2.012
			c-1.118,0.559-2.422,0.857-3.912,0.857c-1.975,0-3.727-0.41-5.217-1.267c-1.49-0.82-2.757-1.938-3.8-3.354
			c-1.044-1.378-1.825-3.018-2.347-4.843c-0.522-1.826-0.82-3.726-0.82-5.738c0-1.863,0.261-3.688,0.82-5.477
			c0.559-1.788,1.378-3.39,2.533-4.806c1.117-1.416,2.533-2.534,4.247-3.391s3.688-1.267,5.999-1.267c1.49,0,3.129,0.261,4.881,0.82
			v-11.14h7.376v39.791H291.133z M290.537,221.014c-1.416-0.559-2.758-0.82-3.987-0.82c-1.267,0-2.347,0.224-3.278,0.708
			c-0.895,0.484-1.677,1.118-2.236,1.937c-0.596,0.82-1.043,1.751-1.341,2.757s-0.446,2.049-0.446,3.129
			c0,1.192,0.111,2.348,0.372,3.428c0.261,1.081,0.671,2.049,1.192,2.869c0.521,0.819,1.191,1.49,2.012,1.975
			s1.751,0.745,2.869,0.745c0.895,0,1.825-0.261,2.794-0.745s1.64-1.081,2.012-1.751v-14.232H290.537z"/>
		<path id="XMLID_71_" fill="#3B3B3B" d="M319.337,243.405l-0.298-2.161c-0.783,0.894-1.826,1.564-3.056,2.086
			c-1.229,0.484-2.607,0.745-4.061,0.745c-1.229,0-2.422-0.224-3.577-0.634c-1.155-0.41-2.161-1.006-3.018-1.788
			c-0.895-0.782-1.603-1.714-2.124-2.869c-0.521-1.118-0.819-2.421-0.819-3.837c0-1.416,0.261-2.683,0.819-3.8
			c0.559-1.081,1.304-2.012,2.272-2.757s2.05-1.379,3.279-1.863s2.533-0.819,3.875-1.08c0.968-0.187,2.012-0.335,3.129-0.447
			c1.155-0.112,2.087-0.187,2.832-0.261v-0.41c0-1.602-0.41-2.72-1.229-3.39c-0.82-0.671-1.938-1.006-3.391-1.006
			c-0.856,0-1.64,0.112-2.385,0.298c-0.745,0.187-1.453,0.447-2.049,0.745c-0.597,0.298-1.118,0.596-1.603,0.894
			c-0.446,0.298-0.819,0.559-1.117,0.82l-2.459-5.179c0.335-0.261,0.819-0.633,1.453-1.006c0.67-0.41,1.453-0.783,2.384-1.155
			c0.932-0.373,1.976-0.708,3.167-0.969c1.155-0.261,2.422-0.373,3.801-0.373c1.602,0,3.055,0.224,4.359,0.634
			c1.304,0.41,2.459,1.08,3.391,1.975c0.968,0.894,1.713,2.012,2.235,3.39c0.521,1.378,0.819,3.018,0.819,4.956v18.479h-6.632
			V243.405z M318.74,229.955c-0.782,0.038-1.602,0.112-2.459,0.224c-0.856,0.112-1.639,0.224-2.384,0.373
			c-1.603,0.335-2.72,0.857-3.316,1.64c-0.633,0.782-0.932,1.602-0.932,2.533c0,0.969,0.336,1.714,1.044,2.31
			c0.707,0.559,1.676,0.857,2.98,0.857c0.969,0,1.9-0.186,2.794-0.596c0.895-0.41,1.677-0.894,2.311-1.49v-5.85H318.74z"/>
		<path id="XMLID_69_" fill="#3B3B3B" d="M348.92,210.246c-0.224-0.112-0.708-0.298-1.416-0.522
			c-0.708-0.223-1.603-0.335-2.757-0.335c-1.044,0-1.9,0.298-2.608,0.931s-1.043,1.602-1.043,3.018v1.378h6.185v5.961h-6.147v22.764
			h-7.377v-22.764h-3.801v-5.961h3.801v-1.565c0-1.863,0.224-3.465,0.708-4.731c0.484-1.304,1.154-2.347,2.012-3.167
			c0.856-0.82,1.862-1.416,3.018-1.789s2.422-0.559,3.763-0.559c1.789,0,3.279,0.186,4.435,0.521
			c1.154,0.335,1.862,0.559,2.049,0.671L348.92,210.246z"/>
		<path id="XMLID_66_" fill="#3B3B3B" d="M376.341,228.949c0,1.863-0.298,3.726-0.856,5.514c-0.559,1.826-1.416,3.428-2.571,4.844
			c-1.117,1.416-2.57,2.571-4.284,3.465c-1.714,0.857-3.763,1.304-6.036,1.304c-2.272,0-4.321-0.447-6.035-1.304
			s-3.167-2.012-4.285-3.465c-1.117-1.416-1.975-3.055-2.57-4.844c-0.56-1.826-0.857-3.651-0.857-5.514s0.298-3.688,0.857-5.477
			c0.559-1.789,1.415-3.391,2.57-4.807c1.118-1.416,2.571-2.533,4.285-3.39s3.763-1.267,6.035-1.267c2.273,0,4.322,0.41,6.036,1.267
			s3.13,1.975,4.284,3.39c1.155,1.416,2.013,3.018,2.608,4.807C376.08,225.261,376.341,227.086,376.341,228.949z M369.076,228.912
			c0-1.192-0.149-2.347-0.41-3.428s-0.708-2.012-1.267-2.794c-0.559-0.782-1.229-1.378-2.012-1.863
			c-0.782-0.447-1.714-0.671-2.795-0.671c-1.08,0-2.012,0.224-2.794,0.671s-1.453,1.081-2.012,1.863
			c-0.56,0.783-0.969,1.714-1.267,2.794c-0.261,1.081-0.41,2.198-0.41,3.428s0.149,2.384,0.41,3.428
			c0.261,1.043,0.67,1.975,1.229,2.794c0.521,0.782,1.229,1.416,2.012,1.9c0.819,0.447,1.751,0.671,2.831,0.671
			c1.081,0,2.013-0.224,2.795-0.671c0.782-0.447,1.453-1.081,2.012-1.9c0.559-0.783,0.969-1.714,1.267-2.794
			C368.927,231.296,369.076,230.142,369.076,228.912z"/>
		<path id="XMLID_64_" fill="#3B3B3B" d="M399.292,243.442v-16.393c0-2.198-0.447-3.875-1.379-5.067
			c-0.931-1.192-2.198-1.788-3.8-1.788c-1.155,0-2.198,0.298-3.204,0.894c-0.969,0.596-1.826,1.267-2.533,1.975v20.38h-7.378
			v-28.726h6.744l0.373,2.273c1.154-0.969,2.459-1.677,3.912-2.198c1.452-0.522,2.905-0.783,4.396-0.783
			c1.528,0,2.906,0.224,4.173,0.671c1.268,0.447,2.348,1.192,3.279,2.161c0.932,1.006,1.602,2.273,2.123,3.875
			c0.484,1.602,0.746,3.502,0.746,5.738v16.989H399.292z"/>
		<path id="XMLID_61_" fill="#3B3B3B" d="M418.555,230.924c0.148,2.422,0.932,4.173,2.272,5.253s3.13,1.602,5.253,1.602
			c1.006,0,1.938-0.074,2.832-0.261c0.895-0.186,1.64-0.41,2.348-0.67c0.67-0.261,1.267-0.559,1.751-0.82s0.819-0.521,1.08-0.782
			l1.975,6.036c-0.261,0.186-0.708,0.484-1.341,0.82c-0.634,0.335-1.379,0.67-2.311,0.969c-0.932,0.298-1.975,0.559-3.204,0.782
			s-2.57,0.335-4.061,0.335c-1.863,0-3.651-0.298-5.328-0.895s-3.167-1.527-4.434-2.757c-1.267-1.267-2.272-2.794-3.056-4.695
			c-0.745-1.863-1.117-4.098-1.117-6.669c0-2.422,0.335-4.583,1.043-6.445c0.708-1.863,1.64-3.428,2.869-4.695
			c1.229-1.267,2.607-2.235,4.247-2.906c1.603-0.67,3.316-1.006,5.142-1.006c1.826,0,3.502,0.298,5.067,0.895
			c1.564,0.596,2.906,1.527,4.023,2.757c1.118,1.267,2.012,2.869,2.683,4.844c0.671,1.975,0.969,4.359,0.969,7.079v1.304h-18.703
			V230.924z M429.694,225.596c-0.074-1.006-0.298-1.863-0.633-2.608c-0.336-0.745-0.745-1.341-1.268-1.789
			c-0.484-0.447-1.043-0.782-1.602-1.006c-0.597-0.224-1.155-0.335-1.751-0.335c-1.267,0-2.496,0.484-3.651,1.416
			c-1.155,0.969-1.826,2.384-2.05,4.285h10.954V225.596z"/>
	</g>
	<path fill="#3B3B3B" d="M395.827,296.424c1.453-0.484,2.683-1.379,3.651-2.646c0.969-1.266,1.49-2.868,1.49-4.843
		c0-2.235-0.634-3.987-1.938-5.253c-1.304-1.268-3.167-2.311-5.589-3.205c-4.247-1.527-6.371-3.204-6.371-4.992
		c0-0.932,0.373-1.789,1.081-2.533c0.708-0.783,1.899-1.155,3.502-1.155c1.416,0,2.72,0.261,3.875,0.745
		c1.155,0.521,2.198,1.192,3.13,2.086l1.788-3.166c-0.932-0.895-2.124-1.64-3.577-2.273c-1.453-0.633-3.241-0.969-5.253-0.969
		c-2.571,0-4.657,0.708-6.222,2.124c-1.565,1.416-2.348,3.241-2.348,5.478c0,1.937,0.559,3.502,1.64,4.656
		c1.08,1.192,2.943,2.236,5.551,3.205c4.546,1.787,6.818,3.613,6.818,5.551c0,1.49-0.447,2.607-1.378,3.316
		c-0.895,0.707-2.236,1.043-4.024,1.043c-1.751,0-3.241-0.336-4.545-1.006c-1.305-0.671-2.348-1.379-3.204-2.124l-1.491,3.577
		c0.299,0.298,0.895,0.707,1.752,1.229c0.856,0.484,1.899,0.932,3.166,1.342c1.268,0.373,2.721,0.596,4.359,0.596
		C392.995,297.168,394.374,296.908,395.827,296.424 M373.771,296.424c1.453-0.484,2.646-1.379,3.651-2.646
		c0.969-1.266,1.49-2.868,1.49-4.843c0-2.235-0.634-3.987-1.938-5.253c-1.304-1.268-3.167-2.311-5.589-3.205
		c-4.247-1.527-6.371-3.204-6.371-4.992c0-0.932,0.373-1.789,1.081-2.533c0.708-0.783,1.899-1.155,3.502-1.155
		c1.416,0,2.72,0.261,3.875,0.745c1.154,0.521,2.198,1.192,3.13,2.086l1.788-3.166c-0.932-0.895-2.124-1.64-3.577-2.273
		c-1.453-0.633-3.241-0.969-5.253-0.969c-2.571,0-4.657,0.708-6.223,2.124c-1.564,1.416-2.347,3.241-2.347,5.478
		c0,1.937,0.559,3.502,1.64,4.656c1.08,1.192,2.943,2.236,5.551,3.205c4.546,1.787,6.818,3.613,6.818,5.551
		c0,1.49-0.447,2.607-1.379,3.316c-0.894,0.707-2.235,1.043-4.023,1.043c-1.751,0-3.241-0.336-4.546-1.006
		c-1.304-0.671-2.347-1.379-3.204-2.124l-1.49,3.577c0.299,0.298,0.895,0.707,1.751,1.229c0.857,0.484,1.9,0.932,3.167,1.342
		c1.268,0.373,2.721,0.596,4.359,0.596C370.938,297.168,372.317,296.908,373.771,296.424 M340.351,273.398
		c1.267-1.118,2.794-1.64,4.508-1.64c0.782,0,1.714,0.224,2.794,0.671c1.081,0.447,2.013,1.229,2.758,2.422
		c0.745,1.154,1.154,2.533,1.229,4.098h-13.897C338.189,276.342,339.046,274.479,340.351,273.398 M351.379,296.312
		c1.751-0.597,3.055-1.304,3.912-2.124l-1.118-3.65c-1.043,0.894-2.235,1.639-3.539,2.197c-1.305,0.597-2.832,0.857-4.509,0.857
		c-2.869,0-5.029-0.969-6.558-2.943c-1.49-1.975-2.272-4.695-2.272-8.16h19.113c0-2.086-0.335-4.247-1.006-6.557
		c-0.671-2.273-1.938-4.136-3.726-5.552c-1.826-1.415-4.099-2.124-6.818-2.124c-1.825,0-3.614,0.447-5.439,1.342
		c-1.826,0.895-3.316,2.496-4.471,4.807c-1.192,2.31-1.752,5.066-1.752,8.233c0,4.731,1.155,8.384,3.466,10.843
		c2.31,2.496,5.439,3.725,9.389,3.725C347.839,297.168,349.627,296.87,351.379,296.312 M309.464,296.535v-21.646
		c0.969-0.783,2.086-1.49,3.428-2.124c1.304-0.634,2.683-0.969,4.098-0.969c2.235,0,3.838,0.671,4.844,1.975
		c0.969,1.304,1.49,3.13,1.49,5.439v17.325h4.21v-17.213c0-3.689-0.745-6.483-2.198-8.346c-1.453-1.863-4.023-2.795-7.638-2.795
		c-1.564,0-3.092,0.261-4.508,0.82c-1.416,0.559-2.683,1.229-3.764,2.086l-0.298-2.198h-3.875v27.608h4.211V296.535z
		 M298.062,263.338c0.559-0.484,0.819-1.191,0.819-2.123c0-0.895-0.261-1.564-0.819-2.087c-0.559-0.484-1.192-0.745-1.975-0.745
		s-1.453,0.261-2.012,0.745s-0.82,1.192-0.82,2.087c0,0.932,0.262,1.639,0.82,2.123s1.229,0.709,2.012,0.709
		S297.541,263.785,298.062,263.338 M298.249,268.89h-4.284v27.608h4.284V268.89z M283.867,296.424
		c1.453-0.484,2.646-1.379,3.651-2.646c0.969-1.266,1.49-2.868,1.49-4.843c0-2.235-0.634-3.987-1.938-5.253
		c-1.304-1.268-3.167-2.311-5.589-3.205c-4.247-1.527-6.371-3.204-6.371-4.992c0-0.932,0.373-1.789,1.081-2.533
		c0.708-0.783,1.899-1.155,3.502-1.155c1.416,0,2.72,0.261,3.875,0.745c1.155,0.521,2.198,1.192,3.13,2.086l1.788-3.166
		c-0.932-0.895-2.124-1.64-3.577-2.273c-1.453-0.633-3.241-0.969-5.253-0.969c-2.571,0-4.657,0.708-6.222,2.124
		s-2.348,3.241-2.348,5.478c0,1.937,0.559,3.502,1.64,4.656c1.08,1.155,2.943,2.236,5.552,3.205
		c4.545,1.787,6.817,3.613,6.817,5.551c0,1.49-0.446,2.607-1.378,3.316c-0.895,0.707-2.236,1.043-4.024,1.043
		c-1.751,0-3.241-0.336-4.546-1.006c-1.303-0.671-2.347-1.379-3.203-2.124l-1.49,3.577c0.298,0.298,0.894,0.707,1.75,1.229
		c0.857,0.484,1.9,0.932,3.205,1.342c1.267,0.373,2.72,0.596,4.359,0.596C280.998,297.168,282.414,296.908,283.867,296.424
		 M257.191,296.424c1.229-0.484,2.384-1.193,3.465-2.013l0.297,2.124h3.95v-27.608h-4.359v21.61
		c-0.856,0.856-1.938,1.564-3.278,2.16c-1.342,0.596-2.684,0.895-4.024,0.895c-2.087,0-3.651-0.559-4.731-1.64
		c-1.081-1.118-1.602-2.868-1.602-5.29v-17.735h-4.21V286.4c0,3.614,0.783,6.334,2.31,8.123c1.528,1.788,4.061,2.645,7.526,2.645
		C254.396,297.168,255.961,296.908,257.191,296.424 M221.051,293.331c-0.82-0.187-1.528-0.447-2.198-0.745v-18.928
		c0.969-0.67,1.938-1.117,2.869-1.378c0.932-0.261,1.863-0.372,2.757-0.372c1.192,0,2.459,0.335,3.763,1.006
		c1.304,0.67,2.422,1.862,3.354,3.502c0.931,1.676,1.378,3.726,1.378,6.185c0,3.353-0.857,6.036-2.534,8.011
		c-1.714,1.975-4.023,2.98-7.004,2.98C222.653,293.629,221.87,293.518,221.051,293.331 M229.769,295.902
		c1.975-0.82,3.688-2.422,5.142-4.732s2.161-5.142,2.161-8.457c0-2.348-0.41-4.658-1.192-6.931
		c-0.783-2.272-2.124-4.099-4.061-5.477c-1.9-1.379-4.136-2.087-6.632-2.087c-1.006,0-2.049,0.112-3.092,0.336
		c-1.081,0.223-2.161,0.633-3.278,1.154v-11.885h-4.21v37.258c1.081,0.521,2.422,0.969,3.987,1.416
		c1.564,0.447,3.39,0.67,5.402,0.67C225.857,297.168,227.794,296.759,229.769,295.902"/>
</g>
</svg>
