<svg xmlns="http://www.w3.org/2000/svg" width="310" height="27" viewBox="0 0 310 27">
    <g fill="none" fill-rule="evenodd">
        <g fill="#000" fill-rule="nonzero">
            <path d="M124.747 9.006l-4.23 10.86h-1.442l-4.23-10.86v10.86h-3.172V4.85h4.518l3.653 9.35 3.654-9.35h4.518v15.017h-3.269zM135.995 8.722c3.269 0 5.48 2.456 5.48 5.95v.661h-8.172c.193 1.417 1.25 2.55 3.173 2.55 1.057 0 2.211-.377 2.884-1.039l1.25 1.89c-1.058.944-2.788 1.51-4.519 1.51-3.364 0-5.864-2.266-5.864-5.76.096-3.212 2.403-5.762 5.768-5.762zm-2.692 4.628h5.384c-.096-1.039-.77-2.456-2.692-2.456-1.826.095-2.595 1.417-2.692 2.456zM151.185 18.45c-.866 1.039-2.02 1.7-3.365 1.7-2.788 0-4.807-2.078-4.807-5.667s2.019-5.76 4.807-5.76c1.25 0 2.5.566 3.365 1.7V4.85h2.884v15.017h-2.884V18.45zm0-5.95c-.481-.756-1.539-1.228-2.5-1.228-1.634 0-2.788 1.322-2.788 3.211 0 1.89 1.154 3.117 2.788 3.117.961 0 2.019-.472 2.5-1.228V12.5zM156.76 5.889c0-.945.77-1.7 1.73-1.7.962 0 1.731.755 1.731 1.7 0 .944-.769 1.7-1.73 1.7-.962 0-1.73-.756-1.73-1.7zm.289 3.117h2.884v10.86h-2.884V9.007zM170.412 18.45c-.866 1.039-2.02 1.7-3.365 1.7-2.788 0-4.807-2.078-4.807-5.667s2.019-5.76 4.807-5.76c1.25 0 2.5.566 3.365 1.7V9.005h2.884v10.86h-2.884V18.45zm0-5.95c-.481-.756-1.539-1.228-2.5-1.228-1.634 0-2.788 1.228-2.788 3.117s1.154 3.117 2.788 3.117c.961 0 2.019-.473 2.5-1.228V12.5zM191.85 17.222h-6.73l-.961 2.55h-3.557l5.864-15.016h4.038l5.864 15.016h-3.557l-.961-2.55zm-5.96-2.739h4.998l-2.5-6.894-2.499 6.894zM204.732 12.406l-2.307 7.46h-3.077l-3.364-10.86h2.98l2.019 7.366 2.403-7.366h2.596l2.403 7.366 2.019-7.366h2.98l-3.365 10.86h-3.076zM222.517 18.45c-.865 1.039-2.019 1.7-3.365 1.7-2.788 0-4.807-2.078-4.807-5.667s2.02-5.76 4.807-5.76c1.25 0 2.5.566 3.365 1.7V9.005h2.884v10.86h-2.884V18.45zm0-5.95c-.48-.756-1.538-1.228-2.5-1.228-1.634 0-2.788 1.228-2.788 3.117s1.154 3.117 2.788 3.117c.962 0 2.02-.473 2.5-1.228V12.5zM228.381 9.006h2.884v1.51c.77-.944 2.115-1.7 3.461-1.7v2.834c-.192 0-.48-.094-.769-.094-.961 0-2.211.566-2.692 1.227v7.178h-2.884V9.006zM244.147 18.45c-.865 1.039-2.018 1.7-3.364 1.7-2.788 0-4.807-2.078-4.807-5.667s2.019-5.76 4.807-5.76c1.25 0 2.5.566 3.364 1.7V4.85h2.884v15.017h-2.884V18.45zm0-5.95c-.48-.756-1.538-1.228-2.5-1.228-1.633 0-2.787 1.322-2.787 3.211 0 1.89 1.154 3.117 2.788 3.117.961 0 2.019-.472 2.5-1.228V12.5zM250.3 16.467c.77.755 2.403 1.51 3.75 1.51 1.249 0 1.826-.471 1.826-1.133 0-.755-.962-1.038-2.211-1.322-1.923-.378-4.326-.85-4.326-3.4 0-1.794 1.634-3.4 4.518-3.4 1.827 0 3.365.661 4.422 1.511l-1.153 1.984c-.673-.661-1.923-1.228-3.269-1.228-1.057 0-1.73.378-1.73 1.039 0 .66.865.944 2.115 1.133 1.922.378 4.422.85 4.422 3.589 0 1.983-1.73 3.494-4.71 3.494-1.924 0-3.75-.66-4.904-1.7l1.25-2.077zM267.124 9.478h-1.442c0-1.511.576-2.74 1.538-3.684.961-.944 2.21-1.416 3.653-1.416 1.442 0 2.596.472 3.46 1.322.866.944 1.347 1.983 1.347 3.211 0 .85-.193 1.7-.673 2.456-.385.755-1.25 1.794-2.404 3.116l-3.845 4.156h7.114v1.417h-10.479l5.864-6.328c1.154-1.228 2.02-2.267 2.308-2.834.384-.66.577-1.227.577-1.983 0-.85-.289-1.605-.962-2.267-.673-.66-1.442-.944-2.403-.944-.962 0-1.827.283-2.5.944-.673.756-1.057 1.606-1.153 2.834zM277.506 12.311c0-1.983.193-3.589.673-4.722.48-1.133 1.058-1.983 1.827-2.55.769-.567 1.73-.85 2.692-.85.96 0 1.922.283 2.691.85.77.567 1.442 1.417 1.923 2.55.48 1.133.673 2.644.673 4.628 0 1.889-.192 3.494-.673 4.627-.48 1.134-1.154 1.984-1.923 2.55-.865.567-1.73.85-2.691.85-.962 0-1.923-.283-2.692-.85-.77-.566-1.442-1.416-1.827-2.55-.48-.944-.673-2.455-.673-4.533zm1.442.095c0 1.7.193 3.022.481 3.966.288.945.77 1.606 1.346 1.984.577.472 1.25.66 1.923.66s1.345-.188 1.922-.66c.577-.473 1.058-1.134 1.346-1.984.385-1.133.577-2.455.577-3.966 0-1.512-.192-2.834-.48-3.778-.385-.945-.866-1.7-1.443-2.172-.577-.473-1.25-.662-1.922-.662-.673 0-1.346.19-1.923.662-.577.472-1.058 1.133-1.346 1.983-.288.85-.48 2.172-.48 3.967zM291.35 4.661h3.076v15.395h-1.538V6.172h-2.403zM306.347 11.556c1.057.472 1.826 1.133 2.211 1.794.385.661.673 1.417.673 2.267 0 1.227-.385 2.266-1.154 3.116-.961 1.134-2.307 1.7-4.037 1.7s-2.98-.472-3.846-1.416c-.865-.945-1.346-2.078-1.346-3.211 0-.85.193-1.606.673-2.267.48-.661 1.25-1.322 2.308-1.795-.77-.377-1.346-.85-1.73-1.416a3.363 3.363 0 0 1-.578-1.89c0-.66.193-1.321.577-1.982.385-.662.961-1.134 1.634-1.512.673-.377 1.442-.566 2.308-.566.769 0 1.538.189 2.21.566.674.378 1.25.85 1.635 1.512.385.66.577 1.322.577 1.983s-.192 1.322-.577 1.889c-.288.378-.865.85-1.538 1.228zm-2.307.85c-1.058 0-1.923.377-2.692 1.038-.673.662-1.058 1.512-1.058 2.362 0 .566.193 1.133.481 1.605s.77.85 1.25 1.133c.577.284 1.153.378 1.922.378 1.154 0 2.02-.378 2.692-1.039.673-.66.962-1.416.962-2.36 0-.85-.385-1.606-1.058-2.267-.577-.567-1.442-.85-2.5-.85zm0-6.612c-.866 0-1.539.284-2.115.756a2.31 2.31 0 0 0-.866 1.794c0 .662.289 1.323.866 1.89a3.01 3.01 0 0 0 2.115.85c.48 0 .961-.095 1.442-.378.48-.284.769-.567 1.057-1.04.289-.472.385-.85.385-1.322 0-.66-.289-1.227-.77-1.7-.48-.566-1.153-.85-2.114-.85z"/>
        </g>
        <g fill-rule="nonzero">
            <g fill="#4E5152">
                <path d="M8.33 19.73H5.074L0 6.148h4.117l1.82 5.07c.095.382.286.765.382 1.243.096.478.287.86.383 1.339h.096c.096-.478.287-.86.383-1.34.096-.477.287-.86.383-1.243l1.915-5.07H13.5L8.33 19.73zM27.096 12.94c0 1.051-.192 2.008-.575 2.869-.383.86-.861 1.626-1.532 2.295a5.822 5.822 0 0 1-2.298 1.435c-.861.383-1.819.478-2.776.478-.958 0-1.915-.19-2.777-.478a9.324 9.324 0 0 1-2.298-1.435c-.67-.67-1.149-1.339-1.531-2.295-.383-.861-.575-1.818-.575-2.87s.192-2.009.575-2.87c.382-.86.861-1.626 1.531-2.295a5.822 5.822 0 0 1 2.298-1.435c.862-.382 1.82-.478 2.777-.478.957 0 1.915.191 2.776.478.862.383 1.628.861 2.298 1.435.67.67 1.15 1.435 1.532 2.296.383.86.575 1.817.575 2.87zm-4.213 0c0-.48-.096-.957-.287-1.436-.192-.382-.383-.765-.67-1.052-.288-.287-.575-.574-.958-.765A2.551 2.551 0 0 0 19.82 9.4c-.383 0-.766.096-1.149.287-.383.191-.67.383-.957.765-.287.287-.479.67-.67 1.052-.192.383-.288.861-.288 1.435 0 .478.096.957.288 1.34.191.382.383.764.67 1.051.287.287.574.574.957.67.383.191.766.287 1.15.287.382 0 .765-.096 1.148-.287.383-.191.67-.383.958-.67.287-.287.478-.67.67-1.052.287-.478.287-.86.287-1.339z"/>
                <path d="M35.426 18.391c-.862 2.392-1.915 4.209-3.064 5.644-1.15 1.339-2.49 2.295-4.117 2.678l-1.724-2.774c.479-.191.958-.382 1.436-.67.383-.286.862-.573 1.15-.956.382-.383.67-.86 1.053-1.435.287-.574.67-1.243.957-2.008L26.234 6.148h4.213l2.01 5.26c.192.383.288.766.383 1.244.096.383.288.861.383 1.34h.096c.096-.479.192-.957.383-1.34.096-.382.287-.86.383-1.243l2.01-5.261h4.022L35.426 18.39zM50.553 20.017c-1.34-.095-2.298-.574-2.776-1.53-.48.478-.958.86-1.628 1.148-.67.287-1.34.382-2.106.382-.67 0-1.245-.095-1.915-.287-.575-.19-1.054-.478-1.532-.86-.479-.383-.766-.861-1.053-1.435-.288-.574-.383-1.148-.383-1.818 0-1.243.383-2.2 1.244-2.965.862-.765 1.915-1.243 3.256-1.339l2.68-.287v-.478c0-.383-.191-.765-.478-1.052-.288-.287-.862-.383-1.628-.383-.766 0-1.532.096-2.202.287-.67.191-1.245.383-1.723.67l-.288-3.348c.479-.287 1.15-.479 2.01-.67a11.049 11.049 0 0 1 2.49-.287c1.82 0 3.351.478 4.405 1.435 1.053.957 1.627 2.296 1.627 4.017v3.826c0 .574.096 1.053.383 1.34.287.287.67.574 1.15.574l-1.533 3.06zm-4.021-6.313l-1.82.192c-.67.095-1.052.287-1.34.574a1.837 1.837 0 0 0-.383 1.147c0 .383.096.67.383.957.288.287.575.383 1.054.383.574 0 1.053-.192 1.436-.574.478-.383.67-.861.67-1.435v-1.244z"/>
                <path d="M63.862 21.835c0 .67-.192 1.339-.479 1.913a4.867 4.867 0 0 1-1.245 1.53c-.574.479-1.244.765-2.01 1.052-.766.287-1.628.383-2.585.383-.958 0-1.82-.096-2.681-.383a9.908 9.908 0 0 1-2.01-1.052c-.575-.478-.958-.956-1.341-1.626-.288-.67-.48-1.243-.48-2.009 0-.956.288-1.817.767-2.486.479-.67 1.149-1.148 1.819-1.34l-1.532-1.53c.096-.478.287-.86.575-1.244.287-.382.67-.573.957-.86a6.44 6.44 0 0 1-1.34-1.435c-.383-.574-.575-1.244-.575-2.105 0-.765.096-1.434.383-2.008.287-.574.575-1.148 1.053-1.626.479-.479 1.053-.766 1.724-1.052.67-.287 1.436-.383 2.298-.383.383 0 .766 0 1.053.096.287.095.67.287.957.287.287.095.575.095.862.19.287 0 .67.096.957.096.48 0 .862 0 1.245-.095.383-.096.766-.191 1.053-.383l.287 3.444c-.095.095-.287.191-.574.191-.287.096-.479.096-.766.096.192.287.192.67.192 1.147 0 .67-.096 1.244-.288 1.818a3.601 3.601 0 0 1-.861 1.435 7.229 7.229 0 0 1-1.34 1.052c-.575.287-1.15.382-1.724.478-.287 0-.479.096-.67.191-.192.096-.288.192-.288.383s.096.383.383.383l2.107.765c1.244.478 2.298 1.052 2.968 1.817.766.574 1.149 1.626 1.149 2.87zm-3.83 0c0-.383-.096-.67-.383-.957-.287-.287-.575-.574-1.053-.67l-1.724-.478c-.574 0-1.053.192-1.436.574-.383.383-.574.766-.574 1.34 0 .478.191.956.67 1.339.479.382 1.053.574 2.01.574.862 0 1.437-.192 1.915-.479.288-.382.575-.765.575-1.243zm-.958-11.287c0-.478-.191-.957-.574-1.244-.383-.382-.766-.478-1.34-.478-.575 0-.958.191-1.34.478-.384.383-.575.766-.575 1.244s.191.956.574 1.243c.383.383.766.479 1.34.479.48 0 .958-.192 1.341-.479s.574-.765.574-1.243z"/>
                <path d="M76.213 11.122c0 .478-.096.86-.192 1.339l-1.723 1.722H67.69c.096.287.192.574.383.86.192.287.48.574.766.861.288.192.67.479 1.15.574.478.192.957.192 1.531.192.766 0 1.436-.096 2.107-.287a14.739 14.739 0 0 0 1.819-.766l-.383 3.54c-.479.19-.958.382-1.628.573-.67.192-1.436.192-2.298.192-1.053 0-2.106-.192-3.064-.479-.957-.382-1.819-.86-2.489-1.434-.67-.67-1.245-1.435-1.628-2.296-.383-.86-.574-1.913-.574-2.965 0-1.052.191-2.105.574-2.965.383-.861.862-1.626 1.532-2.2.67-.574 1.34-1.053 2.202-1.435.862-.287 1.724-.478 2.681-.478.958 0 1.724.19 2.49.478.766.287 1.34.67 1.915 1.148a5.428 5.428 0 0 1 1.149 1.721c.095.67.287 1.34.287 2.105zm-3.926-.096c0-.574-.191-.956-.574-1.435-.383-.382-.862-.574-1.436-.574-.67 0-1.245.192-1.724.67a2.575 2.575 0 0 0-.957 1.722h4.691c-.096-.096 0-.192 0-.383zM85.404 9.687h-.383c-.574 0-1.149.096-1.627.287-.575.191-.958.478-1.437.86-.383.383-.766.862-.957 1.436-.287.573-.383 1.243-.383 2.104v5.26h-4.213V6.245h3.926l.096 2.104c.383-.861 1.053-1.435 1.819-1.818.766-.382 1.723-.573 2.872-.573l.287 3.73z"/>
            </g>
            <path fill="#4AC7E9" d="M89.234 17.53c0 .192-.096.479-.287.67-.192.287-.383.574-.67.765-.288.192-.48.478-.766.67-.288.191-.48.287-.766.287-.192 0-.479-.096-.67-.287-.288-.192-.575-.383-.766-.67-.288-.287-.48-.478-.67-.765-.192-.287-.288-.478-.288-.67 0-.19.096-.478.287-.67.192-.286.383-.573.67-.764.288-.287.48-.479.766-.67.288-.191.48-.287.67-.287.192 0 .48.096.767.287.287.191.574.383.766.67.287.287.478.478.67.765.191.287.287.478.287.67z"/>
        </g>
        <path stroke="#179BD7" stroke-width=".644" d="M99 0v26"/>
    </g>
</svg>
