<?xml version="1.0" encoding="utf-8"?>
<!-- Generator: Adobe Illustrator 16.0.0, SVG Export Plug-In . SVG Version: 6.00 Build 0)  -->
<!DOCTYPE svg PUBLIC "-//W3C//DTD SVG 1.1//EN" "http://www.w3.org/Graphics/SVG/1.1/DTD/svg11.dtd">
<svg version="1.1" id="Layer_1" xmlns="http://www.w3.org/2000/svg" xmlns:xlink="http://www.w3.org/1999/xlink" x="0px" y="0px"
	 width="250.299px" height="43.5px" viewBox="0 0 250.299 43.5" enable-background="new 0 0 250.299 43.5" xml:space="preserve">
<text transform="matrix(1 0 0 1 0 14.5)" font-family="'Arial-BoldMT'" font-size="20">Website of the Year*</text>
<g>
	<g>
		<path d="M100.975,29.167l-3.425,8.79h-1.167l-3.424-8.79v8.79h-2.567V25.803h3.656l2.957,7.568l2.958-7.568h3.656v12.155h-2.645
			V29.167z M110.079,28.938c2.645,0,4.434,1.987,4.434,4.815v0.535h-6.614c0.156,1.147,1.012,2.064,2.569,2.064
			c0.855,0,1.789-0.306,2.333-0.841l1.012,1.53c-0.855,0.763-2.256,1.222-3.656,1.222c-2.724,0-4.748-1.834-4.748-4.662
			C105.487,31.001,107.354,28.938,110.079,28.938L110.079,28.938z M107.898,32.683h4.358c-0.077-0.841-0.622-1.987-2.178-1.987
			C108.601,30.771,107.978,31.842,107.898,32.683z M122.373,36.811c-0.701,0.841-1.635,1.377-2.724,1.377
			c-2.256,0-3.891-1.682-3.891-4.588c0-2.904,1.635-4.662,3.891-4.662c1.012,0,2.023,0.459,2.724,1.376v-4.511h2.334v12.155h-2.334
			V36.811z M122.373,31.995c-0.389-0.611-1.245-0.994-2.023-0.994c-1.323,0-2.258,1.07-2.258,2.599c0,1.53,0.935,2.523,2.258,2.523
			c0.778,0,1.635-0.383,2.023-0.994V31.995z M126.885,26.644c0-0.765,0.623-1.376,1.401-1.376c0.779,0,1.4,0.611,1.4,1.376
			c0,0.764-0.621,1.376-1.399,1.376c-0.779,0-1.4-0.612-1.4-1.376H126.885z M127.119,29.167h2.335v8.79h-2.335V29.167
			L127.119,29.167z M137.936,36.811c-0.701,0.841-1.635,1.377-2.724,1.377c-2.258,0-3.891-1.682-3.891-4.588
			c0-2.904,1.633-4.662,3.891-4.662c1.012,0,2.023,0.459,2.724,1.376v-1.148h2.334v8.792h-2.334V36.811z M137.936,31.995
			c-0.389-0.611-1.245-0.994-2.023-0.994c-1.323,0-2.258,0.994-2.258,2.523c0,1.528,0.935,2.522,2.258,2.522
			c0.778,0,1.635-0.382,2.023-0.994V31.995z M155.288,35.818h-5.448l-0.777,2.062h-2.879l4.746-12.154h3.269l4.746,12.154h-2.879
			L155.288,35.818L155.288,35.818z M150.465,33.6h4.045l-2.023-5.58l-2.023,5.58H150.465z M165.716,31.919l-1.869,6.038h-2.489
			l-2.723-8.79h2.411l1.635,5.962l1.944-5.962h2.103l1.944,5.962l1.635-5.962h2.411l-2.723,8.79h-2.49L165.716,31.919z
			 M180.111,36.811c-0.7,0.841-1.635,1.377-2.724,1.377c-2.258,0-3.891-1.682-3.891-4.588c0-2.904,1.635-4.662,3.891-4.662
			c1.012,0,2.023,0.459,2.724,1.376v-1.148h2.333v8.792h-2.333V36.811z M180.111,31.995c-0.389-0.611-1.246-0.994-2.023-0.994
			c-1.323,0-2.258,0.994-2.258,2.523c0,1.528,0.935,2.522,2.258,2.522c0.777,0,1.635-0.382,2.023-0.994V31.995z M184.857,29.167
			h2.335v1.222c0.623-0.763,1.71-1.376,2.801-1.376v2.294c-0.156,0-0.389-0.076-0.622-0.076c-0.778,0-1.79,0.458-2.179,0.994v5.81
			h-2.335V29.167z M197.618,36.811c-0.7,0.841-1.633,1.377-2.723,1.377c-2.257,0-3.891-1.682-3.891-4.588
			c0-2.904,1.634-4.662,3.891-4.662c1.013,0,2.024,0.459,2.723,1.376v-4.511h2.335v12.155h-2.335V36.811z M197.618,31.995
			c-0.389-0.611-1.244-0.994-2.023-0.994c-1.321,0-2.256,1.07-2.256,2.599c0,1.53,0.935,2.523,2.258,2.523
			c0.777,0,1.633-0.383,2.023-0.994v-3.134H197.618z M202.598,35.206c0.625,0.612,1.946,1.222,3.036,1.222
			c1.012,0,1.478-0.381,1.478-0.916c0-0.612-0.777-0.84-1.789-1.07c-1.556-0.306-3.502-0.688-3.502-2.753
			c0-1.451,1.323-2.751,3.658-2.751c1.479,0,2.724,0.535,3.579,1.223l-0.935,1.605c-0.544-0.535-1.556-0.994-2.645-0.994
			c-0.856,0-1.4,0.307-1.4,0.841c0,0.535,0.7,0.765,1.712,0.917c1.556,0.307,3.579,0.688,3.579,2.906c0,1.604-1.4,2.828-3.813,2.828
			c-1.557,0-3.035-0.534-3.97-1.377L202.598,35.206L202.598,35.206z M216.216,29.549h-1.166c0-1.223,0.466-2.218,1.245-2.982
			c0.778-0.764,1.788-1.146,2.956-1.146c1.167,0,2.102,0.383,2.8,1.07c0.702,0.765,1.091,1.605,1.091,2.6
			c0,0.688-0.156,1.376-0.545,1.988c-0.312,0.61-1.012,1.451-1.944,2.521l-3.113,3.364h5.758v1.148h-8.481l4.746-5.123
			c0.934-0.994,1.636-1.835,1.868-2.294c0.312-0.534,0.468-0.994,0.468-1.605c0-0.688-0.233-1.299-0.779-1.835
			c-0.545-0.534-1.166-0.765-1.944-0.765c-0.779,0-1.479,0.229-2.023,0.765C216.604,27.867,216.295,28.556,216.216,29.549z
			 M224.62,31.842c0-1.604,0.156-2.904,0.546-3.822c0.387-0.917,0.854-1.604,1.478-2.063s1.4-0.688,2.179-0.688
			c0.777,0,1.556,0.229,2.179,0.688s1.166,1.146,1.557,2.063c0.388,0.918,0.544,2.141,0.544,3.746c0,1.529-0.154,2.829-0.544,3.746
			c-0.389,0.918-0.934,1.605-1.557,2.064c-0.7,0.458-1.401,0.688-2.179,0.688c-0.778,0-1.556-0.229-2.179-0.688
			c-0.623-0.459-1.167-1.146-1.478-2.064C224.776,34.748,224.62,33.524,224.62,31.842z M225.787,31.919
			c0,1.376,0.156,2.446,0.391,3.21c0.232,0.765,0.622,1.301,1.089,1.605c0.467,0.383,1.012,0.535,1.556,0.535
			c0.545,0,1.089-0.152,1.556-0.535c0.468-0.382,0.856-0.916,1.089-1.605c0.313-0.917,0.468-1.987,0.468-3.21
			c0-1.224-0.154-2.293-0.389-3.059c-0.312-0.765-0.7-1.375-1.168-1.758c-0.467-0.383-1.012-0.536-1.556-0.536
			s-1.089,0.154-1.556,0.536c-0.468,0.383-0.856,0.917-1.089,1.605C225.943,29.396,225.788,30.466,225.787,31.919L225.787,31.919z
			 M235.825,25.649h2.49v12.463h-1.244V26.873h-1.946L235.825,25.649z M247.964,31.23c0.856,0.382,1.479,0.917,1.79,1.452
			c0.312,0.535,0.545,1.148,0.545,1.836c0,0.993-0.312,1.834-0.935,2.521c-0.777,0.918-1.867,1.377-3.268,1.377
			s-2.412-0.383-3.112-1.146c-0.701-0.765-1.09-1.682-1.09-2.599c0-0.689,0.156-1.301,0.546-1.836
			c0.387-0.535,1.012-1.07,1.867-1.452c-0.623-0.306-1.09-0.688-1.401-1.146c-0.305-0.452-0.468-0.985-0.466-1.53
			c0-0.534,0.154-1.068,0.466-1.604s0.778-0.917,1.323-1.224c0.544-0.306,1.167-0.459,1.867-0.459c0.623,0,1.246,0.153,1.79,0.459
			c0.545,0.307,1.012,0.688,1.323,1.224c0.312,0.534,0.466,1.07,0.466,1.605s-0.154,1.069-0.466,1.529
			C248.976,30.542,248.51,30.925,247.964,31.23L247.964,31.23z M246.097,31.919c-0.855,0-1.556,0.306-2.179,0.84
			c-0.545,0.536-0.856,1.224-0.856,1.913c0,0.457,0.156,0.917,0.389,1.298c0.234,0.383,0.625,0.688,1.012,0.917
			c0.468,0.23,0.935,0.307,1.558,0.307c0.933,0,1.635-0.307,2.179-0.841c0.543-0.534,0.777-1.146,0.777-1.91
			c0-0.689-0.312-1.301-0.855-1.835C247.652,32.147,246.952,31.919,246.097,31.919L246.097,31.919z M246.097,26.566
			c-0.7,0-1.246,0.23-1.712,0.612c-0.441,0.354-0.699,0.888-0.7,1.452c0,0.536,0.233,1.07,0.7,1.53
			c0.458,0.444,1.073,0.691,1.712,0.688c0.389,0,0.778-0.078,1.168-0.308c0.388-0.229,0.622-0.458,0.855-0.841
			c0.234-0.383,0.312-0.688,0.312-1.07c0-0.534-0.233-0.992-0.623-1.376C247.42,26.797,246.875,26.566,246.097,26.566z"/>
	</g>
	<g>
		<g>
			<path fill="#4E5152" d="M6.743,37.848H4.107L0,26.854h3.333l1.473,4.104c0.077,0.31,0.231,0.619,0.309,1.007
				c0.078,0.387,0.232,0.695,0.31,1.083h0.078c0.078-0.386,0.232-0.696,0.31-1.085c0.078-0.386,0.232-0.695,0.31-1.005l1.55-4.104
				h3.255L6.743,37.848z M21.932,32.351c0,0.851-0.155,1.626-0.465,2.323c-0.31,0.695-0.697,1.316-1.24,1.857
				c-0.52,0.527-1.157,0.926-1.86,1.162c-0.697,0.31-1.472,0.387-2.247,0.387c-0.775,0-1.55-0.155-2.248-0.387
				c-0.673-0.295-1.3-0.687-1.86-1.162c-0.542-0.543-0.93-1.083-1.239-1.857c-0.311-0.697-0.466-1.473-0.466-2.323
				c0-0.852,0.155-1.626,0.466-2.323c0.309-0.696,0.697-1.316,1.239-1.857c0.52-0.528,1.158-0.927,1.86-1.162
				c0.698-0.309,1.473-0.387,2.248-0.387c0.775,0,1.55,0.154,2.247,0.387c0.698,0.311,1.317,0.697,1.86,1.162
				c0.542,0.542,0.931,1.161,1.24,1.858C21.777,30.725,21.932,31.499,21.932,32.351z M18.522,32.351
				c0-0.389-0.078-0.774-0.232-1.161c-0.156-0.311-0.311-0.62-0.543-0.853s-0.465-0.465-0.775-0.619
				c-0.287-0.149-0.605-0.229-0.929-0.232c-0.31,0-0.62,0.078-0.93,0.232s-0.542,0.311-0.775,0.619
				c-0.232,0.232-0.388,0.542-0.542,0.853c-0.155,0.31-0.233,0.696-0.233,1.161c0,0.386,0.078,0.775,0.233,1.085
				c0.154,0.309,0.31,0.618,0.542,0.851s0.465,0.465,0.775,0.542c0.31,0.155,0.62,0.232,0.931,0.232c0.31,0,0.619-0.077,0.93-0.232
				c0.31-0.154,0.542-0.31,0.775-0.542c0.232-0.232,0.387-0.542,0.542-0.853C18.523,33.047,18.523,32.738,18.522,32.351
				L18.522,32.351z"/>
			<path fill="#4E5152" d="M28.674,36.764c-0.697,1.937-1.549,3.406-2.48,4.568c-0.931,1.083-2.015,1.857-3.332,2.168l-1.396-2.245
				c0.388-0.155,0.775-0.31,1.162-0.542c0.31-0.232,0.698-0.465,0.931-0.775c0.309-0.31,0.542-0.695,0.853-1.162
				c0.232-0.463,0.542-1.005,0.774-1.625l-3.953-10.297h3.41l1.627,4.258c0.155,0.311,0.233,0.62,0.31,1.007
				c0.078,0.311,0.233,0.697,0.31,1.085h0.078c0.078-0.388,0.156-0.774,0.31-1.085c0.078-0.31,0.232-0.696,0.31-1.007l1.627-4.258
				h3.255L28.674,36.764L28.674,36.764z M40.919,38.08c-1.085-0.077-1.86-0.465-2.247-1.239c-0.389,0.388-0.775,0.697-1.318,0.93
				c-0.542,0.232-1.084,0.31-1.705,0.31c-0.542,0-1.008-0.077-1.55-0.232c-0.465-0.154-0.853-0.387-1.24-0.697
				c-0.388-0.31-0.62-0.697-0.853-1.16c-0.233-0.465-0.31-0.93-0.31-1.472c0-1.007,0.31-1.782,1.007-2.4
				c0.698-0.619,1.55-1.007,2.636-1.084l2.169-0.232v-0.388c0-0.31-0.155-0.618-0.387-0.851s-0.697-0.311-1.317-0.311
				s-1.24,0.078-1.782,0.232c-0.542,0.154-1.008,0.311-1.395,0.543l-0.233-2.71c0.388-0.232,0.931-0.389,1.627-0.543
				c0.661-0.153,1.337-0.231,2.016-0.231c1.473,0,2.712,0.386,3.565,1.161c0.853,0.774,1.317,1.858,1.317,3.252v3.097
				c0,0.465,0.078,0.852,0.31,1.084s0.542,0.465,0.931,0.465L40.919,38.08L40.919,38.08z M37.665,32.969l-1.474,0.157
				c-0.542,0.075-0.851,0.232-1.084,0.463c-0.205,0.268-0.314,0.593-0.31,0.93c0,0.31,0.078,0.542,0.31,0.774
				c0.233,0.232,0.465,0.31,0.853,0.31c0.465,0,0.853-0.154,1.162-0.465c0.387-0.31,0.543-0.696,0.543-1.161V32.969z"/>
			<path fill="#4E5152" d="M51.691,39.551c0,0.542-0.155,1.084-0.388,1.549c-0.248,0.478-0.59,0.898-1.007,1.238
				c-0.465,0.387-1.007,0.619-1.627,0.852S47.352,43.5,46.577,43.5c-0.775,0-1.473-0.078-2.17-0.311
				c-0.573-0.221-1.119-0.506-1.627-0.852c-0.465-0.388-0.775-0.773-1.085-1.315c-0.233-0.542-0.388-1.007-0.388-1.627
				c0-0.773,0.232-1.471,0.62-2.013c0.388-0.542,0.93-0.93,1.473-1.084l-1.24-1.238c0.078-0.387,0.232-0.697,0.466-1.007
				c0.232-0.31,0.542-0.465,0.774-0.695c-0.419-0.331-0.785-0.723-1.084-1.162c-0.31-0.465-0.465-1.007-0.465-1.704
				c0-0.62,0.077-1.161,0.31-1.626c0.232-0.464,0.466-0.929,0.853-1.316c0.388-0.388,0.852-0.62,1.396-0.851
				c0.542-0.232,1.162-0.31,1.86-0.31c0.31,0,0.62,0,0.852,0.077s0.542,0.232,0.774,0.232c0.232,0.076,0.466,0.076,0.698,0.153
				c0.232,0,0.542,0.077,0.774,0.077c0.389,0,0.698,0,1.008-0.076c0.311-0.078,0.62-0.154,0.853-0.31l0.232,2.787
				c-0.077,0.077-0.232,0.154-0.465,0.154c-0.232,0.078-0.388,0.078-0.62,0.078c0.155,0.232,0.155,0.543,0.155,0.929
				c0,0.542-0.077,1.007-0.232,1.472c-0.138,0.437-0.377,0.835-0.697,1.162c-0.327,0.325-0.691,0.61-1.084,0.851
				c-0.466,0.232-0.931,0.31-1.396,0.387c-0.232,0-0.388,0.078-0.542,0.155c-0.155,0.077-0.233,0.155-0.233,0.31
				c0,0.155,0.078,0.31,0.31,0.31l1.706,0.62c1.006,0.386,1.86,0.851,2.402,1.471C51.381,37.693,51.691,38.543,51.691,39.551z
				 M48.592,39.551c0-0.311-0.078-0.543-0.311-0.775s-0.465-0.463-0.852-0.542l-1.396-0.386c-0.465,0-0.853,0.155-1.163,0.465
				c-0.31,0.31-0.464,0.62-0.464,1.085c0,0.386,0.155,0.772,0.542,1.083c0.388,0.31,0.852,0.465,1.627,0.465
				c0.697,0,1.163-0.155,1.55-0.388C48.359,40.248,48.592,39.938,48.592,39.551z M47.816,30.414c0-0.386-0.155-0.774-0.465-1.006
				c-0.31-0.31-0.62-0.387-1.084-0.387c-0.466,0-0.776,0.154-1.085,0.387c-0.311,0.31-0.465,0.62-0.465,1.006
				c0,0.388,0.154,0.775,0.464,1.008c0.31,0.31,0.62,0.387,1.085,0.387c0.389,0,0.775-0.154,1.085-0.387
				C47.661,31.189,47.816,30.802,47.816,30.414z"/>
			<path fill="#4E5152" d="M61.688,30.879c0,0.388-0.077,0.696-0.155,1.085l-1.395,1.395H54.79c0.078,0.23,0.155,0.463,0.31,0.695
				c0.155,0.232,0.389,0.465,0.62,0.697c0.233,0.154,0.542,0.387,0.931,0.465c0.387,0.154,0.774,0.154,1.239,0.154
				c0.62,0,1.162-0.077,1.706-0.232c0.504-0.174,0.996-0.381,1.472-0.619l-0.31,2.864c-0.388,0.155-0.775,0.311-1.317,0.465
				c-0.542,0.155-1.163,0.155-1.86,0.155c-0.853,0-1.705-0.155-2.48-0.388c-0.774-0.31-1.473-0.697-2.015-1.162
				c-0.542-0.542-1.008-1.16-1.318-1.857c-0.31-0.695-0.465-1.549-0.465-2.399c0-0.853,0.155-1.704,0.465-2.4
				c0.31-0.697,0.698-1.316,1.24-1.781c0.543-0.465,1.085-0.853,1.783-1.161c0.698-0.232,1.396-0.387,2.17-0.387
				c0.775,0,1.396,0.153,2.016,0.387c0.62,0.232,1.084,0.542,1.55,0.929c0.396,0.4,0.712,0.874,0.93,1.394
				C61.533,29.718,61.688,30.26,61.688,30.879L61.688,30.879z M58.511,30.802c0-0.465-0.155-0.773-0.465-1.162
				c-0.31-0.309-0.698-0.464-1.163-0.464c-0.542,0-1.007,0.155-1.395,0.542c-0.433,0.344-0.711,0.846-0.775,1.394h3.797
				C58.433,31.034,58.511,30.957,58.511,30.802z M69.128,29.718h-0.31c-0.465,0-0.93,0.078-1.317,0.232
				c-0.466,0.154-0.776,0.387-1.164,0.696c-0.31,0.311-0.62,0.697-0.774,1.162c-0.232,0.463-0.31,1.007-0.31,1.703v4.257h-3.41
				V26.932h3.178l0.078,1.703c0.31-0.697,0.853-1.161,1.473-1.471s1.395-0.465,2.325-0.465L69.128,29.718L69.128,29.718z"/>
		</g>
		<path fill="#4AC7E9" d="M72.228,36.066c0,0.156-0.077,0.387-0.232,0.542c-0.155,0.232-0.31,0.465-0.542,0.62
			c-0.233,0.154-0.389,0.387-0.62,0.542c-0.233,0.154-0.389,0.232-0.62,0.232c-0.155,0-0.388-0.078-0.542-0.232
			c-0.233-0.155-0.465-0.31-0.62-0.542c-0.233-0.232-0.389-0.388-0.542-0.62c-0.156-0.232-0.233-0.386-0.233-0.542
			c0-0.153,0.078-0.388,0.232-0.543c0.155-0.23,0.31-0.463,0.542-0.618c0.233-0.231,0.389-0.387,0.62-0.542
			c0.233-0.154,0.389-0.232,0.542-0.232c0.155,0,0.389,0.078,0.621,0.232c0.232,0.155,0.464,0.311,0.62,0.542
			c0.232,0.232,0.387,0.388,0.542,0.62S72.228,35.911,72.228,36.066L72.228,36.066z"/>
	</g>
	<path fill="none" stroke="#179BD7" stroke-width="0.644" d="M80.133,21.878v21.045"/>
</g>
</svg>
