<svg xmlns="http://www.w3.org/2000/svg" width="186" height="20" viewBox="0 0 186 20">
    <g fill-rule="evenodd">
        <path d="M13.136 3.89c-.544-1.687-.952-2.204-2.584-2.367V.789h8.784v.734c-2.12.108-2.529.68-2.12 1.959L20.75 14.93h.19l3.02-9.818c.76-2.42.325-3.209-1.96-3.59V.789h6.746v.734c-2.013.408-2.72 1.197-3.618 3.97l-4.514 14.034H18.33L14.441 7.833l-4.215 11.694H7.914L2.8 3.835C2.285 2.257 1.85 1.85 0 1.523V.789h8.703v.734c-1.958.108-2.122.707-1.768 1.959l3.482 11.476h.19l3.29-8.811-.761-2.258zM30.566 11.912l4.46-.027c.3-2.72-.38-4.65-2.067-4.65-1.468 0-2.257 1.658-2.393 4.677m-3.834 1.197c0-4.134 2.72-6.718 6.418-6.718 3.834 0 5.765 2.747 5.575 6.31H30.54v.326c0 3.1 1.332 5.059 3.944 5.059 1.523 0 2.665-.816 3.698-2.23l.544.407c-1.197 1.904-2.883 3.21-5.575 3.21-3.97 0-6.418-2.366-6.418-6.364M44.054 11.912l4.46-.027c.3-2.72-.38-4.65-2.066-4.65-1.47 0-2.258 1.658-2.394 4.677m-3.834 1.197c0-4.134 2.72-6.718 6.418-6.718 3.834 0 5.765 2.747 5.575 6.31h-8.186v.326c0 3.1 1.332 5.059 3.944 5.059 1.523 0 2.665-.816 3.698-2.23l.544.407c-1.197 1.904-2.883 3.21-5.575 3.21-3.97 0-6.418-2.366-6.418-6.364M58.794 17.596c0 .68.407.952 1.332.98v.652H53.3v-.68c1.55-.027 1.876-.272 1.876-.98V2.286c0-.844-.299-1.306-2.012-1.333v-.68L58.794 0v13.136l3.562-3.645c1.034-1.087.762-1.822-.952-2.175v-.653h6.255v.653c-1.659.272-2.53.87-3.97 2.285l-1.387 1.305 4.024 6.092c.816 1.224 1.116 1.441 2.285 1.55v.68h-6.907v-.653c1.196-.081 1.414-.435.815-1.387l-2.556-3.998-1.17 1.143v3.263zM75.517 2.339c0-1.333.87-2.203 2.148-2.203 1.305 0 2.149.816 2.149 2.121 0 1.333-.844 2.203-2.149 2.203-1.278 0-2.148-.788-2.148-2.121zm-1.55 16.21c1.55-.028 1.957-.273 1.957-.98V8.866c0-.816-.407-1.305-1.958-1.332v-.68l5.576-.245v10.96c0 .707.299.952 1.876.98v.679h-7.452v-.68zM82.423 18.548c1.55-.028 1.877-.272 1.877-.98V8.867c0-.816-.327-1.305-1.877-1.332v-.68l5.44-.245v2.393c1.277-1.441 2.99-2.475 4.758-2.475 2.258 0 3.319 1.387 3.319 3.944v7.098c0 .707.299.951 1.876.98v.68h-6.989v-.68c1.088-.029 1.495-.273 1.495-.98V10.96c0-1.659-.543-2.475-1.903-2.475-.98 0-1.768.517-2.503 1.279v7.805c0 .707.408.951 1.47.98v.68h-6.963v-.68zM103.743 18.548c1.55-.028 1.877-.272 1.877-.98V8.867c0-.816-.327-1.305-1.877-1.332v-.68l5.44-.245v2.42c.924-1.468 2.256-2.529 3.725-2.529 1.605 0 2.42 1.006 2.42 2.257 0 1.251-.789 2.149-1.93 2.149-1.224 0-2.013-.789-2.013-1.822 0-.245.054-.572.136-.816-.843.054-1.686.734-2.285 1.577v7.724c0 .707.463.925 2.448.98v.68h-7.941v-.68zM119.977 11.912l4.46-.027c.3-2.72-.38-4.65-2.066-4.65-1.47 0-2.258 1.658-2.394 4.677m-3.834 1.197c0-4.134 2.72-6.718 6.418-6.718 3.835 0 5.765 2.747 5.575 6.31h-8.186v.326c0 3.1 1.332 5.059 3.944 5.059 1.523 0 2.665-.816 3.698-2.23l.544.407c-1.197 1.904-2.883 3.21-5.575 3.21-3.97 0-6.418-2.366-6.418-6.364M130.42 9.056c-.49-1.223-.925-1.522-2.176-1.74v-.653h7.37v.653c-1.169.136-1.632.326-1.632.87 0 .164.028.3.109.544l2.801 7.452h.109l2.366-6.092c.218-.626.327-1.088.327-1.387 0-.79-.517-1.197-1.823-1.387v-.653h5.25v.653c-.953.108-1.742.707-2.258 1.93l-4.188 10.145h-2.122L130.42 9.056zM144.75 2.339c0-1.333.87-2.203 2.15-2.203 1.305 0 2.148.816 2.148 2.121 0 1.333-.843 2.203-2.149 2.203-1.278 0-2.148-.788-2.148-2.121zm-1.55 16.21c1.55-.028 1.958-.273 1.958-.98V8.866c0-.816-.407-1.305-1.958-1.332v-.68l5.576-.245v10.96c0 .707.299.952 1.876.98v.679H143.2v-.68zM155.655 11.912l4.46-.027c.3-2.72-.38-4.65-2.067-4.65-1.468 0-2.257 1.658-2.393 4.677m-3.835 1.197c0-4.134 2.72-6.718 6.419-6.718 3.834 0 5.765 2.747 5.575 6.31h-8.187v.326c0 3.1 1.333 5.059 3.944 5.059 1.523 0 2.665-.816 3.699-2.23l.544.407c-1.197 1.904-2.883 3.21-5.575 3.21-3.97 0-6.419-2.366-6.419-6.364M174.066 9.056c-.463-1.278-.87-1.604-1.931-1.74v-.653h6.771v.653c-1.088.108-1.523.299-1.523.843 0 .163.055.353.11.598l2.311 7.072h.136l1.958-5.767c.217-.652.299-1.142.299-1.413 0-.79-.517-1.143-1.74-1.333v-.653h5.221v.653c-1.224.163-1.985.816-2.42 2.094l-3.481 9.981H177.6l-2.556-7.424-2.965 7.424h-2.148l-3.916-10.335c-.463-1.196-.871-1.55-2.122-1.74v-.653h6.908v.653c-.952.081-1.36.299-1.36.789 0 .163.082.407.163.652l2.611 7.153h.136l2.203-5.412-.49-1.442z"/>
    </g>
</svg>
