<?xml version="1.0" encoding="utf-8"?>
<!-- Generator: Adobe Illustrator 24.3.0, SVG Export Plug-In . SVG Version: 6.00 Build 0)  -->
<svg version="1.1" id="Layer_1" xmlns="http://www.w3.org/2000/svg" xmlns:xlink="http://www.w3.org/1999/xlink" x="0px" y="0px"
	 viewBox="0 0 2500 367" style="enable-background:new 0 0 2500 367;" xml:space="preserve">
<path d="M960.2,60.1v94H853.7v-94h-58.7V307h58.7v-99.3h106.6V307h58.8V60.1L960.2,60.1z M1234.3,60.1l-61.5,97.7l-61.4-97.7h-69.3
	l101.4,161.3v85.5h58.7v-85.5l101.4-161.3L1234.3,60.1z M1492.5,60.1V241c0,6.9-5.1,12.4-12.4,12.4H1386V60.2h-58.7V307h173.6
	c15.4,0,27.9-4.6,36.9-13.6c9-9.1,13.6-21.5,13.6-36.8V60.1L1492.5,60.1z M1779.3,60.1h-173.6v246.8h58.6V113.5h94.3
	c7.6,0,12.3,6,12.3,12.3v181.1h58.7V110.6c0-15.4-4.6-27.9-13.5-36.9C1807.1,64.6,1794.8,60.1,1779.3,60.1 M2057.8,60.1h-173.6
	v246.8h173.6c15.4,0,27.8-4.6,36.8-13.6c9.1-9.1,13.6-21.5,13.6-36.8V110.6c0-15.4-4.5-27.9-13.6-36.9
	C2085.6,64.6,2073.2,60.1,2057.8,60.1 M2049.5,126.3v114.3c0.2,6.8-5.1,12.5-11.9,12.8c-0.2,0-0.4,0-0.6,0h-94.2V113.6h93.8
	C2044.3,113.6,2049.5,118.9,2049.5,126.3 M2210.6,60.1c-15.4,0-27.9,4.5-36.9,13.6c-9.1,9.1-13.5,21.5-13.5,36.9v196.3h58.5v-76.3
	h106.7v76.3h58.7V60.1H2210.6z M2325.4,113.6v63.6h-106.7V126c0-6.1,4.7-12.5,12.6-12.5L2325.4,113.6z M2441.3,306.9h58.7V60.1
	h-58.7V306.9z M335.7,355.4c185.4,0,335.8-77,335.8-171.9c0-95-150.4-172-335.8-172C150.3,11.6,0,88.5,0,183.5
	C0,278.4,150.3,355.4,335.7,355.4 M399,271c-5.7,13-15.3,40.7-37.4,51.8c-7,3.2-14.7,5-22.4,5.1h-3.4c-61.9,0-119.7-8.6-167.9-23.3
	l-1.9-0.7c-4.5-1.5-6.7-3.5-6.7-6.1c0-2.2,1.2-3.9,2.8-5.5l3-2.7c11.2-9.3,44.8-33.6,108-57.9c22.2-8.4,49.9-19,79-25.2
	C369.1,203.1,432.3,193.5,399,271 M568.6,97.7c1.2-2.1,2.8-3.8,5.7-4c1.5-0.2,3.7,0.2,6.9,2.3c39.4,24.2,62.8,54.6,62.8,87.4
	c0,59.2-76.2,110.2-185.2,132.5c-7,1.4-11.7,1.3-13.2-0.4c-1.1-1-1.4-3,0-5.3c0.8-1.4,1.8-2.8,2.9-4
	c59.4-70,104.6-173.2,117.4-202.9C566.9,101.2,567.8,99.1,568.6,97.7 M273.5,95.6c5.7-13,15.3-40.7,37.4-51.7
	c6.7-3.3,15-4.9,22.4-5.1h3.3c62,0,119.7,8.5,168,23.3c0.4,0.2,1.5,0.5,1.9,0.7c4.4,1.5,6.7,3.5,6.7,6.1c0,2.2-1.2,3.9-2.7,5.4
	c-0.7,0.7-1.7,1.5-3.1,2.7c-11.1,9.4-44.7,33.6-107.9,57.9c-22.3,8.5-50,19-79,25.2C303.4,163.5,240.1,173.2,273.5,95.6 M212.7,50.9
	c7-1.3,11.6-1.3,13.3,0.4c1,1.1,1.3,3-0.1,5.3c-0.8,1.4-1.8,2.8-2.9,4c-59.4,70-104.6,173.2-117.5,203c-0.9,2.1-1.9,4.1-2.7,5.5
	c-1.1,2.1-2.7,3.9-5.6,4c-1.5,0.2-3.8-0.3-7-2.3c-39.4-24.2-62.7-54.5-62.7-87.4C27.5,124.2,103.7,73.2,212.7,50.9"/>
</svg>
