<svg width="153" height="21" viewBox="0 0 153 21" xmlns="http://www.w3.org/2000/svg" xmlns:xlink="http://www.w3.org/1999/xlink">
    <defs>
        <path id="n719d1bfpa" d="M0 20.778h152.712V.008H0z"/>
    </defs>
    <g fill="none" fill-rule="evenodd">
        <path fill="#000" d="M58.593 2v5.715h-6.185V2H49v15h3.408v-6.031h6.185V17H62V2h-.173zM75.757 2l-3.76 5.94L68.24 2H64l6.204 9.805V17h3.59v-5.195L80 2h-.331z"/>
        <g>
            <path d="M91.175 2.94v10.928c0 .415-.317.75-.764.75H84.66V2.94h-3.588v14.907h10.603c.946 0 1.704-.277 2.256-.82.55-.547.827-1.296.827-2.225V2.94H91.175zM108.69 2.94H98.084v14.907h3.587V6.168h5.756c.462 0 .76.358.76.747v10.932h3.584V5.988c0-.933-.28-1.68-.827-2.225-.557-.548-1.31-.823-2.254-.823M125.197 6.94v6.908c0 .402-.3.77-.767.77h-5.75v-8.45h5.728c.47 0 .789.325.789.771m.505-3.999h-10.605v14.908h10.605c.941 0 1.697-.278 2.248-.821.553-.547.831-1.296.831-2.225V5.988c0-.933-.278-1.68-.83-2.228-.553-.545-1.31-.82-2.25-.82M142.05 6.168v3.84h-6.518V6.925c0-.368.288-.757.765-.757h5.752zm-7.018-3.228c-.941 0-1.702.275-2.25.822-.554.547-.83 1.295-.83 2.226v11.86h3.58v-4.612h6.517v4.611h3.583V2.94h-10.6z" fill="#000"/>
            <mask id="ud7wsae5xb" fill="#fff">
                <use xlink:href="#n719d1bfpa"/>
            </mask>
            <path fill="#000" mask="url(#ud7wsae5xb)" d="M149.125 17.848h3.587V2.94h-3.587zM12.99 2.386c.428-.082.71-.081.811.026.06.068.078.18 0 .32a1.96 1.96 0 0 1-.18.242C9.995 7.202 7.234 13.437 6.448 15.238a4.283 4.283 0 0 1-.166.327c-.07.127-.169.233-.343.243-.097.006-.228-.017-.428-.137-2.407-1.468-3.838-3.297-3.838-5.28 0-3.582 4.657-6.661 11.317-8.005m3.719 2.695c.342-.782.93-2.458 2.283-3.124.41-.201.915-.297 1.368-.31.102-.004.174 0 .204 0 3.786 0 7.309.518 10.26 1.408l.112.041c.272.09.413.214.413.367 0 .134-.073.234-.17.33-.041.04-.104.094-.187.162-.68.564-2.731 2.03-6.594 3.493-1.356.513-3.05 1.15-4.824 1.521-1.044.218-4.904.799-2.865-3.888m18.02.133c.073-.126.17-.231.346-.242.097-.007.229.016.427.138 2.409 1.466 3.836 3.295 3.836 5.278 0 3.583-4.657 6.66-11.314 8.007-.427.082-.711.08-.809-.026-.066-.067-.084-.182 0-.322.042-.073.09-.14.178-.244 3.626-4.228 6.387-10.46 7.172-12.26.06-.125.119-.248.165-.329M24.368 15.682c-.341.785-.93 2.46-2.283 3.127-.408.199-.915.297-1.368.31-.102.003-.174 0-.205 0-3.786 0-7.309-.52-10.257-1.407-.025-.007-.093-.034-.114-.042-.272-.09-.41-.215-.41-.367 0-.136.07-.236.167-.33.04-.042.104-.093.186-.164.682-.561 2.732-2.032 6.596-3.493 1.355-.512 3.05-1.15 4.825-1.52 1.04-.217 4.902-.8 2.863 3.886m-3.86 5.096c11.327 0 20.508-4.65 20.508-10.386 0-5.735-9.181-10.384-20.508-10.384C9.182.008 0 4.657 0 10.392c0 5.737 9.182 10.386 20.508 10.386"/>
        </g>
    </g>
</svg>
