<?xml version="1.0" encoding="utf-8"?>
<!-- Generator: Adobe Illustrator 16.0.0, SVG Export Plug-In . SVG Version: 6.00 Build 0)  -->
<!DOCTYPE svg PUBLIC "-//W3C//DTD SVG 1.1//EN" "http://www.w3.org/Graphics/SVG/1.1/DTD/svg11.dtd">
<svg version="1.1" id="Layer_1" xmlns="http://www.w3.org/2000/svg" xmlns:xlink="http://www.w3.org/1999/xlink" x="0px" y="0px"
	 width="175px" height="41px" viewBox="0 0 175 41" enable-background="new 0 0 175 41" xml:space="preserve">
<g>
	<g>
		<defs>
			<rect id="SVGID_1_" x="0.336" y="-0.952" width="174.664" height="42.903"/>
		</defs>
		<clipPath id="SVGID_2_">
			<use xlink:href="#SVGID_1_"  overflow="visible"/>
		</clipPath>
		<path clip-path="url(#SVGID_2_)" d="M82.345,19.843l-4.225-1.044c-1.496-0.397-2.241-1.089-2.241-2.079
			c0-0.696,0.321-1.247,0.962-1.653c0.641-0.412,1.446-0.615,2.413-0.615c1.469,0,3.004,0.61,4.6,1.826
			c0.673,0.506,1.274,0.497,1.799-0.032l1.544-1.608c0.547-0.542,0.484-1.121-0.189-1.731c-0.755-0.736-1.807-1.355-3.154-1.862
			c-1.342-0.506-2.846-0.754-4.505-0.754c-2.48,0-4.527,0.632-6.131,1.906c-1.608,1.27-2.413,2.896-2.413,4.871
			c0,1.554,0.479,2.855,1.433,3.908c0.958,1.048,2.295,1.785,4.021,2.205l3.814,0.949c1.07,0.271,1.865,0.602,2.381,0.99
			c0.515,0.387,0.772,0.922,0.772,1.594c0,0.629-0.315,1.174-0.943,1.641c-0.633,0.461-1.514,0.691-2.648,0.691
			c-1.979,0-3.745-0.754-5.3-2.268c-0.546-0.547-1.08-0.633-1.608-0.254l-2.015,1.576c-0.316,0.295-0.456,0.615-0.425,0.963
			c0.032,0.344,0.194,0.664,0.488,0.957c0.84,0.904,2.001,1.668,3.483,2.287c1.482,0.619,3.208,0.932,5.188,0.932
			c2.838,0,5.038-0.691,6.602-2.08c1.567-1.387,2.349-3.025,2.349-4.918C88.395,23.023,86.38,20.891,82.345,19.843"/>
	</g>
	<g>
		<defs>
			<rect id="SVGID_3_" x="0.336" y="-0.952" width="174.664" height="42.903"/>
		</defs>
		<clipPath id="SVGID_4_">
			<use xlink:href="#SVGID_3_"  overflow="visible"/>
		</clipPath>
		<path clip-path="url(#SVGID_4_)" d="M105.875,12.858c-1.377-1.419-3.27-2.128-5.688-2.128h-8.639
			c-0.213,0-0.379,0.067-0.506,0.208c-0.127,0.136-0.189,0.298-0.189,0.488v20.648c0,0.207,0.062,0.385,0.189,0.52
			s0.293,0.203,0.506,0.203h3.338c0.191,0,0.354-0.068,0.492-0.203c0.137-0.135,0.205-0.312,0.205-0.52v-6.619h4.604
			c2.395,0,4.279-0.701,5.656-2.096c1.379-1.402,2.074-3.151,2.098-5.251C107.941,16.025,107.254,14.276,105.875,12.858
			 M102.076,20.408c-0.629,0.592-1.438,0.895-2.426,0.917h-4.066v-6.433h4.066c0.988,0,1.797,0.289,2.426,0.867
			c0.633,0.579,0.949,1.351,0.949,2.318C103.025,19.043,102.709,19.82,102.076,20.408"/>
	</g>
	<g>
		<defs>
			<rect id="SVGID_5_" x="0.336" y="-0.952" width="174.664" height="42.903"/>
		</defs>
		<clipPath id="SVGID_6_">
			<use xlink:href="#SVGID_5_"  overflow="visible"/>
		</clipPath>
		<path clip-path="url(#SVGID_6_)" d="M129.141,13.599c-2.258-2.205-5.029-3.307-8.305-3.307c-3.279,0-6.049,1.107-8.309,3.325
			c-2.26,2.214-3.389,4.934-3.389,8.147c0,3.217,1.129,5.932,3.389,8.15s5.029,3.326,8.309,3.326c3.275,0,6.047-1.104,8.305-3.312
			c2.26-2.205,3.389-4.926,3.389-8.164C132.529,18.528,131.4,15.808,129.141,13.599 M125.688,26.811
			c-1.281,1.363-2.898,2.047-4.852,2.047c-1.957,0-3.572-0.684-4.857-2.047c-1.283-1.369-1.92-3.051-1.92-5.047
			c0-1.998,0.637-3.678,1.92-5.043c1.285-1.364,2.9-2.051,4.857-2.051c1.953,0,3.57,0.687,4.852,2.051
			c1.285,1.365,1.926,3.045,1.926,5.043C127.613,23.76,126.973,25.441,125.688,26.811"/>
	</g>
	<g>
		<defs>
			<rect id="SVGID_7_" x="0.336" y="-0.952" width="174.664" height="42.903"/>
		</defs>
		<clipPath id="SVGID_8_">
			<use xlink:href="#SVGID_7_"  overflow="visible"/>
		</clipPath>
		<path clip-path="url(#SVGID_8_)" d="M153.754,31.854l-5.049-8.07c1.076-0.357,1.961-0.926,2.666-1.703s1.18-1.546,1.42-2.3
			c0.24-0.759,0.361-1.522,0.361-2.305c0-1.929-0.695-3.538-2.098-4.821c-1.395-1.283-3.252-1.925-5.561-1.925h-9.9
			c-0.213,0-0.379,0.077-0.506,0.222c-0.127,0.149-0.189,0.307-0.189,0.474v20.649c0,0.207,0.062,0.383,0.189,0.52
			c0.127,0.135,0.293,0.203,0.506,0.203h3.312c0.207,0,0.379-0.068,0.52-0.203c0.135-0.137,0.203-0.312,0.203-0.52V24.57h4.225
			l4.541,7.504c0.293,0.484,0.691,0.723,1.197,0.723h3.656c0.273,0,0.461-0.104,0.568-0.312
			C153.92,32.273,153.896,32.064,153.754,31.854 M147.273,19.92c-0.619,0.556-1.414,0.835-2.381,0.835h-5.264v-5.864h5.326
			c0.945,0,1.727,0.257,2.336,0.772c0.607,0.515,0.912,1.215,0.912,2.096C148.203,18.646,147.893,19.364,147.273,19.92"/>
	</g>
	<g>
		<defs>
			<rect id="SVGID_9_" x="0.336" y="-0.952" width="174.664" height="42.903"/>
		</defs>
		<clipPath id="SVGID_10_">
			<use xlink:href="#SVGID_9_"  overflow="visible"/>
		</clipPath>
		<path clip-path="url(#SVGID_10_)" d="M172.85,10.937c-0.137-0.14-0.299-0.208-0.488-0.208h-17.463
			c-0.189,0-0.354,0.068-0.494,0.208c-0.135,0.136-0.201,0.308-0.201,0.52v2.901c0,0.208,0.066,0.384,0.201,0.519
			c0.141,0.136,0.305,0.204,0.494,0.204h6.303v16.994c0,0.207,0.062,0.383,0.189,0.52c0.127,0.135,0.293,0.203,0.506,0.203h3.434
			c0.213,0,0.385-0.068,0.52-0.203c0.137-0.137,0.209-0.312,0.209-0.52V15.081h6.303c0.189,0,0.352-0.067,0.488-0.204
			c0.135-0.135,0.207-0.312,0.207-0.519v-2.901C173.057,11.245,172.984,11.073,172.85,10.937"/>
	</g>
	<g>
		<defs>
			<rect id="SVGID_11_" x="0.336" y="-0.952" width="174.664" height="42.903"/>
		</defs>
		<clipPath id="SVGID_12_">
			<use xlink:href="#SVGID_11_"  overflow="visible"/>
		</clipPath>
		<path clip-path="url(#SVGID_12_)" d="M18.372,20.484l-5.17-2.157c-1.509-0.651-2.085-1.084-1.996-1.613
			c0.083-0.492,0.467-0.947,1.904-0.947l10.645-0.002c0.27,0,0.502-0.188,0.559-0.451l0.827-3.909
			c0.078-0.357-0.194-0.694-0.56-0.694l-10.992,0.003c-5.222,0.031-7.326,2.817-7.972,5.755c-0.822,3.717,2.151,5.438,4.276,6.324
			l5.673,2.301c1.387,0.561,1.606,1.072,1.458,1.645c-0.162,0.619-0.657,1.033-2.422,1.033H3.675c-0.269,0-0.501,0.188-0.559,0.451
			l-0.83,3.906c-0.078,0.357,0.194,0.695,0.559,0.695h11.757v-0.002c5.397-0.049,7.272-2.846,7.943-5.891
			C23.4,23.066,21.005,21.594,18.372,20.484"/>
	</g>
	<g>
		<defs>
			<rect id="SVGID_13_" x="0.336" y="-0.952" width="174.664" height="42.903"/>
		</defs>
		<clipPath id="SVGID_14_">
			<use xlink:href="#SVGID_13_"  overflow="visible"/>
		</clipPath>
		<path clip-path="url(#SVGID_14_)" d="M67.93,10.71H62.9c-0.164,0-0.32,0.07-0.429,0.193l-8.107,9.169l-5.44-9.084
			c-0.103-0.173-0.29-0.278-0.49-0.278h-1.97h-2.936h-2.088c-0.164,0-0.32,0.07-0.429,0.193l-9.454,10.69l6.559,10.955
			c0.104,0.172,0.29,0.277,0.491,0.277h5.218c0.444,0,0.719-0.484,0.49-0.865L38.11,21.594l6.512-7.365l6.464,10.814l-3.035,14.279
			c-0.076,0.357,0.196,0.691,0.561,0.691h0.037h4.233c0.27,0,0.504-0.188,0.56-0.453l3.088-14.527l11.828-13.372
			C68.685,11.293,68.423,10.71,67.93,10.71"/>
	</g>
	<g>
		<defs>
			<rect id="SVGID_15_" x="0.336" y="-0.952" width="174.664" height="42.903"/>
		</defs>
		<clipPath id="SVGID_16_">
			<use xlink:href="#SVGID_15_"  overflow="visible"/>
		</clipPath>
		<path clip-path="url(#SVGID_16_)" d="M35.229,0.986h-4.436c-0.271,0-0.504,0.189-0.561,0.454l-6.524,30.691
			c-0.076,0.357,0.196,0.693,0.561,0.693h4.436c0.271,0,0.504-0.189,0.561-0.455L35.79,1.678
			C35.866,1.322,35.594,0.986,35.229,0.986"/>
	</g>
</g>
</svg>
