<?xml version="1.0" encoding="utf-8"?>
<!-- Generator: Adobe Illustrator 16.0.0, SVG Export Plug-In . SVG Version: 6.00 Build 0)  -->
<!DOCTYPE svg PUBLIC "-//W3C//DTD SVG 1.1//EN" "http://www.w3.org/Graphics/SVG/1.1/DTD/svg11.dtd">
<svg version="1.1" id="Layer_1" xmlns="http://www.w3.org/2000/svg" xmlns:xlink="http://www.w3.org/1999/xlink" x="0px" y="0px"
	 width="85px" height="67px" viewBox="0 0 85 67" enable-background="new 0 0 85 67" xml:space="preserve">
<g>
	<g>
		<g>
			<defs>
				<rect fill="#3a3a3a" id="SVGID_1_" x="-0.297" width="85.595" height="67"/>
			</defs>
			<clipPath id="SVGID_2_">
				<use xlink:href="#SVGID_1_"  overflow="visible"/>
			</clipPath>
			<path fill="#3a3a3a" clip-path="url(#SVGID_2_)" d="M11.29,54.704l-3.353-0.827c-1.188-0.315-1.779-0.865-1.779-1.649
				c0-0.554,0.254-0.99,0.764-1.312c0.51-0.326,1.147-0.488,1.915-0.488c1.166,0,2.386,0.483,3.65,1.449
				c0.534,0.4,1.011,0.395,1.427-0.025l1.228-1.276c0.434-0.431,0.383-0.89-0.151-1.373c-0.599-0.585-1.434-1.075-2.503-1.478
				c-1.065-0.401-2.259-0.6-3.575-0.6c-1.969,0-3.593,0.502-4.866,1.514c-1.275,1.008-1.915,2.299-1.915,3.865
				c0,1.233,0.381,2.267,1.138,3.103c0.76,0.832,1.82,1.416,3.19,1.75l3.027,0.753c0.85,0.215,1.48,0.477,1.889,0.785
				c0.409,0.309,0.613,0.73,0.613,1.266c0,0.499-0.251,0.934-0.75,1.303c-0.502,0.365-1.201,0.549-2.101,0.549
				c-1.571,0-2.974-0.6-4.207-1.801c-0.435-0.435-0.857-0.502-1.276-0.201l-1.6,1.252c-0.251,0.232-0.362,0.488-0.337,0.765
				c0.024,0.272,0.153,0.526,0.387,0.761c0.667,0.717,1.588,1.322,2.765,1.813s2.546,0.739,4.117,0.739
				c2.252,0,3.999-0.549,5.239-1.65c1.244-1.102,1.863-2.402,1.863-3.904C16.093,57.229,14.493,55.536,11.29,54.704"/>
		</g>
	</g>
	<g>
		<g>
			<defs>
				<rect fill="#3a3a3a" id="SVGID_3_" x="-0.297" width="85.595" height="67"/>
			</defs>
			<clipPath id="SVGID_4_">
				<use xlink:href="#SVGID_3_"  overflow="visible"/>
			</clipPath>
			<path fill="#3a3a3a" clip-path="url(#SVGID_4_)" d="M29.966,49.16c-1.094-1.126-2.596-1.688-4.515-1.688h-6.855
				c-0.168,0-0.302,0.054-0.401,0.164c-0.101,0.107-0.151,0.236-0.151,0.388v16.388c0,0.165,0.051,0.305,0.151,0.412
				c0.1,0.108,0.233,0.162,0.401,0.162h2.649c0.151,0,0.28-0.054,0.392-0.162c0.106-0.107,0.16-0.247,0.16-0.412v-5.253h3.654
				c1.9,0,3.396-0.556,4.489-1.663c1.094-1.113,1.646-2.5,1.664-4.168C31.604,51.674,31.061,50.286,29.966,49.16 M26.95,55.152
				c-0.498,0.471-1.14,0.71-1.925,0.729h-3.229v-5.105h3.229c0.785,0,1.427,0.229,1.925,0.688c0.502,0.459,0.753,1.071,0.753,1.84
				C27.703,54.069,27.452,54.688,26.95,55.152"/>
		</g>
	</g>
	<g>
		<g>
			<defs>
				<rect fill="#3a3a3a" id="SVGID_5_" x="-0.297" width="85.595" height="67"/>
			</defs>
			<clipPath id="SVGID_6_">
				<use xlink:href="#SVGID_5_"  overflow="visible"/>
			</clipPath>
			<path fill="#3a3a3a" clip-path="url(#SVGID_6_)" d="M48.431,49.748c-1.794-1.75-3.992-2.625-6.593-2.625c-2.603,0-4.801,0.879-6.594,2.641
				c-1.793,1.757-2.688,3.916-2.688,6.466c0,2.553,0.896,4.708,2.688,6.469s3.991,2.64,6.594,2.64c2.601,0,4.799-0.875,6.593-2.629
				c1.793-1.75,2.688-3.908,2.688-6.479C51.12,53.661,50.224,51.502,48.431,49.748 M45.69,60.234
				c-1.02,1.083-2.303,1.625-3.853,1.625c-1.553,0-2.836-0.542-3.854-1.625c-1.02-1.087-1.524-2.42-1.524-4.005
				s0.506-2.919,1.524-4.003c1.019-1.082,2.302-1.627,3.854-1.627c1.55,0,2.833,0.545,3.853,1.627
				c1.019,1.084,1.527,2.418,1.527,4.003S46.709,59.148,45.69,60.234"/>
		</g>
	</g>
	<g>
		<g>
			<defs>
				<rect fill="#3a3a3a" id="SVGID_7_" x="-0.297" width="85.595" height="67"/>
			</defs>
			<clipPath id="SVGID_8_">
				<use xlink:href="#SVGID_7_"  overflow="visible"/>
			</clipPath>
			<path fill="#3a3a3a" clip-path="url(#SVGID_8_)" d="M67.964,64.235l-4.006-6.403c0.854-0.283,1.558-0.736,2.116-1.353
				c0.559-0.617,0.937-1.228,1.126-1.826c0.189-0.603,0.286-1.208,0.286-1.828c0-1.53-0.552-2.808-1.663-3.825
				c-1.108-1.02-2.582-1.527-4.415-1.527h-7.855c-0.169,0-0.303,0.061-0.401,0.175c-0.102,0.119-0.15,0.244-0.15,0.377v16.388
				c0,0.165,0.051,0.305,0.15,0.412c0.1,0.108,0.232,0.162,0.401,0.162h2.628c0.165,0,0.302-0.054,0.413-0.162
				c0.106-0.107,0.16-0.247,0.16-0.412v-5.955h3.354l3.604,5.955c0.232,0.385,0.549,0.574,0.95,0.574h2.9
				c0.219,0,0.366-0.083,0.452-0.248C68.096,64.569,68.078,64.404,67.964,64.235 M62.821,54.767c-0.491,0.44-1.122,0.663-1.89,0.663
				h-4.179v-4.655h4.229c0.75,0,1.37,0.205,1.854,0.612c0.48,0.41,0.726,0.966,0.726,1.664
				C63.561,53.754,63.312,54.324,62.821,54.767"/>
		</g>
	</g>
	<g>
		<g>
			<defs>
				<rect fill="#3a3a3a" id="SVGID_9_" x="-0.297" width="85.595" height="67"/>
			</defs>
			<clipPath id="SVGID_10_">
				<use xlink:href="#SVGID_9_"  overflow="visible"/>
			</clipPath>
			<path fill="#3a3a3a" clip-path="url(#SVGID_10_)" d="M83.119,47.637c-0.106-0.11-0.235-0.164-0.387-0.164h-13.86
				c-0.149,0-0.278,0.054-0.391,0.164c-0.107,0.107-0.161,0.244-0.161,0.412v2.303c0,0.165,0.054,0.306,0.161,0.412
				c0.111,0.107,0.24,0.162,0.391,0.162h5.003v13.485c0,0.165,0.05,0.306,0.15,0.412c0.101,0.108,0.231,0.162,0.401,0.162h2.726
				c0.168,0,0.305-0.054,0.412-0.162c0.106-0.106,0.165-0.247,0.165-0.412V50.926h5.003c0.149,0,0.279-0.055,0.387-0.162
				s0.165-0.247,0.165-0.412v-2.303C83.284,47.881,83.227,47.744,83.119,47.637"/>
		</g>
	</g>
	<g>
		<g>
			<defs>
				<rect fill="#3a3a3a" id="SVGID_11_" x="-0.297" width="85.595" height="67"/>
			</defs>
			<clipPath id="SVGID_12_">
				<use xlink:href="#SVGID_11_"  overflow="visible"/>
			</clipPath>
			<path fill="#3a3a3a" clip-path="url(#SVGID_12_)" d="M27.121,22.211l-5.356-2.235c-1.563-0.675-2.161-1.123-2.068-1.671
				c0.087-0.51,0.484-0.981,1.973-0.981l11.03-0.002c0.279,0,0.521-0.194,0.579-0.467l0.857-4.05c0.08-0.37-0.201-0.719-0.579-0.719
				L22.166,12.09c-5.411,0.031-7.59,2.918-8.26,5.963c-0.852,3.852,2.229,5.633,4.431,6.552l5.878,2.386
				c1.438,0.579,1.665,1.109,1.512,1.702c-0.167,0.644-0.681,1.071-2.51,1.071H11.896c-0.279,0-0.521,0.193-0.58,0.467l-0.859,4.049
				c-0.08,0.369,0.201,0.719,0.58,0.719h12.182l0,0c5.593-0.051,7.536-2.949,8.23-6.105C32.331,24.887,29.85,23.361,27.121,22.211"
				/>
		</g>
	</g>
	<g>
		<g>
			<defs>
				<rect fill="#3a3a3a" id="SVGID_13_" x="-0.297" width="85.595" height="67"/>
			</defs>
			<clipPath id="SVGID_14_">
				<use xlink:href="#SVGID_13_"  overflow="visible"/>
			</clipPath>
			<path fill="#3a3a3a" clip-path="url(#SVGID_14_)" d="M78.471,12.084H73.26c-0.171,0-0.332,0.073-0.444,0.2l-8.401,9.501l-5.637-9.412
				c-0.107-0.18-0.3-0.289-0.509-0.289h-2.04h-3.042h-2.164c-0.17,0-0.331,0.073-0.444,0.2l-9.795,11.078l6.796,11.351
				c0.106,0.179,0.3,0.287,0.508,0.287h5.407c0.461,0,0.745-0.502,0.509-0.896l-6.43-10.74l6.747-7.632l6.697,11.206l-3.146,14.795
				c-0.078,0.369,0.203,0.718,0.581,0.718h0.038h4.386c0.28,0,0.522-0.196,0.581-0.471l3.199-15.054l12.256-13.854
				C79.253,12.688,78.981,12.084,78.471,12.084"/>
		</g>
	</g>
	<g>
		<g>
			<defs>
				<rect fill="#3a3a3a" id="SVGID_15_" x="-0.297" width="85.595" height="67"/>
			</defs>
			<clipPath id="SVGID_16_">
				<use xlink:href="#SVGID_15_"  overflow="visible"/>
			</clipPath>
			<path fill="#3a3a3a" clip-path="url(#SVGID_16_)" d="M44.588,2.008h-4.596c-0.28,0-0.521,0.195-0.581,0.47l-6.76,31.801
				c-0.079,0.369,0.203,0.718,0.581,0.718h4.596c0.281,0,0.522-0.195,0.581-0.471l6.76-31.801
				C45.247,2.355,44.966,2.008,44.588,2.008"/>
		</g>
	</g>
</g>
</svg>
